<svg width="50" height="50" viewBox="0 0 50 50" fill="none" xmlns="http://www.w3.org/2000/svg">
<path d="M25.0018 2C21.8687 2 19.1341 4.06266 18.2239 7.00039H6.27767L6.055 7.69575C6.055 7.69575 5.00804 10.8679 5.00804 14.0009C5.00804 15.3331 5.55497 17.6497 7.20352 19.849C7.44182 20.1694 7.71137 20.4741 8.00047 20.7788L6.32065 24.1424C3.9064 24.4939 2.00781 26.4941 2.00781 29.0021L2 32.0023C2 36.0456 2.25393 40.1827 5.43777 43.2259C8.6177 46.2691 14.3955 48.0036 25.0057 48.0036C25.0096 48.0036 25.0135 48.0036 25.0174 48.0036C35.6198 48.0036 41.3898 46.2691 44.5697 43.2259C47.7536 40.1827 48.0075 36.0456 48.0075 32.0023C48.0114 32.0023 48.0114 32.0023 48.0075 32.0023L48.0036 29.0021C48.0036 26.4941 46.105 24.4939 43.6907 24.1424L42.007 20.7788C42.2961 20.4741 42.5657 20.1694 42.804 19.8491C44.4564 17.6497 45.0033 15.3331 45.0033 14.0009C45.0033 10.8679 43.9564 7.69576 43.9564 7.69576L43.7337 7.0004H31.7797C30.8694 4.06267 28.1348 2 25.0018 2ZM25.0018 4.00016C27.041 4.00016 28.8224 5.20728 29.631 7.00039H20.3725C21.1812 5.20728 22.9625 4.00016 25.0018 4.00016ZM7.77778 9.00054H18.6927C18.888 9.06305 19.099 9.06305 19.2943 9.00054H30.7132C30.9085 9.06305 31.1155 9.06305 31.3109 9.00054H42.2297C42.4641 9.82483 43.0032 11.8289 43.0032 14.0009C43.0032 14.669 42.55 16.8527 41.2023 18.6536C39.9756 20.2866 38.0731 21.7086 34.944 21.9508C34.6783 20.2905 33.2368 19.0013 31.5023 19.0013C31.3773 19.0052 31.2562 19.0287 31.1429 19.0755C29.5607 19.2474 28.2794 20.4467 28.0489 22.0016H21.9547C21.7086 20.3178 20.2553 19.0013 18.5052 19.0013C18.3841 19.0052 18.2591 19.0287 18.1458 19.0755C16.5832 19.2474 15.3135 20.4194 15.0596 21.9508C11.9344 21.7047 10.0319 20.2866 8.80521 18.6536C7.45744 16.8527 7.00819 14.669 7.00819 14.0009C7.00819 11.8289 7.54339 9.82483 7.77778 9.00054ZM18.5052 21.0015C19.349 21.0015 20.0053 21.6617 20.0053 22.5016V23.5017C20.0053 24.3416 19.349 25.0018 18.5052 25.0018C17.6653 25.0018 17.0051 24.3416 17.0051 23.5017V23.1696C17.0246 23.0602 17.0246 22.9508 17.0051 22.8454V22.5016C17.0051 21.6617 17.6653 21.0015 18.5052 21.0015ZM31.5023 21.0015C32.3422 21.0015 33.0024 21.6617 33.0024 22.5016V22.8336C32.9829 22.943 32.9829 23.0524 33.0024 23.1579V23.5017C33.0024 24.3416 32.3422 25.0018 31.5023 25.0018C30.6624 25.0018 30.0022 24.3416 30.0022 23.5017V22.5016C30.0022 21.6617 30.6624 21.0015 31.5023 21.0015ZM9.56699 22.1188C10.9851 23.0954 12.8094 23.7869 15.0479 23.947C15.2588 25.5292 16.548 26.7519 18.1458 26.9277C18.263 26.9746 18.3841 26.998 18.5052 27.002C20.2553 27.002 21.7086 25.6854 21.9547 24.0017H28.0489C28.2794 25.5565 29.5647 26.7597 31.1429 26.9277C31.2562 26.9746 31.3773 27.002 31.5023 27.002C33.272 27.002 34.733 25.6581 34.9557 23.947C37.1942 23.7869 39.0224 23.0954 40.4405 22.1188L41.4992 24.2244C39.3389 24.8924 38.0028 26.9434 38.0028 29.0021V38.0028C37.9989 38.3622 38.1864 38.6982 38.4989 38.8818C38.8115 39.0615 39.1943 39.0615 39.5068 38.8818C39.8194 38.6982 40.0069 38.3622 40.003 38.0028V29.0021C40.003 27.5059 41.0421 26.0058 42.9954 26.0019C42.9993 26.0019 42.9993 26.0019 43.0032 26.0019C44.6713 26.0019 46.0034 27.334 46.0034 29.0021L46.0073 32.0023C46.0073 35.9636 45.7573 39.3232 43.1907 41.7804C40.6202 44.2377 35.3932 46.0034 25.0057 46.0034C14.6182 46.0034 9.3873 44.2377 6.8207 41.7804C4.25019 39.3232 4.00018 35.9636 4.00018 32.0023L4.00799 29.0021C4.00799 27.334 5.33622 26.0019 7.00822 26.0019C8.9654 26.0019 10.0045 27.5059 10.0045 29.0021V38.0028C10.0006 38.3622 10.1921 38.6982 10.5007 38.8818C10.8132 39.0615 11.1999 39.0615 11.5125 38.8818C11.8211 38.6982 12.0125 38.3622 12.0047 38.0028V29.0021C12.0047 26.9434 10.6726 24.8924 8.51224 24.2244L9.56699 22.1188Z" fill="white"/>
</svg>
