<svg width="50" height="50" viewBox="0 0 50 50" fill="none" xmlns="http://www.w3.org/2000/svg">
<g clip-path="url(#clip0_345_178)">
<path d="M22.8143 0C22.3377 0.089847 21.9939 0.51176 22.0017 1.00008V39.003C22.0017 39.5539 22.451 40.0031 23.0018 40.0031H27.0021C27.5529 40.0031 28.0022 39.5539 28.0022 39.003V1.00008C28.0022 0.449255 27.5529 0 27.0021 0H23.0018C22.9705 0 22.9393 0 22.908 0C22.8768 0 22.8455 0 22.8143 0ZM24.0019 2.00016H26.002V38.003H24.0019V2.00016ZM22.8143 44.0034C22.3377 44.0933 21.9939 44.5152 22.0017 45.0035V49.0038C22.0017 49.5546 22.451 50.0039 23.0018 50.0039H27.0021C27.5529 50.0039 28.0022 49.5546 28.0022 49.0038V45.0035C28.0022 44.4527 27.5529 44.0034 27.0021 44.0034H23.0018C22.9705 44.0034 22.9393 44.0034 22.908 44.0034C22.8768 44.0034 22.8455 44.0034 22.8143 44.0034ZM24.0019 46.0036H26.002V48.0037H24.0019V46.0036Z" fill="white"/>
</g>
<defs>
<clipPath id="clip0_345_178">
<rect width="50" height="50" fill="white"/>
</clipPath>
</defs>
</svg>
