<svg width="50" height="50" viewBox="0 0 50 50" fill="none" xmlns="http://www.w3.org/2000/svg">
<path d="M40.5382 1.93004C39.8116 1.94176 39.085 2.19959 38.4677 2.66447C38.4365 2.68792 38.4091 2.71136 38.3818 2.7387L8.7584 30.9323C8.72323 30.9675 8.68808 31.0065 8.65683 31.0495C7.77785 31.7722 7.18405 32.8153 7.05123 34.0029H3.00014C2.44931 34.0029 2.00006 34.4521 2.00006 35.0029V38.0032C1.99615 38.3626 2.18366 38.6985 2.49619 38.8821C2.80871 39.0619 3.19155 39.0619 3.50408 38.8821C3.8166 38.6985 4.00412 38.3626 4.00021 38.0032V36.003H7.28171C7.77394 37.3859 8.91856 38.4485 10.3484 38.8314L10.3171 38.8704L4.37523 45.5936C3.82832 46.2108 3.87911 47.1601 4.50024 47.711C4.78152 47.961 5.14482 48.004 5.49641 48.004C5.9066 48.004 6.28553 47.8829 6.61759 47.5821L42.9095 6.48511C42.9485 6.44605 42.9759 6.39916 43.0071 6.35229C43.5853 7.69223 44.0033 9.58301 44.0033 12.0012C44.0033 14.3021 43.347 15.853 42.3313 17.1735C41.3195 18.4978 39.9014 19.576 38.3974 20.7011C36.8973 21.8262 35.3151 22.9981 34.0768 24.6115C32.9712 26.0531 32.186 27.8657 32.0297 30.1588C31.2484 30.401 30.5726 30.9167 30.0804 31.5769C29.3928 32.495 29.0022 33.6943 29.0022 35.003C29.0022 36.3117 29.3928 37.511 30.0804 38.429C30.5687 39.0814 31.2328 39.5932 32.0024 39.8393V43.0036C32.0024 43.5544 32.4517 44.0037 33.0025 44.0037C33.5689 44.0037 34.0026 44.4373 34.0026 45.0037C34.0026 45.5702 33.5689 46.0038 33.0025 46.0038C32.604 46.0038 32.2759 45.7811 32.1118 45.4569C31.8618 44.9686 31.2563 44.7733 30.764 45.0233C30.2718 45.2772 30.0804 45.8788 30.3304 46.371C30.8265 47.3399 31.8461 48.004 33.0025 48.004C34.6471 48.004 36.0027 46.6484 36.0027 45.0038C36.0027 43.7458 35.1081 42.863 34.0026 42.4215V39.8393C34.7722 39.5932 35.4363 39.0814 35.9246 38.429C36.6121 37.511 37.0028 36.3117 37.0028 35.003C37.0028 33.6943 36.6122 32.495 35.9246 31.5769C35.4402 30.9324 34.7839 30.4245 34.0221 30.1745C34.1628 28.3189 34.7761 26.9867 35.6629 25.8304C36.6786 24.5061 38.0967 23.4279 39.5968 22.3028C41.1008 21.1777 42.6829 20.0057 43.9213 18.3923C45.1597 16.775 46.0035 14.7006 46.0035 12.0012C46.0035 8.22357 45.1402 5.41475 43.7573 3.68024C43.0658 2.8169 42.2181 2.20747 41.2649 2.00042C41.0266 1.94964 40.7843 1.92613 40.5382 1.93004ZM40.5538 3.92238C40.6476 3.92238 40.7453 3.9341 40.8429 3.95363C40.9679 3.98098 41.1046 4.03567 41.2414 4.1099C41.0265 4.19193 40.8234 4.32475 40.6593 4.50837L39.8467 5.43032L39.1709 4.75058L39.6905 4.25835C40.0069 4.01614 40.2765 3.91848 40.5538 3.92238ZM37.7216 6.13348L38.5185 6.93043L29.5295 17.1109L27.8927 15.4819L37.7216 6.13348ZM26.4473 16.8609L28.2013 18.6149L18.7396 29.3267L16.1105 26.6976L26.4473 16.8609ZM14.6612 28.0766L17.4114 30.8307L15.6613 32.8113C15.1144 31.4753 13.9385 30.4596 12.5087 30.1275L14.6612 28.0766ZM11.5008 32.0027C12.8915 32.0027 14.001 33.1122 14.001 34.5029C14.001 35.3428 13.5947 36.0733 12.9697 36.5226C12.9189 36.5577 12.8681 36.5929 12.8173 36.628C12.7548 36.6632 12.6923 36.6945 12.6259 36.7257C12.5556 36.7648 12.4852 36.7999 12.411 36.8273C12.1297 36.9367 11.825 37.0031 11.5008 37.0031C10.1101 37.0031 9.00059 35.8936 9.00059 34.5029C9.00059 33.1122 10.1101 32.0027 11.5008 32.0027ZM32.9243 32.0144C32.9751 32.0144 33.0259 32.0144 33.0767 32.0144C33.5181 32.0378 33.9478 32.2722 34.3268 32.7723C34.5651 33.0926 34.7526 33.5223 34.8737 34.0028H31.1312C31.2523 33.5223 31.4398 33.0926 31.6781 32.7723C32.0532 32.2761 32.4868 32.0378 32.9243 32.0144ZM31.1312 36.003H34.8737C34.7526 36.4835 34.5651 36.9132 34.3268 37.2336C33.9283 37.7609 33.4713 38.0032 33.0025 38.0032C32.5337 38.0032 32.0766 37.7609 31.6781 37.2336C31.4398 36.9132 31.2523 36.4835 31.1312 36.003Z" fill="white"/>
</svg>
