<svg width="50" height="50" viewBox="0 0 50 50" fill="none" xmlns="http://www.w3.org/2000/svg">
<g clip-path="url(#clip0_325_163)">
<path d="M14.0241 5.99271C13.5748 5.9888 13.1764 6.2857 13.0514 6.71932C13.0514 6.71932 13.0514 6.71932 13.0474 6.71932L0.101367 33.385C-0.027551 33.6467 -0.0353614 33.9553 0.0818355 34.2209C0.199032 34.4905 0.429516 34.6936 0.710783 34.7796C0.710783 34.7796 6.48065 36.5336 7.84402 36.975C8.29717 37.1195 8.78548 36.932 9.02378 36.518C10.8364 33.3185 12.0786 29.7871 12.942 27.0486C13.7428 30.3848 15.0671 35.3382 17.4188 39.9517C17.536 40.1861 17.743 40.3658 17.997 40.4479C19.5713 40.9635 28.1148 43.7645 28.4702 43.8817C28.7125 44.0184 29.0015 44.0496 29.2672 43.9676C29.275 43.9676 29.2789 43.9637 29.2828 43.9637C29.2945 43.9598 29.3062 43.9559 29.318 43.952C29.3219 43.952 29.3258 43.9481 29.3297 43.9442L29.3766 43.9285L49.3309 36.9438C49.5926 36.8539 49.8036 36.6625 49.9169 36.4086C50.0262 36.1586 50.0301 35.8734 49.9247 35.6195L37.924 6.61774C37.8224 6.36773 37.6232 6.1724 37.3692 6.07084C37.1192 5.97317 36.838 5.97708 36.5919 6.08647C36.166 6.27789 34.8222 6.62947 33.1112 6.89902C31.4001 7.16466 29.2672 7.38733 27.0131 7.48889C22.5051 7.69203 17.4735 7.35998 14.4108 6.07865C14.4069 6.07474 14.3991 6.07474 14.3913 6.07084C14.3679 6.05912 14.3444 6.05131 14.3171 6.0435C14.3132 6.03959 14.3054 6.03959 14.2976 6.03959C14.2936 6.03568 14.2897 6.03568 14.2819 6.03178C14.1999 6.00833 14.1139 5.99661 14.0241 5.99271ZM36.3965 8.1569L47.6745 35.4085L29.5641 41.7487L15.782 8.62177C19.1572 9.50854 23.2942 9.65699 27.103 9.4851C29.4312 9.38354 31.6267 9.15305 33.4198 8.87569C34.7558 8.66474 35.5761 8.41473 36.3965 8.1569ZM13.9538 9.43432L27.2397 41.3737C25.0169 40.6432 20.7198 39.2369 19.0478 38.69C15.95 32.4083 14.0358 23.0718 14.0358 23.0718C13.9459 22.6148 13.5514 22.2827 13.0865 22.2671C12.6216 22.2554 12.2076 22.5601 12.0904 23.0132C12.0904 23.0132 10.141 29.9746 7.5901 34.803C5.89469 34.2756 3.52345 33.549 2.4101 33.2092L13.9538 9.43432Z" fill="#F8F8F8"/>
</g>
<defs>
<clipPath id="clip0_325_163">
<rect width="50" height="50" fill="white"/>
</clipPath>
</defs>
</svg>
