<svg width="50" height="50" viewBox="0 0 50 50" fill="none" xmlns="http://www.w3.org/2000/svg">
<path d="M36.0028 2C33.2525 2 31.0024 4.25017 31.0024 7.00039C31.0024 9.7506 33.2525 12.0008 36.0028 12.0008C38.753 12.0008 41.0031 9.7506 41.0031 7.00039C41.0031 4.25017 38.753 2 36.0028 2ZM36.0028 4.00016C37.6709 4.00016 39.003 5.33229 39.003 7.00039C39.003 8.66849 37.6709 10.0006 36.0028 10.0006C34.3347 10.0006 33.0025 8.66849 33.0025 7.00039C33.0025 5.33229 34.3347 4.00016 36.0028 4.00016ZM30.7836 12.0008C29.346 12.0008 27.9787 12.7352 27.1896 13.9384L19.4702 25.7518C19.4585 25.7636 19.4507 25.7714 19.439 25.7831C18.8256 26.7636 18.9272 27.9942 19.5952 28.8771L17.5638 31.8148L14.2823 29.5334C13.6377 29.0841 12.8525 28.9357 12.1259 29.0646C11.3993 29.1935 10.7313 29.6076 10.282 30.2522L4.62532 38.3466C3.51976 39.9365 3.94168 42.1477 5.53164 43.2532L7.09426 44.347C7.04348 44.5619 7.00051 44.7729 7.00051 45.0033C7.00051 46.648 8.35608 48.0036 10.0007 48.0036C11.6454 48.0036 13.001 46.648 13.001 45.0033C13.001 44.2533 12.7158 43.5618 12.2509 43.0344L18.4701 33.9712C18.5952 33.8619 18.6928 33.7212 18.7514 33.565L21.2829 29.9084C22.3415 30.1037 23.4666 29.6975 24.0956 28.7521C24.0995 28.7482 24.0917 28.7247 24.0956 28.7208H24.1268L27.4708 23.8767L27.1583 25.5018C26.8849 26.9551 27.0177 28.4435 27.5021 29.8147L25.9395 35.2838L20.4703 43.597C19.6695 44.8158 19.9234 46.4683 21.0641 47.3785C22.3103 48.3747 24.1698 48.1286 25.1269 46.8472L30.9711 39.0654C31.0102 39.0068 31.0414 38.9443 31.0649 38.8779L31.7212 37.3777L37.0653 46.5035C37.6044 47.4254 38.5889 48.0036 39.6593 48.0036C41.7923 48.0036 43.265 45.7378 42.4095 43.7845L35.9715 29.0959L36.534 26.1894L41.6907 30.4085C42.8002 31.3109 44.4565 31.1585 45.3785 30.0647C46.3121 28.9552 46.1793 27.2754 45.066 26.3456L39.5343 21.7203L37.9717 17.2199C37.6591 14.3525 35.2097 12.0008 32.1587 12.0008H30.7836ZM30.7836 14.0009H32.1587C34.1315 14.0009 35.6707 15.4346 35.9403 17.2512C35.9363 17.3801 35.9598 17.5051 36.0028 17.6262C36.0184 17.9231 35.9988 18.2239 35.9403 18.5325L33.9401 29.0334C33.9049 29.2248 33.9284 29.4201 34.0026 29.5959L40.5656 44.5971C40.8742 45.2963 40.425 46.0034 39.6593 46.0034C39.2999 46.0034 38.9639 45.8159 38.7842 45.5034L32.5337 34.8151C32.5337 34.8033 32.5337 34.7955 32.5337 34.7838L32.5025 34.7213C32.4673 34.6666 32.4244 34.6119 32.3775 34.565L29.8773 30.2522C29.764 30.0569 29.6546 29.8615 29.5648 29.6584C29.5491 29.5021 29.4944 29.3537 29.4085 29.2209C29.4046 29.2131 29.4124 29.1974 29.4085 29.1896C29.3968 29.1779 29.389 29.1701 29.3772 29.1584C29.01 28.1114 28.9202 26.9863 29.1272 25.8769L30.2836 19.6576C30.3773 19.1888 30.1273 18.7201 29.6859 18.5403C29.2444 18.3567 28.7366 18.513 28.4709 18.9076L22.4705 27.627C22.4587 27.6387 22.4509 27.6465 22.4392 27.6582C22.1931 28.0411 21.7165 28.1114 21.3454 27.8458C21.0094 27.6035 20.9078 27.1973 21.1266 26.8457L28.8772 15.0323C29.2952 14.3916 30.0179 14.0009 30.7836 14.0009ZM37.3779 21.6578L37.7216 22.6266C37.7841 22.7985 37.8935 22.9508 38.0342 23.0641L43.7846 27.877C44.0659 28.1153 44.0854 28.5021 43.8471 28.7833C43.6127 29.0607 43.2221 29.0763 42.9408 28.8458L37.0341 24.033C37.0028 24.0095 36.9716 23.99 36.9403 23.9705L37.3779 21.6578ZM12.4697 31.0023C12.6884 30.9632 12.9228 31.0179 13.126 31.1585L16.4387 33.4712L10.5008 42.0656C10.3367 42.0383 10.1726 42.0031 10.0007 42.0031C9.29756 42.0031 8.64126 42.2453 8.12559 42.6594L6.65673 41.6281C5.95355 41.1398 5.79338 40.2061 6.2817 39.5029L11.9071 31.3773C12.0478 31.1741 12.2509 31.0413 12.4697 31.0023ZM28.8147 32.4086L30.5023 35.2526L29.346 37.8778L29.3147 37.909L23.533 45.6596C23.24 46.0542 22.7009 46.1245 22.3142 45.8159C21.9665 45.5385 21.8806 45.0658 22.1267 44.6908L27.6584 36.2527C27.7131 36.1745 27.7521 36.0925 27.7834 36.0026L28.8147 32.4086ZM10.0007 44.0033C10.032 44.0033 10.0632 43.9994 10.0945 44.0033C10.2625 44.1986 10.4969 44.3197 10.7508 44.347C10.9031 44.5228 11.0008 44.7455 11.0008 45.0033C11.0008 45.5659 10.5633 46.0034 10.0007 46.0034C9.43819 46.0034 9.00066 45.5659 9.00066 45.0033C9.00066 44.4408 9.43819 44.0033 10.0007 44.0033Z" fill="#FEFEFE"/>
</svg>
