<?xml version="1.0" encoding="utf-8"?>
<!-- Generator: Adobe Illustrator 26.0.3, SVG Export Plug-In . SVG Version: 6.00 Build 0)  -->
<svg version="1.1" id="Слой_1" xmlns="http://www.w3.org/2000/svg" xmlns:xlink="http://www.w3.org/1999/xlink" x="0px" y="0px"
	 viewBox="0 0 766.7 908.8" style="enable-background:new 0 0 766.7 908.8;" xml:space="preserve">
<style type="text/css">
	.st0{fill:none;stroke:#FFFFFF;stroke-miterlimit:10;}
	.st1{fill:#FFFFFF;}
	.st2{fill:#A1DAF8;}
	.st3{fill:#71CBF4;}
	.st4{fill:none;stroke:#71CBF4;stroke-miterlimit:10;}
	.st5{fill:none;stroke:#88E0FF;stroke-miterlimit:10;}
	.st6{fill:#C9E8FB;}
	.st7{fill:none;stroke:#63B9E9;stroke-width:0.75;stroke-linecap:round;stroke-linejoin:round;}
	.st8{fill:none;stroke:#63B9E9;stroke-linecap:round;stroke-linejoin:round;}
	.st9{fill:none;stroke:#63B9E9;stroke-miterlimit:10;}
	.st10{fill:none;stroke:#1EAEFF;stroke-miterlimit:10;}
	.st11{fill:#2581C4;}
	.st12{clip-path:url(#SVGID_00000121240867401671024790000017651883840135818150_);}
	.st13{fill:#575756;}
	.st14{clip-path:url(#SVGID_00000151536080527460852240000002541652881720075398_);}
	.st15{fill-rule:evenodd;clip-rule:evenodd;fill:#575756;}
	.st16{fill:#333333;}
	.st17{clip-path:url(#SVGID_00000069386248837083779840000013581800979504359553_);}
	.st18{clip-path:url(#SVGID_00000085971982876844918340000011659087375413716670_);}
	.st19{clip-path:url(#SVGID_00000172431308664226973070000009743958197782233228_);}
	.st20{clip-path:url(#SVGID_00000041999127636046834480000017091964529240373688_);}
	.st21{clip-path:url(#SVGID_00000070117112763300369140000016560595543965433486_);}
	.st22{clip-path:url(#SVGID_00000150791512538613039040000008438940865767906946_);}
	.st23{clip-path:url(#SVGID_00000022555206401001349170000008353791618361208994_);}
	.st24{clip-path:url(#SVGID_00000088112536412912644850000004680243305350687629_);}
	.st25{clip-path:url(#SVGID_00000045605796182098916560000016180070633472732592_);}
	.st26{clip-path:url(#SVGID_00000106117014528916002850000012208932281655333261_);}
	.st27{fill:#FBCCCC;}
	.st28{fill:none;}
	.st29{fill:#E30613;}
</style>
<g id="Слой_2_00000168077594922965870950000015832434858439171752_">
</g>
<g id="Слой_1_00000132063144347668764980000004098331741034116240_">
	<g>
		<g>
			<path class="st0" d="M435.8,393.2c-3,1.5-3.4,2.5-5.6,3.6c-2,1-2.1,0.4-4.9,1.5c-1.9,0.7-3.7,1.7-5.2,3c-2.3,2.2-1.4,3.5-3.8,6.8
				c-1.9,2.6-2.7,2.1-4.8,4.9c-1.3,1.8-2.4,3.8-3.2,6c-1.6,4-1,4.9-2.5,6.4c-1.2,1.2-1.6,0.7-5,2.7c-1.5,0.7-2.8,1.8-3.9,3.1
				c-0.9,1.3-1.4,2.8-1.5,4.3c-0.1,1.4-0.3,3,0.6,3.6s2.9-0.5,4.5-1.4c1.9-1.2,3.5-2.7,5-4.4c3.2-3.3,2.5-3.2,3.7-4.1
				c3.5-2.8,6-1.4,8-4.1c0.2-0.3,0.9-1.3,2.2-3.4c0.4-0.8,1-1.6,1.7-2.3c0.9-0.8,2.1-1.3,3.2-1.5c1.5-0.4,2.9-0.7,4.5-0.9
				c1.6-0.3,1.7-0.6,7.1-3.5c4.4-2.3,5.6-2.7,6.1-4.2c0.2-1.1,0.1-2.3-0.3-3.3c-0.8-3.3-2.3-3.4-2.4-5.4c-0.1-2.6,2.4-3.5,1.9-5.9
				c-0.1-0.5-0.3-1-0.6-1.4c-0.3-0.4-0.7-0.7-1.2-1C438.5,392.2,437.7,392.3,435.8,393.2z"/>
			<path class="st1" d="M88.5,863.9c0.3,0.5,0.5,1.2,0.4,1.8c-0.2,1.3-1.2,2.1-2.5,3.1c-1.1,1-2.5,1.7-4,2c-0.6,0.1-2.8,0.3-3.6-1
				s0.2-3.1,0.4-3.4c1.1-2,3.3-2.5,4.8-2.8C85.3,863.3,87.6,862.8,88.5,863.9z"/>
			<path class="st1" d="M370.9,272.4c0.1,0.1,0.3,0.3,0.3,0.4c0.1,0.2,0.1,0.3,0.1,0.5s0,0.4-0.1,0.5c-0.1,0.2-0.2,0.3-0.3,0.5
				c-0.2,0.1-0.4,0.1-0.6,0.2c-0.2,0-0.4,0-0.6-0.1s-0.3-0.2-0.5-0.3c-0.1-0.1-0.2-0.3-0.3-0.5c0-0.2,0.1-0.4,0.2-0.6
				s0.3-0.3,0.4-0.4s0.4-0.2,0.6-0.2C370.5,272.4,370.7,272.4,370.9,272.4z"/>
			<path class="st1" d="M388.9,289.9c0.7,0.4,0.6,2.1-0.1,2.4c-0.2,0.1-0.4,0.1-0.6,0.1s-0.4-0.1-0.6-0.2s-0.3-0.3-0.4-0.5
				s-0.1-0.4-0.1-0.6s0.1-0.4,0.2-0.6s0.3-0.3,0.5-0.4s0.4-0.2,0.6-0.2S388.7,289.8,388.9,289.9z"/>
			<path class="st1" d="M405.1,288.9c0.2,0.4-0.2,1.4-1.1,1.6c-0.2,0-0.4,0-0.6,0s-0.4-0.1-0.6-0.3c-0.2-0.1-0.3-0.3-0.4-0.5
				s-0.2-0.4-0.2-0.6C402.5,288.5,404.7,288.2,405.1,288.9z"/>
			<path class="st2" d="M88.5,863.9c0.3,0.5,0.5,1.2,0.4,1.8c-0.2,1.3-1.2,2.1-2.5,3.1c-1.1,1-2.5,1.7-4,2c-0.6,0.1-2.8,0.3-3.6-1
				s0.2-3.1,0.4-3.4c1.1-2,3.3-2.5,4.8-2.8C85.3,863.3,87.6,862.8,88.5,863.9z"/>
			<path class="st3" d="M388.9,289.9c0.7,0.4,0.6,2.1-0.1,2.4c-0.2,0.1-0.4,0.1-0.6,0.1s-0.4-0.1-0.6-0.2s-0.3-0.3-0.4-0.5
				s-0.1-0.4-0.1-0.6s0.1-0.4,0.2-0.6s0.3-0.3,0.5-0.4s0.4-0.2,0.6-0.2S388.7,289.8,388.9,289.9z"/>
			<path class="st3" d="M405.1,288.9c0.2,0.4-0.2,1.4-1.1,1.6c-0.2,0-0.4,0-0.6,0s-0.4-0.1-0.6-0.3c-0.2-0.1-0.3-0.3-0.4-0.5
				s-0.2-0.4-0.2-0.6C402.5,288.5,404.7,288.2,405.1,288.9z"/>
			<path class="st4" d="M435.8,393.2c-3,1.5-3.4,2.5-5.6,3.6c-2,1-2.1,0.4-4.9,1.5c-1.9,0.7-3.7,1.7-5.2,3c-2.3,2.2-1.4,3.5-3.8,6.8
				c-1.9,2.6-2.7,2.1-4.8,4.9c-1.3,1.8-2.4,3.8-3.2,6c-1.6,4-1,4.9-2.5,6.4c-1.2,1.2-1.6,0.7-5,2.7c-1.5,0.7-2.8,1.8-3.9,3.1
				c-0.9,1.3-1.4,2.8-1.5,4.3c-0.1,1.4-0.3,3,0.6,3.6s2.9-0.5,4.5-1.4c1.9-1.2,3.5-2.7,5-4.4c3.2-3.3,2.5-3.2,3.7-4.1
				c3.5-2.8,6-1.4,8-4.1c0.2-0.3,0.9-1.3,2.2-3.4c0.4-0.8,1-1.6,1.7-2.3c0.9-0.8,2.1-1.3,3.2-1.5c1.5-0.4,2.9-0.7,4.5-0.9
				c1.6-0.3,1.7-0.6,7.1-3.5c4.4-2.3,5.6-2.7,6.1-4.2c0.2-1.1,0.1-2.3-0.3-3.3c-0.8-3.3-2.3-3.4-2.4-5.4c-0.1-2.6,2.4-3.5,1.9-5.9
				c-0.1-0.5-0.3-1-0.6-1.4c-0.3-0.4-0.7-0.7-1.2-1C438.5,392.2,437.7,392.3,435.8,393.2z"/>
			<path class="st5" d="M106.1,860.8c3-2.7,5.5-5,5.9-5.4c1.9-1.8,4-3.5,6.1-5.2c2.2-1.6,4.4-3,6.8-4.3c0,0,6.4-3.7,12.9-8.1
				c6-4.1,5.1-4,10.3-7.4s6.4-3.6,8.9-6.1c1.3-1.3,1-1.2,5.6-7.8c1.6-2.2,3.4-4.7,5.8-7.8c3.1-4.1,3.5-4.3,4.9-6.5
				c2.6-4,1.8-3.7,3.9-6.5c1.3-1.8,2.4-2.9,2.2-4.4c-0.2-1.1-0.6-2.1-1.3-3.1c-1-1.8-1.5-1.9-1.7-3c-0.3-1,0.1-1.1,0.4-3.4
				c0.4-2.9,0.1-3.3,0.7-4.9c0.4-1.1,0.9-2.2,1.8-2.6c1-0.4,1.8,0.5,3-0.1c0.5-0.3,1-0.6,1.3-1.1c0.6-0.5,1.1-1.3,1.3-2.1
				c0.2-1.5-1.7-2-1.6-3.4c0.1-0.7,0.8-1.2,2.3-2.3c0.9-0.7,1.9-1.2,3-1.7c1.9-0.9,2.1-0.8,2.6-1.3c1.1-1.4,0.4-3.5,0.3-3.8
				c-0.3-1.1-1.1-2-2-2.6c-0.5-0.3-0.8-0.3-2.7-0.7c-3.2-0.7-3.4-0.7-3.7-1c-1-1.1-0.8-3.3,0.1-4.7c0.9-1.1,2.1-1.8,3.4-2.1
				c1.7-0.6,1.9-0.2,3.4-0.7c2.7-0.8,2.9-2.2,5.2-2.5c0.7-0.1,2.1-0.3,2.8,0.5c1.2,1.4-0.9,5-1.2,5.5c-1.2,2.2-2.6,2.9-2.3,3.8
				c0.3,0.9,2.1,1,2.4,1.1c2.3,0.2,4.2-1.2,6-2.6c0.7-0.5,1.5-1.2,3.1-2.8c1.6-1.5,1.8-1.8,3.1-2.9c1-1,2.1-1.9,3.3-2.6
				c1.2-0.5,2.5-0.7,3.8-0.7c1.1,0.1,1.4,0.3,2.8,0.3c0.9,0.1,1.7,0,2.6-0.2c0.7-0.1,1.4-0.4,4-2.3c2.6-1.9,2.7-2.3,4-2.8
				c1-0.6,2.2-0.8,3.3-0.6c1.1,0.4,1.2,1.2,3.1,3.9c1.2,1.7,1.2,1.3,2.4,3.1c1.2,1.7,1.5,2.5,2.8,4s1.8,2.1,2.3,2
				c0.8-0.2,1.1-2,1.5-4.8c0.3-1.6,0.4-3.3,0.3-5c-0.3-1.6-0.7-3.1-1.4-4.5c-0.4-1.4-1.2-2.8-2.1-3.9c-1.5-1.5-2.7-1.4-3.1-2.5
				c-0.4-1.1,0.4-1.9,1.3-3.4c1.9-2.8,3.5-5.8,4.7-9c0.6-1.5,0.9-3.1,1.1-4.7c0.3-3.9-0.9-4.7-0.7-8.7c0.1-2.2,0.6-4.4,1.4-6.6
				c0.6-2,1.4-4,2.4-5.9c1.2-2.7,2.7-5.3,4.5-7.7c2.5-3,5.4-5.6,8.6-7.8c1.1-0.8,0.3-0.2,7.6-5.1c2.5-1.6,5.1-3.1,7.5-4.8
				c1.5-1.3,3.3-2.3,5.2-2.8c1.4-0.3,2.9-0.3,4.4-0.2c1.8,0,4.2-0.1,8.5,0.1c2.8,0.1,3.8,0.1,4.6,1c0.3,0.4,0.5,0.8,0.6,1.3
				s0.1,1,0,1.5c-0.3,0.9-0.9,1-1,1.7c-0.1,1.2,1.8,2.2,2.1,2.4c1.8,1,3.6,0.9,6,0.9c2.3-0.1,2.3-0.4,4.4-0.4
				c1.1,0.1,2.2,0.1,3.3,0.1c1.2-0.2,2.4-0.6,3.4-1.3s1.8-1.6,2.5-2.6c1.8-2.2,1.7-2.6,2.9-3.8c0.9-0.9,1.9-1.6,3-2.2
				c1.4-0.8,1.8-0.6,3.7-1.5c1.1-0.4,2.1-1,2.9-1.8c1-1.3,1.5-2.8,1.4-4.4c-0.1-1.4-0.7-2.3-2.3-4.5c-2.7-3.7-3.4-4.2-5.1-6.6
				c-1.6-1.9-2.8-4.1-3.6-6.5c-0.2-0.9-0.2-1.1-0.7-5.7c-0.6-6.2-0.7-6.5-0.7-8c0-2.2,0.2-4.5,0.7-6.7c0.5-2.7,1.3-5.3,2.4-7.8
				c1.3-3.1,1.8-3,4.3-7.8c2.1-3.9,3.6-7.2,4.5-9.4c1.9-4.2,2.8-6.4,3.1-7c0.8-2.4,1.3-4.2,3-6c0.8-0.8,1.6-1.5,2.6-2.1
				c1.2-0.9,2.6-1.5,4.1-1.9c2-0.4,2.3,0.5,4.1,0.1c1.8-0.3,4-1.6,4.5-3.4c0.1-0.4,0-0.5-0.7-3.7c-0.2-1.2-0.5-2.3-0.8-3.5
				c-1-2.1-2.1-2.1-2.3-3.4c0-0.8,0.2-1.6,0.6-2.4c0.4-0.7,1-1.3,1.7-1.8c1.4-1,2.2-0.4,5.7-1.1c3.1-0.7,3.6-1.4,4.8-0.9
				c1.7,0.7,1.6,2.7,3.3,3.1c0.6,0.1,1.1,0,1.6-0.2s1-0.4,1.4-0.8c1-0.8,1-1.5,2.4-2.7c0.8-0.7,1.2-1,1.6-0.9
				c1.2,0.2,1.5,2.9,1.5,3.1c0.2,0.9,0.1,1.9-0.2,2.8c-0.3,0.9-0.8,1.7-1.4,2.4c-1.1,0.9-2.4,1.4-3.8,1.4c-1.6-0.1-1.8-1-3.2-1
				c-0.7,0-1.4,0.2-2.1,0.6c-0.6,0.4-1.2,0.9-1.5,1.5c-0.9,1.6,0.2,2.7-0.8,3.9s-2.4,0.7-2.9,1.8c-0.1,0.3-0.3,0.9,0.7,2.9
				c0.7,1.6,1.7,3.1,2.9,4.4c1.3,1.6,2.9,2.9,4.8,3.7c1.3,0.5,2.7,0.8,4.1,0.8c1.8-0.1,3.7-0.6,5.2-1.5c2.4-1,4.4-2.8,5.7-5.1
				c0.7-1.4,1-2.9,1.1-4.4c0.3-3.2-0.3-4.5-1.2-10.4c-0.6-3.9-0.8-5.8-0.5-7.2c0.6-2.5,1.8-3.3,2-6.1c0.1-1.9-0.5-2.2,0-3.8
				c0.4-1.5,1.4-2.3,1.3-3.9c0-0.3-0.1-0.7-0.3-1c-0.2-0.3-0.4-0.6-0.6-0.8c-0.3-0.2-0.7-0.3-1-0.4c-0.4,0-0.7,0-1.1,0.1
				c-1.8,0.3-2.5,1.3-5,3.2c-1.3,1.1-2.8,2-4.3,2.5c-0.9,0.4-1.9,0.5-2.9,0.2c-0.6-0.2-0.8-0.6-2.6-3.4c-1.3-2-1.6-2.6-1.7-3.5
				c0-0.7,0.2-1.4,0.5-2.1c0.8-1.9,1.3-3.9,2.1-5.8c0.9-2.3,1.5-4.7,1.9-7.1c0.6-2.4,0.8-4.8,0.5-7.2c-0.3-2.3-1.1-4.5-2.4-6.4
				c-1.2-1.8-2.5-2.7-2.1-3.7c0.3-1,1.4-1.2,2.4-1.6c1.3-0.5,1.7-0.2,2.8-0.6c1-0.5,1.8-1.1,2.5-2c1.5-1.3,2.2-1.2,4.2-2.2
				c2.2-1.2,4.1-2.9,5.6-4.9c1.1-1.4,2-3,2.7-4.7c1.4-2.9,2-4.3,1.6-5.9c-0.5-1.6-1.6-3-3.1-3.9c-1-0.6-1.4-0.4-3.3-1.1
				c-1.4-0.4-2.7-1-3.9-1.9c-1.7-1.6-3-3.7-3.6-6c-0.5-1.5-0.7-2.5-1.4-2.8c-0.5-0.2-0.9,0-2.6,1c-3.6,2.1-4.2,2.6-4.6,3
				c-0.7,0.6-1.3,1.4-1.7,2.3c-0.4,1.1-0.1,1.5,0.1,3.9s0.2,3.4-0.5,4.3c-0.3,0.4-0.8,0.7-1.3,0.8c-0.5,0.2-1,0.2-1.5,0.1
				c-1.4-0.4-2-2-2.3-2.8c-0.6-1.5,0-1.9-0.6-3c-0.5-1-1.4-1.3-3.6-2.5c-1.6-0.7-3-1.7-4.3-2.8c-1.4-1.6-2.2-3.6-2.5-5.7
				c-0.2-1.9-0.1-3.8,0.4-5.6c0.7-3,1.5-3.4,3.4-7.9c1.3-3.2,1-3.3,2.3-6.1c0.9-1.9,1.9-3.9,3-5.7c1.1-2.1,2.4-4.2,3.8-6.1
				c2.1-2.6,3-2.5,5.8-5.8c1-1.2,2-2.4,2.8-3.8c2.2-3.4,1.8-4.3,3.5-7.1c1.5-2.9,3.7-5.4,6.4-7.2c1.8-0.9,3.5-2.1,4.9-3.5
				c0.9-1,1.5-1.5,1.5-2.2c0.2-2.2-3.2-3.4-3.2-6.4c0-0.6,0.1-1.2,0.3-1.7c0.7-1.3,1.9-1.3,4.5-2.6c1.3-0.5,2.4-1.2,3.3-2.3
				c1.2-1.6,0.7-3.2,1.7-3.6c0.8-0.4,1.9,0.2,2.5,0.6c1.8,1,1.9,2.4,2.7,2.4c1.3,0,2.2-3.4,2.5-4.9c0.4-1.5,0.4-3,0-4.5
				c-0.3-1.2-0.7-1.3-2.2-4c-1.1-2.1-1.7-3.1-1.6-3.9c0.1-0.4,0.3-1.1,3.5-3.7c2.9-2.2,3.5-2.2,3.8-3.2c0.6-1.9-1.4-2.9-0.9-5.3
				c0.3-1.4,0.9-1.1,2.4-3.9c1.2-2.2,1-2.6,2-3.8c0.4-0.6,0.9-1,1.5-1.4s1.2-0.6,1.9-0.7c1.8,0,2.6,1.8,3.5,1.5
				c1.1-0.5,1.4-3.9,0-4.9c-0.8-0.6-1.9-0.1-2.3-0.8c-0.4-0.7-0.1-1.5,0.5-2.1c0.5-0.6,1.1-0.7,5.5-0.5c1.8,0,2.5,0,2.8,0.5
				c0.4,0.6-0.8,1.2-0.7,2.2c0.1,1.3,2.2,2.1,4.4,3c2.4,0.9,3.6,1.4,5.1,1c0.8-0.2,1.5-0.5,2.2-0.9c0.6-0.5,1.2-1,1.6-1.7
				c0.9-1.8-0.1-3,0.9-4.2c0.4-0.4,1-0.7,1.6-0.8c0.6-0.1,1.2-0.1,1.8,0.1c1,0.3,1.8,0.9,2.4,1.8c1.3,1.5,1.3,2.3,2.9,5
				c1.7,3,2.1,3,2.2,4.2c0.1,1.5-0.5,2.4,0.1,3.9c0.1,0.3,0.2,0.6,0.5,0.9c0.2,0.3,0.5,0.5,0.8,0.7c0.4,0.2,1.2,0.2,4.7-2.5
				c2.6-2.1,2.5-2.4,3.6-2.7c1.6-0.5,2.6,0.1,3.7-0.8c0.3-0.3,0.6-0.6,0.8-0.9c0.2-0.4,0.3-0.8,0.3-1.2c-0.1-1.2-1.3-1.4-1.4-2.7
				c-0.1-0.9,0.5-1.2,0.3-1.8c-0.4-0.9-2-0.5-2.4-1.3s0.5-2.3,1.8-3c1.2-0.7,2,0,3.7-0.5c2.1-0.5,2-1.8,4.6-3.3
				c2.1-1.2,2.3-0.5,4.7-1.7c1.4-0.7,1.1-0.9,4.9-3.6c1.3-0.9,2.6-1.8,3.8-2.9c0.8-0.9,1.7-1.8,2.7-2.5c1.5-1.1,1.8-0.8,2.5-1.6
				c1.2-1.4,0.4-2.5,1.8-3.8c0.8-0.8,1.1-0.7,2.9-1.8c1.8-1.2,2.3-2.1,3.3-2.1c0.7,0.1,1.4,0.5,1.8,1.1c0.8,0.8,2.3,2.8,1.7,4.1
				c-0.6,1.4-3.3,0.9-3.9,2.2c-0.4,0.9,0.5,1.7,2,4c2.2,3.4,3.2,5.1,2.9,6.7c-0.3,1.6-1.5,1.4-3.8,4.7c-0.8,1.1-1.4,2.3-2,3.5
				c-1.9,3.7-1.3,4.2-2.7,7c-1.7,3.3-3,3.6-3.3,6c0,0.3-0.4,3.2,1,4c0.5,0.3,1.2,0.4,3.7-1s4.9-3.2,6.9-5.3c1.6-1.5,3-3.2,4.2-5.1
				c0.8-1.2,0.7-1.4,1.3-2.4c1.8-3,3.6-3.3,6-5.6c3.1-3,1.5-3.8,5.2-8.1c2-2.3,3.4-3.2,3.4-5.1c0-1.8-1.6-2.8-1.1-3.9
				c0.4-0.5,0.9-0.8,1.5-0.9s1.2,0,1.8,0.3c1,0.6,0.6,1.9,1.5,2.6s2.7,0.3,4-0.2c3.9-1.4,7.6-3.3,11-5.7c3.5-2.5,3.2-2.7,5.3-3.9
				c2.6-1.5,3.3-1.2,8.2-3.1c6.1-2.3,6.6-3.3,9.1-3.1c1.9,0.1,1.8,0.7,5.9,1.4c1.9,0.3,3.8,0.5,5.7,0.5c2.8,0,4.3,0,5.4-0.8
				c1.8-1.3,1.6-3.2,3-3.4c1.1-0.2,2.2,1,2.7,1.6c0.8,0.9,1.9,2.6,1.3,3.4s-2.5-0.1-2.8,0.6s0.7,1.7,1.8,2.5c1.5,1,2.6,0.8,5.8,1.4
				c2.5,0.5,3.8,0.7,4.6,1.4c0.9,0.7,1,1.2,2.5,4.9c1.9,4.7,2.3,5.4,3.2,5.9s1.7,0.3,3,1.2c0.8,0.5,1.5,1.3,1.8,2.3
				c0.4,1.5-0.6,2.2-0.9,4c-0.1,1.2,0.5,2.5,1.8,5.1c1.1,2.2,2.4,4.3,3.8,6.4c2.5,3.6,3.2,3.9,3.8,3.9c1.6,0.2,3.1-1.2,4-2.2
				c2.4-2.4,3.4-5.3,4.4-8.7c1.3-4.3,0.9-5.2,2.4-7c1-1.2,2-1.7,2.3-3.2c0.2-1.3,0-2.7-0.6-3.9c-0.8-2-2-2.7-1.7-3.2
				c0.3-0.4,1.5,0.3,3.3,0.2c1.3,0,2.6-0.4,3.7-1c3.2-1.5,3.4-3.8,6.6-6.6c1.5-1.2,3.1-2.2,4.8-3.1c6.2-3.7,7.3-3.4,9.6-5.7
				c1.6-1.6,2.8-3.5,3.8-5.5c1.2-2.4,1.9-3.7,1.9-5.6c0.1-1.3-0.2-1.9,0.2-3.1c0.5-1.2,1.4-2.2,2.5-2.8c0.9-0.4,1.9-0.6,2.9-0.5
				c2.3,0,2.8,1,4.2,0.9c1.6-0.1,2.8-1.5,4.8-4.1c3-3.8,2.1-4.6,4.3-6.6c2.2-2.1,4-2.3,4.3-4.1c0.1-1-0.2-1.9-0.6-2.8
				c-0.8-1.9-1.9-2.3-1.9-3.6c0-0.4,0.1-0.9,0.3-1.3s0.5-0.7,0.9-0.9c0.7-0.3,1.2,0.2,3.2,0.6c0.6,0.1,1.2,0.2,1.8,0.3
				c0.8,0,1.8-0.2,5.1-2.6c3.5-2.6,3.7-3.5,3.8-4c0.1-0.8-0.1-1.6-0.5-2.2c-0.5-0.7-1.1-1.2-1.9-1.6c-3-1.7-3.7-1.7-3.8-2.3
				c-0.1-0.8,1.9-1.9,3.7-2.3c1.8-0.2,3.6,0,5.3,0.6c2.7,0.7,3.2,1.4,4.2,1c0.7-0.4,1.2-0.9,1.7-1.5c0.4-0.6,0.7-1.4,0.7-2.1
				c0.3-1.8-0.7-2.3-0.2-3.5c0.6-1.6,2.3-1.3,3.4-3.3c0.4-0.8,0.2-0.9,0.7-2.9c0.6-2.3,1.1-4.3,2.2-4.6c1.1-0.2,2.1,0.9,2.6,1.8
				c0.9,1.5,0.3,2.7,1,3.1c1.1,0.7,4-1.7,4.9-2.5c2.1-1.8,2.1-2.5,4.1-4.2c1.3-1,2.8-1.9,4.3-2.6c1.5-0.8,3.6-2.1,6.1-3.7l2.1-0.9
				c0.4-0.2,0.8-0.5,1.1-0.7c-0.6-1-1-2.1-1.3-3.2c-0.8-2.6-0.4-3.3-1.3-5.3c-1-1.8-2.2-3.4-3.8-4.6c-2.5-2.4-3-2.2-3.5-3.5
				c-1-2.3,0.7-3.4-0.2-6.1c-0.9-2.7-2.6-2.1-3.6-4.7c-1-2.6,0.6-3.9-0.6-6c-0.5-0.8-1.7-1.6-4.2-3.1c-3.3-1.9-4.9-2.9-6.3-2.9
				c-1.9,0-3.8,0.7-5.3,2c-2.1,2-1.1,3.7-3.2,6.7c-1.2,1.9-3.1,3.3-5.3,3.9c-2.1,0.5-2.5-0.4-5.4-0.2c-3.4,0.3-3.9,1.8-6.5,1.8
				c-2.9,0-3-1.8-6.4-2.7c-4.2-1.1-5,1.3-11,0.8c-4-0.3-4.7-1.4-7.8-0.8c-1.7,0.3-1.9,0.7-5.4,1.8c-3.1,0.9-4.6,1.4-5.8,1.1
				c-2.9-0.7-2.9-3.3-5.6-4c-2.8-0.7-5,1-6.4,1.9c-3.6,2.4-3.4,4.8-6.5,5.9c-1.5,0.5-3.1,0.6-4.7,0.3c-3-0.6-3.2-2.2-6-2.7
				c-0.7-0.1-0.7,0-6,0.8c-3.9,0.6-4.9,0.7-5.9,0.1c-1.1-0.7-1.9-1.8-2.2-3.1c-0.7-2-0.1-2.9,0.1-7.1c0.1-1.8,0.1-3.7-0.1-5.5
				c-0.2-3.6-0.3-5.4-1.2-5.9c-1.5-0.8-3.2,1.8-6.3,1.7c-2-0.1-3.5-1.3-5.1-2.8c-2.8-2.4-2.5-3.8-5.6-7.1c-1.4-1.6-3.1-2.9-4.9-4
				c-1.8-1.1-3.8-1.7-5.9-1.9c-3.8-0.2-4.8,1.9-7.7,1.2c-1.7-0.5-3.1-1.5-4.1-2.9c-0.6-0.8-2.2-2.9-1.8-5c0.6-2.9,4.4-2.6,5.5-5.8
				c0.8-2.4-1-3.3-0.2-6.1c0.4-1.3,0.9-1.3,3.7-4.8c1.4-1.6,2.7-3.3,3.6-5.2c1.3-3,0.2-4,1.5-5.9c1-1.5,2-1.5,5.6-3.3
				c4.5-2.2,6.7-3.3,7.9-5.4c1-2.2,1.3-4.7,0.8-7.1c-0.3-1.9-1-3.8-2-5.4c-0.9-1.8-2.3-3.4-4-4.5c-2.5-1.6-3.9-0.6-6.6-1.9
				c-1.4-0.7-2.6-1.7-4.9-4.7c-3.8-5.1-6.8-9-9.3-15.3c-1.4-3.7-1.8-5.9-3.9-6.8c-1.1-0.5-2.7-0.2-5.8,0.5c-4.5,0.9-5,1.6-6.8,1.3
				c-2.1-0.3-3.6-1.6-5.3-3.1c-2.4-2-2-2.7-4.6-5.3c-3.2-3.2-4.1-2.6-5.4-4.8c-1.6-2.8-0.7-4.7-2.5-5.8c-1.4-0.9-3.2-0.5-4.6-0.2
				c-3.1,0.7-3.4,2.2-6.2,3.1c-2.7,0.7-5.6,0.6-8.2-0.4c-3-0.9-3.1-1.9-6.8-2.9c-2.2-0.6-3.6-0.9-5.2-0.5c-2.7,0.7-3,2.9-5,2.9
				c-1.9,0-3.6-2-4.3-3.7c-0.7-1.7-0.2-2.5-0.2-6.9c0-3.5,0-5.2-0.9-5.7c-1.6-1-4.2,2.6-7.6,1.7c-1-0.3-1.9-0.8-2.7-1.5
				c-2.1-2-1.6-4.1-2.8-4.5c-1.2-0.4-4.4,2-4.6,4.6c-0.2,2.3,1.7,2.8,1.7,5.6c0,0.9-0.1,1.7-0.5,2.5s-0.9,1.5-1.5,2
				c-0.6,0.4-1.3,0.6-2,0.7c-0.7,0.1-1.5,0-2.1-0.3c-1.6-0.6-2.2-1.8-4.8-6.7c-1.7-3.3-2.6-4.9-2.8-5.2c-1.2-1.6-3.7-5.2-7.5-5.8
				c-1.9-0.3-2,0.5-6.9,1.1c-1.7,0.5-3.5,0.8-5.2,1c-6.3-0.2-8.3-3.9-11.9-3c-1.4,0.3-4.3,3-6.1,6.4c1.1,0.2,2,2.7,1.7,4.8
				c-0.2,1.4-0.9,1.8-1.6,3.8c-0.4,1.1-0.6,2.3-0.6,3.5c0,0.5,0.1,4.3,2.6,6c1.9,1.3,3.3,0.1,5.1,1.7c1,0.8,1.6,1.9,1.8,3.1
				c0.1,1.8-1.2,3.2-2.7,4.9c-1.5,1.7-2.6,1.4-3.4,2.9s-0.2,1.9-1,3.5c-0.6,1.1-1.5,2.1-2.6,2.8c-1.1,0.8-2.4,1.5-3.7,1.9
				c-4.3,1.7-5.7,1.4-6.1,2.4s1.3,1.9,2.3,4.8c0.6,1.9,0.8,3.9,0.5,5.9c0,2.3-0.4,4.7-1.4,6.8c-1.1,2.1-2,2.5-2.1,4.1
				c-0.1,1.3,0.6,1.7,1.8,4.2c0.9,1.9,1.6,4,2.2,6c0.8,2.8,1.2,4.1,1,5.2c-0.5,2.2-2,2.2-3.8,5.2c-0.9,1.8-1.5,3.8-2,5.8
				c-1.6,5.4-1.1,5.6-2,6.9c-1.8,2.5-5,3.6-6.9,4.2c-2.5,0.8-3,0.4-4.3,1.4c-1.6,1.2-1.3,2.2-3.5,4.7c-1.1,1.1-1.5,1.3-1.9,2.2
				c-0.2,0.5-0.5,1.6,0.6,4.1c0.8,1.7,1.8,3.2,3.1,4.6c3.9,4.8,3.4,4.9,4.9,6.2c2.5,2.2,3.3,1.7,4.4,3.4c1.7,2.6,1.2,5.8,0.9,7.4
				c-0.4,2.1-1.1,4.1-2.1,6c-0.9,2.2-1.1,2.1-1.5,3.5c-0.7,2.2-0.4,2.8-1.1,5.7c-0.3,1.2-0.7,2.5-1.2,3.7c-0.9,2.7-1.4,4-2.2,4.6
				c-0.3,0.2-0.8,0.4-4.5,0.6c-2.4,0.1-3.5,0.2-5.2,0.2c-3.2,0-3.8-0.2-4.4,0.4c-0.6,0.6-0.9,1.3-1.1,2.1c-0.1,0.8,0,1.6,0.3,2.3
				c0.9,1.9,4.1,0.1,7.7,2.2c0.8,0.5,1.5,1.1,2.2,1.8c0.9,1,1.7,2,1.5,2.9c-0.1,0.2-0.3,0.7-4.1,2.1c-1.7,0.7-2.2,0.7-2.6,1.3
				c-0.3,0.5-0.4,1.1-0.5,1.7c0,0.6,0,1.2,0.3,1.7c0.9,3.3,3.4,3.6,3.3,5.6c0,0.9-0.8,2-2.3,4c-1.1,1.5-1.4,1.6-1.4,2.1
				c0.8,1.7,2,3.1,3.4,4.3c0.1,0,0.3,0,0.5,0c1.2,0,2.4,0,3.5-0.2c1.8-0.3,2.1-0.8,3.4-0.8c0.9,0,2.7,0.3,3,1.2c0.3,1-0.7,1.3-1.3,3
				c-0.3,1.1-0.4,2.3-0.2,3.4c0.2,1.6,0.4,3.3,1.8,4.3c0.4,0.3,0.9,0.5,1.4,0.5c0.5,0.1,1,0,1.5-0.2c1.3-0.7,0.5-2.4,2.1-4.2
				c0.9-1,1.3-0.7,2.3-1.8c0.8-0.9,1.3-2.1,1.4-3.3s-0.2-2.4-0.8-3.5c-0.4-0.8-1-1.5-1.7-2c-0.9-0.7-1.3-0.7-4.1-1.9
				c-1.8-0.8-2.1-1-2.3-1.5c-0.3-0.8,0.2-1.6,0.7-2.5c0.9-1.7,2-3.4,3.2-5c1.6-1.9,2.9-4.1,3.9-6.4c0.9-2,1.3-4.1,1.2-6.3
				c-0.1-1.1-0.4-1.8-0.5-3.8c-0.2-2.1-0.3-3.1,0.3-3.8c0.9-1.1,3.1-0.9,4.5-0.8c1.9,0.2,2.9,0.7,3.3,0.3c0.4-0.5-0.4-2-0.5-2.2
				c-0.5-0.7-1.1-1.3-1.8-1.7c-1.7-1-2.3-0.5-3.2-1.3c-0.5-0.5-0.8-1.1-1.1-1.7c-0.2-0.6-0.3-1.3-0.3-2c0.1-1.3,0.6-2.6,1.4-3.6
				c1-1.8,2.6-3.1,4.5-3.9c1.3-0.4,1.5-0.1,4.2-0.8c1.6-0.4,1.5-0.5,3-0.9c2.7-0.7,4.6-1.2,6.6-0.7s2.1,1.3,3.3,1.1
				c1.2-0.5,2.1-1.3,2.8-2.4c1-1.4,1-1.9,1.6-2.1c0.9-0.3,1.3,0.7,3.3,1.1c0.9,0.1,1.8,0.2,2.8,0.2c1.8,0.1,1.6,0.2,2.5,0.2
				c2.4,0.1,2.6-0.3,4.1-0.1c1.1,0.1,2.2,0.6,3.1,1.4c0.9,0.9,0.7,1.3,2,3.4c0.6,1.2,1.4,2.1,2.5,2.9c0.7,0.4,0.9,0.2,2.7,0.7
				c1.6,0.3,3,0.8,4.4,1.6c0.6,0.3,1.1,0.7,1.5,1.1c0.4,0.5,0.7,1.1,0.8,1.7c0.1,0.7-0.1,1.4-0.5,2c-0.3,0.3-0.7,0.6-1.1,0.8
				s-0.9,0.3-1.3,0.3c-0.5,0-1.1-0.1-3.2-1.2c-1.7-0.9-3-1.7-3.5-2c-0.2-0.2-1.4-0.9-2.9-1.9c-1.9-1.3-1.8-1.4-2.1-1.4
				c-1.5-0.3-2.2,1.4-5.2,3.3c-2.3,1.5-2.9,1.1-4.8,2.6c-1.2,0.8-2.1,2-2.8,3.2c-0.7,1.7-0.9,3.6-0.5,5.4c0.2,1.5,0.4,1.4,0.5,2.5
				s-0.1,2.2-1.2,5c-1.7,4.2-2.3,4.3-2.2,5.9c0.2,1.3,0.6,2.5,1,3.7c0.7,2.3,0.9,2.7,0.8,3.7c-0.2,1.1-0.7,2.1-1.3,3
				c-1,2.1-1.5,2.1-1.5,2.9c0,1.8,2.4,2.8,2.1,3.6s-2.2,0.2-5.7,1c-1,0.1-1.9,0.5-2.7,1.1c-1,0.9-1.2,2.2-1.5,4s0,2.2-0.4,3.9
				c-0.3,1.1-0.4,1.1-0.8,2.6c-0.6,2.2-0.9,3.3-0.4,3.9c0.6,0.8,2,0.9,3.1,0.5c1.8-0.6,2.1-2.5,3-2.4c0.8,0.1,1.2,1.8,1.4,3
				c0.3,2.6-0.9,3.5-1.6,7.7c-0.3,1.7-0.1,1.9-0.5,2.6c-0.8,1.5-2.3,1.5-4.8,2.9c-1.5,0.9-2.9,2-4.2,3.1c-2.9,2.3-2.2,2.2-4.4,3.9
				c-1.7,1.3-2.4,1.6-2.4,2.4c-0.1,1.3,1.8,2.4,2.4,2.7c0.8,0.4,1.7,0.8,2.6,1c2.2,0.6,2.4,0.4,3,0.9c0.5,0.5,0.9,1.2,1,1.9
				c0.2,0.7,0.2,1.5,0,2.2c-0.3,1.4-1.4,3.2-2.5,3.1s-1.3-2-2.9-2.4c-0.8-0.1-1.7,0-2.4,0.4c-1.8,0.5-3.5,1.3-4.9,2.5
				c-1.5,1.4-1.4,2.2-3,3.1c-0.5,0.3-1.7,1-2.5,0.5c-0.5-0.3-0.5-0.7-1.2-1.8c-0.7-1.1-1.1-1.8-1.7-2c-1-0.4-1.8,0.6-4.9,2.4
				c-1.4,0.6-2.7,1.4-4,2.2c-0.9,0.5-1.8,1.2-2.4,2.1c-1.1,1.5-0.7,2.2-1.7,3.6c-0.9,1.1-2.4,2.5-3.4,2.1c-0.7-0.3-0.6-1.1-1.8-2.3
				c-0.5-0.5-1.1-0.9-1.8-1.1c-1.3-0.2-2.1,1.1-3.8,2.6c-1.3,1.1-2.7,2-4.1,2.9c-3.7,2.4-5.5,3.5-7.4,3.8c-1.1,0-2.2,0.3-3.1,1
				c-0.6,0.5-1.1,1.3-1.3,2.1c-0.5,1.7,0.4,2.6,0.8,4.8c0.3,1.5,0.3,3.1,0,4.6c-0.6,2.3-2,4.4-3.9,5.9c-1.3,1.1-1.5,0.8-5.6,2.9
				c-1.7,0.8-3.3,1.7-4.8,2.8c-1.9,1.4-3.6,3-5,4.9c-1.7,2.2-1.3,2.5-3.1,5.1c-1.8,2.6-2,2.2-5.5,6.3c-2.7,3.2-3.2,4.1-5.3,6.1
				c-1.1,1-2.3,1.9-3.6,2.6c-1.6,0.8-3.3,1.3-5.1,1.6c-1.2,0.1-2.4,0.3-3.6,0.6c-1,0.3-1.9,0.9-2.7,1.6c-1.4,1.3-1.3,2.6-2.2,4.6
				c-0.9,1.7-2.1,3.3-3.5,4.5c-2.8,2.7-3.8,2.2-6.5,4.6s-1.8,3-4.7,5.9c-1.9,2-4.2,3.6-6.7,4.8c-3.4,1.5-5.7,1.5-6,2.8
				c-0.2,1,0.9,1.5,1.5,3.8c0.3,1,0.3,2.1,0.2,3.2c-0.4,2.2-2.2,3.2-5.3,5.5c-4.9,3.6-3.3,3.3-7.7,6.4c-3.2,2.3-5,3.3-5.6,5.5
				c-0.1,1-0.3,2-0.6,3c-0.2,0.8-0.6,1.5-1.1,2.1s-1.1,1.1-1.8,1.4c-0.8,0.3-1,0-2.2,0.1c-1.4,0.2-2.8,0.7-4,1.5
				c-1.8,1.1-3.4,2.6-4.7,4.2c-1.7,1.9-1.8,1.4-7.3,5.6c-5.7,4.3-5.6,4.8-9.7,7.6c-2.3,1.5-4.7,2.8-7.2,4c-2.6,1.3-3.6,1.6-4.7,1.6
				c-1.7,0-3.2-0.7-5.6-1.9c-2.7-1.3-2.9-1.9-4.3-2c-1.6-0.1-3.1,0.5-4.3,1.5c-1.5,1.4-1,2.6-2.3,4.6c-1.1,1.6-2.8,2.8-4.6,3.5
				c-2.9,1.2-5.4,0.9-8.3,0.5c-2.9-0.4-3.2-0.9-6.5-1.2c-4-0.4-5.6,0.2-6.6,1c-0.5,0.3-0.9,0.6-1.2,1.1c-0.3,0.4-0.5,0.9-0.6,1.5
				c-0.1,0.9,0.6,1.3,2.3,3.8c0.7,1,1.4,2.1,2,3.1c0.6,1.2,1.1,2.4,1.3,3.7c0.1,0.6,0.2,2.2-1.7,6.3c-0.9,2-2,3.9-3.2,5.6
				c-3.1,4.6-3.8,3.9-5.4,6.9c-1.3,2.4-1.2,3.6-3.3,7c-1.7,3-2.5,3.2-2.8,3.1c-0.7-0.2-1-2.1-1-2.3c-0.1-1.1,0.2-1.4-0.1-1.9
				c-0.3-0.4-0.6-0.6-1-0.8s-0.9-0.2-1.3-0.1c-1.1,0.2-1.7,1.1-2.8,2.9s-1.2,2.6-2.3,4.3c-0.5,0.9-1.2,1.7-1.9,2.4
				c-1.7,1.5-3.1,1.2-5.8,2.2c-1.5,0.6-3,1.4-4.3,2.3c-2.6,1.8-4.9,4-6.8,6.5c-4.1,5.5-6.7,12-9.4,19c-5.7,14.7-4.8,13.6-6.7,17.4
				c-3.6,7.5-5.1,8.2-8.9,16.4c-2.2,4.4-3.9,9.1-5.3,13.8c-1.6,5.6-2.1,10.3-3,19.6c-0.9,9.2-1.2,16.6-1.2,18.2
				c-0.3,9.2,0.1,11.5-0.5,20.1c-0.3,4.7-0.5,6-1.1,11.9c-0.8,8.6-1.1,14.6-1.7,25.8c-0.8,15.7-1.2,23.5-1,28.2
				c0.5,6,0.6,12,0.5,18.1c-0.2,6.2-0.7,11.3-0.7,11.3c-0.7,6.6-1.1,7.1-1.2,10.9c0,3.9,0.4,7.8,0.9,11.7c0.6,5.3,0.9,4.9,1.1,7.9
				c0.5,5.6-0.2,6.6-0.1,13c0.1,7,1,6.8,0.9,12.7c-0.1,3.7-0.6,7.4-1.2,11.1c-0.4,3.5-1.1,7-2,10.5c-1.2,4.1-1.9,4.5-2.8,8.4
				c-0.7,2.7-1,5.4-0.9,8.1c0.1,2.8,0.6,2.5,1,6.6c0.3,4-0.1,4.9,0.8,6.8c0.5,1,0.7,1,2.3,4c0.7,1.1,1.1,2.3,1.2,3.6
				c0,0.7,0,1.3-0.2,1.9c-0.5,1.8-1.5,1.8-1.5,2.8s1,1.2,1.9,3.2c0.4,0.7,0.6,1.5,0.6,2.3c0,0.6-0.1,1.4-1.6,4.1
				c-0.6,1.3-1.4,2.4-2.3,3.5c-1.8,1.6-3.7,1.8-3.7,2.3c0.1,0.5,1,0.4,2,0.5c0.8,0.1,1.5,0.1,2.3,0c1.5-0.2,3-0.7,4.3-1.5
				C103.7,862.8,105,861.8,106.1,860.8z"/>
			<path class="st6" d="M370.9,272.4c0.1,0.1,0.3,0.3,0.3,0.4c0.1,0.2,0.1,0.3,0.1,0.5s0,0.4-0.1,0.5c-0.1,0.2-0.2,0.3-0.3,0.5
				c-0.2,0.1-0.4,0.1-0.6,0.2c-0.2,0-0.4,0-0.6-0.1s-0.3-0.2-0.5-0.3c-0.1-0.1-0.2-0.3-0.3-0.5c0-0.2,0.1-0.4,0.2-0.6
				s0.3-0.3,0.4-0.4s0.4-0.2,0.6-0.2C370.5,272.4,370.7,272.4,370.9,272.4z"/>
			<path class="st7" d="M626.9,224c0.1-0.4,0.1-0.8,0.1-1.1c-0.1-0.4-0.2-0.7-0.4-1.1c-0.5-0.6-1.4-0.5-3.6-0.5
				c-3.9,0-3.9-0.2-5,0.1c-1.5,0.4-3.1,0.7-3.6,1.8c-0.7,1.7,1.7,2.9,1.5,5.7c-0.1,2.4-1.8,2.5-2.4,5.1c-0.6,3,1.5,3.8,1.5,7.5
				c0,1.6-0.4,1.4-1.9,6.6c-1.3,4.5-1,4.5-1.9,7.1c-1.4,3.9-2.2,3.9-2.5,6.1c-0.2,1.8,0.3,2.2,2.1,7.4c1.6,4.8,1.3,4.8,2.7,8.8
				c0.7,1.6,1.2,3.1,1.7,4.8c0.5,2.4,1,4.7,0.2,6.9c-1.2,3.5-4.1,2.9-6.1,7.1c-1.1,2.3-0.5,3.1-1.9,5.1c-1.2,1.5-2.8,2.7-4.6,3.5
				c-3.2,1.8-4.6,1.5-6.1,3.3c-0.8,0.8-1.2,1.9-1.3,3c0,2,1.8,2.9,1.4,4.3c-0.3,0.8-1,0.8-2.4,2c-0.9,0.8-1.6,1.7-2.1,2.8"/>
			<path class="st7" d="M563.7,249c0.9,1.3,1.3,2.9,1.1,4.4c-0.6,2.7-3.7,4.1-8,6c-2.6,1.3-5.4,2.1-8.3,2.4c-0.5,0-0.4,0-6.8,0
				c-3.9,0-4.3,0-5,0.2c-2.5,0.9-2.4,2.3-5.6,4.4c-2.5,1.6-2.8,0.9-5,2.5c-1.8,1.3-1.7,1.8-4.7,4.9c-1.4,1.6-2.9,3-4.6,4.2
				c-3.4,2-5.3,1.3-6.1,2.9c-0.8,1.6,1.2,3.6,0.2,5.6c-0.6,1.2-1.7,1.2-3.6,2.3c-3.5,2-2.8,3.9-6.8,7.4c-1.8,1.7-3.9,3-6.2,3.8
				c-2.3,0.7-2.6,0.1-5.9,0.9c-2.4,0.5-4.6,1.4-6.5,2.9c-1.2,1-2.2,2.2-3,3.5c-1.6,2.2-2.4,3.4-2.6,5c0.1,2.1,0.4,4.3,1,6.4
				c0.5,2.6,0.6,2.7,0.5,3.2c-0.4,2.1-1.6,4-3.4,5.2c-1.3,1-1.9,0.8-3.1,2c-0.8,0.7-1.4,1.6-1.8,2.6c-0.7,1.9-0.7,4,0.1,5.8"/>
			<path class="st7" d="M456.7,305.6c-2.6,1-5,2.2-7.4,3.6c-4.2,2.5-5.7,4.3-9.4,5.2c-1.8,0.6-3.7,0.7-5.6,0.3
				c-1.5-0.3-1.9-0.7-7.2-4c-1-0.6-2.3-1.4-4.9-3.2c-2.9-1.9-3.6-2.4-4-3.4c-0.1-1.4,0-2.9,0.4-4.2c0.3-1.1,0.5-2.3,0.7-3.5
				c0-1.6-0.4-3.1-1.2-4.4"/>
			<path class="st7" d="M586.3,226.5c-1,1.1-2.2,2-3.4,2.9c-2.4,1.7-5.2,2.7-8.1,2.9c-1.2,0.1-0.8-0.1-5.2-0.5
				c-1.9-0.3-3.8-0.3-5.7-0.3c-1.2,0.1-1.9,0.4-6,2.2c-6.7,2.9-7.4,3.3-8.7,3c-2.4-0.5-2.6-2.5-5.1-2.8c-2.2-0.2-2.6,1.1-4.8,1.3
				c-2.9,0.1-5.4-2.2-8.4-5s-3.3-4.1-5.3-4.6c-1.4-0.4-2.7,0-5.4,0.7c-3.6,0.9-4.1,1.8-6.2,1.8c-1.7-0.1-3.3-0.6-4.8-1.4
				c-4.5-1.9-4.6-3.2-6.8-3.3c-2.2-0.1-1.9,1.1-6.7,2.6c-3.1,0.9-4.6,0.9-5.4,2.2s0.3,2.1-0.4,3.5c-1.1,2.3-5,2.5-5.9,2.5
				c-1.6,0-3.3-0.3-4.8-1c-1.2-0.6-2.4-1.3-3.3-2.3c-0.5-0.5-0.9-1-2.8-4.5c-1.6-2.7-1.8-3.3-2.4-3.4c-1.4-0.3-2,1.7-3.7,1.7
				s-2.4-1.7-3.7-4.1c-1.3-2.3-2.8-4.9-1.9-5.9c0.6-0.7,1.7,0.1,5.3,0c3.6-0.1,4.2-0.9,4.5-1.3c0.5-0.6,0.7-1.4,0.7-2.2
				c0-1.7-1.2-2.1-2.4-4.6c-1-2.1-0.6-3-1.6-3.5c-0.9-0.5-1.7,0.2-3.3,0.1c-1.2-0.1-2.4-0.7-3.3-1.5"/>
			<path class="st7" d="M431.7,46.4c0.8,2.1,1.8,4.1,3,6c1.7,2.7,3.7,5.3,5.9,7.6c3.6,3.9,4.4,3.7,5.8,6.1c1.5,2.3,2.2,5,1.9,7.8
				c-0.1,0.7-0.3,1-2.8,5.6s-2.7,4.9-2.7,5.7c0.2,2.3,2.5,3.8,5.9,6.1c2.4,1.6,3.6,2.4,5.4,2.4c2,0,3.5-1,6-2.6s2.6-2.3,5.3-3.9
				c2.2-1.4,3.4-2.1,4.9-1.9c1.9,0.2,3.1,1.8,4.3,3.2c2.2,2.8,1.6,3.8,3.2,5.9c2.4,3,4.5,1.6,7.5,4.5c2.9,2.9,2,5.9,4.9,7.3
				c1.7,0.8,3.4,0.6,5.7,0.3c4.8-0.7,5.7-2.8,8.4-2.2c2.3,0.5,2.1,2.1,4.9,2.7c0.6,0.1,1.3,0.2,6.1-0.5c4.2-0.6,4.7-0.7,5.5-0.3
				c0.9,0.4,1.6,1.2,3.4,4.7c1.3,2.5,1.8,3.9,2.8,5.9c3.2,7.1,4.4,8.2,5.6,8.9c1.2,0.7,1.7,0.5,2.8,1.5c1.4,1.2,2.5,2.9,2.9,4.7
				c1.1,4.6-2.9,6.3-2.4,11.5c0.2,2.4,1,1.9,2.1,6.7c0.8,3.3,1.2,5,0.8,7.1c-0.5,2.7-2.1,4.4-4.6,7c-2.1,2.5-4.7,4.5-7.6,5.9
				c-4.8,2.2-7.9,1.1-8.8,3.1c-0.9,2,1.5,3.1,1.2,6.6c-0.1,1.5-0.9,2.9-2.5,5.6c-1.1,2.1-2.5,4.2-4,6.1c-2.8,3.4-4.8,5.7-7.6,5.9
				c-2.4,0.2-3.1-1.2-5.2-0.5c-2,0.7-1.9,2.1-4,3.8c-3.6,2.9-8.6,2.3-9.6,2.2c-1.6-0.2-1.3-0.5-6.3-1.7c-1.7-0.4-3.3-0.8-5-1.1
				c-3.5-0.5-4.5,0.1-7.1-0.5c-1.5-0.3-2.9-0.7-4.3-1.4"/>
			<path class="st7" d="M280.4,476.7c0.5-0.9,0.8-1.8,0.8-2.8s-0.1-2-0.5-2.9c-0.5-1.1-1.3-1.9-2.2-2.5c-1-0.6-2.1-0.9-3.3-0.9
				c-1.5,0.2-2,1.1-3.2,1c-1.2-0.2-2.1-1.7-2.7-2.8c-4.3-7.9-5.1-7.5-5.9-10.9c-0.6-2.7-1-4.3-0.1-5.9c1.1-2,2.9-1.9,4.6-4.6
				c0.7-1.1,1.2-2.4,1.4-3.7c0.2-1.2,0.1-2.4-1.3-6.5c-0.6-1.9-1.1-3.3-2.1-5.6c-0.8-1.9-2-4.4-3.6-7.3"/>
			<path class="st7" d="M302.6,486.1c0.4,1.5,1.2,2.9,2.3,4c1.6,1.7,2.7,1.4,4.4,3c1.4,1.3,1.9,2.8,3,6c0.8,2.1,1.3,4.2,1.5,6.4
				c0.1,1.7,0,3.5-0.3,5.2c-0.2,2.7-1,5.3-2.2,7.7c-1.4,2.4-3.3,4.5-5.5,6.1c-3.5,2.5-5.5,2.2-6.8,4.6c-0.5,1.4-0.9,3-0.9,4.5
				c-0.4,3.3,0,4-0.7,6.1c-0.5,1.3-1,2.6-1.7,3.9c-0.9,1.4-1.6,2.8-2.1,4.3c-0.3,1.3-0.4,2.6-0.2,3.9"/>
			<path class="st7" d="M250.9,540c-2.4-1.2-4.5-2.8-6.3-4.7c-1.5-1.7-1.6-2.5-3.7-4.9c-1.2-1.4-1.4-1.4-4.3-4.4
				c-2-1.9-3.8-3.9-5.5-6.1c-1.9-2.6-2.8-3.9-2.7-5.5c0.2-2.3,2.1-2.6,3.9-5.5c2.4-4.1,0-6,2.2-10.1c1.6-3,2.9-1.9,7-6.7
				c2.3-2.3,4-5.1,5-8.2c0.7-2,1-4.1,0.8-6.2c-0.2-2.9-1.2-5-3.2-9c-1-2.1-2.1-4.1-3.4-5.9c-1.8-2.7-2.3-2.7-2.9-4.3
				c-1.1-2.6-0.3-3.7-1.6-6.2c-0.7-1.2-1.5-2.2-2.5-3.2c-1.2-1.3-2.9-3.3-4.9-5.9"/>
			<path class="st7" d="M219.7,548.9c-1.7-0.7-3.2-2-4.1-3.6c-0.6-1.3-0.6-2.2-0.6-7.6c0-4.8,0-5.5-0.4-6.8
				c-0.5-1.8-1.4-3.5-2.8-4.8c-0.8-0.6-1.6-1.2-2.5-1.7c-1.7-1.2-4.2-3-4.8-5.6c-0.3-1.5,0.3-1.7-0.1-3.2c-0.5-1.8-1.7-3.3-3.3-4.3
				c-1.4-0.7-3-1.2-4.5-1.3c-3.4-0.7-5.1-1-6.6-0.8c-2,0.4-3.8,1.2-5.5,2.3c-3,1.6-3.8,2.6-4.7,2.3c-1.2-0.5-0.2-2.5-1.8-5
				c-0.5-0.8-0.7-0.8-4.3-3.5c-3.5-2.8-3.9-3.3-4.4-4.1c-0.5-1.1-0.8-2.3-1.1-3.5c-0.5-1.6-0.8-3-1.1-3.9"/>
			<path class="st7" d="M193.3,598.8c-2.9,1-5.1,1.9-6.5,2.5c-5.4,2.1-6.9,2.8-9,2.3c-2.2-0.5-2-1.3-3.9-1.5c-2.9-0.2-3.8,1.8-6,1.5
				c-2.2-0.4-1.8-2.1-4.7-4.3c-2.2-1.5-4.8-2.5-7.5-3c-3.1-0.7-3.5-0.1-5.6-0.9c-2.5-1-2.6-1.9-5-2.9c-2.9-1.1-3.6-0.1-5.9-1
				c-2.6-1-2.4-2.6-6.2-6.9c-2.9-3.2-3.2-2.5-6.4-6.2c-1.3-1.7-2.8-3.3-4.3-4.8c-1.2-1.2-2.5-2.3-3.9-3.3c-1.7-1.3-3.6-2.4-5.5-3.4"
				/>
			<path class="st7" d="M154.1,676.7c-2.3-3.7-4.3-6.5-5.7-8.4c-2.8-3.7-3.4-4.1-4.1-6c-1.4-3.9,0.1-6-1.8-8.4
				c-1-1.3-2.3-1.8-4.9-2.7c-4.8-1.7-6.3-0.6-10.8-2.3c-3-1.1-2.8-1.7-5-2.2c-2.8-0.6-5.8-0.2-8.4,1.1c-1.5,0.9-1.5,1.3-3,2.1
				c-2.2,1.2-4.7,1.8-7.2,1.6"/>
			<path class="st7" d="M171.7,688.5c-1.5,1.1-2.9,2.4-4.2,3.8c-2,1.9-3.6,4.2-4.7,6.7c-1.3,3-0.4,3.5-1.5,7.9
				c-1.3,6.5-5.1,12.2-10.5,16c-1.9,1.2-4,2.3-6.1,3.3c-3.1,1.7-5.3,3.1-9.2,5.5c-5,3.2-4.2,2.9-6.1,4c-4.1,2.3-5.1,2-10.2,4.6
				c-2.5,1.3-4.2,2.3-6.3,3.6c-3.2,2-4.9,3-6.1,4.4c-1,1.2-2,2.4-3.1,3.5c-0.9,0.9-2,1.8-3.1,2.5"/>
			<path class="st7" d="M236.9,658c-0.2,0.8-0.5,1.6-0.9,2.3c-1,1.5-2.1,2-4.5,3.7c-1.7,1.2-1.4,1.2-3,2.4c-1.7,1.2-3.5,2.4-5.4,3.3
				c-4.7,2.5-5.6,2.1-6.9,3.7c-1,1.3-1.6,2.9-1.8,4.6c-0.3,1.6-0.2,3.3,0.4,4.9c1.1,2.6,2.9,2.5,3.3,4.5c0.3,1.3-0.5,1.7-2,5.3
				c-1.5,3.7-1,3.7-2.2,6.1c-1.6,3.3-2.8,3.5-2.9,5.4c-0.1,2.2,1.2,4.6,2.9,5c0.9,0.2,1.1-0.5,2.5-0.6c2.2-0.2,4,1.2,5.5,2.3
				c2.2,1.6,1.9,2.2,2.9,2.5c1.7,0.3,2.4-1.1,6.1-2.4c1.3-0.4,2.6-0.7,3.9-0.9c1.6-0.2,3.3-0.2,4.9,0c2.1,0.3,4.1,1,5.9,2"/>
			<path class="st7" d="M165.4,672.6c0.7,0.6,1.4,1.4,1.9,2.2c1.2,1.8,1.1,2.8,2,3.5c1.5,1.2,4,0.3,5.2-0.2c4.1-1.5,3.9-3.9,8.2-5.6
				c1.8-0.7,2.9-0.7,3.6-1.9c0.6-1.1,0-2.2,0.1-4.4c0-1.7,0.5-3.4,1.4-4.8c2.2-2.9,6.1-0.9,8.1-3.6c1.5-1.9-0.1-3.3,1.5-5.9
				c0.9-1.5,2.6-2.4,6-4.1c3.4-1.7,3.5-1.4,5.9-2.8c3.4-1.9,6.4-3.5,7-6.2c0.3-1.5-0.3-2,0.3-3.3c0.3-0.6,0.9-1.5,4.5-3.3
				s4.1-1.4,4.8-2.4c1.5-2-0.3-3.9,1.1-6.1c1-1.6,2.2-1,5.9-3.2c2-1,3.8-2.4,5.2-4.1c1.3-1.8,0.8-2.3,2.8-6.2c2-4,3-4.5,3.5-4.7
				c1.4-0.4,2.8-0.5,4.3-0.3c1.8,0.2,1.9,0.4,2.8,0.3c0.9-0.1,1.8-0.5,2.5-1.1s1.3-1.3,1.6-2.2c0.9-2.3-0.9-3.4-0.1-5.5
				c0.9-2.1,3.2-1.8,3.9-4c0.1-0.4,0.3-1-0.7-4.2c-1-3.5-1.6-4-2-5.7c-0.5-2.3-0.3-4.8,0.4-7c0.8-3,2-5.8,3.8-8.4
				c1.4-2.7,3.3-5.1,5.6-7.2c1.5-1.4,3.3-2.5,5.1-3.4c1.3-0.6,1.5-0.5,5-1.8c2.2-0.8,2.4-0.9,6.2-2.3c3.4-1.2,4.7-1.6,6.4-1.5
				c1.3,0,2.6,0,3.9,0.2"/>
			<path class="st8" d="M293.2,551.7c1.8,0.4,3.5,1,5.1,1.9c1.4,1,2.6,2.1,3.7,3.4c1.4,1.3,3,2.5,4.7,3.5c0.8,0.6,1.7,1,2.7,1.3
				c2.2,0.2,2.8-1.7,5-2c1.5-0.2,2.8,0.6,5.2,2.1c3.6,2.2,3.7,3.7,5.8,3.9c1.7,0.2,2.4-0.8,4.1-0.2c0.9,0.5,1.8,1.1,2.6,1.8
				c1.8,1.5,1.6,1.7,2.3,2c1.6,0.7,2.5-0.7,6-1.5c1.8-0.4,3.7-0.5,5.5-0.3c1.5,0.2,2.9,0.6,4.3,1c1.7,0.4,3.4,0.7,5.2,1"/>
			<path class="st9" d="M88.5,863.9c0.3,0.5,0.5,1.2,0.4,1.8c-0.2,1.3-1.2,2.1-2.5,3.1c-1.1,1-2.5,1.7-4,2c-0.6,0.1-2.8,0.3-3.6-1
				s0.2-3.1,0.4-3.4c1.1-2,3.3-2.5,4.8-2.8C85.3,863.3,87.6,862.8,88.5,863.9z"/>
			<path class="st10" d="M72.4,863.8c0.6,0.2,1.1,0.5,1.5,0.9s0.7,0.9,0.9,1.5c0.4,1.6-0.9,2.3-0.5,3.7c0.5,1.4,1.6,1.3,1.9,2.5
				c0.2,0.8-0.1,1.7-0.9,3c-2,3.1-3.7,3.4-5.9,6.1c-1.3,1.6-2.4,3.4-3.2,5.3c-1.8,3.7-1.3,4.2-2.6,5.6c-1.6,1.7-2.2,0.8-6.2,3.4
				c-0.9,0.7-2,1.2-3.2,1.3c-1,0.1-1.3-0.2-2.3-0.3c-0.8-0.1-1.5,0-5.7,2c-2.8,1.2-3.1,1.5-3.5,2c-0.8,1.2-0.4,2-1.2,3.2
				c-1.2,1.6-3.8,2.3-4.6,1.5s0.6-2.2-0.2-3.5c-0.6-1.1-2.2-0.8-2.6-1.9c-0.3-0.8,0.3-1.2,0.3-2.3c0.1-2.2-2.3-2.7-2.7-4.9
				c-0.3-1.7,1-3.2,2.4-4.8c1.2-1.5,2.7-2.7,4.5-3.4s2.3-0.2,6.4-0.4c3.4-0.2,5-0.2,6.6-0.8s3-1.9,5.6-4.4s4.1-3.9,4.9-5.5
				c1.2-2.4,0.7-3.4,2.3-5.5c0.9-1.2,2-2.2,3.3-2.9C69.4,864.2,70.8,863.4,72.4,863.8z"/>
			<path class="st9" d="M370.9,272.4c0.1,0.1,0.3,0.3,0.3,0.4c0.1,0.2,0.1,0.3,0.1,0.5s0,0.4-0.1,0.5c-0.1,0.2-0.2,0.3-0.3,0.5
				c-0.2,0.1-0.4,0.1-0.6,0.2c-0.2,0-0.4,0-0.6-0.1s-0.3-0.2-0.5-0.3c-0.1-0.1-0.2-0.3-0.3-0.5c0-0.2,0.1-0.4,0.2-0.6
				s0.3-0.3,0.4-0.4s0.4-0.2,0.6-0.2C370.5,272.4,370.7,272.4,370.9,272.4z"/>
			<path class="st9" d="M388.9,289.9c0.7,0.4,0.6,2.1-0.1,2.4c-0.2,0.1-0.4,0.1-0.6,0.1s-0.4-0.1-0.6-0.2s-0.3-0.3-0.4-0.5
				s-0.1-0.4-0.1-0.6s0.1-0.4,0.2-0.6s0.3-0.3,0.5-0.4s0.4-0.2,0.6-0.2S388.7,289.8,388.9,289.9z"/>
			<path class="st9" d="M405.1,288.9c0.2,0.4-0.2,1.4-1.1,1.6c-0.2,0-0.4,0-0.6,0s-0.4-0.1-0.6-0.3c-0.2-0.1-0.3-0.3-0.4-0.5
				s-0.2-0.4-0.2-0.6C402.5,288.5,404.7,288.2,405.1,288.9z"/>
			<path class="st11" d="M248.4,628.3l-0.7,0.8l-2.1-2.7c-0.2,0.2-0.3,0.5-0.4,0.7c-0.1,0.2-0.1,0.5,0,0.8s0.2,0.7,0.3,1.1
				c0.3,0.7,0.4,1.2,0.4,1.4s0,0.5-0.1,0.7s-0.2,0.4-0.4,0.6c0,0-0.2,0.2-0.4,0.4l-0.5-0.7l0.1-0.1c0.1-0.1,0.2-0.2,0.2-0.2
				c0.1-0.1,0.2-0.3,0.2-0.5s-0.1-0.5-0.2-0.9c-0.3-0.8-0.4-1.3-0.5-1.7c0-0.4,0-0.7,0.2-1c-0.5,0.3-1.2,0.2-2.2-0.1l-2.2-0.7
				l0.7-0.8l1.8,0.6c0.7,0.2,1.2,0.3,1.6,0.3c0.3,0,0.6-0.2,0.9-0.5L243,623l0.7-0.8L248.4,628.3z"/>
			<path class="st11" d="M236.4,631.5c0-0.4,0.1-0.8,0.2-1.1c0.1-0.3,0.3-0.6,0.5-0.8c0.3-0.4,0.7-0.6,1.2-0.6
				c0.4,0,0.8,0.1,1.2,0.4c0.2,0.2,0.4,0.4,0.5,0.7s0.1,0.5,0,0.8c0,0.3-0.2,0.5-0.3,0.8c-0.1,0.2-0.4,0.5-0.7,0.9
				c-0.4,0.5-0.6,0.8-0.7,1.1c0.1,0.2,0.3,0.4,0.4,0.5c0.2,0.1,0.3,0.2,0.5,0.2c0.3,0,0.6-0.2,0.8-0.5c0.3-0.3,0.4-0.6,0.5-0.9
				c0-0.3,0-0.6-0.2-0.9l0.7-0.6c0.3,0.5,0.4,1,0.3,1.5c-0.1,0.5-0.3,1-0.7,1.5c-0.5,0.5-0.9,0.8-1.4,0.9c-0.4,0.1-0.7,0-1-0.3
				c-0.2-0.2-0.4-0.5-0.7-0.8l-0.8-1.1c-0.3-0.4-0.5-0.6-0.7-0.8c-0.1-0.1-0.3-0.3-0.6-0.4l0.6-0.7
				C236,631.2,236.2,631.4,236.4,631.5z M237.7,633.2c0.1-0.1,0.1-0.3,0.2-0.4c0.1-0.1,0.2-0.3,0.4-0.6c0.3-0.4,0.5-0.8,0.6-1
				s0.1-0.4,0.1-0.6c0-0.2-0.1-0.4-0.3-0.5c-0.2-0.2-0.4-0.3-0.7-0.2c-0.2,0-0.5,0.2-0.7,0.4s-0.3,0.5-0.4,0.8
				c-0.1,0.3-0.1,0.6,0.1,1C237.2,632.4,237.4,632.8,237.7,633.2z"/>
			<path class="st11" d="M236.1,638.9l-1,1l-3.5-2.7l1.3,4.9l-1,1l-3.1-4.7l0.7-0.7l2.5,3.8l-1.3-4.9l0.6-0.6l3.6,2.8l-2.6-3.9
				l0.7-0.7L236.1,638.9z"/>
			<path class="st11" d="M229.4,645.5l-0.7,0.6l-0.5-0.8c-0.3-0.5-0.5-0.9-0.7-1c-0.2-0.2-0.4-0.2-0.6-0.2c-0.2,0-0.5,0.2-0.7,0.4
				c-0.3,0.3-0.6,0.6-0.7,1l1.4,2.3l-0.7,0.6l-2.9-4.8l0.7-0.6l1.1,1.8c0.2-0.4,0.5-0.8,0.8-1.1c0.4-0.4,0.8-0.6,1.2-0.6
				s0.7,0.1,1,0.4c0.1,0.1,0.4,0.6,0.9,1.3L229.4,645.5z"/>
			<path class="st11" d="M218.5,648.9c0.1-0.4,0.1-0.8,0.3-1.1c0.1-0.3,0.3-0.6,0.6-0.8c0.4-0.3,0.8-0.5,1.2-0.5s0.8,0.2,1.1,0.5
				c0.2,0.2,0.3,0.5,0.4,0.7c0.1,0.3,0,0.5,0,0.8c-0.1,0.3-0.2,0.5-0.4,0.8c-0.1,0.2-0.4,0.5-0.8,0.9c-0.4,0.4-0.7,0.7-0.8,1
				c0.1,0.2,0.2,0.4,0.3,0.5c0.1,0.2,0.3,0.2,0.5,0.2c0.3,0,0.6-0.2,0.9-0.4c0.3-0.3,0.5-0.5,0.5-0.8c0.1-0.3,0-0.6-0.1-0.9l0.8-0.6
				c0.2,0.5,0.3,1,0.2,1.5s-0.4,1-0.9,1.4c-0.5,0.5-1,0.7-1.5,0.7c-0.4,0-0.7-0.1-1-0.4c-0.2-0.2-0.4-0.5-0.6-0.8l-0.7-1.2
				c-0.2-0.4-0.4-0.7-0.6-0.9c-0.1-0.1-0.3-0.3-0.6-0.5l0.7-0.6C218.2,648.6,218.3,648.7,218.5,648.9z M219.7,650.7
				c0.1-0.1,0.1-0.2,0.2-0.4c0.1-0.1,0.3-0.3,0.5-0.6c0.4-0.4,0.6-0.7,0.7-0.9c0.1-0.2,0.2-0.4,0.1-0.6c0-0.2-0.1-0.4-0.2-0.5
				c-0.2-0.2-0.4-0.3-0.6-0.3c-0.2,0-0.5,0.1-0.7,0.3s-0.4,0.5-0.5,0.8s-0.1,0.6,0,1C219.2,649.8,219.4,650.2,219.7,650.7z"/>
			<path class="st11" d="M215,651.1l2.9,4.8l-0.7,0.6l-0.5-0.8c0,0.5,0,0.9-0.1,1.2s-0.3,0.6-0.5,0.8s-0.5,0.4-0.8,0.4
				s-0.6,0-0.8-0.2c0,0.4,0,0.8-0.1,1.2c-0.1,0.3-0.3,0.6-0.5,0.9c-0.3,0.3-0.7,0.5-1,0.5s-0.6-0.1-0.9-0.4
				c-0.1-0.1-0.3-0.4-0.5-0.7l-1.9-3.1l0.7-0.6l1.9,3.1c0.2,0.3,0.3,0.4,0.4,0.5c0.1,0.1,0.3,0.2,0.4,0.2c0.2,0,0.3-0.1,0.5-0.2
				c0.2-0.2,0.4-0.4,0.4-0.8c0.1-0.3,0.1-0.6,0-0.9c-0.1-0.3-0.3-0.7-0.6-1.2l-1.4-2.3l0.7-0.6l2,3.2c0.1,0.2,0.2,0.4,0.3,0.4
				c0.1,0.1,0.3,0.2,0.4,0.2c0.2,0,0.3-0.1,0.4-0.2c0.2-0.2,0.3-0.4,0.4-0.8c0.1-0.3,0.1-0.7,0-1s-0.3-0.8-0.6-1.2l-1.4-2.2
				L215,651.1z"/>
			<path class="st11" d="M209.6,663.9l-0.6,0.7l-1.3-2l-0.1,0.1c-0.2,0.2-0.3,0.4-0.3,0.6c0,0.2,0.1,0.6,0.2,1.1
				c0.1,0.6,0.2,1,0.2,1.2c0,0.3-0.2,0.5-0.4,0.8l-0.3,0.3l-0.4-0.6l0.2-0.2c0.2-0.2,0.2-0.3,0.3-0.4c0-0.1,0-0.3-0.1-0.6
				c-0.1-0.4-0.2-0.8-0.2-1s0.1-0.5,0.2-0.8c-0.2,0.1-0.4,0.1-0.7,0.1c-0.2,0-0.5-0.1-0.8-0.2l-1.6-0.7l0.7-0.7l1.3,0.6
				c0.5,0.2,0.9,0.3,1.1,0.3c0.2,0,0.4-0.1,0.7-0.4l-1.5-2.2l0.6-0.7L209.6,663.9z"/>
			<path class="st11" d="M199.9,667.3c0-0.4,0.1-0.8,0.2-1.1c0.1-0.3,0.3-0.6,0.5-0.8c0.3-0.4,0.7-0.6,1.1-0.6
				c0.4,0,0.8,0.1,1.2,0.4c0.2,0.2,0.4,0.4,0.5,0.7s0.1,0.5,0,0.8c0,0.3-0.2,0.5-0.3,0.8c-0.1,0.2-0.4,0.5-0.7,1
				c-0.4,0.5-0.6,0.8-0.7,1.1c0.1,0.2,0.3,0.4,0.4,0.5c0.2,0.1,0.3,0.2,0.5,0.2c0.3,0,0.5-0.2,0.8-0.5s0.4-0.6,0.4-0.9
				c0-0.3,0-0.6-0.2-0.9l0.7-0.6c0.3,0.5,0.4,1,0.3,1.5c-0.1,0.5-0.3,1-0.7,1.5c-0.5,0.5-0.9,0.8-1.4,0.9c-0.4,0.1-0.7,0-1-0.3
				c-0.2-0.2-0.4-0.5-0.7-0.8l-0.8-1.1c-0.3-0.4-0.5-0.6-0.7-0.8c-0.1-0.1-0.3-0.3-0.6-0.4l0.6-0.7
				C199.5,667,199.7,667.1,199.9,667.3z M201.2,668.9c0-0.1,0.1-0.3,0.2-0.4c0.1-0.1,0.2-0.3,0.4-0.6c0.3-0.4,0.5-0.8,0.6-1
				s0.1-0.4,0.1-0.6c0-0.2-0.1-0.4-0.3-0.5c-0.2-0.2-0.4-0.3-0.7-0.2c-0.2,0-0.5,0.2-0.7,0.4s-0.3,0.5-0.4,0.8c-0.1,0.3,0,0.6,0.1,1
				C200.7,668.1,200.9,668.5,201.2,668.9z"/>
			<path class="st11" d="M488.5,88.9l4.6-6.2l5.4,2.4l-4.6,6.2l-0.9-0.4l4.1-5.5l-3.6-1.6l-4.1,5.5L488.5,88.9z"/>
			<path class="st11" d="M502.5,91.8l0.9,0.2c-0.2,0.4-0.6,0.8-1.1,1.1c-0.5,0.3-1.1,0.4-1.8,0.3c-0.4-0.1-0.8-0.2-1.1-0.5
				c-0.3-0.2-0.5-0.6-0.6-0.9c-0.1-0.4-0.1-0.8-0.1-1.2c0.1-0.6,0.3-1.1,0.7-1.6c0.4-0.5,0.8-0.9,1.3-1.1s1-0.3,1.5-0.2
				c0.6,0.1,1.1,0.4,1.4,0.9s0.4,1,0.3,1.7c0,0.3-0.1,0.5-0.2,0.8l-4-0.6c0,0.1-0.1,0.2-0.1,0.3c-0.1,0.5,0,0.9,0.2,1.2
				c0.2,0.3,0.5,0.5,0.8,0.5c0.3,0.1,0.6,0,1-0.2C502,92.4,502.3,92.1,502.5,91.8z M500.1,90l3,0.5c0-0.1,0-0.2,0-0.2
				c0.1-0.5,0-0.8-0.2-1.1c-0.2-0.3-0.5-0.5-0.8-0.5c-0.4-0.1-0.8,0-1.1,0.2C500.6,89.1,500.3,89.5,500.1,90z"/>
			<path class="st11" d="M508.2,88.7l0.9,0.1l-0.9,2.2l2.5,0.4l0.8-2.2l0.9,0.1l-2,5.2l-0.9-0.1l0.9-2.3l-2.5-0.4L507,94l-0.9-0.1
				L508.2,88.7z"/>
			<path class="st11" d="M520.1,91.9l0.8,0.4l-1.5,1.9h0.1c0.2,0.1,0.4,0.1,0.6,0c0.2-0.1,0.6-0.3,1-0.5c0.5-0.3,0.9-0.5,1.1-0.5
				c0.3,0,0.5,0,0.8,0.1c0.2,0.1,0.3,0.2,0.5,0.3l-0.4,0.4c-0.1-0.1-0.2-0.2-0.3-0.2c-0.1-0.1-0.3-0.1-0.4,0c-0.1,0-0.4,0.2-0.7,0.4
				c-0.6,0.4-1.2,0.6-1.7,0.6c0.1,0.1,0.2,0.3,0.3,0.5s0.1,0.5,0.1,0.9l-0.1,1.9l-0.9-0.4l0.1-1.5c0-0.5,0-0.8,0-1
				c-0.1-0.2-0.2-0.4-0.4-0.5l-1.6,2.1l-0.8-0.4l1.6-2.1c-0.2-0.1-0.4-0.1-0.6-0.1c-0.2,0-0.6,0.2-1.2,0.5l-1.7,0.8l-1-0.5l2.1-1
				c0.6-0.3,1.2-0.4,1.7-0.3c-0.1-0.2-0.2-0.4-0.2-0.6s0-0.6,0.2-1c0.1-0.2,0.1-0.4,0.1-0.5s-0.1-0.2-0.2-0.2
				c-0.1,0-0.2-0.1-0.4-0.1l0.3-0.5c0.2,0,0.3,0.1,0.5,0.2c0.3,0.1,0.5,0.3,0.5,0.5s0,0.6-0.1,1c-0.1,0.5-0.1,0.8-0.1,0.9
				c0,0.2,0.2,0.3,0.4,0.4L520.1,91.9z"/>
			<path class="st11" d="M526.8,101.3c-1,0.2-1.7,0.1-2.3-0.4c-0.3-0.3-0.5-0.6-0.6-0.9s0-0.7,0.2-0.9c0.1-0.2,0.4-0.5,0.9-0.8
				l2.5-2.1l0.7,0.6l-2.7,2.3c-0.2,0.2-0.4,0.4-0.5,0.5c-0.1,0.2-0.2,0.3-0.1,0.5c0,0.2,0.1,0.3,0.3,0.5s0.4,0.3,0.7,0.3
				c0.3,0.1,0.6,0,0.8,0c0.3-0.1,0.6-0.2,0.8-0.3c0.2-0.1,0.4-0.3,0.8-0.6l1.8-1.6l0.7,0.6l-4.3,3.6l-0.7-0.5L526.8,101.3z"/>
			<path class="st11" d="M534.3,101.8l0.7,0.7l-2,1.3l1.8,1.8l2-1.3l0.6,0.6l-4.7,3l-0.7-0.7l2.1-1.4l-1.8-1.8l-2.1,1.4l-0.7-0.7
				L534.3,101.8z"/>
			<path class="st11" d="M538.1,112.8c-0.4-0.1-0.8-0.1-1.1-0.3c-0.3-0.1-0.6-0.3-0.8-0.6c-0.3-0.4-0.5-0.8-0.5-1.2
				c0-0.4,0.2-0.8,0.5-1.1c0.2-0.2,0.5-0.3,0.7-0.4c0.3-0.1,0.5,0,0.8,0c0.3,0.1,0.5,0.2,0.8,0.4c0.2,0.1,0.5,0.4,0.9,0.8
				s0.7,0.7,1,0.8c0.2-0.1,0.4-0.2,0.5-0.3c0.2-0.1,0.2-0.3,0.2-0.5c0-0.3-0.2-0.6-0.4-0.9c-0.3-0.3-0.5-0.5-0.8-0.5
				c-0.3-0.1-0.6,0-0.9,0.1l-0.6-0.8c0.5-0.2,1-0.3,1.5-0.2c0.5,0.1,1,0.4,1.4,0.9c0.5,0.5,0.7,1,0.7,1.5c0,0.4-0.1,0.7-0.4,1
				c-0.2,0.2-0.5,0.4-0.8,0.6l-1.2,0.7c-0.4,0.2-0.7,0.4-0.9,0.6c-0.1,0.1-0.3,0.3-0.5,0.6l-0.6-0.7
				C537.8,113.1,537.9,113,538.1,112.8z M539.9,111.6c-0.1-0.1-0.2-0.1-0.4-0.2c-0.1-0.1-0.3-0.3-0.6-0.5c-0.4-0.4-0.7-0.6-0.9-0.7
				s-0.4-0.2-0.6-0.1c-0.2,0-0.4,0.1-0.5,0.2c-0.2,0.2-0.3,0.4-0.3,0.6s0.1,0.5,0.3,0.7s0.5,0.4,0.8,0.5s0.6,0.1,1,0
				C539,112.1,539.4,111.9,539.9,111.6z"/>
			<g>
				<g>
					<g>
						<defs>
							
								<rect id="SVGID_1_" x="194.4" y="736.9" transform="matrix(0.866 -0.5 0.5 0.866 -344.486 199.5675)" width="11.5" height="11.4"/>
						</defs>
						<clipPath id="SVGID_00000038397362808431451960000010998017079996993447_">
							<use xlink:href="#SVGID_1_"  style="overflow:visible;"/>
						</clipPath>
						<g style="clip-path:url(#SVGID_00000038397362808431451960000010998017079996993447_);">
							<path class="st1" d="M195.7,745.1c1.4,2.4,4.5,3.3,7,1.9s3.3-4.5,1.9-7c-1.4-2.4-4.5-3.3-7-1.9S194.3,742.7,195.7,745.1z"/>
							<path class="st13" d="M205.1,739.7c-0.6-1-1.4-1.8-2.4-2.3s-2.2-0.7-3.3-0.5c-1.1,0.1-2.2,0.6-3,1.4s-1.5,1.7-1.8,2.8
								s-0.3,2.3,0.1,3.3c0.4,1.1,1,2,1.9,2.7s2,1.1,3.1,1.2c1.1,0.1,2.3-0.2,3.2-0.8c1.3-0.8,2.3-2,2.7-3.5
								C206.1,742.6,205.9,741,205.1,739.7z M195.9,745c-0.5-0.8-0.7-1.8-0.6-2.8c0.1-1,0.4-1.9,1-2.6c0.6-0.8,1.4-1.3,2.3-1.6
								c0.9-0.3,1.9-0.3,2.8-0.1c0.9,0.2,1.8,0.8,2.4,1.5c0.6,0.7,1,1.6,1.2,2.6c0.1,1,0,1.9-0.5,2.8c-0.4,0.9-1.1,1.6-1.9,2.1
								c-1.1,0.6-2.5,0.8-3.7,0.5C197.6,747,196.6,746.1,195.9,745z"/>
							<path class="st13" d="M203.2,740.8c-0.4-0.6-0.9-1.1-1.5-1.4c-0.6-0.3-1.3-0.4-2-0.3c-0.7,0.1-1.4,0.4-1.9,0.9
								s-0.9,1.1-1.1,1.8c-0.2,0.7-0.2,1.4,0.1,2.1c0.2,0.7,0.6,1.2,1.2,1.7c0.6,0.4,1.2,0.7,1.9,0.7s1.4-0.1,2-0.5
								c0.8-0.5,1.4-1.2,1.7-2.2C203.8,742.6,203.7,741.6,203.2,740.8z M197.9,743.9c-0.3-0.5-0.4-1-0.3-1.5c0-0.5,0.2-1,0.5-1.4
								s0.8-0.7,1.3-0.9s1-0.2,1.5-0.1s1,0.4,1.3,0.8c0.3,0.4,0.6,0.9,0.6,1.4c0.1,0.5,0,1.1-0.3,1.5c-0.2,0.5-0.6,0.9-1.1,1.1
								c-0.6,0.4-1.3,0.4-2,0.3C198.8,745,198.2,744.5,197.9,743.9z"/>
						</g>
					</g>
				</g>
			</g>
			<g>
				<g>
					<g>
						<defs>
							
								<rect id="SVGID_00000113312641479802353740000004928734980436938402_" x="182.7" y="756.7" transform="matrix(0.866 -0.5 0.5 0.866 -355.5621 195.6532)" width="9.2" height="9.2"/>
						</defs>
						<clipPath id="SVGID_00000052804604240393885620000001539456659165081742_">
							<use xlink:href="#SVGID_00000113312641479802353740000004928734980436938402_"  style="overflow:visible;"/>
						</clipPath>
						<g style="clip-path:url(#SVGID_00000052804604240393885620000001539456659165081742_);">
							<path class="st1" d="M184,763.2c1.1,1.8,3.4,2.4,5.2,1.4c1.8-1.1,2.5-3.4,1.4-5.2s-3.4-2.4-5.2-1.4
								C183.6,759,182.9,761.3,184,763.2z"/>
							<path class="st15" d="M188.1,760.8c0.1,0.2,0.1,0.3,0.1,0.5s-0.1,0.4-0.2,0.5c-0.1,0.1-0.3,0.3-0.4,0.3
								c-0.2,0.1-0.4,0.1-0.5,0c-0.2,0-0.3-0.1-0.5-0.3c-0.1-0.1-0.2-0.3-0.2-0.5s0-0.4,0.1-0.5c0.1-0.2,0.2-0.3,0.4-0.4
								c0.2-0.1,0.5-0.2,0.7-0.1C187.8,760.4,188,760.6,188.1,760.8z"/>
							<path class="st16" d="M183.3,763.5c-0.5-0.8-0.7-1.7-0.6-2.6c0.1-0.9,0.4-1.8,0.9-2.5c0.6-0.7,1.3-1.3,2.2-1.6
								s1.8-0.3,2.7-0.1s1.7,0.7,2.3,1.4s1,1.5,1.1,2.4s0,1.8-0.4,2.6s-1,1.5-1.8,1.9c-1.1,0.6-2.3,0.8-3.5,0.5
								C184.9,765.4,183.9,764.6,183.3,763.5z M190.3,759.5c-0.3-0.6-0.8-1.1-1.5-1.4c-0.6-0.3-1.3-0.4-2-0.3
								c-0.7,0.1-1.3,0.4-1.8,0.8c-0.5,0.4-0.9,1-1.1,1.7c-0.2,0.7-0.2,1.4,0.1,2c0.2,0.6,0.6,1.2,1.2,1.6c0.5,0.4,1.2,0.7,1.9,0.7
								s1.4-0.1,1.9-0.5c0.8-0.5,1.4-1.2,1.6-2.1C190.9,761.2,190.7,760.3,190.3,759.5z"/>
						</g>
					</g>
				</g>
			</g>
			<g>
				<g>
					<g>
						<defs>
							
								<rect id="SVGID_00000152974112488960919370000007121816917202167949_" x="485.7" y="195.9" transform="matrix(0.866 -0.5 0.5 0.866 -34.3396 271.6352)" width="8" height="8"/>
						</defs>
						<clipPath id="SVGID_00000156571631288983760050000009539263924848927658_">
							<use xlink:href="#SVGID_00000152974112488960919370000007121816917202167949_"  style="overflow:visible;"/>
						</clipPath>
						<g style="clip-path:url(#SVGID_00000156571631288983760050000009539263924848927658_);">
							<path class="st1" d="M486.5,201.7c1,1.8,3.3,2.3,5,1.3c1.8-1,2.4-3.3,1.4-5c-1-1.8-3.3-2.3-5-1.3
								C486.1,197.7,485.5,200,486.5,201.7z"/>
							<path class="st13" d="M486.2,201.9c-0.4-0.7-0.6-1.5-0.5-2.3s0.3-1.5,0.8-2.2c0.5-0.6,1.1-1.1,1.9-1.4
								c0.8-0.3,1.6-0.3,2.3-0.1c0.8,0.2,1.5,0.6,2,1.2c0.5,0.6,0.9,1.3,1,2.1s0,1.6-0.4,2.3s-0.9,1.3-1.6,1.7c-0.9,0.5-2,0.7-3,0.4
								C487.6,203.5,486.7,202.8,486.2,201.9z M492.1,198.5c-0.3-0.5-0.7-0.9-1.2-1.1c-0.5-0.2-1-0.3-1.6-0.3s-1.1,0.3-1.5,0.7
								s-0.7,0.8-0.8,1.4c-0.1,0.5-0.1,1.1,0.1,1.6s0.5,1,0.9,1.3s1,0.5,1.5,0.6c0.5,0,1.1-0.1,1.6-0.4c0.6-0.4,1.1-1,1.3-1.7
								S492.4,199.1,492.1,198.5z"/>
						</g>
					</g>
				</g>
			</g>
			<g>
				<g>
					<g>
						<defs>
							
								<rect id="SVGID_00000158749948178627839770000005949681661755269300_" x="472.9" y="324.7" transform="matrix(0.866 -0.5 0.5 0.866 -100.4541 282.4839)" width="8" height="8"/>
						</defs>
						<clipPath id="SVGID_00000176005150247020754870000015194690298358166939_">
							<use xlink:href="#SVGID_00000158749948178627839770000005949681661755269300_"  style="overflow:visible;"/>
						</clipPath>
						<g style="clip-path:url(#SVGID_00000176005150247020754870000015194690298358166939_);">
							<path class="st1" d="M473.7,330.6c1,1.8,3.3,2.3,5,1.3c1.8-1,2.4-3.3,1.4-5c-1-1.8-3.3-2.3-5-1.3
								C473.3,326.6,472.7,328.8,473.7,330.6z"/>
							<path class="st13" d="M473.4,330.7c-0.4-0.7-0.6-1.5-0.5-2.3s0.3-1.6,0.8-2.2s1.1-1.1,1.9-1.4s1.6-0.3,2.3-0.1
								c0.8,0.2,1.5,0.6,2,1.2s0.9,1.3,1,2.1c0.1,0.8,0,1.6-0.4,2.3c-0.4,0.7-0.9,1.3-1.6,1.7c-0.9,0.5-2,0.7-3,0.4
								C474.8,332.3,474,331.7,473.4,330.7z M479.3,327.3c-0.3-0.5-0.7-0.9-1.2-1.1s-1-0.3-1.6-0.3c-0.5,0.1-1.1,0.3-1.5,0.7
								c-0.4,0.4-0.7,0.8-0.9,1.4c-0.1,0.5-0.1,1.1,0.1,1.6s0.5,1,0.9,1.3s1,0.5,1.5,0.6c0.5,0,1.1-0.1,1.6-0.4
								c0.6-0.4,1.1-1,1.3-1.7C479.8,328.7,479.7,328,479.3,327.3z"/>
						</g>
					</g>
				</g>
			</g>
			<g>
				<g>
					<g>
						<defs>
							
								<rect id="SVGID_00000079475729682864616640000010081164192771018391_" x="383.6" y="383.7" transform="matrix(0.866 -0.5 0.5 0.866 -141.9189 245.7417)" width="8" height="8"/>
						</defs>
						<clipPath id="SVGID_00000013191209408217731200000003344849053852969891_">
							<use xlink:href="#SVGID_00000079475729682864616640000010081164192771018391_"  style="overflow:visible;"/>
						</clipPath>
						<g style="clip-path:url(#SVGID_00000013191209408217731200000003344849053852969891_);">
							<path class="st1" d="M384.4,389.5c1,1.8,3.3,2.3,5,1.3c1.8-1,2.4-3.3,1.4-5c-1-1.8-3.3-2.3-5-1.3
								C384,385.6,383.4,387.8,384.4,389.5z"/>
							<path class="st13" d="M384.1,389.7c-0.4-0.7-0.6-1.5-0.5-2.3s0.3-1.5,0.8-2.2c0.5-0.6,1.1-1.1,1.9-1.4s1.6-0.3,2.3-0.1
								c0.8,0.2,1.5,0.6,2,1.2s0.9,1.3,1,2.1c0.1,0.8,0,1.6-0.4,2.3c-0.4,0.7-0.9,1.3-1.6,1.7c-0.9,0.5-2,0.7-3,0.4
								C385.5,391.3,384.7,390.6,384.1,389.7z M390,386.3c-0.3-0.5-0.7-0.9-1.2-1.1s-1-0.3-1.6-0.3c-0.5,0.1-1.1,0.3-1.5,0.7
								c-0.4,0.4-0.7,0.8-0.9,1.4c-0.1,0.5-0.1,1.1,0.1,1.6s0.5,1,0.9,1.3s1,0.5,1.5,0.6c0.5,0,1.1-0.1,1.6-0.4
								c0.6-0.4,1.1-1,1.3-1.7C390.5,387.7,390.4,387,390,386.3z"/>
						</g>
					</g>
				</g>
			</g>
			<g>
				<g>
					<g>
						<defs>
							
								<rect id="SVGID_00000089533360872731926590000003261468471650599046_" x="294.3" y="384.7" transform="matrix(0.866 -0.5 0.5 0.866 -154.3857 201.2204)" width="8" height="8"/>
						</defs>
						<clipPath id="SVGID_00000037675045544403920380000001135755151774994334_">
							<use xlink:href="#SVGID_00000089533360872731926590000003261468471650599046_"  style="overflow:visible;"/>
						</clipPath>
						<g style="clip-path:url(#SVGID_00000037675045544403920380000001135755151774994334_);">
							<path class="st1" d="M295.2,390.6c1,1.8,3.3,2.3,5,1.3c1.8-1,2.4-3.3,1.4-5c-1-1.8-3.3-2.3-5-1.3
								C294.8,386.6,294.2,388.8,295.2,390.6z"/>
							<path class="st13" d="M294.9,390.7c-0.4-0.7-0.6-1.5-0.5-2.3s0.3-1.5,0.8-2.2c0.5-0.6,1.1-1.1,1.9-1.4s1.6-0.3,2.3-0.1
								c0.8,0.2,1.5,0.6,2,1.2s0.9,1.3,1,2.1c0.1,0.8,0,1.6-0.4,2.3c-0.4,0.7-0.9,1.3-1.6,1.7c-0.9,0.5-2,0.7-3,0.4
								C296.3,392.3,295.4,391.7,294.9,390.7z M300.7,387.3c-0.3-0.5-0.7-0.9-1.2-1.1s-1-0.3-1.6-0.3c-0.5,0.1-1.1,0.3-1.5,0.7
								c-0.4,0.4-0.7,0.8-0.8,1.4c-0.1,0.5-0.1,1.1,0.1,1.6s0.5,1,0.9,1.3s1,0.5,1.5,0.6c0.5,0,1.1-0.1,1.6-0.4
								c0.6-0.4,1.1-1,1.3-1.7C301.2,388.7,301.1,388,300.7,387.3z"/>
						</g>
					</g>
				</g>
			</g>
			<g>
				<g>
					<g>
						<defs>
							
								<rect id="SVGID_00000181767443239056014100000017262958802115995295_" x="340.9" y="567.7" transform="matrix(0.866 -0.5 0.5 0.866 -239.6433 249.0421)" width="8" height="8"/>
						</defs>
						<clipPath id="SVGID_00000139285910933532468050000008109328531083921825_">
							<use xlink:href="#SVGID_00000181767443239056014100000017262958802115995295_"  style="overflow:visible;"/>
						</clipPath>
						<g style="clip-path:url(#SVGID_00000139285910933532468050000008109328531083921825_);">
							<path class="st1" d="M341.8,573.5c1,1.8,3.3,2.3,5,1.3c1.8-1,2.4-3.3,1.4-5c-1-1.8-3.3-2.3-5-1.3
								C341.3,569.5,340.7,571.8,341.8,573.5z"/>
							<path class="st13" d="M341.5,573.7c-0.4-0.7-0.6-1.5-0.5-2.3s0.3-1.5,0.8-2.2c0.5-0.6,1.1-1.1,1.9-1.4
								c0.8-0.3,1.6-0.3,2.3-0.1c0.8,0.2,1.5,0.6,2,1.2c0.5,0.6,0.9,1.3,1,2.1s0,1.6-0.4,2.3s-0.9,1.3-1.6,1.7c-0.9,0.5-2,0.7-3,0.4
								C342.9,575.3,342,574.6,341.5,573.7z M347.3,570.3c-0.3-0.5-0.7-0.9-1.2-1.1c-0.5-0.2-1-0.3-1.6-0.3
								c-0.5,0.1-1.1,0.3-1.5,0.7s-0.7,0.8-0.8,1.4c-0.1,0.5-0.1,1.1,0,1.6c0.2,0.5,0.5,1,0.9,1.3s1,0.5,1.5,0.6
								c0.5,0,1.1-0.1,1.6-0.4c0.6-0.4,1.1-1,1.3-1.7C347.8,571.7,347.7,571,347.3,570.3z"/>
						</g>
					</g>
				</g>
			</g>
			<g>
				<g>
					<g>
						<defs>
							
								<rect id="SVGID_00000066485966991888963330000007748544917297219210_" x="290.8" y="558.7" transform="matrix(0.866 -0.5 0.5 0.866 -241.8608 222.7866)" width="8" height="8"/>
						</defs>
						<clipPath id="SVGID_00000129922317338631931300000012671988313392646549_">
							<use xlink:href="#SVGID_00000066485966991888963330000007748544917297219210_"  style="overflow:visible;"/>
						</clipPath>
						<g style="clip-path:url(#SVGID_00000129922317338631931300000012671988313392646549_);">
							<path class="st1" d="M291.7,564.5c1,1.8,3.3,2.3,5,1.3c1.8-1,2.4-3.3,1.4-5c-1-1.8-3.3-2.3-5-1.3
								C291.3,560.5,290.7,562.8,291.7,564.5z"/>
							<path class="st13" d="M291.4,564.7c-0.4-0.7-0.6-1.5-0.5-2.3s0.3-1.6,0.8-2.2c0.5-0.6,1.1-1.1,1.9-1.4
								c0.8-0.3,1.6-0.3,2.3-0.1c0.8,0.2,1.5,0.6,2,1.2c0.5,0.6,0.9,1.3,1,2.1s0,1.6-0.4,2.3s-0.9,1.3-1.6,1.7c-0.9,0.5-2,0.7-3,0.4
								C292.8,566.3,291.9,565.6,291.4,564.7z M297.3,561.3c-0.3-0.5-0.7-0.9-1.2-1.1c-0.5-0.2-1-0.3-1.6-0.3
								c-0.5,0.1-1.1,0.3-1.5,0.7s-0.7,0.8-0.8,1.4c-0.1,0.5-0.1,1.1,0,1.6s0.5,1,0.9,1.3s1,0.5,1.5,0.6c0.5,0,1.1-0.1,1.6-0.4
								c0.6-0.4,1.1-1,1.3-1.7C297.7,562.7,297.6,561.9,297.3,561.3z"/>
						</g>
					</g>
				</g>
			</g>
			<g>
				<g>
					<g>
						<defs>
							
								<rect id="SVGID_00000017518901654576994170000011654097332722805418_" x="202.4" y="623.2" transform="matrix(0.866 -0.5 0.5 0.866 -285.9482 187.2332)" width="8" height="8"/>
						</defs>
						<clipPath id="SVGID_00000103252212766110200670000017980987519845702324_">
							<use xlink:href="#SVGID_00000017518901654576994170000011654097332722805418_"  style="overflow:visible;"/>
						</clipPath>
						<g style="clip-path:url(#SVGID_00000103252212766110200670000017980987519845702324_);">
							<path class="st1" d="M203.2,629c1,1.8,3.3,2.3,5,1.3c1.8-1,2.4-3.3,1.4-5c-1-1.8-3.3-2.3-5-1.3
								C202.8,625,202.2,627.3,203.2,629z"/>
							<path class="st13" d="M202.9,629.2c-0.4-0.7-0.6-1.5-0.5-2.3s0.3-1.5,0.8-2.2c0.5-0.6,1.1-1.1,1.9-1.4
								c0.8-0.3,1.6-0.3,2.3-0.1c0.8,0.2,1.5,0.6,2,1.2c0.5,0.6,0.9,1.3,1,2.1s0,1.6-0.4,2.3s-0.9,1.3-1.6,1.7c-0.9,0.5-2,0.7-3,0.4
								C204.3,630.8,203.5,630.1,202.9,629.2z M208.8,625.8c-0.3-0.5-0.7-0.9-1.2-1.1c-0.5-0.2-1-0.3-1.6-0.3
								c-0.5,0.1-1.1,0.3-1.5,0.7s-0.7,0.8-0.9,1.4c-0.1,0.5-0.1,1.1,0,1.6c0.2,0.5,0.5,1,0.9,1.3s1,0.5,1.5,0.6
								c0.5,0,1.1-0.1,1.6-0.4c0.6-0.4,1.1-1,1.3-1.7C209.3,627.2,209.2,626.4,208.8,625.8z"/>
						</g>
					</g>
				</g>
			</g>
			<g>
				<g>
					<g>
						<defs>
							
								<rect id="SVGID_00000119828721372747583070000011160955724710176168_" x="100.7" y="756.9" transform="matrix(0.866 -0.5 0.5 0.866 -366.4193 154.2945)" width="8" height="8"/>
						</defs>
						<clipPath id="SVGID_00000040546278862276594450000004789138308548123573_">
							<use xlink:href="#SVGID_00000119828721372747583070000011160955724710176168_"  style="overflow:visible;"/>
						</clipPath>
						<g style="clip-path:url(#SVGID_00000040546278862276594450000004789138308548123573_);">
							<path class="st1" d="M101.5,762.8c1,1.8,3.3,2.3,5,1.3c1.8-1,2.4-3.3,1.4-5c-1-1.8-3.3-2.3-5-1.3
								C101.1,758.8,100.5,761,101.5,762.8z"/>
							<path class="st13" d="M101.2,762.9c-0.4-0.7-0.6-1.5-0.5-2.3s0.3-1.5,0.8-2.2c0.5-0.6,1.1-1.1,1.9-1.4
								c0.8-0.3,1.6-0.3,2.3-0.1c0.8,0.2,1.5,0.6,2,1.2c0.5,0.6,0.9,1.3,1,2.1s0,1.6-0.4,2.3s-0.9,1.3-1.6,1.7c-0.9,0.5-2,0.7-3,0.4
								C102.6,764.5,101.7,763.8,101.2,762.9z M107.1,759.5c-0.3-0.5-0.7-0.9-1.2-1.1c-0.5-0.2-1-0.3-1.6-0.3
								c-0.5,0.1-1.1,0.3-1.5,0.7s-0.7,0.8-0.8,1.4c-0.1,0.5-0.1,1.1,0,1.6c0.2,0.5,0.5,1,0.9,1.3s1,0.5,1.5,0.6
								c0.5,0,1.1-0.1,1.6-0.4c0.6-0.4,1.1-1,1.3-1.7C107.5,760.9,107.4,760.2,107.1,759.5z"/>
						</g>
					</g>
				</g>
			</g>
			<g>
				<g>
					<g>
						<defs>
							
								<rect id="SVGID_00000111884413375702289950000008890304156383005871_" x="97.9" y="829.5" transform="matrix(0.866 -0.5 0.5 0.866 -403.0957 162.6248)" width="8" height="8"/>
						</defs>
						<clipPath id="SVGID_00000071520114307826819110000003575021721085580951_">
							<use xlink:href="#SVGID_00000111884413375702289950000008890304156383005871_"  style="overflow:visible;"/>
						</clipPath>
						<g style="clip-path:url(#SVGID_00000071520114307826819110000003575021721085580951_);">
							<path class="st1" d="M98.7,835.3c1,1.8,3.3,2.3,5,1.3c1.8-1,2.4-3.3,1.4-5c-1-1.8-3.3-2.3-5-1.3
								C98.3,831.3,97.7,833.6,98.7,835.3z"/>
							<path class="st13" d="M98.4,835.5c-0.4-0.7-0.6-1.5-0.5-2.3s0.3-1.5,0.8-2.2c0.5-0.6,1.1-1.1,1.9-1.4
								c0.8-0.3,1.6-0.3,2.3-0.1c0.8,0.2,1.5,0.6,2,1.2c0.5,0.6,0.9,1.3,1,2.1s0,1.6-0.4,2.3s-0.9,1.3-1.6,1.7c-0.9,0.5-2,0.7-3,0.4
								C99.8,837.1,98.9,836.4,98.4,835.5z M104.3,832.1c-0.3-0.5-0.7-0.9-1.2-1.1c-0.5-0.2-1-0.3-1.6-0.3c-0.5,0.1-1.1,0.3-1.5,0.7
								s-0.7,0.8-0.8,1.4c-0.1,0.5-0.1,1.1,0.1,1.6s0.5,1,0.9,1.3s1,0.5,1.5,0.6c0.5,0,1.1-0.1,1.6-0.4c0.6-0.4,1.1-1,1.3-1.7
								C104.7,833.5,104.6,832.7,104.3,832.1z"/>
						</g>
					</g>
				</g>
			</g>
			<g>
				<g>
					<g>
						<defs>
							
								<rect id="SVGID_00000070831871539593338850000007908261632946097556_" x="65.3" y="872.9" transform="matrix(0.866 -0.5 0.5 0.866 -429.1616 152.1306)" width="8" height="8"/>
						</defs>
						<clipPath id="SVGID_00000007401556423604437800000013015046857180951224_">
							<use xlink:href="#SVGID_00000070831871539593338850000007908261632946097556_"  style="overflow:visible;"/>
						</clipPath>
						<g style="clip-path:url(#SVGID_00000007401556423604437800000013015046857180951224_);">
							<path class="st1" d="M66.1,878.8c1,1.8,3.3,2.3,5,1.3c1.8-1,2.4-3.3,1.4-5c-1-1.8-3.3-2.3-5-1.3
								C65.7,874.8,65.1,877,66.1,878.8z"/>
							<path class="st13" d="M65.8,879c-0.4-0.7-0.6-1.5-0.5-2.3s0.3-1.5,0.8-2.2c0.5-0.6,1.1-1.1,1.9-1.4c0.8-0.3,1.6-0.3,2.3-0.1
								c0.8,0.2,1.5,0.6,2,1.2c0.5,0.6,0.9,1.3,1,2.1s0,1.6-0.4,2.3s-0.9,1.3-1.6,1.7c-0.9,0.5-2,0.7-3,0.4
								C67.2,880.5,66.4,879.9,65.8,879z M71.7,875.6c-0.3-0.5-0.7-0.9-1.2-1.1s-1-0.3-1.6-0.3c-0.5,0.1-1.1,0.3-1.5,0.7
								s-0.7,0.8-0.8,1.4c-0.1,0.5-0.1,1.1,0,1.6c0.2,0.5,0.5,1,0.9,1.3s1,0.5,1.5,0.6c0.5,0,1.1-0.1,1.6-0.4c0.6-0.4,1.1-1,1.3-1.7
								C72.2,876.9,72.1,876.2,71.7,875.6z"/>
						</g>
					</g>
				</g>
			</g>
			<path class="st1" d="M178.7,754.8l1.3-6.4h5.1l-1.3,6.4h-0.9l1.2-5.7h-3.3l-1.2,5.7H178.7z M188.6,753.2l0.8,0.1
				c-0.1,0.4-0.4,0.7-0.8,1.1c-0.4,0.3-0.9,0.5-1.4,0.5c-0.3,0-0.7-0.1-1-0.2c-0.3-0.2-0.5-0.4-0.7-0.7c-0.1-0.3-0.2-0.7-0.2-1
				c0-0.5,0.1-1,0.4-1.5c0.2-0.5,0.5-0.8,0.9-1.1c0.4-0.2,0.8-0.4,1.2-0.4c0.6,0,1,0.2,1.3,0.5s0.5,0.8,0.5,1.4c0,0.2,0,0.5-0.1,0.7
				h-3.4c0,0.1,0,0.2,0,0.2c0,0.4,0.1,0.8,0.3,1s0.4,0.3,0.7,0.3s0.5-0.1,0.8-0.3C188.2,753.8,188.4,753.5,188.6,753.2z M186.3,752
				h2.6c0-0.1,0-0.1,0-0.2c0-0.4-0.1-0.7-0.3-0.9s-0.5-0.3-0.8-0.3s-0.6,0.1-0.9,0.4C186.6,751.2,186.4,751.6,186.3,752z
				 M190.1,754.8l1-4.7h0.8l-0.2,0.8c0.3-0.3,0.6-0.6,0.8-0.7c0.2-0.1,0.5-0.2,0.8-0.2s0.5,0.1,0.7,0.2c0.2,0.2,0.3,0.4,0.4,0.6
				c0.2-0.3,0.5-0.5,0.7-0.7c0.3-0.1,0.5-0.2,0.8-0.2c0.4,0,0.7,0.1,0.9,0.3s0.3,0.4,0.3,0.8c0,0.1,0,0.4-0.1,0.7l-0.6,3h-0.8
				l0.6-3.1c0.1-0.3,0.1-0.4,0.1-0.5c0-0.2,0-0.3-0.1-0.4c-0.1-0.1-0.2-0.1-0.4-0.1s-0.5,0.1-0.7,0.2c-0.2,0.1-0.4,0.3-0.6,0.6
				c-0.1,0.2-0.3,0.6-0.4,1.1l-0.5,2.3h-0.8l0.7-3.2c0-0.2,0.1-0.4,0.1-0.5c0-0.2,0-0.3-0.1-0.4c-0.1-0.1-0.2-0.1-0.4-0.1
				s-0.5,0.1-0.7,0.2c-0.2,0.1-0.4,0.3-0.6,0.6c-0.2,0.3-0.3,0.6-0.4,1.1l-0.5,2.2h-0.8V754.8z M197.1,756.6l1.3-6.5h0.7l-0.1,0.6
				c0.3-0.3,0.5-0.5,0.7-0.6s0.4-0.2,0.7-0.2c0.4,0,0.8,0.2,1.1,0.5s0.4,0.8,0.4,1.4c0,0.5-0.1,0.9-0.2,1.3c-0.2,0.4-0.4,0.7-0.6,1
				c-0.2,0.2-0.5,0.4-0.7,0.5s-0.5,0.2-0.7,0.2c-0.6,0-1-0.3-1.3-0.9l-0.5,2.5h-0.8L197.1,756.6L197.1,756.6z M198.6,752.9
				c0,0.3,0,0.6,0.1,0.7c0.1,0.2,0.2,0.3,0.4,0.5c0.2,0.1,0.4,0.2,0.6,0.2c0.5,0,0.8-0.3,1.1-0.8s0.4-1,0.4-1.6
				c0-0.4-0.1-0.7-0.3-0.9s-0.4-0.3-0.7-0.3c-0.2,0-0.4,0.1-0.6,0.2c-0.2,0.1-0.3,0.3-0.5,0.5c-0.1,0.2-0.3,0.5-0.4,0.8
				C198.7,752.4,198.6,752.6,198.6,752.9z M202.6,753c0-0.9,0.3-1.7,0.8-2.3c0.4-0.5,1-0.7,1.7-0.7c0.6,0,1,0.2,1.4,0.5
				c0.3,0.4,0.5,0.8,0.5,1.4c0,0.5-0.1,1-0.3,1.5s-0.5,0.8-0.9,1.1c-0.4,0.2-0.8,0.4-1.3,0.4c-0.4,0-0.7-0.1-1-0.2
				c-0.3-0.2-0.5-0.4-0.7-0.7C202.7,753.7,202.6,753.4,202.6,753z M203.4,752.9c0,0.4,0.1,0.8,0.3,1s0.5,0.3,0.8,0.3
				c0.2,0,0.3,0,0.5-0.1s0.3-0.2,0.5-0.3c0.1-0.1,0.3-0.3,0.4-0.5c0.1-0.2,0.2-0.4,0.2-0.6c0.1-0.3,0.1-0.6,0.1-0.8
				c0-0.4-0.1-0.7-0.3-1c-0.2-0.2-0.5-0.4-0.8-0.4c-0.2,0-0.5,0.1-0.7,0.2c-0.2,0.1-0.4,0.3-0.6,0.5c-0.2,0.2-0.3,0.5-0.4,0.8
				C203.4,752.4,203.4,752.7,203.4,752.9z M208.4,750.1h3.7l-1,4.7h-0.8l0.9-4H209l-0.9,4h-0.8L208.4,750.1z M215.6,754.2
				c-0.3,0.2-0.5,0.4-0.8,0.5s-0.5,0.2-0.8,0.2c-0.4,0-0.8-0.1-1-0.4c-0.3-0.3-0.4-0.6-0.4-1c0-0.3,0.1-0.5,0.2-0.7
				c0.1-0.2,0.3-0.4,0.5-0.5s0.4-0.2,0.7-0.3c0.2,0,0.5-0.1,1-0.1s0.9-0.1,1.1-0.2c0.1-0.2,0.1-0.4,0.1-0.5c0-0.2-0.1-0.3-0.2-0.4
				c-0.2-0.1-0.5-0.2-0.8-0.2s-0.6,0.1-0.8,0.2c-0.2,0.1-0.4,0.4-0.5,0.6l-0.8-0.1c0.2-0.5,0.4-0.8,0.8-1.1c0.4-0.2,0.8-0.4,1.3-0.4
				c0.6,0,1,0.1,1.4,0.4c0.3,0.2,0.4,0.5,0.4,0.8c0,0.2,0,0.5-0.1,0.9l-0.3,1.2c-0.1,0.4-0.1,0.7-0.1,0.9c0,0.1,0,0.4,0.1,0.6h-0.8
				C215.6,754.6,215.6,754.4,215.6,754.2z M215.9,752.4c-0.1,0-0.2,0.1-0.4,0.1c-0.1,0-0.3,0-0.6,0.1c-0.5,0-0.8,0.1-1,0.2
				c-0.2,0.1-0.3,0.2-0.4,0.3c-0.1,0.1-0.1,0.3-0.1,0.5s0.1,0.4,0.2,0.5c0.2,0.1,0.4,0.2,0.7,0.2s0.5-0.1,0.8-0.2
				c0.2-0.1,0.4-0.3,0.6-0.6C215.7,753.2,215.8,752.9,215.9,752.4z M220.5,752.3c0.3,0.1,0.5,0.2,0.7,0.4c0.1,0.2,0.2,0.4,0.2,0.7
				c0,0.4-0.2,0.7-0.5,1s-0.8,0.5-1.4,0.5c-0.5,0-0.8-0.1-1.1-0.2c-0.3-0.2-0.5-0.4-0.6-0.7c-0.2-0.3-0.2-0.6-0.2-1
				c0-0.8,0.2-1.5,0.7-2.1s1.1-0.9,1.9-0.9c0.5,0,0.9,0.1,1.1,0.3c0.3,0.2,0.4,0.5,0.4,0.8s-0.1,0.5-0.3,0.7
				C221.2,752.1,220.9,752.2,220.5,752.3z M218.5,752c0.2,0,0.4,0,0.6,0c0.6,0,1.1-0.1,1.4-0.2c0.3-0.1,0.5-0.3,0.5-0.6
				c0-0.2-0.1-0.3-0.2-0.4c-0.1-0.1-0.3-0.2-0.5-0.2c-0.4,0-0.7,0.1-1,0.4C218.9,751.2,218.7,751.6,218.5,752z M218.4,752.6
				c0,0.1,0,0.2,0,0.4c0,0.4,0.1,0.7,0.3,0.9s0.5,0.4,0.9,0.4c0.3,0,0.6-0.1,0.7-0.2c0.2-0.2,0.3-0.4,0.3-0.6c0-0.3-0.1-0.5-0.4-0.6
				c-0.3-0.1-0.7-0.2-1.4-0.2C218.8,752.6,218.6,752.6,218.4,752.6z M223.2,750.1h3.5l-1,4.7h-0.8l0.9-4h-2l-0.6,2.8
				c-0.1,0.5-0.2,0.8-0.4,1s-0.4,0.3-0.7,0.3c-0.2,0-0.4,0-0.7-0.1l0.1-0.7c0.1,0,0.2,0,0.3,0c0.2,0,0.3,0,0.4-0.1
				c0.1-0.1,0.2-0.4,0.3-0.9L223.2,750.1z M227.1,753c0-0.9,0.3-1.7,0.8-2.3c0.4-0.5,1-0.7,1.7-0.7c0.6,0,1,0.2,1.4,0.5
				c0.3,0.4,0.5,0.8,0.5,1.4c0,0.5-0.1,1-0.3,1.5s-0.5,0.8-0.9,1.1c-0.4,0.2-0.8,0.4-1.3,0.4c-0.4,0-0.7-0.1-1-0.2
				c-0.3-0.2-0.5-0.4-0.7-0.7S227.1,753.4,227.1,753z M227.9,752.9c0,0.4,0.1,0.8,0.3,1s0.5,0.3,0.8,0.3c0.2,0,0.3,0,0.5-0.1
				s0.3-0.2,0.5-0.3c0.1-0.1,0.3-0.3,0.4-0.5c0.1-0.2,0.2-0.4,0.2-0.6c0.1-0.3,0.1-0.6,0.1-0.8c0-0.4-0.1-0.7-0.3-1
				c-0.2-0.2-0.5-0.4-0.8-0.4c-0.2,0-0.5,0.1-0.7,0.2c-0.2,0.1-0.4,0.3-0.6,0.5c-0.2,0.2-0.3,0.5-0.4,0.8
				C227.9,752.4,227.9,752.7,227.9,752.9z M235,752.3c0.3,0.1,0.5,0.2,0.7,0.4c0.1,0.2,0.2,0.4,0.2,0.7c0,0.4-0.2,0.7-0.5,1
				s-0.8,0.5-1.4,0.5c-0.5,0-0.8-0.1-1.1-0.2c-0.3-0.2-0.5-0.4-0.6-0.7c-0.2-0.3-0.2-0.6-0.2-1c0-0.8,0.2-1.5,0.7-2.1
				s1.1-0.9,1.9-0.9c0.5,0,0.9,0.1,1.1,0.3c0.3,0.2,0.4,0.5,0.4,0.8s-0.1,0.5-0.3,0.7C235.7,752.1,235.4,752.2,235,752.3z M233,752
				c0.2,0,0.4,0,0.6,0c0.6,0,1.1-0.1,1.4-0.2c0.3-0.1,0.5-0.3,0.5-0.6c0-0.2-0.1-0.3-0.2-0.4c-0.1-0.1-0.3-0.2-0.5-0.2
				c-0.4,0-0.7,0.1-1,0.4C233.4,751.2,233.2,751.6,233,752z M232.9,752.6c0,0.1,0,0.2,0,0.4c0,0.4,0.1,0.7,0.3,0.9s0.5,0.4,0.9,0.4
				c0.3,0,0.6-0.1,0.7-0.2c0.2-0.2,0.3-0.4,0.3-0.6c0-0.3-0.1-0.5-0.4-0.6c-0.3-0.1-0.7-0.2-1.4-0.2
				C233.3,752.6,233.1,752.6,232.9,752.6z M239.7,753.1l0.8,0.1c-0.2,0.6-0.5,1-0.9,1.3s-0.8,0.4-1.3,0.4s-0.9-0.2-1.2-0.5
				s-0.5-0.8-0.5-1.4c0-0.5,0.1-1,0.3-1.5s0.5-0.9,0.9-1.1c0.4-0.3,0.8-0.4,1.3-0.4s0.9,0.1,1.2,0.4c0.3,0.3,0.4,0.7,0.4,1.1
				l-0.8,0.1c0-0.3-0.1-0.5-0.3-0.7s-0.4-0.3-0.7-0.3s-0.6,0.1-0.8,0.3s-0.4,0.5-0.6,0.9c-0.1,0.4-0.2,0.8-0.2,1.2s0.1,0.7,0.3,0.9
				s0.4,0.3,0.7,0.3s0.5-0.1,0.7-0.3C239.3,753.8,239.5,753.5,239.7,753.1z M241.9,750.1h0.8l-0.4,2h0.1c0.2,0,0.4-0.1,0.5-0.2
				c0.1-0.1,0.3-0.4,0.6-0.8c0.3-0.4,0.5-0.7,0.7-0.8s0.4-0.2,0.7-0.2h0.4l-0.1,0.6H245c-0.2,0-0.3,0-0.4,0.1
				c-0.1,0.1-0.2,0.2-0.3,0.5c-0.2,0.3-0.4,0.6-0.5,0.7c-0.1,0.1-0.3,0.3-0.6,0.3c0.2,0.1,0.4,0.2,0.5,0.3s0.2,0.4,0.3,0.7l0.5,1.4
				h-0.8l-0.4-1.2c-0.2-0.4-0.3-0.7-0.5-0.8c-0.1-0.1-0.3-0.2-0.6-0.2l-0.5,2.2h-0.8L241.9,750.1z M245.3,752.8l0.2-0.8h2.4
				l-0.2,0.8H245.3z M249.6,748.3h0.9l-0.6,2.8c0.3,0,0.5,0,0.6-0.1c0.2-0.1,0.3-0.2,0.5-0.4s0.4-0.5,0.6-0.8
				c0.3-0.6,0.5-0.9,0.7-1.1c0.1-0.2,0.3-0.3,0.5-0.3c0.2-0.1,0.4-0.1,0.6-0.1c0,0,0.2,0,0.5,0l-0.1,0.7c0,0-0.1,0-0.2,0
				c-0.1,0-0.2,0-0.2,0c-0.2,0-0.3,0.1-0.4,0.2c-0.1,0.1-0.3,0.3-0.5,0.6c-0.4,0.6-0.6,1-0.9,1.2c-0.2,0.2-0.5,0.4-0.8,0.4
				c0.4,0.2,0.8,0.7,1.2,1.5l0.7,1.8h-0.9l-0.6-1.5c-0.2-0.6-0.5-1-0.7-1.2s-0.5-0.3-0.8-0.3l-0.6,3h-0.9L249.6,748.3z M256.6,754.2
				c-0.3,0.2-0.5,0.4-0.8,0.5s-0.5,0.2-0.8,0.2c-0.4,0-0.8-0.1-1-0.4c-0.3-0.3-0.4-0.6-0.4-1c0-0.3,0.1-0.5,0.2-0.7
				c0.1-0.2,0.3-0.4,0.5-0.5s0.4-0.2,0.7-0.3c0.2,0,0.5-0.1,1-0.1s0.9-0.1,1.1-0.2c0.1-0.2,0.1-0.4,0.1-0.5c0-0.2-0.1-0.3-0.2-0.4
				c-0.2-0.1-0.5-0.2-0.8-0.2c-0.3,0-0.6,0.1-0.8,0.2c-0.2,0.1-0.4,0.4-0.5,0.6l-0.8-0.1c0.2-0.5,0.4-0.8,0.8-1.1
				c0.4-0.2,0.8-0.4,1.3-0.4c0.6,0,1,0.1,1.4,0.4c0.3,0.2,0.4,0.5,0.4,0.8c0,0.2,0,0.5-0.1,0.9l-0.3,1.2c-0.1,0.4-0.1,0.7-0.1,0.9
				c0,0.1,0,0.4,0.1,0.6h-0.8C256.7,754.6,256.7,754.4,256.6,754.2z M256.9,752.4c-0.1,0-0.2,0.1-0.4,0.1c-0.1,0-0.3,0-0.6,0.1
				c-0.5,0-0.8,0.1-1,0.2c-0.2,0.1-0.3,0.2-0.4,0.3c-0.1,0.1-0.1,0.3-0.1,0.5s0.1,0.4,0.2,0.5c0.2,0.1,0.4,0.2,0.7,0.2
				s0.5-0.1,0.8-0.2c0.2-0.1,0.4-0.3,0.6-0.6C256.7,753.2,256.9,752.9,256.9,752.4z M259.5,750.1h1.2l0.4,3.7l2.2-3.7h1.2l-1,4.7
				h-0.8l0.8-3.8l-2.2,3.8h-0.7l-0.5-3.9l-0.8,3.9h-0.8L259.5,750.1z M265.4,750.1h0.8l-0.2,0.8c-0.1,0.5-0.2,0.8-0.2,1
				s0.1,0.4,0.2,0.5c0.2,0.1,0.4,0.2,0.7,0.2c0.4,0,0.7-0.1,1-0.2l0.5-2.2h0.8l-1,4.7h-0.8l0.4-1.8c-0.4,0.1-0.8,0.2-1.1,0.2
				c-0.5,0-0.9-0.1-1.1-0.3c-0.3-0.2-0.4-0.5-0.4-0.9c0-0.2,0.1-0.6,0.2-1.3L265.4,750.1z M272.5,754.2c-0.3,0.2-0.5,0.4-0.8,0.5
				s-0.5,0.2-0.8,0.2c-0.4,0-0.8-0.1-1-0.4c-0.3-0.3-0.4-0.6-0.4-1c0-0.3,0.1-0.5,0.2-0.7s0.3-0.4,0.5-0.5s0.4-0.2,0.7-0.3
				c0.2,0,0.5-0.1,1-0.1s0.9-0.1,1.1-0.2c0.1-0.2,0.1-0.4,0.1-0.5c0-0.2-0.1-0.3-0.2-0.4c-0.2-0.1-0.5-0.2-0.8-0.2s-0.6,0.1-0.8,0.2
				c-0.2,0.1-0.4,0.4-0.5,0.6l-0.8-0.1c0.2-0.5,0.4-0.8,0.8-1.1c0.4-0.2,0.8-0.4,1.3-0.4c0.6,0,1,0.1,1.4,0.4
				c0.3,0.2,0.4,0.5,0.4,0.8c0,0.2,0,0.5-0.1,0.9l-0.3,1.2c-0.1,0.4-0.1,0.7-0.1,0.9c0,0.1,0,0.4,0.1,0.6h-0.8
				C272.5,754.6,272.5,754.4,272.5,754.2z M272.8,752.4c-0.1,0-0.2,0.1-0.4,0.1c-0.1,0-0.3,0-0.6,0.1c-0.5,0-0.8,0.1-1,0.2
				c-0.2,0.1-0.3,0.2-0.4,0.3s-0.1,0.3-0.1,0.5s0.1,0.4,0.2,0.5c0.2,0.1,0.4,0.2,0.7,0.2c0.3,0,0.5-0.1,0.8-0.2
				c0.2-0.1,0.4-0.3,0.6-0.6C272.6,753.2,272.7,752.9,272.8,752.4z M274.3,754.8l1-4.7h0.8l-0.2,0.8c0.3-0.3,0.6-0.6,0.8-0.7
				c0.2-0.1,0.5-0.2,0.8-0.2s0.5,0.1,0.7,0.2c0.2,0.2,0.3,0.4,0.4,0.6c0.2-0.3,0.5-0.5,0.7-0.7c0.3-0.1,0.5-0.2,0.8-0.2
				c0.4,0,0.7,0.1,0.9,0.3c0.2,0.2,0.3,0.4,0.3,0.8c0,0.1,0,0.4-0.1,0.7l-0.6,3h-0.8l0.6-3.1c0.1-0.3,0.1-0.4,0.1-0.5
				c0-0.2,0-0.3-0.1-0.4c-0.1-0.1-0.2-0.1-0.4-0.1c-0.2,0-0.5,0.1-0.7,0.2c-0.2,0.1-0.4,0.3-0.6,0.6c-0.1,0.2-0.3,0.6-0.4,1.1
				l-0.5,2.3H277l0.7-3.2c0-0.2,0.1-0.4,0.1-0.5c0-0.2,0-0.3-0.1-0.4c-0.1-0.1-0.2-0.1-0.4-0.1c-0.2,0-0.5,0.1-0.7,0.2
				c-0.2,0.1-0.4,0.3-0.6,0.6s-0.3,0.6-0.4,1.1l-0.5,2.2h-0.8L274.3,754.8L274.3,754.8z M284.9,753.1l0.8,0.1
				c-0.2,0.6-0.5,1-0.9,1.3s-0.8,0.4-1.3,0.4s-0.9-0.2-1.2-0.5c-0.3-0.3-0.5-0.8-0.5-1.4c0-0.5,0.1-1,0.3-1.5
				c0.2-0.5,0.5-0.9,0.9-1.1c0.4-0.3,0.8-0.4,1.3-0.4s0.9,0.1,1.2,0.4c0.3,0.3,0.4,0.7,0.4,1.1l-0.8,0.1c0-0.3-0.1-0.5-0.3-0.7
				c-0.2-0.2-0.4-0.3-0.7-0.3c-0.3,0-0.6,0.1-0.8,0.3c-0.2,0.2-0.4,0.5-0.6,0.9c-0.1,0.4-0.2,0.8-0.2,1.2s0.1,0.7,0.3,0.9
				c0.2,0.2,0.4,0.3,0.6,0.3c0.3,0,0.5-0.1,0.7-0.3C284.6,753.8,284.8,753.5,284.9,753.1z M287.2,750.1h0.8l-0.4,2h0.1
				c0.2,0,0.4-0.1,0.5-0.2c0.1-0.1,0.3-0.4,0.6-0.8c0.3-0.4,0.5-0.7,0.7-0.8s0.4-0.2,0.7-0.2h0.4l-0.1,0.6h-0.2
				c-0.2,0-0.3,0-0.4,0.1s-0.2,0.2-0.3,0.5c-0.2,0.3-0.4,0.6-0.5,0.7c-0.2,0.1-0.3,0.3-0.6,0.3c0.2,0.1,0.4,0.2,0.5,0.3
				s0.2,0.4,0.3,0.7l0.5,1.4H289l-0.4-1.2c-0.2-0.4-0.3-0.7-0.5-0.8c-0.1-0.1-0.3-0.2-0.6-0.2l-0.5,2.2h-0.8L287.2,750.1z
				 M293.7,753.9c-0.6,0.6-1.1,0.9-1.7,0.9c-0.4,0-0.7-0.1-0.9-0.3c-0.2-0.2-0.3-0.5-0.3-0.8c0-0.2,0-0.5,0.2-1l0.6-2.7h0.8l-0.6,3
				c-0.1,0.2-0.1,0.4-0.1,0.6c0,0.2,0.1,0.3,0.2,0.4c0.1,0.1,0.3,0.1,0.5,0.1s0.4-0.1,0.7-0.2c0.2-0.1,0.4-0.3,0.5-0.4
				c0.2-0.2,0.3-0.4,0.4-0.7c0.1-0.2,0.1-0.4,0.2-0.8l0.4-2h0.8l-1,4.7h-0.7V753.9z M298.7,753.9c-0.6,0.6-1.1,0.9-1.7,0.9
				c-0.4,0-0.7-0.1-0.9-0.3c-0.2-0.2-0.3-0.5-0.3-0.8c0-0.2,0-0.5,0.1-1l0.6-2.7h0.8l-0.6,3c-0.1,0.2-0.1,0.4-0.1,0.6
				c0,0.2,0.1,0.3,0.2,0.4c0.1,0.1,0.3,0.1,0.5,0.1s0.4-0.1,0.6-0.2c0.2-0.1,0.4-0.3,0.6-0.4c0.2-0.2,0.3-0.4,0.4-0.7
				c0.1-0.2,0.1-0.4,0.2-0.8l0.4-2h0.8l-1,4.7h-0.7L298.7,753.9z M297.2,748.3h0.5c0,0.2,0.1,0.4,0.2,0.5s0.3,0.1,0.5,0.1
				s0.4-0.1,0.5-0.2c0.2-0.1,0.3-0.3,0.4-0.5h0.5c-0.1,0.4-0.3,0.6-0.5,0.8c-0.3,0.2-0.6,0.3-0.9,0.3s-0.6-0.1-0.8-0.3
				C297.4,748.9,297.3,748.6,297.2,748.3z"/>
			<path class="st27" d="M265.2,593.6l1.3-6.5h0.7l-0.1,0.6c0.3-0.3,0.5-0.5,0.7-0.6s0.4-0.2,0.7-0.2c0.4,0,0.8,0.2,1.1,0.5
				c0.3,0.3,0.4,0.8,0.4,1.4c0,0.5-0.1,0.9-0.2,1.3c-0.2,0.4-0.4,0.7-0.6,1c-0.2,0.2-0.5,0.4-0.7,0.5s-0.5,0.2-0.7,0.2
				c-0.6,0-1-0.3-1.3-0.9l-0.5,2.5h-0.8V593.6z M266.8,589.9c0,0.3,0,0.6,0.1,0.7c0.1,0.2,0.2,0.3,0.4,0.5c0.2,0.1,0.4,0.2,0.6,0.2
				c0.5,0,0.8-0.3,1.1-0.8c0.3-0.5,0.4-1,0.4-1.6c0-0.4-0.1-0.7-0.3-0.9c-0.2-0.2-0.4-0.3-0.7-0.3c-0.2,0-0.4,0.1-0.6,0.2
				c-0.2,0.1-0.3,0.3-0.5,0.5c-0.1,0.2-0.3,0.5-0.4,0.8C266.9,589.4,266.8,589.6,266.8,589.9z M274.1,590.2l0.8,0.1
				c-0.1,0.4-0.4,0.7-0.8,1.1c-0.4,0.3-0.9,0.5-1.4,0.5c-0.3,0-0.7-0.1-1-0.2c-0.3-0.2-0.5-0.4-0.7-0.7s-0.2-0.7-0.2-1
				c0-0.5,0.1-1,0.4-1.5c0.2-0.5,0.5-0.8,0.9-1.1c0.4-0.2,0.8-0.4,1.2-0.4c0.6,0,1,0.2,1.3,0.5s0.5,0.8,0.5,1.4c0,0.2,0,0.5-0.1,0.7
				h-3.4c0,0.1,0,0.2,0,0.2c0,0.4,0.1,0.8,0.3,1c0.2,0.2,0.4,0.3,0.7,0.3c0.3,0,0.5-0.1,0.8-0.3
				C273.7,590.8,273.9,590.5,274.1,590.2z M271.8,589h2.6c0-0.1,0-0.1,0-0.2c0-0.4-0.1-0.7-0.3-0.9c-0.2-0.2-0.5-0.3-0.8-0.3
				s-0.6,0.1-0.9,0.4C272.1,588.2,271.9,588.6,271.8,589z M276.7,587.1h0.8l-0.4,2h0.1c0.2,0,0.4-0.1,0.5-0.2
				c0.1-0.1,0.3-0.4,0.6-0.8c0.3-0.4,0.5-0.7,0.7-0.8s0.4-0.2,0.7-0.2h0.4l-0.1,0.6h-0.2c-0.2,0-0.3,0-0.4,0.1s-0.2,0.2-0.3,0.5
				c-0.2,0.3-0.4,0.6-0.5,0.7c-0.1,0.1-0.3,0.3-0.6,0.3c0.2,0.1,0.4,0.2,0.5,0.3s0.2,0.4,0.3,0.7l0.5,1.4h-0.8l-0.4-1.2
				c-0.2-0.4-0.3-0.7-0.5-0.8c-0.1-0.1-0.3-0.2-0.6-0.2l-0.5,2.2h-0.8L276.7,587.1z M283.1,591.2c-0.3,0.2-0.5,0.4-0.8,0.5
				s-0.5,0.2-0.8,0.2c-0.4,0-0.8-0.1-1-0.4c-0.3-0.3-0.4-0.6-0.4-1c0-0.3,0.1-0.5,0.2-0.7s0.3-0.4,0.5-0.5s0.4-0.2,0.7-0.3
				c0.2,0,0.5-0.1,1-0.1s0.9-0.1,1.1-0.2c0.1-0.2,0.1-0.4,0.1-0.5c0-0.2-0.1-0.3-0.2-0.4c-0.2-0.1-0.5-0.2-0.8-0.2s-0.6,0.1-0.8,0.2
				c-0.2,0.1-0.4,0.4-0.5,0.6l-0.8-0.1c0.2-0.5,0.4-0.8,0.8-1.1c0.4-0.2,0.8-0.4,1.3-0.4c0.6,0,1,0.1,1.4,0.4
				c0.3,0.2,0.4,0.5,0.4,0.8c0,0.2,0,0.5-0.1,0.9l-0.3,1.2c-0.1,0.4-0.1,0.7-0.1,0.9c0,0.1,0,0.4,0.1,0.6h-0.8
				C283.1,591.6,283.1,591.4,283.1,591.2z M283.3,589.4c-0.1,0-0.2,0.1-0.4,0.1c-0.1,0-0.3,0-0.6,0.1c-0.5,0-0.8,0.1-1,0.2
				c-0.2,0.1-0.3,0.2-0.4,0.3s-0.1,0.3-0.1,0.5s0.1,0.4,0.2,0.5c0.2,0.1,0.4,0.2,0.7,0.2c0.3,0,0.5-0.1,0.8-0.2
				c0.2-0.1,0.4-0.3,0.6-0.6C283.2,590.2,283.3,589.9,283.3,589.4z M288.9,585.3h0.9l-0.6,2.8c0.3,0,0.5,0,0.6-0.1
				c0.2-0.1,0.3-0.2,0.5-0.4s0.4-0.5,0.6-0.8c0.3-0.6,0.5-0.9,0.7-1.1c0.1-0.2,0.3-0.3,0.5-0.3c0.2-0.1,0.4-0.1,0.6-0.1
				c0,0,0.2,0,0.5,0L293,586c0,0-0.1,0-0.2,0s-0.2,0-0.2,0c-0.2,0-0.3,0.1-0.4,0.2c-0.1,0.1-0.3,0.3-0.5,0.6c-0.4,0.6-0.6,1-0.9,1.2
				c-0.2,0.2-0.5,0.4-0.8,0.4c0.4,0.2,0.8,0.7,1.2,1.5l0.7,1.8H291l-0.6-1.5c-0.2-0.6-0.5-1-0.7-1.2s-0.5-0.3-0.8-0.3l-0.6,3h-0.9
				L288.9,585.3z M295.9,591.2c-0.3,0.2-0.5,0.4-0.8,0.5s-0.5,0.2-0.8,0.2c-0.4,0-0.8-0.1-1-0.4c-0.3-0.3-0.4-0.6-0.4-1
				c0-0.3,0.1-0.5,0.2-0.7s0.3-0.4,0.5-0.5s0.4-0.2,0.7-0.3c0.2,0,0.5-0.1,1-0.1s0.9-0.1,1.1-0.2c0.1-0.2,0.1-0.4,0.1-0.5
				c0-0.2-0.1-0.3-0.2-0.4c-0.2-0.1-0.5-0.2-0.8-0.2s-0.6,0.1-0.8,0.2c-0.2,0.1-0.4,0.4-0.5,0.6l-0.8-0.1c0.2-0.5,0.4-0.8,0.8-1.1
				c0.4-0.2,0.8-0.4,1.3-0.4c0.6,0,1,0.1,1.4,0.4c0.3,0.2,0.4,0.5,0.4,0.8c0,0.2,0,0.5-0.1,0.9l-0.3,1.2c-0.1,0.4-0.1,0.7-0.1,0.9
				c0,0.1,0,0.4,0.1,0.6H296C295.9,591.6,295.9,591.4,295.9,591.2z M296.2,589.4c-0.1,0-0.2,0.1-0.4,0.1c-0.1,0-0.3,0-0.6,0.1
				c-0.5,0-0.8,0.1-1,0.2c-0.2,0.1-0.3,0.2-0.4,0.3s-0.1,0.3-0.1,0.5s0.1,0.4,0.2,0.5c0.2,0.1,0.4,0.2,0.7,0.2
				c0.3,0,0.5-0.1,0.8-0.2c0.2-0.1,0.4-0.3,0.6-0.6C296,590.2,296.1,589.9,296.2,589.4z M298.7,587.1h1.2l0.4,3.7l2.2-3.7h1.2
				l-1,4.7h-0.8l0.8-3.8l-2.2,3.8h-0.7l-0.5-3.9l-0.8,3.9h-0.8L298.7,587.1z M304.6,587.1h0.8l-0.2,0.8c-0.1,0.5-0.2,0.8-0.2,1
				s0.1,0.4,0.2,0.5c0.2,0.1,0.4,0.2,0.7,0.2c0.4,0,0.7-0.1,1-0.2l0.5-2.2h0.8l-1,4.7h-0.8l0.4-1.8c-0.4,0.1-0.8,0.2-1.1,0.2
				c-0.5,0-0.9-0.1-1.1-0.3c-0.3-0.2-0.4-0.5-0.4-0.9c0-0.2,0.1-0.6,0.2-1.3L304.6,587.1z M311.7,591.2c-0.3,0.2-0.5,0.4-0.8,0.5
				s-0.5,0.2-0.8,0.2c-0.4,0-0.8-0.1-1-0.4c-0.3-0.3-0.4-0.6-0.4-1c0-0.3,0.1-0.5,0.2-0.7s0.3-0.4,0.5-0.5s0.4-0.2,0.7-0.3
				c0.2,0,0.5-0.1,1-0.1s0.9-0.1,1.1-0.2c0.1-0.2,0.1-0.4,0.1-0.5c0-0.2-0.1-0.3-0.2-0.4c-0.2-0.1-0.5-0.2-0.8-0.2s-0.6,0.1-0.8,0.2
				c-0.2,0.1-0.4,0.4-0.5,0.6l-0.8-0.1c0.2-0.5,0.4-0.8,0.8-1.1c0.4-0.2,0.8-0.4,1.3-0.4c0.6,0,1,0.1,1.4,0.4
				c0.3,0.2,0.4,0.5,0.4,0.8c0,0.2,0,0.5-0.1,0.9l-0.3,1.2c-0.1,0.4-0.1,0.7-0.1,0.9c0,0.1,0,0.4,0.1,0.6h-0.8
				C311.8,591.6,311.7,591.4,311.7,591.2z M312,589.4c-0.1,0-0.2,0.1-0.4,0.1c-0.1,0-0.3,0-0.6,0.1c-0.5,0-0.8,0.1-1,0.2
				c-0.2,0.1-0.3,0.2-0.4,0.3s-0.1,0.3-0.1,0.5s0.1,0.4,0.2,0.5c0.2,0.1,0.4,0.2,0.7,0.2c0.3,0,0.5-0.1,0.8-0.2
				c0.2-0.1,0.4-0.3,0.6-0.6C311.8,590.2,311.9,589.9,312,589.4z M313.6,591.8l1-4.7h0.8l-0.2,0.8c0.3-0.3,0.6-0.6,0.8-0.7
				c0.2-0.1,0.5-0.2,0.8-0.2s0.5,0.1,0.7,0.2c0.2,0.2,0.3,0.4,0.4,0.6c0.2-0.3,0.5-0.5,0.7-0.7c0.3-0.1,0.5-0.2,0.8-0.2
				c0.4,0,0.7,0.1,0.9,0.3c0.2,0.2,0.3,0.4,0.3,0.8c0,0.1,0,0.4-0.1,0.7l-0.6,3h-0.8l0.6-3.1c0.1-0.3,0.1-0.4,0.1-0.5
				c0-0.2,0-0.3-0.1-0.4c-0.1-0.1-0.2-0.1-0.4-0.1c-0.2,0-0.5,0.1-0.7,0.2c-0.2,0.1-0.4,0.3-0.6,0.6c-0.1,0.2-0.3,0.6-0.4,1.1
				l-0.5,2.3h-0.8l0.7-3.2c0-0.2,0.1-0.4,0.1-0.5c0-0.2,0-0.3-0.1-0.4c-0.1-0.1-0.2-0.1-0.4-0.1c-0.2,0-0.5,0.1-0.7,0.2
				c-0.2,0.1-0.4,0.3-0.6,0.6s-0.3,0.6-0.4,1.1l-0.5,2.2h-0.8L313.6,591.8L313.6,591.8z M322.1,587.1h0.8l-0.4,2h0.1
				c0.2,0,0.4-0.1,0.5-0.2c0.1-0.1,0.3-0.4,0.6-0.8c0.3-0.4,0.5-0.7,0.7-0.8s0.4-0.2,0.7-0.2h0.4l-0.1,0.6h-0.2
				c-0.2,0-0.3,0-0.4,0.1s-0.2,0.2-0.3,0.5c-0.2,0.3-0.4,0.6-0.5,0.7c-0.1,0.1-0.3,0.3-0.6,0.3c0.2,0.1,0.4,0.2,0.5,0.3
				s0.2,0.4,0.3,0.7l0.5,1.4h-0.8l-0.4-1.2c-0.2-0.4-0.3-0.7-0.5-0.8c-0.1-0.1-0.3-0.2-0.6-0.2l-0.5,2.2h-0.8L322.1,587.1z
				 M328.5,591.2c-0.3,0.2-0.5,0.4-0.8,0.5s-0.5,0.2-0.8,0.2c-0.4,0-0.8-0.1-1-0.4c-0.3-0.3-0.4-0.6-0.4-1c0-0.3,0.1-0.5,0.2-0.7
				s0.3-0.4,0.5-0.5s0.4-0.2,0.7-0.3c0.2,0,0.5-0.1,1-0.1s0.9-0.1,1.1-0.2c0.1-0.2,0.1-0.4,0.1-0.5c0-0.2-0.1-0.3-0.2-0.4
				c-0.2-0.1-0.5-0.2-0.8-0.2s-0.6,0.1-0.8,0.2c-0.2,0.1-0.4,0.4-0.5,0.6l-0.8-0.1c0.2-0.5,0.4-0.8,0.8-1.1c0.4-0.2,0.8-0.4,1.3-0.4
				c0.6,0,1,0.1,1.4,0.4c0.3,0.2,0.4,0.5,0.4,0.8c0,0.2,0,0.5-0.1,0.9l-0.3,1.2c-0.1,0.4-0.1,0.7-0.1,0.9c0,0.1,0,0.4,0.1,0.6h-0.8
				C328.5,591.6,328.5,591.4,328.5,591.2z M328.8,589.4c-0.1,0-0.2,0.1-0.4,0.1c-0.1,0-0.3,0-0.6,0.1c-0.5,0-0.8,0.1-1,0.2
				c-0.2,0.1-0.3,0.2-0.4,0.3s-0.1,0.3-0.1,0.5s0.1,0.4,0.2,0.5c0.2,0.1,0.4,0.2,0.7,0.2c0.3,0,0.5-0.1,0.8-0.2
				c0.2-0.1,0.4-0.3,0.6-0.6C328.6,590.2,328.7,589.9,328.8,589.4z"/>
			<path class="st27" d="M465.2,145.6l1.3-6.5h0.7l-0.1,0.7c0.3-0.3,0.5-0.5,0.7-0.6s0.4-0.2,0.7-0.2c0.4,0,0.8,0.2,1.1,0.5
				c0.3,0.3,0.4,0.8,0.4,1.4c0,0.5-0.1,0.9-0.2,1.3c-0.2,0.4-0.4,0.7-0.6,1c-0.2,0.2-0.5,0.4-0.7,0.5s-0.5,0.2-0.7,0.2
				c-0.6,0-1-0.3-1.3-0.9l-0.5,2.5h-0.8V145.6z M466.8,141.9c0,0.3,0,0.6,0.1,0.7c0.1,0.2,0.2,0.3,0.4,0.5c0.2,0.1,0.4,0.2,0.6,0.2
				c0.5,0,0.8-0.3,1.1-0.8c0.3-0.5,0.4-1,0.4-1.6c0-0.4-0.1-0.7-0.3-0.9c-0.2-0.2-0.4-0.3-0.7-0.3c-0.2,0-0.4,0.1-0.6,0.2
				c-0.2,0.1-0.3,0.3-0.5,0.5c-0.1,0.2-0.3,0.5-0.4,0.8C466.9,141.4,466.8,141.6,466.8,141.9z M474.1,142.2l0.8,0.1
				c-0.1,0.4-0.4,0.7-0.8,1.1c-0.4,0.3-0.9,0.5-1.4,0.5c-0.3,0-0.7-0.1-1-0.2c-0.3-0.2-0.5-0.4-0.7-0.7s-0.2-0.7-0.2-1
				c0-0.5,0.1-1,0.4-1.5c0.2-0.5,0.5-0.8,0.9-1.1c0.4-0.2,0.8-0.4,1.2-0.4c0.6,0,1,0.2,1.3,0.5s0.5,0.8,0.5,1.4c0,0.2,0,0.5-0.1,0.7
				h-3.4c0,0.1,0,0.2,0,0.2c0,0.4,0.1,0.8,0.3,1c0.2,0.2,0.4,0.3,0.7,0.3c0.3,0,0.5-0.1,0.8-0.3
				C473.7,142.8,473.9,142.5,474.1,142.2z M471.8,141h2.6c0-0.1,0-0.1,0-0.2c0-0.4-0.1-0.7-0.3-0.9c-0.2-0.2-0.5-0.3-0.8-0.3
				s-0.6,0.1-0.9,0.4C472.1,140.2,471.9,140.6,471.8,141z M476.7,139.1h0.8l-0.4,2h0.1c0.2,0,0.4-0.1,0.5-0.2
				c0.1-0.1,0.3-0.4,0.6-0.8c0.3-0.4,0.5-0.7,0.7-0.8s0.4-0.2,0.7-0.2h0.4l-0.1,0.6h-0.2c-0.2,0-0.3,0-0.4,0.1s-0.2,0.2-0.3,0.5
				c-0.2,0.3-0.4,0.6-0.5,0.7c-0.1,0.1-0.3,0.3-0.6,0.3c0.2,0.1,0.4,0.2,0.5,0.3s0.2,0.4,0.3,0.7l0.5,1.4h-0.8l-0.4-1.2
				c-0.2-0.4-0.3-0.7-0.5-0.8c-0.1-0.1-0.3-0.2-0.6-0.2l-0.5,2.2h-0.8L476.7,139.1z M483.1,143.2c-0.3,0.2-0.5,0.4-0.8,0.5
				s-0.5,0.2-0.8,0.2c-0.4,0-0.8-0.1-1-0.4c-0.3-0.3-0.4-0.6-0.4-1c0-0.3,0.1-0.5,0.2-0.7s0.3-0.4,0.5-0.5s0.4-0.2,0.7-0.3
				c0.2,0,0.5-0.1,1-0.1s0.9-0.1,1.1-0.2c0.1-0.2,0.1-0.4,0.1-0.5c0-0.2-0.1-0.3-0.2-0.4c-0.2-0.1-0.5-0.2-0.8-0.2s-0.6,0.1-0.8,0.2
				c-0.2,0.1-0.4,0.4-0.5,0.6l-0.8-0.1c0.2-0.5,0.4-0.8,0.8-1.1c0.4-0.2,0.8-0.4,1.3-0.4c0.6,0,1,0.1,1.4,0.4
				c0.3,0.2,0.4,0.5,0.4,0.8c0,0.2,0,0.5-0.1,0.9l-0.3,1.2c-0.1,0.4-0.1,0.7-0.1,0.9c0,0.1,0,0.4,0.1,0.6h-0.8
				C483.1,143.6,483.1,143.4,483.1,143.2z M483.3,141.4c-0.1,0-0.2,0.1-0.4,0.1c-0.1,0-0.3,0-0.6,0.1c-0.5,0-0.8,0.1-1,0.2
				c-0.2,0.1-0.3,0.2-0.4,0.3s-0.1,0.3-0.1,0.5s0.1,0.4,0.2,0.5c0.2,0.1,0.4,0.2,0.7,0.2c0.3,0,0.5-0.1,0.8-0.2
				c0.2-0.1,0.4-0.3,0.6-0.6C483.2,142.2,483.3,141.9,483.3,141.4z M487.5,143.8l1.4-6.4h5.1l-1.3,6.4h-0.9l1.2-5.7h-3.3l-1.2,5.7
				H487.5z M497.4,142.2l0.8,0.1c-0.1,0.4-0.4,0.7-0.8,1.1c-0.4,0.3-0.9,0.5-1.4,0.5c-0.3,0-0.7-0.1-1-0.2c-0.3-0.2-0.5-0.4-0.7-0.7
				s-0.2-0.7-0.2-1c0-0.5,0.1-1,0.4-1.5c0.2-0.5,0.5-0.8,0.9-1.1c0.4-0.2,0.8-0.4,1.2-0.4c0.6,0,1,0.2,1.3,0.5s0.5,0.8,0.5,1.4
				c0,0.2,0,0.5-0.1,0.7h-3.4c0,0.1,0,0.2,0,0.2c0,0.4,0.1,0.8,0.3,1c0.2,0.2,0.4,0.3,0.7,0.3c0.3,0,0.5-0.1,0.8-0.3
				C497,142.8,497.2,142.5,497.4,142.2z M495.1,141h2.6c0-0.1,0-0.1,0-0.2c0-0.4-0.1-0.7-0.3-0.9c-0.2-0.2-0.5-0.3-0.8-0.3
				s-0.7,0.1-0.9,0.4C495.4,140.2,495.2,140.6,495.1,141z M499.9,139.1h0.8l-0.4,1.9h2.2l0.4-1.9h0.8l-1,4.7h-0.8l0.4-2.1h-2.2
				l-0.4,2.1h-0.8L499.9,139.1z M507,139.1h0.8l-0.4,2h0.1c0.2,0,0.3-0.1,0.5-0.2c0.2-0.1,0.3-0.4,0.6-0.8c0.3-0.4,0.5-0.7,0.7-0.8
				s0.4-0.2,0.6-0.2s0.3,0,0.5,0.1l-0.2,0.5c-0.1,0-0.2-0.1-0.3-0.1c-0.1,0-0.2,0-0.3,0.1c-0.1,0.1-0.2,0.3-0.4,0.6
				c-0.3,0.6-0.7,0.9-1.1,1.1c0.1,0.1,0.3,0.1,0.4,0.2c0.1,0.1,0.3,0.3,0.4,0.7l0.6,1.5h-0.8l-0.5-1.2c-0.1-0.4-0.3-0.6-0.4-0.8
				c-0.1-0.1-0.3-0.2-0.5-0.2l-0.5,2.2H506l0.5-2.2c-0.2,0-0.3,0.1-0.5,0.1c-0.1,0.1-0.4,0.4-0.7,0.8l-1,1.3h-1l1.2-1.6
				c0.4-0.5,0.8-0.7,1.2-0.8c-0.2-0.1-0.3-0.2-0.4-0.4s-0.2-0.4-0.2-0.9c0-0.2-0.1-0.3-0.1-0.4c-0.1-0.1-0.1-0.1-0.2-0.1
				s-0.2,0-0.3,0.1l0.1-0.5c0.1,0,0.3,0,0.4,0c0.3,0,0.5,0.1,0.6,0.2c0.1,0.2,0.2,0.4,0.3,0.8c0.1,0.4,0.2,0.6,0.3,0.8
				c0.1,0.1,0.3,0.2,0.5,0.2L507,139.1z M513.3,142.9c-0.6,0.6-1.1,0.9-1.7,0.9c-0.4,0-0.7-0.1-0.9-0.3c-0.2-0.2-0.3-0.5-0.3-0.8
				c0-0.2,0.1-0.5,0.2-1l0.6-2.7h0.8l-0.6,3c-0.1,0.2-0.1,0.4-0.1,0.6c0,0.2,0.1,0.3,0.2,0.4c0.1,0.1,0.3,0.1,0.5,0.1
				s0.4-0.1,0.7-0.2c0.2-0.1,0.4-0.3,0.5-0.4c0.2-0.2,0.3-0.4,0.4-0.7c0.1-0.2,0.1-0.4,0.2-0.8l0.4-2h0.8l-1,4.7h-0.7L513.3,142.9z
				 M516.1,139.1h0.8l-0.4,1.9h2.2l0.4-1.9h0.8l-1,4.7H518l0.4-2.1h-2.2l-0.4,2.1H515L516.1,139.1z M523.2,143.2
				c-0.3,0.2-0.5,0.4-0.8,0.5s-0.5,0.2-0.8,0.2c-0.4,0-0.8-0.1-1-0.4c-0.3-0.3-0.4-0.6-0.4-1c0-0.3,0.1-0.5,0.2-0.7
				c0.1-0.2,0.3-0.4,0.5-0.5s0.4-0.2,0.7-0.3c0.2,0,0.5-0.1,1-0.1s0.9-0.1,1.1-0.2c0.1-0.2,0.1-0.4,0.1-0.5c0-0.2-0.1-0.3-0.2-0.4
				c-0.2-0.1-0.5-0.2-0.8-0.2s-0.6,0.1-0.8,0.2c-0.2,0.1-0.4,0.4-0.5,0.6l-0.8-0.1c0.2-0.5,0.4-0.8,0.8-1.1c0.4-0.2,0.8-0.4,1.3-0.4
				c0.6,0,1,0.1,1.4,0.4c0.3,0.2,0.4,0.5,0.4,0.8c0,0.2,0,0.5-0.1,0.9l-0.3,1.2c-0.1,0.4-0.1,0.7-0.1,0.9c0,0.1,0,0.4,0.1,0.6h-0.8
				C523.3,143.6,523.2,143.4,523.2,143.2z M523.5,141.4c-0.1,0-0.2,0.1-0.4,0.1c-0.1,0-0.3,0-0.6,0.1c-0.5,0-0.8,0.1-1,0.2
				c-0.2,0.1-0.3,0.2-0.4,0.3c-0.1,0.1-0.1,0.3-0.1,0.5s0.1,0.4,0.2,0.5c0.2,0.1,0.4,0.2,0.7,0.2s0.5-0.1,0.8-0.2
				c0.2-0.1,0.4-0.3,0.6-0.6C523.3,142.2,523.4,141.9,523.5,141.4z"/>
			<path class="st27" d="M141.3,529.3h0.9l1.5,4.1l2.5-4.1h0.9l-3.4,5.5c-0.2,0.3-0.4,0.6-0.6,0.8c-0.2,0.2-0.4,0.3-0.7,0.3
				c-0.1,0-0.4,0-0.7-0.1h-0.2l0.2-0.7c0.4,0.1,0.7,0.1,0.7,0.1c0.2,0,0.5-0.2,0.8-0.7l0.1-0.2L141.3,529.3z M149.4,534.1l0.8,0.1
				c-0.2,0.6-0.5,1-0.9,1.3s-0.8,0.4-1.3,0.4s-0.9-0.2-1.2-0.5s-0.5-0.8-0.5-1.4c0-0.5,0.1-1,0.3-1.5s0.5-0.9,0.9-1.1
				c0.4-0.3,0.8-0.4,1.3-0.4s0.9,0.1,1.2,0.4c0.3,0.3,0.4,0.7,0.4,1.1l-0.8,0.1c0-0.3-0.1-0.5-0.3-0.7s-0.4-0.3-0.7-0.3
				s-0.6,0.1-0.8,0.3s-0.4,0.5-0.6,0.9c-0.1,0.4-0.2,0.8-0.2,1.2s0.1,0.7,0.3,0.9s0.4,0.3,0.7,0.3s0.5-0.1,0.7-0.3
				C149.1,534.8,149.3,534.5,149.4,534.1z M150.7,535.8l1-4.7h0.8l-0.2,0.8c0.3-0.3,0.6-0.6,0.8-0.7c0.2-0.1,0.5-0.2,0.8-0.2
				s0.5,0.1,0.7,0.2c0.2,0.2,0.3,0.4,0.4,0.6c0.2-0.3,0.5-0.5,0.7-0.7c0.3-0.1,0.5-0.2,0.8-0.2c0.4,0,0.7,0.1,0.9,0.3
				s0.3,0.4,0.3,0.8c0,0.1,0,0.4-0.1,0.7l-0.6,3h-0.8l0.6-3.1c0.1-0.3,0.1-0.4,0.1-0.5c0-0.2,0-0.3-0.1-0.4
				c-0.1-0.1-0.2-0.1-0.4-0.1s-0.5,0.1-0.7,0.2c-0.2,0.1-0.4,0.3-0.6,0.6c-0.1,0.2-0.3,0.6-0.4,1.1l-0.5,2.3h-0.8l0.7-3.2
				c0-0.2,0.1-0.4,0.1-0.5c0-0.2,0-0.3-0.1-0.4c-0.1-0.1-0.2-0.1-0.4-0.1s-0.5,0.1-0.7,0.2c-0.2,0.1-0.4,0.3-0.6,0.6
				c-0.2,0.3-0.3,0.6-0.4,1.1l-0.5,2.2h-0.8V535.8z M159.2,531.1h0.8l-0.4,1.8h0.8c0.5,0,0.9,0,1.2,0.1c0.2,0.1,0.4,0.2,0.5,0.4
				s0.2,0.4,0.2,0.7s-0.1,0.6-0.3,0.9c-0.2,0.3-0.4,0.5-0.7,0.6s-0.7,0.1-1.2,0.1h-2L159.2,531.1z M159.1,535.1h1
				c0.4,0,0.7,0,0.8-0.1c0.2-0.1,0.3-0.1,0.4-0.3c0.1-0.1,0.2-0.3,0.2-0.5s-0.1-0.3-0.1-0.4c-0.1-0.1-0.2-0.2-0.3-0.2s-0.4,0-0.7,0
				h-0.9L159.1,535.1z M163,533.8l0.2-0.8h2.4l-0.2,0.8H163z M165.3,535.8l3.1-3.3l-1.8-3.2h0.9l0.8,1.5c0.2,0.4,0.3,0.6,0.4,0.7
				c0.1,0.1,0.2,0.3,0.2,0.5c0.2-0.3,0.6-0.7,1-1.2l1.4-1.5h1.1l-3.1,3.3l1.8,3.1h-0.9l-1-1.9c-0.1-0.2-0.2-0.4-0.4-0.7
				c-0.2,0.2-0.4,0.4-0.6,0.7l-1.8,1.9h-1.1L165.3,535.8L165.3,535.8z M175.1,535.2c-0.3,0.2-0.5,0.4-0.8,0.5s-0.5,0.2-0.8,0.2
				c-0.4,0-0.8-0.1-1-0.4c-0.3-0.3-0.4-0.6-0.4-1c0-0.3,0.1-0.5,0.2-0.7c0.1-0.2,0.3-0.4,0.5-0.5s0.4-0.2,0.7-0.3
				c0.2,0,0.5-0.1,1-0.1s0.9-0.1,1.1-0.2c0.1-0.2,0.1-0.4,0.1-0.5c0-0.2-0.1-0.3-0.2-0.4c-0.2-0.1-0.5-0.2-0.8-0.2s-0.6,0.1-0.8,0.2
				c-0.2,0.1-0.4,0.4-0.5,0.6l-0.8-0.1c0.2-0.5,0.4-0.8,0.8-1.1c0.4-0.2,0.8-0.4,1.4-0.4c0.6,0,1,0.1,1.4,0.4
				c0.3,0.2,0.4,0.5,0.4,0.8c0,0.2,0,0.5-0.1,0.9l-0.3,1.2c-0.1,0.4-0.1,0.7-0.1,0.9c0,0.1,0,0.4,0.1,0.6h-0.8
				C175.1,535.6,175.1,535.4,175.1,535.2z M175.4,533.4c-0.1,0-0.2,0.1-0.4,0.1c-0.1,0-0.3,0-0.6,0.1c-0.5,0-0.8,0.1-1,0.2
				c-0.2,0.1-0.3,0.2-0.4,0.3c-0.1,0.1-0.1,0.3-0.1,0.5s0.1,0.4,0.2,0.5c0.2,0.1,0.4,0.2,0.7,0.2s0.5-0.1,0.8-0.2
				c0.2-0.1,0.4-0.3,0.6-0.6C175.2,534.2,175.3,533.9,175.4,533.4z M180.1,534.9c-0.6,0.6-1.1,0.9-1.7,0.9c-0.4,0-0.7-0.1-0.9-0.3
				s-0.3-0.5-0.3-0.8c0-0.2,0.1-0.5,0.1-1l0.6-2.7h0.8l-0.6,3c-0.1,0.2-0.1,0.4-0.1,0.6c0,0.2,0.1,0.3,0.2,0.4
				c0.1,0.1,0.3,0.1,0.5,0.1s0.4-0.1,0.7-0.2c0.2-0.1,0.4-0.3,0.5-0.4c0.2-0.2,0.3-0.4,0.4-0.7c0.1-0.2,0.1-0.4,0.2-0.8l0.4-2h0.8
				l-1,4.7H180L180.1,534.9z M178.7,529.3h0.5c0,0.2,0.1,0.4,0.2,0.5c0.1,0.1,0.3,0.1,0.5,0.1s0.4-0.1,0.5-0.2
				c0.2-0.1,0.3-0.3,0.4-0.5h0.5c-0.1,0.4-0.3,0.6-0.5,0.8c-0.3,0.2-0.6,0.3-0.9,0.3c-0.3,0-0.6-0.1-0.8-0.3
				C178.8,529.9,178.7,529.6,178.7,529.3z M181.5,537.6l1.3-6.5h0.7l-0.1,0.6c0.3-0.3,0.5-0.5,0.7-0.6s0.4-0.2,0.7-0.2
				c0.4,0,0.8,0.2,1.1,0.5s0.4,0.8,0.4,1.4c0,0.5-0.1,0.9-0.2,1.3c-0.2,0.4-0.4,0.7-0.6,1c-0.2,0.2-0.5,0.4-0.7,0.5
				s-0.5,0.2-0.7,0.2c-0.6,0-1-0.3-1.3-0.9l-0.5,2.5h-0.8L181.5,537.6L181.5,537.6z M183.1,533.9c0,0.3,0,0.6,0.1,0.7
				c0.1,0.2,0.2,0.3,0.4,0.5s0.4,0.2,0.6,0.2c0.5,0,0.8-0.3,1.1-0.8s0.4-1,0.4-1.6c0-0.4-0.1-0.7-0.3-0.9s-0.4-0.3-0.7-0.3
				c-0.2,0-0.4,0.1-0.6,0.2c-0.2,0.1-0.3,0.3-0.5,0.5c-0.1,0.2-0.3,0.5-0.4,0.8C183.2,533.4,183.1,533.6,183.1,533.9z M187.9,531.1
				h0.8l-0.4,2h0.9c0.1-0.6,0.4-1.1,0.8-1.5c0.4-0.4,0.9-0.6,1.5-0.6c0.5,0,1,0.1,1.3,0.5c0.3,0.3,0.5,0.8,0.5,1.4
				c0,0.8-0.2,1.5-0.7,2.1c-0.4,0.6-1,0.9-1.8,0.9c-0.6,0-1-0.2-1.3-0.5c-0.3-0.4-0.5-0.8-0.5-1.3c0-0.1,0-0.2,0-0.3h-1l-0.4,2h-0.8
				L187.9,531.1z M189.9,534.1c0,0.4,0.1,0.6,0.3,0.9c0.2,0.2,0.4,0.3,0.7,0.3c0.5,0,0.9-0.3,1.2-0.8s0.4-1.1,0.4-1.7
				c0-0.4-0.1-0.6-0.3-0.8s-0.4-0.3-0.7-0.3c-0.5,0-0.9,0.2-1.2,0.8S189.9,533.5,189.9,534.1z M195,532.3l-0.7-0.1
				c0.2-0.5,0.4-0.8,0.7-1s0.6-0.3,1.1-0.3s0.8,0.1,1.1,0.3s0.4,0.5,0.4,0.9c0,0.3-0.1,0.5-0.2,0.7c-0.1,0.2-0.4,0.4-0.6,0.5
				c0.4,0.2,0.6,0.6,0.6,1s-0.2,0.8-0.5,1.1s-0.8,0.5-1.4,0.5c-1,0-1.6-0.5-1.8-1.4l0.8-0.1c0.1,0.6,0.5,0.9,1.1,0.9
				c0.3,0,0.5-0.1,0.7-0.2c0.2-0.2,0.3-0.4,0.3-0.6c0-0.2-0.1-0.3-0.2-0.5c-0.1-0.1-0.2-0.2-0.4-0.2s-0.4,0-0.7,0l0.1-0.6
				c0.1,0,0.1,0,0.2,0c0.4,0,0.7-0.1,0.9-0.2c0.2-0.1,0.3-0.3,0.3-0.6c0-0.2-0.1-0.4-0.2-0.5c-0.1-0.1-0.3-0.2-0.6-0.2
				c-0.2,0-0.3,0-0.5,0.1C195.3,531.8,195.1,532,195,532.3z M197.9,534c0-0.9,0.3-1.7,0.8-2.3c0.4-0.5,1-0.7,1.7-0.7
				c0.6,0,1,0.2,1.4,0.5c0.3,0.4,0.5,0.8,0.5,1.4c0,0.5-0.1,1-0.3,1.5s-0.5,0.8-0.9,1.1c-0.4,0.2-0.8,0.4-1.3,0.4
				c-0.4,0-0.7-0.1-1-0.2c-0.3-0.2-0.5-0.4-0.7-0.7C198,534.7,197.9,534.4,197.9,534z M198.7,533.9c0,0.4,0.1,0.8,0.3,1
				s0.5,0.3,0.8,0.3c0.2,0,0.3,0,0.5-0.1s0.3-0.2,0.5-0.3c0.1-0.1,0.3-0.3,0.4-0.5c0.1-0.2,0.2-0.4,0.2-0.6c0.1-0.3,0.1-0.6,0.1-0.8
				c0-0.4-0.1-0.7-0.3-1c-0.2-0.2-0.5-0.4-0.8-0.4c-0.2,0-0.5,0.1-0.7,0.2c-0.2,0.1-0.4,0.3-0.6,0.5c-0.2,0.2-0.3,0.5-0.4,0.8
				C198.8,533.4,198.7,533.7,198.7,533.9z M205.9,533.3c0.3,0.1,0.5,0.2,0.7,0.4c0.1,0.2,0.2,0.4,0.2,0.7c0,0.4-0.2,0.7-0.5,1
				s-0.8,0.5-1.4,0.5c-0.5,0-0.8-0.1-1.1-0.2c-0.3-0.2-0.5-0.4-0.6-0.7c-0.2-0.3-0.2-0.6-0.2-1c0-0.8,0.2-1.5,0.7-2.1
				s1.1-0.9,1.9-0.9c0.5,0,0.9,0.1,1.1,0.3c0.3,0.2,0.4,0.5,0.4,0.8s-0.1,0.5-0.3,0.7C206.6,533.1,206.3,533.2,205.9,533.3z
				 M203.9,533c0.2,0,0.4,0,0.6,0c0.6,0,1.1-0.1,1.4-0.2c0.3-0.1,0.5-0.3,0.5-0.6c0-0.2-0.1-0.3-0.2-0.4c-0.1-0.1-0.3-0.2-0.5-0.2
				c-0.4,0-0.7,0.1-1,0.4C204.3,532.2,204,532.6,203.9,533z M203.8,533.6c0,0.1,0,0.2,0,0.4c0,0.4,0.1,0.7,0.3,0.9s0.5,0.4,0.9,0.4
				c0.3,0,0.6-0.1,0.7-0.2c0.2-0.2,0.3-0.4,0.3-0.6c0-0.3-0.1-0.5-0.4-0.6c-0.3-0.1-0.7-0.2-1.4-0.2
				C204.1,533.6,204,533.6,203.8,533.6z M207.4,534c0-0.9,0.3-1.7,0.8-2.3c0.4-0.5,1-0.7,1.7-0.7c0.6,0,1,0.2,1.4,0.5
				c0.3,0.4,0.5,0.8,0.5,1.4c0,0.5-0.1,1-0.3,1.5s-0.5,0.8-0.9,1.1c-0.4,0.2-0.8,0.4-1.3,0.4c-0.4,0-0.7-0.1-1-0.2
				c-0.3-0.2-0.5-0.4-0.7-0.7C207.5,534.7,207.4,534.4,207.4,534z M208.2,533.9c0,0.4,0.1,0.8,0.3,1s0.5,0.3,0.8,0.3
				c0.2,0,0.3,0,0.5-0.1s0.3-0.2,0.5-0.3c0.1-0.1,0.3-0.3,0.4-0.5c0.1-0.2,0.2-0.4,0.2-0.6c0.1-0.3,0.1-0.6,0.1-0.8
				c0-0.4-0.1-0.7-0.3-1c-0.2-0.2-0.5-0.4-0.8-0.4c-0.2,0-0.5,0.1-0.7,0.2c-0.2,0.1-0.4,0.3-0.6,0.5c-0.2,0.2-0.3,0.5-0.4,0.8
				C208.3,533.4,208.2,533.7,208.2,533.9z"/>
			<path class="st27" d="M386.1,446.3h0.9l-0.6,2.8c0.3,0,0.5,0,0.6-0.1c0.2-0.1,0.3-0.2,0.5-0.4c0.2-0.2,0.4-0.5,0.6-0.8
				c0.3-0.6,0.5-0.9,0.7-1.1c0.1-0.2,0.3-0.3,0.5-0.3c0.2-0.1,0.4-0.1,0.6-0.1c0,0,0.2,0,0.5,0l-0.1,0.7c0,0-0.1,0-0.2,0
				s-0.2,0-0.2,0c-0.2,0-0.3,0.1-0.4,0.2s-0.3,0.3-0.5,0.6c-0.4,0.6-0.6,1-0.9,1.2c-0.2,0.2-0.5,0.4-0.8,0.4
				c0.4,0.2,0.8,0.7,1.2,1.5l0.7,1.8h-0.9l-0.6-1.5c-0.2-0.6-0.5-1-0.7-1.2s-0.5-0.3-0.8-0.3l-0.6,3h-0.9L386.1,446.3z M393.1,452.2
				c-0.3,0.2-0.5,0.4-0.8,0.5s-0.5,0.2-0.8,0.2c-0.4,0-0.8-0.1-1-0.4c-0.3-0.3-0.4-0.6-0.4-1c0-0.3,0.1-0.5,0.2-0.7s0.3-0.4,0.5-0.5
				s0.4-0.2,0.7-0.3c0.2,0,0.5-0.1,1-0.1s0.9-0.1,1.1-0.2c0.1-0.2,0.1-0.4,0.1-0.5c0-0.2-0.1-0.3-0.2-0.4c-0.2-0.1-0.5-0.2-0.8-0.2
				s-0.6,0.1-0.8,0.2c-0.2,0.1-0.4,0.4-0.5,0.6l-0.8-0.1c0.2-0.5,0.4-0.8,0.8-1.1c0.4-0.2,0.8-0.4,1.3-0.4c0.6,0,1,0.1,1.4,0.4
				c0.3,0.2,0.4,0.5,0.4,0.8c0,0.2,0,0.5-0.1,0.9l-0.3,1.2c-0.1,0.4-0.1,0.7-0.1,0.9c0,0.1,0,0.4,0.1,0.6h-0.8
				C393.1,452.6,393.1,452.4,393.1,452.2z M393.4,450.4c-0.1,0-0.2,0.1-0.4,0.1c-0.1,0-0.3,0-0.6,0.1c-0.5,0-0.8,0.1-1,0.2
				s-0.3,0.2-0.4,0.3c-0.1,0.1-0.1,0.3-0.1,0.5s0.1,0.4,0.2,0.5c0.2,0.1,0.4,0.2,0.7,0.2c0.3,0,0.5-0.1,0.8-0.2
				c0.2-0.1,0.4-0.3,0.6-0.6C393.2,451.2,393.3,450.9,393.4,450.4z M394.6,454.6l1.3-6.5h0.7l-0.1,0.6c0.3-0.3,0.5-0.5,0.7-0.6
				s0.4-0.2,0.7-0.2c0.4,0,0.8,0.2,1.1,0.5c0.3,0.3,0.4,0.8,0.4,1.4c0,0.5-0.1,0.9-0.2,1.3c-0.2,0.4-0.4,0.7-0.6,1
				c-0.2,0.2-0.5,0.4-0.7,0.5s-0.5,0.2-0.7,0.2c-0.6,0-1-0.3-1.3-0.9l-0.5,2.5h-0.8V454.6z M396.1,450.9c0,0.3,0,0.6,0.1,0.7
				c0.1,0.2,0.2,0.3,0.4,0.5s0.4,0.2,0.6,0.2c0.5,0,0.8-0.3,1.1-0.8c0.3-0.5,0.4-1,0.4-1.6c0-0.4-0.1-0.7-0.3-0.9
				c-0.2-0.2-0.4-0.3-0.7-0.3c-0.2,0-0.4,0.1-0.6,0.2s-0.3,0.3-0.5,0.5c-0.1,0.2-0.3,0.5-0.4,0.8
				C396.2,450.4,396.1,450.6,396.1,450.9z M403.1,452.2c-0.3,0.2-0.5,0.4-0.8,0.5s-0.5,0.2-0.8,0.2c-0.4,0-0.8-0.1-1-0.4
				c-0.3-0.3-0.4-0.6-0.4-1c0-0.3,0.1-0.5,0.2-0.7s0.3-0.4,0.5-0.5s0.4-0.2,0.7-0.3c0.2,0,0.5-0.1,1-0.1s0.9-0.1,1.1-0.2
				c0.1-0.2,0.1-0.4,0.1-0.5c0-0.2-0.1-0.3-0.2-0.4c-0.2-0.1-0.5-0.2-0.8-0.2s-0.6,0.1-0.8,0.2c-0.2,0.1-0.4,0.4-0.5,0.6l-0.8-0.1
				c0.2-0.5,0.4-0.8,0.8-1.1c0.4-0.2,0.8-0.4,1.3-0.4c0.6,0,1,0.1,1.4,0.4c0.3,0.2,0.4,0.5,0.4,0.8c0,0.2,0,0.5-0.1,0.9l-0.3,1.2
				c-0.1,0.4-0.1,0.7-0.1,0.9c0,0.1,0,0.4,0.1,0.6h-0.8C403.2,452.6,403.1,452.4,403.1,452.2z M403.4,450.4c-0.1,0-0.2,0.1-0.4,0.1
				c-0.1,0-0.3,0-0.6,0.1c-0.5,0-0.8,0.1-1,0.2s-0.3,0.2-0.4,0.3c-0.1,0.1-0.1,0.3-0.1,0.5s0.1,0.4,0.2,0.5c0.2,0.1,0.4,0.2,0.7,0.2
				c0.3,0,0.5-0.1,0.8-0.2c0.2-0.1,0.4-0.3,0.6-0.6C403.2,451.2,403.3,450.9,403.4,450.4z M406.2,449.3l-0.7-0.1
				c0.3-0.8,0.9-1.2,1.8-1.2c0.6,0,1,0.1,1.3,0.4c0.3,0.2,0.4,0.5,0.4,0.9c0,0.2-0.1,0.5-0.2,0.6c-0.1,0.2-0.3,0.3-0.5,0.4
				s-0.6,0.2-1,0.3c-0.6,0.1-0.9,0.3-1.1,0.4s-0.3,0.3-0.3,0.5s0.1,0.4,0.3,0.5c0.2,0.1,0.5,0.2,0.8,0.2c0.4,0,0.6-0.1,0.8-0.2
				c0.2-0.1,0.3-0.4,0.5-0.7l0.7,0.1c-0.3,1-1,1.5-2,1.5c-0.6,0-1.1-0.1-1.4-0.4c-0.3-0.2-0.5-0.5-0.5-0.9c0-0.3,0.1-0.5,0.2-0.7
				s0.3-0.4,0.5-0.5s0.6-0.2,1.1-0.3c0.6-0.1,1-0.3,1.2-0.4c0.1-0.1,0.2-0.3,0.2-0.4c0-0.2-0.1-0.3-0.2-0.4
				c-0.2-0.1-0.4-0.2-0.7-0.2c-0.3,0-0.5,0-0.6,0.1C406.5,448.9,406.4,449,406.2,449.3z M412.6,451.9c-0.6,0.6-1.1,0.9-1.7,0.9
				c-0.4,0-0.7-0.1-0.9-0.3c-0.2-0.2-0.3-0.5-0.3-0.8c0-0.2,0-0.5,0.1-1l0.6-2.7h0.8l-0.6,3c-0.1,0.2-0.1,0.4-0.1,0.6
				s0.1,0.3,0.2,0.4s0.3,0.1,0.5,0.1s0.4-0.1,0.7-0.2c0.2-0.1,0.4-0.3,0.5-0.4c0.2-0.2,0.3-0.4,0.4-0.7c0.1-0.2,0.1-0.4,0.2-0.8
				l0.4-2h0.8l-1,4.7h-0.7L412.6,451.9z M415.4,448.1h0.8l-0.4,1.9h2.2l0.4-1.9h0.8l-1,4.7h-0.8l0.4-2.1h-2.2l-0.4,2.1h-0.8
				L415.4,448.1z M422.6,451.1l0.8,0.1c-0.2,0.6-0.5,1-0.9,1.3s-0.8,0.4-1.3,0.4s-0.9-0.2-1.2-0.5c-0.3-0.3-0.5-0.8-0.5-1.4
				c0-0.5,0.1-1,0.3-1.5c0.2-0.5,0.5-0.9,0.9-1.1c0.4-0.3,0.8-0.4,1.3-0.4s0.9,0.1,1.2,0.4c0.3,0.3,0.4,0.7,0.4,1.1l-0.8,0.1
				c0-0.3-0.1-0.5-0.3-0.7c-0.2-0.2-0.4-0.3-0.7-0.3c-0.3,0-0.6,0.1-0.8,0.3c-0.2,0.2-0.4,0.5-0.6,0.9c-0.1,0.4-0.2,0.8-0.2,1.2
				c0,0.4,0.1,0.7,0.3,0.9c0.2,0.2,0.4,0.3,0.7,0.3s0.5-0.1,0.7-0.3C422.3,451.8,422.5,451.5,422.6,451.1z M424.9,448.1h0.8l-0.4,2
				h0.1c0.2,0,0.4-0.1,0.5-0.2s0.3-0.4,0.6-0.8c0.3-0.4,0.5-0.7,0.7-0.8c0.2-0.1,0.4-0.2,0.7-0.2h0.4l-0.1,0.6H428
				c-0.2,0-0.3,0-0.4,0.1s-0.2,0.2-0.3,0.5c-0.2,0.3-0.4,0.6-0.5,0.7s-0.3,0.3-0.6,0.3c0.2,0.1,0.4,0.2,0.5,0.3
				c0.1,0.1,0.2,0.4,0.3,0.7l0.5,1.4h-0.8l-0.4-1.2c-0.2-0.4-0.3-0.7-0.5-0.8c-0.1-0.1-0.3-0.2-0.6-0.2l-0.5,2.2h-0.8L424.9,448.1z
				 M431.3,451.9c-0.6,0.6-1.1,0.9-1.7,0.9c-0.4,0-0.7-0.1-0.9-0.3c-0.2-0.2-0.3-0.5-0.3-0.8c0-0.2,0-0.5,0.1-1l0.6-2.7h0.8l-0.6,3
				c-0.1,0.2-0.1,0.4-0.1,0.6s0.1,0.3,0.2,0.4s0.3,0.1,0.5,0.1s0.4-0.1,0.6-0.2s0.4-0.3,0.5-0.4c0.2-0.2,0.3-0.4,0.4-0.7
				c0.1-0.2,0.1-0.4,0.2-0.8l0.4-2h0.8l-1,4.7h-0.7L431.3,451.9z M436.3,451.9c-0.6,0.6-1.1,0.9-1.7,0.9c-0.4,0-0.7-0.1-0.9-0.3
				c-0.2-0.2-0.3-0.5-0.3-0.8c0-0.2,0.1-0.5,0.2-1l0.6-2.7h0.8l-0.6,3c-0.1,0.2-0.1,0.4-0.1,0.6s0.1,0.3,0.2,0.4s0.3,0.1,0.5,0.1
				s0.4-0.1,0.7-0.2c0.2-0.1,0.4-0.3,0.5-0.4c0.2-0.2,0.3-0.4,0.4-0.7c0.1-0.2,0.1-0.4,0.2-0.8l0.4-2h0.8l-1,4.7h-0.7V451.9z
				 M434.9,446.3h0.5c0,0.2,0.1,0.4,0.2,0.5s0.3,0.1,0.5,0.1s0.4-0.1,0.5-0.2c0.2-0.1,0.3-0.3,0.4-0.5h0.5c-0.1,0.4-0.3,0.6-0.5,0.8
				c-0.3,0.2-0.6,0.3-0.9,0.3s-0.6-0.1-0.8-0.3C435,446.9,434.9,446.6,434.9,446.3z M440.3,454.6l1.3-6.5h0.7l-0.1,0.6
				c0.3-0.3,0.5-0.5,0.7-0.6s0.4-0.2,0.7-0.2c0.4,0,0.8,0.2,1.1,0.5c0.3,0.3,0.4,0.8,0.4,1.4c0,0.5-0.1,0.9-0.2,1.3
				c-0.2,0.4-0.4,0.7-0.6,1c-0.2,0.2-0.5,0.4-0.7,0.5s-0.5,0.2-0.7,0.2c-0.6,0-1-0.3-1.3-0.9l-0.5,2.5h-0.8V454.6z M441.8,450.9
				c0,0.3,0,0.6,0.1,0.7c0.1,0.2,0.2,0.3,0.4,0.5c0.2,0.1,0.4,0.2,0.6,0.2c0.5,0,0.8-0.3,1.1-0.8c0.3-0.5,0.4-1,0.4-1.6
				c0-0.4-0.1-0.7-0.3-0.9c-0.2-0.2-0.4-0.3-0.7-0.3c-0.2,0-0.4,0.1-0.6,0.2s-0.3,0.3-0.5,0.5c-0.1,0.2-0.3,0.5-0.4,0.8
				C441.9,450.4,441.8,450.6,441.8,450.9z M448.8,452.2c-0.3,0.2-0.5,0.4-0.8,0.5s-0.5,0.2-0.8,0.2c-0.4,0-0.8-0.1-1-0.4
				c-0.3-0.3-0.4-0.6-0.4-1c0-0.3,0.1-0.5,0.2-0.7s0.3-0.4,0.5-0.5s0.4-0.2,0.7-0.3c0.2,0,0.5-0.1,1-0.1s0.9-0.1,1.1-0.2
				c0.1-0.2,0.1-0.4,0.1-0.5c0-0.2-0.1-0.3-0.2-0.4c-0.2-0.1-0.5-0.2-0.8-0.2s-0.6,0.1-0.8,0.2c-0.2,0.1-0.4,0.4-0.5,0.6l-0.8-0.1
				c0.2-0.5,0.4-0.8,0.8-1.1c0.4-0.2,0.8-0.4,1.3-0.4c0.6,0,1,0.1,1.4,0.4c0.3,0.2,0.4,0.5,0.4,0.8c0,0.2,0,0.5-0.1,0.9l-0.3,1.2
				c-0.1,0.4-0.1,0.7-0.1,0.9c0,0.1,0,0.4,0.1,0.6H449C448.9,452.6,448.8,452.4,448.8,452.2z M449.1,450.4c-0.1,0-0.2,0.1-0.4,0.1
				c-0.1,0-0.3,0-0.6,0.1c-0.5,0-0.8,0.1-1,0.2s-0.3,0.2-0.4,0.3c-0.1,0.1-0.1,0.3-0.1,0.5s0.1,0.4,0.2,0.5c0.2,0.1,0.4,0.2,0.7,0.2
				c0.3,0,0.5-0.1,0.8-0.2c0.2-0.1,0.4-0.3,0.6-0.6C448.9,451.2,449,450.9,449.1,450.4z M453.9,451.9c-0.6,0.6-1.1,0.9-1.7,0.9
				c-0.4,0-0.7-0.1-0.9-0.3c-0.2-0.2-0.3-0.5-0.3-0.8c0-0.2,0-0.5,0.1-1l0.6-2.7h0.8l-0.6,3c-0.1,0.2-0.1,0.4-0.1,0.6
				s0.1,0.3,0.2,0.4s0.3,0.1,0.5,0.1s0.4-0.1,0.6-0.2s0.4-0.3,0.5-0.4c0.2-0.2,0.3-0.4,0.4-0.7c0.1-0.2,0.1-0.4,0.2-0.8l0.4-2h0.8
				l-1,4.7h-0.7L453.9,451.9z M452.4,446.3h0.5c0,0.2,0.1,0.4,0.2,0.5s0.3,0.1,0.5,0.1s0.4-0.1,0.5-0.2c0.2-0.1,0.3-0.3,0.4-0.5h0.5
				c-0.1,0.4-0.3,0.6-0.5,0.8c-0.3,0.2-0.6,0.3-0.9,0.3s-0.6-0.1-0.8-0.3C452.6,446.9,452.4,446.6,452.4,446.3z M455.8,451
				c0-0.9,0.3-1.7,0.8-2.3c0.4-0.5,1-0.7,1.7-0.7c0.6,0,1,0.2,1.4,0.5c0.3,0.4,0.5,0.8,0.5,1.4c0,0.5-0.1,1-0.3,1.5
				c-0.2,0.5-0.5,0.8-0.9,1.1c-0.4,0.2-0.8,0.4-1.3,0.4c-0.4,0-0.7-0.1-1-0.2c-0.3-0.2-0.5-0.4-0.7-0.7
				C455.9,451.7,455.8,451.4,455.8,451z M456.6,450.9c0,0.4,0.1,0.8,0.3,1c0.2,0.2,0.5,0.3,0.8,0.3c0.2,0,0.3,0,0.5-0.1
				s0.3-0.2,0.5-0.3c0.1-0.1,0.3-0.3,0.4-0.5s0.2-0.4,0.2-0.6c0.1-0.3,0.1-0.6,0.1-0.8c0-0.4-0.1-0.7-0.3-1
				c-0.2-0.2-0.5-0.4-0.8-0.4c-0.2,0-0.5,0.1-0.7,0.2s-0.4,0.3-0.6,0.5s-0.3,0.5-0.4,0.8C456.7,450.4,456.6,450.7,456.6,450.9z
				 M461.7,448.1h0.8l-0.4,1.9h2.2l0.4-1.9h0.8l-1,4.7h-0.8l0.4-2.1h-2.2l-0.4,2.1h-0.8L461.7,448.1z"/>
		</g>
	</g>
</g>
<g>
	<g>
		<g>
			<g>
				<g>
					<path class="st28" d="M226.5,717.3l-36-13.4c-1.3,3.3-2.3,6.6-3.5,9.9l-1.5,5l-0.8,2.5l-0.7,2.5l-1.3,5.1l-1.1,5.1l-0.6,2.6
						l-0.5,2.6l-1,5.2l37.9,6.3l0.8-4.3l0.4-2.1l0.5-2.1l0.9-4.2l1.1-4.2l0.5-2.1l0.6-2.1l1.2-4.2
						C224.6,722.8,225.4,720,226.5,717.3z"/>
				</g>
				<path class="st29" d="M207.6,710.3l-0.6,1.5c-2.6,3.8-5.1,7.8-7.5,11.8l3.8-0.6c-2.4,8.1-4.3,16.3-5.7,24.6l1.9,0.3
					c1.4-8.2,3.3-16.4,5.7-24.4l3,2.6c0-4.5,0.3-9,0.6-13.6l0.6-1.6L207.6,710.3z"/>
			</g>
			<g>
				<g>
					<path class="st28" d="M241.7,686l-32.8-19.9l-2.7,4.5c-0.9,1.5-1.7,3.1-2.5,4.6c-1.7,3.1-3.2,6.2-4.8,9.4
						c-3,6.3-5.9,12.8-8.2,19.4l36,13.4c2-5.5,4.4-10.8,6.8-16c1.3-2.6,2.6-5.2,4-7.7c0.7-1.3,1.4-2.6,2.1-3.8L241.7,686z"/>
				</g>
				<path class="st29" d="M224.4,675.6l-0.8,1.4l-2.5,2.5c-0.8,0.8-1.6,1.7-2.4,2.5c-1.6,1.7-3.2,3.4-4.7,5.2l3.9,0.1
					c-3.9,7.5-7.3,15.2-10.2,23.1l1.8,0.7c2.9-7.8,6.3-15.5,10.1-22.9l2.5,3.1c0.4-2.2,0.9-4.4,1.5-6.6c0.3-1.1,0.5-2.2,0.8-3.3
					l0.9-3.3l0.8-1.4L224.4,675.6z"/>
			</g>
			<g>
				<g>
					<path class="st28" d="M262.4,658.1L234,632.3c-4.6,5.2-9.2,10.6-13.4,16.3c-2.1,2.8-4.1,5.7-6.1,8.6c-1,1.4-1.9,2.9-2.9,4.4
						c-0.9,1.5-1.9,2.9-2.8,4.5l32.8,19.9c0.7-1.3,1.5-2.5,2.3-3.7c0.8-1.2,1.6-2.5,2.4-3.7c1.7-2.4,3.3-4.8,5-7.1
						C254.8,666.9,258.6,662.5,262.4,658.1z"/>
				</g>
				<path class="st29" d="M247.5,644.6c-0.4,0.4-0.7,0.8-1.1,1.2l-5.7,4l-5.6,4.2l3.8,0.8c-5.2,6.6-10,13.5-14.4,20.7l1.6,1
					c4.3-7.1,9.1-14,14.3-20.5l1.8,3.5l2.7-6.2c0.9-2.1,1.9-4.1,2.9-6.2c0.4-0.4,0.7-0.8,1.1-1.2L247.5,644.6z"/>
			</g>
			<g>
				<g>
					<path class="st28" d="M289.1,621.9l-35.6-14.4c-1.3,3.3-3.8,7.1-7.2,11.2c-3.4,4.1-7.7,8.5-12.3,13.6l28.5,25.8
						c4-4.4,8.7-9.2,13.5-14.9C280.7,637.4,285.6,630.5,289.1,621.9z"/>
				</g>
				<path class="st29" d="M270.4,614.4c-0.2,0.5-0.4,1-0.6,1.4c-2.8,3.5-6.1,6.5-9.6,9.1c1.2,0.3,2.5,0.5,3.7,0.8
					c-4.9,6.7-10.8,12.6-16.5,18.9l1.4,1.3c5.6-6.2,11.6-12.1,16.6-19c0.7,1.2,1.3,2.3,1.9,3.5c1.8-4.5,3.4-9.1,4.1-13.7
					c0.2-0.5,0.5-1,0.7-1.6L270.4,614.4z"/>
			</g>
			<g>
				<g>
					<path class="st28" d="M273.5,563.7l-20.2,32.6c0.1,0.1,0.1,0,0.4,0.4c0.2,0.4,0.6,1.2,0.8,2.4c0.2,1.2,0.3,2.6,0.1,4.1
						c-0.2,1.5-0.5,3-1,4.2l35.6,14.4c1.9-4.7,3.1-9.5,3.6-14.4c0.5-4.9,0.4-9.9-0.5-15c-0.9-5.1-2.7-10.5-5.8-15.6
						C283.4,571.8,278.9,567,273.5,563.7z"/>
				</g>
				<path class="st29" d="M262.9,580.8l1.3,0.9c0.2,0.2,0.3,0.4,0.5,0.6l0.4,0.7c0.3,0.5,0.6,0.9,0.8,1.4c0.5,1,0.9,1.9,1.2,2.9
					c0.4,0.9,0.5,2,0.7,2.9c0.1,0.5,0.1,1,0.2,1.5l0.1,0.7l0,0.7c0.5-0.4,1-0.8,1.4-1.3c0.4-0.4,0.9-0.9,1.3-1.3
					c1.6,3.7,2.1,7.9,2,11.9c-0.1,4.1-1,8.1-2.5,11.9l1.7,0.7c1.6-4,2.5-8.3,2.6-12.6c0.1-4.3-0.5-8.7-2.2-12.7c0.7,0,1.4,0.1,2,0.2
					c0.7,0.1,1.3,0.2,2,0.3l-0.5-0.8l-0.6-0.8c-0.4-0.5-0.8-1.1-1.2-1.6c-0.9-1-1.7-2-2.7-2.8c-0.9-0.9-2-1.6-3-2.3
					c-0.5-0.3-1.1-0.6-1.6-0.9c-0.5-0.3-1.1-0.6-1.6-0.8l-1.4-1L262.9,580.8z"/>
			</g>
		</g>
	</g>
</g>
</svg>
