<svg width="148" height="126" viewBox="0 0 148 126" fill="none" xmlns="http://www.w3.org/2000/svg">
<g clip-path="url(#clip0_194_262)">
<path d="M73.6016 0C52.8908 0 36.1 16.7892 36.1 37.5079C36.1 58.2265 52.8908 74.9984 73.6016 74.9984C94.3123 74.9984 111.102 58.2092 111.102 37.5079C111.102 16.8066 94.3123 0 73.6016 0ZM73.6016 73.1031C53.9323 73.1031 37.9937 57.1629 37.9937 37.5079C37.9937 17.8529 53.9323 1.89528 73.6016 1.89528C93.2708 1.89528 109.205 17.8355 109.205 37.5079C109.205 57.1803 93.2645 73.1031 73.6016 73.1031Z" fill="white"/>
<path d="M82.606 16.2274C82.4246 16.2905 82.0206 16.4294 81.847 16.8113C81.6308 17.2847 81.8659 17.9159 82.2794 18.2031C82.6187 18.4367 82.9816 18.361 83.6697 18.2379C83.8369 18.2063 85.385 17.9049 85.3882 17.4188C85.3882 17.3036 85.303 17.2153 85.1894 17.1158C84.7854 16.7608 83.7328 15.8376 82.606 16.2274Z" fill="#F2F2F2"/>
<path d="M72.6231 56.5333C72.4128 55.8046 72.3416 55.0428 72.4132 54.2877C72.8652 52.9806 73.5548 51.7682 74.4473 50.7117C75.1149 49.9227 75.7966 49.6702 75.7098 49.4493C75.5331 48.9948 72.6404 49.5866 70.379 50.2904C68.0261 51.0242 67.6095 51.4897 66.2413 51.5529C64.5749 51.6302 63.041 51.0384 62.244 50.5003C59.6386 48.7454 58.908 43.4131 61.496 37.8535C61.5339 38.2463 61.6279 38.6316 61.7753 38.9976C61.9024 39.3125 62.0672 39.6109 62.2661 39.8861C62.6672 39.3439 63.0119 38.7623 63.295 38.1502C63.9191 36.7981 64.2422 35.3265 64.2419 33.8373C66.0362 32.8178 67.9614 31.8284 70.0098 30.8942C67.5469 31.1136 65.1666 31.8924 63.0504 33.1713C62.0089 33.8026 59.8185 35.1755 58.141 37.9056C57.2571 39.4129 56.6399 41.0615 56.3167 42.7787C55.149 49.4887 60.0947 55.3813 60.8411 56.2461C60.6833 56.1451 60.2572 55.8784 59.7017 55.457C63.718 59.3723 68.9114 61.9414 74.2375 62.4195C76.3973 62.6078 78.5732 62.4657 80.6902 61.9982C76.4989 61.0214 73.3427 58.9241 72.6231 56.5333Z" fill="white"/>
<path d="M93.8294 18.0532C93.825 18.0035 93.8082 17.9557 93.7807 17.9141C93.7531 17.8725 93.7156 17.8384 93.6716 17.815C89.9543 15.7616 85.8824 14.4294 81.6702 13.8887C79.0285 13.5557 74.8687 13.0744 69.8173 14.5909C66.3852 15.6288 63.2079 17.3725 60.4892 19.7102C60.8848 18.8928 61.2819 18.0748 61.6807 17.2563C59.4224 17.8244 54.3505 19.4656 50.6688 24.1999C49.7026 25.4475 48.9012 26.8143 48.2843 28.2666C48.955 28.1309 50.6893 27.8784 52.3526 28.8284C52.7454 29.0527 53.1068 29.3281 53.4273 29.6474C52.6177 32.1219 50.8708 38.6299 53.4746 45.8717C53.6987 46.5029 53.948 47.1089 54.2258 47.7102C54.0328 46.9825 53.9107 46.2379 53.8612 45.4866C53.5946 41.4041 55.5277 38.4026 56.3862 37.0692C60.2541 31.0645 66.8299 29.5275 68.5548 29.1787L70.8935 30.5043C72.0786 29.9836 73.3001 29.4801 74.5689 29.0036C75.3127 28.7237 76.0491 28.4607 76.7782 28.2145C76.5885 28.7166 76.2675 29.1586 75.8487 29.4944C75.5907 29.6994 75.2999 29.8595 74.9886 29.9678C75.2175 30.0546 76.8823 30.6527 78.5314 29.7058C80.4946 28.5743 80.5908 26.3035 80.594 26.1756C80.9174 26.3976 81.3078 26.5008 81.6986 26.4676C82.2857 26.3871 82.6297 25.9231 82.9027 25.6375C83.4408 25.0741 83.8496 25.0505 86.4329 24.2456C88.6864 23.545 88.9831 23.5686 89.8463 23.1236C90.5543 22.7759 91.2081 22.3272 91.7873 21.7917C92.4681 21.1394 93.0158 20.3613 93.4001 19.5003C92.791 19.7923 92.125 20.0969 91.3896 20.4125C91.034 20.5847 90.6358 20.6494 90.244 20.5987C90.0988 20.575 89.7216 20.5135 89.6585 20.2957C89.5954 20.0779 89.8163 19.8097 90.1966 19.6171C90.7007 19.3362 91.2244 19.092 91.7637 18.8865C92.4612 18.6214 92.8099 18.4888 93.1129 18.5188C93.3417 18.5409 93.5658 18.6119 93.7094 18.4825C93.7607 18.4248 93.7982 18.3561 93.819 18.2817C93.8398 18.2073 93.8433 18.1292 93.8294 18.0532ZM56.282 31.7273C58.3651 27.9825 60.8269 25.8048 62.547 24.5739C67.862 20.7675 74.1207 20.231 74.2832 20.646C74.3099 20.7411 74.3237 20.8393 74.3243 20.938C74.3217 21.1267 74.2864 21.3136 74.2201 21.4903C74.1728 21.6765 74.2012 21.9637 74.5641 22.423C74.1791 22.423 73.6409 22.423 72.975 22.4687L72.8772 22.4766C70.3338 22.6785 67.8401 23.292 65.4933 24.293C61.8234 25.9195 58.6465 28.4835 56.282 31.7273ZM74.2138 26.8353C73.3781 27.4387 72.6972 28.2315 72.227 29.1488C72.0216 28.7332 71.7054 28.3825 71.3133 28.1352C70.9213 27.888 70.4685 27.7538 70.005 27.7474C70.1287 27.5823 70.2615 27.4243 70.4027 27.274C72.0297 25.5539 74.1743 25.4197 74.1207 25.2398C74.0323 24.951 72.4227 24.9889 71.1223 25.7306C70.3661 26.1788 69.7518 26.8314 69.3501 27.6133C69.163 27.3733 68.943 27.1609 68.6968 26.982C67.5748 26.1709 66.2618 26.3287 65.8436 26.3966C66.8255 25.5632 67.9293 24.8852 69.1166 24.3861C71.0157 23.5969 73.0769 23.2765 75.1259 23.4519L76.9723 25.6959C75.9767 25.8598 75.0326 26.252 74.2138 26.8416V26.8353ZM79.8649 23.2467C80.3967 24.3672 81.383 25.0094 82.0048 25.3329C81.7507 25.3219 79.2179 25.1751 78.0249 23.1583C77.4994 22.2683 77.0007 20.6334 77.8134 19.4767C78.159 18.9843 78.9291 18.301 79.6029 18.4588C80.2515 18.6166 80.3825 19.4483 81.1637 19.5461C81.6276 19.6045 81.9322 19.352 82.0221 19.4767C82.1594 19.6692 81.5235 20.3999 81.0406 20.8622C80.2358 21.6308 79.7781 21.7286 79.655 22.2462C79.6345 22.3409 79.5777 22.6439 79.8649 23.253V23.2467ZM83.1789 19.2131C82.5366 19.2715 81.5803 19.0143 81.2505 18.2663C80.8354 17.3194 81.645 16.1154 82.5129 15.8471C83.171 15.6435 83.8275 15.9907 84.6165 16.4073C85.1388 16.7043 85.6426 17.0326 86.1252 17.3904C86.3903 17.5751 86.6065 17.7345 86.7564 17.8449C85.814 18.1247 84.8988 18.4886 84.0216 18.9322C83.764 19.0863 83.4769 19.1841 83.1789 19.2194V19.2131ZM88.1767 19.5871C87.4792 20.4093 87.0168 20.9538 86.9489 21.7617C86.9189 22.1326 86.9821 22.4324 86.7564 22.7086C86.5849 22.8962 86.3572 23.0233 86.1075 23.0708C85.8577 23.1183 85.5993 23.0837 85.3708 22.9721C84.8974 22.7181 84.7996 22.1547 84.7743 22.0079C84.6165 21.1116 85.2478 20.3352 85.5997 19.9028C87.3482 17.7818 90.427 17.3084 90.5438 17.5893C90.618 17.766 89.4297 18.1132 88.1767 19.5871Z" fill="white"/>
<path d="M81.9527 58.1918C83.036 57.9329 84.0927 57.5731 85.1089 57.1172C85.7323 56.8331 87.1778 56.0125 88.4513 53.4465C88.6091 53.8126 89.0667 54.971 88.5444 56.0188C88.4639 56.1766 88.273 56.5143 87.4934 57.0935C86.7706 57.63 85.6265 58.479 83.8922 58.73C82.3946 58.9462 80.9254 58.6479 80.9238 58.4727C80.9175 58.3796 81.342 58.3275 81.9527 58.1918Z" fill="#F2F2F2"/>
<path d="M86.3004 60.2844C89.9126 59.216 92.3397 57.7768 93.7694 56.7779C94.9814 55.932 96.3101 54.8195 96.4711 53.3408C96.5074 53.0015 96.5437 52.0783 96.1902 51.9379C95.9519 51.8479 95.63 52.1509 95.4185 52.3592C93.8073 53.9468 93.1571 55.4302 91.7369 56.7432C91.4938 56.9673 91.235 57.1614 90.719 57.5496C89.3341 58.5962 87.8549 59.5118 86.3004 60.2844Z" fill="#F2F2F2"/>
</g>
<path d="M19.27 121.449L19.475 123.376C18.7097 123.513 18.04 123.581 17.466 123.581C16.1813 123.581 14.9513 122.72 13.776 120.998C12.6007 119.303 11.6713 117.308 10.988 115.012C10.332 112.716 9.922 110.502 9.758 108.37C8.39133 111.923 7.093 114.506 5.863 116.119C4.66033 117.704 3.41667 118.497 2.132 118.497C1.476 118.497 0.956667 118.237 0.574 117.718C0.191333 117.171 0 116.461 0 115.586C0 113.563 0.929333 110.994 2.788 107.878C4.674 104.762 6.87433 102.206 9.389 100.211C9.44367 100.047 9.676 99.0493 10.086 97.218C10.5233 95.3867 10.783 94.3753 10.865 94.184L13.243 93.979C13.243 94.4437 13.12 95.414 12.874 96.89C16.564 94.0747 19.598 92.667 21.976 92.667C23.0967 92.667 23.985 92.9813 24.641 93.61C25.297 94.2113 25.625 95.0313 25.625 96.07C25.625 98.6667 24.313 101.291 21.689 103.942C19.065 106.566 16.2633 108.11 13.284 108.575C13.5027 112.538 14.186 115.641 15.334 117.882C16.5093 120.123 17.8213 121.312 19.27 121.449ZM7.339 107.755C8.077 105.787 8.58267 104.215 8.856 103.04C7.35267 104.434 5.95867 106.293 4.674 108.616C3.41667 110.939 2.788 112.661 2.788 113.782C2.788 114.356 3.02033 114.643 3.485 114.643C4.305 114.643 5.58967 112.347 7.339 107.755ZM10.127 107.181C13.0243 107.181 15.621 106.17 17.917 104.147C20.213 102.124 21.361 100.115 21.361 98.12C21.361 97.382 21.1697 96.808 20.787 96.398C20.4317 95.988 19.8577 95.783 19.065 95.783C18.2723 95.783 17.1243 96.234 15.621 97.136C14.1177 98.0107 13.038 98.735 12.382 99.309C11.5347 102.671 10.783 105.295 10.127 107.181Z" fill="white"/>
<path d="M58.5794 94.184L61.1624 95.455C59.4131 98.2977 57.3357 100.826 54.9304 103.04C52.5524 105.254 49.3817 107.454 45.4184 109.641C46.1837 113.604 47.1267 116.775 48.2474 119.153C49.3681 121.558 50.8304 122.898 52.6344 123.171V125.057C52.4157 125.084 52.1287 125.098 51.7734 125.098C49.9421 125.098 48.1654 123.827 46.4434 121.285C44.7487 118.743 43.2181 114.985 41.8514 110.01C40.6761 113.7 38.8857 116.625 36.4804 118.784C34.0751 120.916 31.5741 121.982 28.9774 121.982C27.6381 121.982 26.5311 121.613 25.6564 120.875C24.8091 120.164 24.3854 119.18 24.3854 117.923C24.3854 116.638 24.9594 115.313 26.1074 113.946C27.2554 112.579 28.8271 111.431 30.8224 110.502L31.7654 111.978C29.3054 113.727 28.0754 115.367 28.0754 116.898C28.0754 117.636 28.3214 118.237 28.8134 118.702C29.3054 119.139 29.9477 119.358 30.7404 119.358C32.5991 119.358 34.1981 118.579 35.5374 117.021C36.9041 115.436 38.1204 112.675 39.1864 108.739C40.5257 103.792 41.8924 100.553 43.2864 99.022C43.9151 98.3113 44.8307 97.5323 46.0334 96.685C44.1474 96.7397 42.2204 97.0677 40.2524 97.669C38.2844 98.243 36.5624 99.1177 35.0864 100.293C33.6104 101.441 32.8724 102.726 32.8724 104.147C32.8724 105.978 33.7061 107.441 35.3734 108.534L34.5534 109.805C33.0227 109.067 31.8201 108.11 30.9454 106.935C30.0707 105.76 29.6334 104.543 29.6334 103.286C29.6334 101.564 30.5764 99.9377 32.4624 98.407C34.3484 96.8763 36.6581 95.6873 39.3914 94.84C42.1521 93.9927 44.8581 93.569 47.5094 93.569C49.1494 93.569 49.9694 93.9243 49.9694 94.635C49.9694 95.0997 49.4911 95.6873 48.5344 96.398C46.7851 97.71 45.4321 99.4183 44.4754 101.523C43.5461 103.628 42.7807 106.088 42.1794 108.903C45.2954 107.755 48.2747 105.855 51.1174 103.204C53.9874 100.525 56.4747 97.5187 58.5794 94.184Z" fill="white"/>
<path d="M66.6103 99.145L66.8153 100.99C66.8153 101.209 66.7333 101.414 66.5693 101.605C66.4326 101.769 66.2686 101.851 66.0773 101.851C65.5579 101.851 65.0249 101.4 64.4783 100.498C63.9316 99.596 63.6583 98.7487 63.6583 97.956C63.6583 96.234 64.6696 95.0723 66.6923 94.471C68.7149 93.8697 71.5576 93.569 75.2203 93.569C78.8829 93.569 81.1243 93.692 81.9443 93.938C82.7916 94.1567 83.2153 94.799 83.2153 95.865C83.2153 96.3297 82.9829 96.849 82.5183 97.423C82.0809 97.997 81.1926 98.899 79.8533 100.129C78.5413 101.359 76.2863 103.3 73.0883 105.951C69.9176 108.602 67.4986 110.789 65.8313 112.511C64.1639 114.233 63.0979 115.436 62.6333 116.119C63.7813 116.174 64.5193 116.201 64.8473 116.201C68.5373 116.201 71.2023 115.996 72.8423 115.586C74.4823 115.176 75.3023 114.465 75.3023 113.454L75.0973 111.609C75.0973 111.39 75.1656 111.199 75.3023 111.035C75.4663 110.844 75.6439 110.748 75.8353 110.748C76.3546 110.748 76.8876 111.199 77.4343 112.101C77.9809 113.003 78.2543 113.85 78.2543 114.643C78.2543 116.365 77.2429 117.527 75.2203 118.128C73.1976 118.729 70.3549 119.03 66.6923 119.03C63.0296 119.03 60.7746 118.921 59.9273 118.702C59.1073 118.456 58.6973 117.8 58.6973 116.734C58.6973 115.996 59.7496 114.616 61.8543 112.593C63.9863 110.57 66.6786 108.192 69.9313 105.459C73.1839 102.698 75.3979 100.744 76.5733 99.596C77.7486 98.448 78.6506 97.4093 79.2793 96.48C78.1313 96.4253 77.3933 96.398 77.0653 96.398C73.3753 96.398 70.7103 96.603 69.0703 97.013C67.4303 97.423 66.6103 98.1337 66.6103 99.145Z" fill="white"/>
<path d="M127.211 96.968C127.211 98.732 126.257 100.316 124.349 101.72C122.477 103.124 120.587 104.114 118.679 104.69C120.155 105.554 121.271 106.364 122.027 107.12C122.819 107.876 123.215 108.74 123.215 109.712C123.215 112.088 121.883 114.176 119.219 115.976C116.555 117.74 113.693 118.622 110.633 118.622C109.157 118.622 107.681 118.388 106.205 117.92C104.765 117.452 103.757 116.894 103.181 116.246L105.611 113.978C106.115 114.482 106.781 114.932 107.609 115.328C108.473 115.724 109.211 115.922 109.823 115.922C111.947 115.922 113.873 115.382 115.601 114.302C117.365 113.186 118.247 111.854 118.247 110.306C118.247 109.37 117.815 108.542 116.951 107.822C116.087 107.102 114.935 106.544 113.495 106.148C112.667 105.896 112.253 105.482 112.253 104.906C112.253 104.114 113.873 103.34 117.113 102.584C118.301 102.296 119.399 101.828 120.407 101.18C121.415 100.496 121.919 99.758 121.919 98.966C121.919 98.138 121.631 97.508 121.055 97.076C120.515 96.608 119.831 96.374 119.003 96.374C118.175 96.374 116.897 96.824 115.169 97.724C113.477 98.588 111.713 99.722 109.877 101.126L109.013 99.344C110.525 97.544 112.577 95.96 115.169 94.592C117.797 93.224 119.903 92.54 121.487 92.54C123.071 92.54 124.421 92.99 125.537 93.89C126.653 94.754 127.211 95.78 127.211 96.968Z" fill="white"/>
<path d="M146.231 92.54C146.879 93.044 147.203 93.656 147.203 94.376C147.203 95.096 146.609 95.906 145.421 96.806C144.233 97.706 143.045 98.678 141.857 99.722C140.705 100.73 139.427 101.99 138.023 103.502C136.655 105.014 135.449 106.508 134.405 107.984C131.957 111.512 130.625 114.95 130.409 118.298L126.467 118.676C126.539 115.904 127.691 112.34 129.923 107.984C131.003 105.788 132.533 103.574 134.513 101.342C136.493 99.11 138.743 97.202 141.263 95.618C137.663 95.654 133.091 96.392 127.547 97.832L126.899 94.376C127.727 94.016 130.103 93.53 134.027 92.918C137.987 92.306 140.903 92 142.775 92C144.683 92 145.835 92.18 146.231 92.54Z" fill="white"/>
<defs>
<clipPath id="clip0_194_262">
<rect width="75" height="75" fill="white" transform="translate(36.1015)"/>
</clipPath>
</defs>
</svg>
