<svg width="240" height="75" viewBox="0 0 240 75" fill="none" xmlns="http://www.w3.org/2000/svg">
<g clip-path="url(#clip0_177_174)">
<path d="M37.5 0C16.7893 0 -0.00154114 16.7892 -0.00154114 37.5079C-0.00154114 58.2265 16.7893 74.9984 37.5 74.9984C58.2108 74.9984 75 58.2092 75 37.5079C75 16.8066 58.2108 0 37.5 0ZM37.5 73.1031C17.8308 73.1031 1.89216 57.1629 1.89216 37.5079C1.89216 17.8529 17.8308 1.89528 37.5 1.89528C57.1693 1.89528 73.1032 17.8355 73.1032 37.5079C73.1032 57.1803 57.163 73.1031 37.5 73.1031Z" fill="white"/>
<path d="M46.5045 16.2274C46.3231 16.2905 45.9191 16.4294 45.7455 16.8113C45.5293 17.2847 45.7644 17.9159 46.1779 18.2031C46.5172 18.4367 46.8801 18.361 47.5682 18.2379C47.7354 18.2063 49.2835 17.9049 49.2867 17.4188C49.2867 17.3036 49.2015 17.2153 49.0879 17.1158C48.6839 16.7608 47.6313 15.8376 46.5045 16.2274Z" fill="#F2F2F2"/>
<path d="M36.5216 56.5333C36.3113 55.8046 36.2401 55.0428 36.3117 54.2877C36.7637 52.9806 37.4533 51.7682 38.3458 50.7117C39.0134 49.9227 39.6951 49.6702 39.6083 49.4493C39.4316 48.9948 36.5389 49.5866 34.2775 50.2904C31.9246 51.0242 31.508 51.4897 30.1398 51.5529C28.4734 51.6302 26.9395 51.0384 26.1425 50.5003C23.5371 48.7454 22.8065 43.4131 25.3945 37.8535C25.4324 38.2463 25.5264 38.6316 25.6738 38.9976C25.8009 39.3125 25.9657 39.6109 26.1646 39.8861C26.5656 39.3439 26.9104 38.7623 27.1935 38.1502C27.8176 36.7981 28.1407 35.3265 28.1404 33.8373C29.9347 32.8178 31.8599 31.8284 33.9083 30.8942C31.4454 31.1136 29.0651 31.8924 26.9489 33.1713C25.9074 33.8026 23.717 35.1755 22.0395 37.9056C21.1556 39.4129 20.5384 41.0615 20.2152 42.7787C19.0475 49.4887 23.9932 55.3813 24.7396 56.2461C24.5818 56.1451 24.1557 55.8784 23.6002 55.457C27.6165 59.3723 32.8099 61.9414 38.136 62.4195C40.2958 62.6078 42.4717 62.4657 44.5887 61.9982C40.3974 61.0214 37.2412 58.9241 36.5216 56.5333Z" fill="white"/>
<path d="M57.7279 18.0532C57.7235 18.0035 57.7067 17.9557 57.6792 17.9141C57.6516 17.8725 57.6141 17.8384 57.5701 17.815C53.8528 15.7616 49.7809 14.4294 45.5687 13.8887C42.927 13.5557 38.7672 13.0744 33.7157 14.5909C30.2837 15.6288 27.1064 17.3725 24.3877 19.7102C24.7833 18.8928 25.1804 18.0748 25.5792 17.2563C23.3209 17.8244 18.249 19.4656 14.5673 24.1999C13.6011 25.4475 12.7997 26.8143 12.1828 28.2666C12.8535 28.1309 14.5878 27.8784 16.2511 28.8284C16.6439 29.0527 17.0053 29.3281 17.3258 29.6474C16.5162 32.1219 14.7693 38.6299 17.3731 45.8717C17.5972 46.5029 17.8465 47.1089 18.1243 47.7102C17.9313 46.9825 17.8092 46.2379 17.7597 45.4866C17.4931 41.4041 19.4262 38.4026 20.2847 37.0692C24.1526 31.0645 30.7284 29.5275 32.4533 29.1787L34.792 30.5043C35.9771 29.9836 37.1986 29.4801 38.4674 29.0036C39.2112 28.7237 39.9476 28.4607 40.6767 28.2145C40.487 28.7166 40.166 29.1586 39.7472 29.4944C39.4892 29.6994 39.1984 29.8595 38.8871 29.9678C39.1159 30.0546 40.7808 30.6527 42.4299 29.7058C44.3931 28.5743 44.4893 26.3035 44.4925 26.1756C44.8159 26.3976 45.2063 26.5008 45.5971 26.4676C46.1842 26.3871 46.5282 25.9231 46.8012 25.6375C47.3393 25.0741 47.7481 25.0505 50.3314 24.2456C52.5849 23.545 52.8816 23.5686 53.7448 23.1236C54.4528 22.7759 55.1066 22.3272 55.6858 21.7917C56.3666 21.1394 56.9143 20.3613 57.2986 19.5003C56.6895 19.7923 56.0235 20.0969 55.2881 20.4125C54.9325 20.5847 54.5343 20.6494 54.1425 20.5987C53.9973 20.575 53.6201 20.5135 53.557 20.2957C53.4939 20.0779 53.7148 19.8097 54.0951 19.6171C54.5992 19.3362 55.1229 19.092 55.6622 18.8865C56.3597 18.6214 56.7084 18.4888 57.0114 18.5188C57.2402 18.5409 57.4643 18.6119 57.6079 18.4825C57.6592 18.4248 57.6967 18.3561 57.7175 18.2817C57.7383 18.2073 57.7418 18.1292 57.7279 18.0532ZM20.1805 31.7273C22.2636 27.9825 24.7254 25.8048 26.4455 24.5739C31.7605 20.7675 38.0192 20.231 38.1817 20.646C38.2084 20.7411 38.2222 20.8393 38.2228 20.938C38.2202 21.1267 38.1849 21.3136 38.1186 21.4903C38.0713 21.6765 38.0997 21.9637 38.4626 22.423C38.0776 22.423 37.5394 22.423 36.8735 22.4687L36.7757 22.4766C34.2323 22.6785 31.7386 23.292 29.3918 24.293C25.7219 25.9195 22.545 28.4835 20.1805 31.7273ZM38.1123 26.8353C37.2766 27.4387 36.5957 28.2315 36.1255 29.1488C35.9201 28.7332 35.6039 28.3825 35.2118 28.1352C34.8198 27.888 34.367 27.7538 33.9035 27.7474C34.0272 27.5823 34.16 27.4243 34.3012 27.274C35.9282 25.5539 38.0728 25.4197 38.0192 25.2398C37.9308 24.951 36.3212 24.9889 35.0208 25.7306C34.2646 26.1788 33.6503 26.8314 33.2486 27.6133C33.0615 27.3733 32.8415 27.1609 32.5953 26.982C31.4733 26.1709 30.1603 26.3287 29.7421 26.3966C30.724 25.5632 31.8278 24.8852 33.0151 24.3861C34.9142 23.5969 36.9754 23.2765 39.0244 23.4519L40.8708 25.6959C39.8752 25.8598 38.9311 26.252 38.1123 26.8416V26.8353ZM43.7634 23.2467C44.2952 24.3672 45.2815 25.0094 45.9033 25.3329C45.6492 25.3219 43.1164 25.1751 41.9234 23.1583C41.3979 22.2683 40.8992 20.6334 41.7119 19.4767C42.0575 18.9843 42.8276 18.301 43.5014 18.4588C44.15 18.6166 44.281 19.4483 45.0622 19.5461C45.5261 19.6045 45.8307 19.352 45.9206 19.4767C46.0579 19.6692 45.422 20.3999 44.9391 20.8622C44.1343 21.6308 43.6766 21.7286 43.5535 22.2462C43.533 22.3409 43.4762 22.6439 43.7634 23.253V23.2467ZM47.0774 19.2131C46.4351 19.2715 45.4788 19.0143 45.149 18.2663C44.7339 17.3194 45.5435 16.1154 46.4114 15.8471C47.0695 15.6435 47.726 15.9907 48.515 16.4073C49.0373 16.7043 49.5411 17.0326 50.0237 17.3904C50.2888 17.5751 50.505 17.7345 50.6549 17.8449C49.7125 18.1247 48.7973 18.4886 47.9201 18.9322C47.6625 19.0863 47.3754 19.1841 47.0774 19.2194V19.2131ZM52.0752 19.5871C51.3777 20.4093 50.9153 20.9538 50.8474 21.7617C50.8174 22.1326 50.8806 22.4324 50.6549 22.7086C50.4834 22.8962 50.2557 23.0233 50.006 23.0708C49.7562 23.1183 49.4978 23.0837 49.2693 22.9721C48.7959 22.7181 48.6981 22.1547 48.6728 22.0079C48.515 21.1116 49.1463 20.3352 49.4982 19.9028C51.2467 17.7818 54.3255 17.3084 54.4423 17.5893C54.5165 17.766 53.3282 18.1132 52.0752 19.5871Z" fill="white"/>
<path d="M45.8512 58.1918C46.9345 57.9329 47.9912 57.5731 49.0074 57.1172C49.6307 56.8331 51.0762 56.0125 52.3498 53.4465C52.5076 53.8126 52.9652 54.971 52.4429 56.0188C52.3624 56.1766 52.1714 56.5143 51.3919 57.0935C50.6691 57.63 49.525 58.479 47.7907 58.73C46.2931 58.9462 44.8239 58.6479 44.8223 58.4727C44.816 58.3796 45.2405 58.3275 45.8512 58.1918Z" fill="#F2F2F2"/>
<path d="M50.1988 60.2844C53.8111 59.216 56.2382 57.7768 57.6679 56.7779C58.8799 55.932 60.2086 54.8195 60.3696 53.3408C60.4059 53.0015 60.4422 52.0783 60.0887 51.9379C59.8504 51.8479 59.5285 52.1509 59.317 52.3592C57.7058 53.9468 57.0556 55.4302 55.6353 56.7432C55.3923 56.9673 55.1335 57.1614 54.6175 57.5496C53.2326 58.5962 51.7533 59.5118 50.1988 60.2844Z" fill="#F2F2F2"/>
</g>
<path d="M111.27 50.4001L111.475 52.3271C110.71 52.4637 110.04 52.5321 109.466 52.5321C108.181 52.5321 106.951 51.6711 105.776 49.9491C104.601 48.2544 103.671 46.2591 102.988 43.9631C102.332 41.6671 101.922 39.4531 101.758 37.3211C100.391 40.8744 99.093 43.4574 97.863 45.0701C96.6603 46.6554 95.4167 47.4481 94.132 47.4481C93.476 47.4481 92.9567 47.1884 92.574 46.6691C92.1913 46.1224 92 45.4117 92 44.5371C92 42.5144 92.9293 39.9451 94.788 36.8291C96.674 33.7131 98.8743 31.1574 101.389 29.1621C101.444 28.998 101.676 28.0004 102.086 26.1691C102.523 24.3377 102.783 23.3264 102.865 23.1351L105.243 22.9301C105.243 23.3947 105.12 24.3651 104.874 25.841C108.564 23.0257 111.598 21.618 113.976 21.618C115.097 21.618 115.985 21.9324 116.641 22.5611C117.297 23.1624 117.625 23.9824 117.625 25.021C117.625 27.6177 116.313 30.2417 113.689 32.8931C111.065 35.5171 108.263 37.0614 105.284 37.5261C105.503 41.4894 106.186 44.5917 107.334 46.8331C108.509 49.0744 109.821 50.2634 111.27 50.4001ZM99.339 36.706C100.077 34.738 100.583 33.1664 100.856 31.9911C99.3527 33.3851 97.9587 35.2437 96.674 37.5671C95.4167 39.8904 94.788 41.6124 94.788 42.7331C94.788 43.3071 95.0203 43.5941 95.485 43.5941C96.305 43.5941 97.5897 41.2981 99.339 36.706ZM102.127 36.1321C105.024 36.1321 107.621 35.1207 109.917 33.0981C112.213 31.0754 113.361 29.0664 113.361 27.0711C113.361 26.3331 113.17 25.7591 112.787 25.3491C112.432 24.939 111.858 24.734 111.065 24.734C110.272 24.734 109.124 25.185 107.621 26.0871C106.118 26.9617 105.038 27.686 104.382 28.26C103.535 31.622 102.783 34.2461 102.127 36.1321Z" fill="white"/>
<path d="M150.579 23.1351L153.162 24.4061C151.413 27.2487 149.336 29.7771 146.93 31.9911C144.552 34.2051 141.382 36.4054 137.418 38.5921C138.184 42.5554 139.127 45.7261 140.247 48.1041C141.368 50.5094 142.83 51.8487 144.634 52.1221V54.0081C144.416 54.0354 144.129 54.0491 143.773 54.0491C141.942 54.0491 140.165 52.7781 138.443 50.2361C136.749 47.6941 135.218 43.9357 133.851 38.9611C132.676 42.6511 130.886 45.5757 128.48 47.7351C126.075 49.8671 123.574 50.9331 120.977 50.9331C119.638 50.9331 118.531 50.5641 117.656 49.8261C116.809 49.1154 116.385 48.1314 116.385 46.8741C116.385 45.5894 116.959 44.2637 118.107 42.8971C119.255 41.5304 120.827 40.3824 122.822 39.4531L123.765 40.9291C121.305 42.6784 120.075 44.3184 120.075 45.8491C120.075 46.5871 120.321 47.1884 120.813 47.6531C121.305 48.0904 121.948 48.3091 122.74 48.3091C124.599 48.3091 126.198 47.5301 127.537 45.9721C128.904 44.3867 130.12 41.6261 131.186 37.6901C132.526 32.7427 133.892 29.5037 135.286 27.9731C135.915 27.2624 136.831 26.4834 138.033 25.636C136.147 25.6907 134.22 26.0187 132.252 26.62C130.284 27.194 128.562 28.0687 127.086 29.244C125.61 30.392 124.872 31.6767 124.872 33.0981C124.872 34.9294 125.706 36.3917 127.373 37.4851L126.553 38.7561C125.023 38.0181 123.82 37.0614 122.945 35.8861C122.071 34.7107 121.633 33.4944 121.633 32.2371C121.633 30.5151 122.576 28.8887 124.462 27.3581C126.348 25.8274 128.658 24.6384 131.391 23.791C134.152 22.9437 136.858 22.5201 139.509 22.5201C141.149 22.5201 141.969 22.8754 141.969 23.586C141.969 24.0507 141.491 24.6384 140.534 25.3491C138.785 26.6611 137.432 28.3694 136.475 30.474C135.546 32.5787 134.781 35.0387 134.179 37.854C137.295 36.706 140.275 34.8064 143.117 32.1551C145.987 29.4764 148.475 26.4697 150.579 23.1351Z" fill="white"/>
<path d="M158.61 28.096L158.815 29.9411C158.815 30.1597 158.733 30.3647 158.569 30.556C158.433 30.72 158.269 30.8021 158.077 30.8021C157.558 30.8021 157.025 30.3511 156.478 29.4491C155.932 28.5471 155.658 27.6997 155.658 26.9071C155.658 25.185 156.67 24.0234 158.692 23.422C160.715 22.8207 163.558 22.5201 167.22 22.5201C170.883 22.5201 173.124 22.6431 173.944 22.8891C174.792 23.1077 175.215 23.75 175.215 24.8161C175.215 25.2807 174.983 25.8 174.518 26.374C174.081 26.9481 173.193 27.8501 171.853 29.0801C170.541 30.3101 168.286 32.2507 165.088 34.9021C161.918 37.5534 159.499 39.7401 157.831 41.4621C156.164 43.1841 155.098 44.3867 154.633 45.0701C155.781 45.1247 156.519 45.1521 156.847 45.1521C160.537 45.1521 163.202 44.9471 164.842 44.5371C166.482 44.1271 167.302 43.4164 167.302 42.4051L167.097 40.5601C167.097 40.3414 167.166 40.15 167.302 39.986C167.466 39.7947 167.644 39.6991 167.835 39.6991C168.355 39.6991 168.888 40.1501 169.434 41.0521C169.981 41.9541 170.254 42.8014 170.254 43.5941C170.254 45.3161 169.243 46.4777 167.22 47.0791C165.198 47.6804 162.355 47.9811 158.692 47.9811C155.03 47.9811 152.775 47.8717 151.927 47.6531C151.107 47.4071 150.697 46.7511 150.697 45.6851C150.697 44.9471 151.75 43.5667 153.854 41.5441C155.986 39.5214 158.679 37.1434 161.931 34.4101C165.184 31.6494 167.398 29.695 168.573 28.547C169.749 27.399 170.651 26.3604 171.279 25.431C170.131 25.3764 169.393 25.3491 169.065 25.3491C165.375 25.3491 162.71 25.5541 161.07 25.9641C159.43 26.374 158.61 27.0847 158.61 28.096Z" fill="white"/>
<path d="M219.211 25.9191C219.211 27.6831 218.257 29.267 216.349 30.6711C214.477 32.0751 212.587 33.0651 210.679 33.6411C212.155 34.505 213.271 35.3151 214.027 36.0711C214.819 36.8271 215.215 37.691 215.215 38.663C215.215 41.039 213.883 43.1271 211.219 44.9271C208.555 46.6911 205.693 47.5731 202.633 47.5731C201.157 47.5731 199.681 47.3391 198.205 46.8711C196.765 46.4031 195.757 45.8451 195.181 45.1971L197.611 42.9291C198.115 43.4331 198.781 43.8831 199.609 44.2791C200.473 44.6751 201.211 44.8731 201.823 44.8731C203.947 44.8731 205.873 44.333 207.601 43.253C209.365 42.137 210.247 40.8051 210.247 39.2571C210.247 38.3211 209.815 37.4931 208.951 36.7731C208.087 36.0531 206.935 35.4951 205.495 35.0991C204.667 34.8471 204.253 34.4331 204.253 33.8571C204.253 33.0651 205.873 32.2911 209.113 31.5351C210.301 31.247 211.399 30.7791 212.407 30.1311C213.415 29.4471 213.919 28.709 213.919 27.9171C213.919 27.0891 213.631 26.4591 213.055 26.0271C212.515 25.5591 211.831 25.325 211.003 25.325C210.175 25.325 208.897 25.7751 207.169 26.6751C205.477 27.539 203.713 28.6731 201.877 30.0771L201.013 28.2951C202.525 26.495 204.577 24.911 207.169 23.5431C209.797 22.175 211.903 21.491 213.487 21.491C215.071 21.491 216.421 21.941 217.537 22.841C218.653 23.7051 219.211 24.7311 219.211 25.9191Z" fill="white"/>
<path d="M238.231 21.491C238.879 21.995 239.203 22.607 239.203 23.327C239.203 24.0471 238.609 24.8571 237.421 25.7571C236.233 26.657 235.045 27.629 233.857 28.673C232.705 29.681 231.427 30.941 230.023 32.453C228.655 33.9651 227.449 35.4591 226.405 36.9351C223.957 40.4631 222.625 43.901 222.409 47.2491L218.467 47.6271C218.539 44.8551 219.691 41.2911 221.923 36.9351C223.003 34.7391 224.533 32.525 226.513 30.293C228.493 28.061 230.743 26.153 233.263 24.569C229.663 24.605 225.091 25.343 219.547 26.7831L218.899 23.327C219.727 22.9671 222.103 22.481 226.027 21.869C229.987 21.257 232.903 20.951 234.775 20.951C236.683 20.951 237.835 21.131 238.231 21.491Z" fill="white"/>
<defs>
<clipPath id="clip0_177_174">
<rect width="75" height="75" fill="white"/>
</clipPath>
</defs>
</svg>
