<svg width="41" height="41" viewBox="0 0 41 41" fill="none" xmlns="http://www.w3.org/2000/svg">
<path d="M4.10033 9.56728C3.60743 9.56031 3.14897 9.81928 2.90048 10.245C2.65199 10.6707 2.65199 11.1973 2.90048 11.623C3.14897 12.0488 3.60743 12.3077 4.10033 12.3008H36.9023C37.3952 12.3077 37.8536 12.0488 38.1021 11.623C38.3506 11.1973 38.3506 10.6707 38.1021 10.245C37.8536 9.81926 37.3952 9.56031 36.9023 9.56728H4.10033ZM4.10033 19.1345C3.60743 19.1275 3.14897 19.3865 2.90048 19.8122C2.65199 20.238 2.65199 20.7645 2.90048 21.1903C3.14897 21.616 3.60743 21.875 4.10033 21.868H36.9023C37.3952 21.875 37.8536 21.616 38.1021 21.1903C38.3506 20.7645 38.3506 20.238 38.1021 19.8122C37.8536 19.3865 37.3952 19.1275 36.9023 19.1345H4.10033ZM4.10033 28.7017C3.60743 28.6948 3.14897 28.9537 2.90048 29.3795C2.65199 29.8052 2.65199 30.3318 2.90048 30.7575C3.14897 31.1832 3.60743 31.4422 4.10033 31.4352H36.9023C37.3952 31.4422 37.8536 31.1832 38.1021 30.7575C38.3506 30.3317 38.3506 29.8052 38.1021 29.3795C37.8536 28.9537 37.3952 28.6948 36.9023 28.7017H4.10033Z" fill="#F8F8F8"/>
</svg>
