<?xml version="1.0" encoding="utf-8"?>
<!-- Generator: Adobe Illustrator 26.0.3, SVG Export Plug-In . SVG Version: 6.00 Build 0)  -->
<svg version="1.1" xmlns="http://www.w3.org/2000/svg" xmlns:xlink="http://www.w3.org/1999/xlink" x="0px" y="0px"
	 viewBox="0 0 1920 1080" style="enable-background:new 0 0 1920 1080;" xml:space="preserve">
<style type="text/css">
	.st0{fill:#85DBF9;}
</style>
<g id="Слой_2">
</g>
<g id="Слой_1">
	<g>
		<g>
			<path class="st0" d="M98.6,118.9C231.8,109,365.1,101,498.5,94.8c133.4-6.2,266.9-10.5,400.4-13c132.9-2.5,265.9-3.1,398.9-1.9
				c67.1,0.6,134.1,1.7,201.1,3.2c65.4,1.5,131,3,196.1,10.5c44.8,5.1,110.8,13.9,121.2,68c4.4,23.2-4,47.3-17.2,66.1
				c-15.5,22.1-38.8,36.1-64.1,44.3c-27.3,8.8-56,11.2-84.5,12.4c-31.9,1.4-63.9,2-95.9,2.8c-65.1,1.5-130.3,2.5-195.4,3.5
				c-130.8,1.9-261.7,3.6-392.5,8.7c-129.8,5.1-259.5,13.7-388.5,29.5c-64.4,7.9-128.7,17.5-192.5,29.4c-51.5,9.6-107,20.2-147,56.7
				c-36.2,33-51.5,83-50.9,131c0.7,55.5,22.9,107.6,50.9,154.7c14.7,24.7,31.2,48.3,47.6,71.8c4.4,6.3,14.8,0.3,10.4-6.1
				c-34-48.7-69-98.6-86.5-156c-14.9-48.7-15.5-104.7,8.9-150.5c26.6-49.9,78.8-70.7,131.3-82.4c63.1-14,127.5-23.4,191.5-31.9
				c129.9-17.3,260.6-26.9,391.5-32.7c131.3-5.8,262.7-7.8,394.1-9.7c65.7-0.9,131.4-1.9,197.1-3.3c32.8-0.7,65.6-1.5,98.4-2.5
				c28.7-0.9,57.5-1.6,85.8-6.6c49.6-8.8,96.2-34,114.5-83.4c7.5-20.2,8.7-43.1,0.2-63.2c-9.2-21.8-28.2-36.6-49.5-45.6
				c-22.4-9.4-46.5-13-70.5-15.9c-33.3-4.1-66.7-6.5-100.2-8.1c-66.5-3.2-133.1-4.1-199.6-5.2c-134.1-2.2-268.2-2.5-402.3-1
				S733,73.2,599,78.4C465,83.7,331,90.9,197.2,99.9c-32.9,2.2-65.8,4.6-98.6,7C90.9,107.5,90.9,119.5,98.6,118.9L98.6,118.9z"/>
		</g>
	</g>
</g>
</svg>
