<svg width="75" height="75" viewBox="0 0 75 75" fill="none" xmlns="http://www.w3.org/2000/svg">
    <g clip-path="url(#clip0_178_184)">
        <circle cx="37.5" cy="37.5" r="37.5" fill="#082334" />
        <path
            d="M37.5 0C16.7893 0 -0.00154114 16.7892 -0.00154114 37.5079C-0.00154114 58.2265 16.7893 74.9984 37.5 74.9984C58.2108 74.9984 75 58.2092 75 37.5079C75 16.8066 58.2108 0 37.5 0ZM37.5 73.1031C17.8308 73.1031 1.89216 57.1629 1.89216 37.5079C1.89216 17.8529 17.8308 1.89528 37.5 1.89528C57.1693 1.89528 73.1032 17.8355 73.1032 37.5079C73.1032 57.1803 57.163 73.1031 37.5 73.1031Z"
            fill="white" />
        <path
            d="M46.5045 16.2274C46.3231 16.2905 45.9191 16.4294 45.7455 16.8113C45.5293 17.2847 45.7644 17.9159 46.1779 18.2031C46.5172 18.4367 46.8801 18.361 47.5682 18.2379C47.7354 18.2063 49.2835 17.9049 49.2867 17.4188C49.2867 17.3036 49.2015 17.2153 49.0879 17.1158C48.6839 16.7608 47.6313 15.8376 46.5045 16.2274Z"
            fill="#F2F2F2" />
        <path
            d="M36.5216 56.5333C36.3113 55.8046 36.2401 55.0428 36.3117 54.2877C36.7637 52.9806 37.4533 51.7682 38.3458 50.7117C39.0134 49.9227 39.6951 49.6702 39.6083 49.4493C39.4316 48.9948 36.5389 49.5866 34.2775 50.2904C31.9246 51.0242 31.508 51.4897 30.1398 51.5529C28.4734 51.6302 26.9395 51.0384 26.1425 50.5003C23.5371 48.7454 22.8065 43.4131 25.3945 37.8535C25.4324 38.2463 25.5264 38.6316 25.6738 38.9976C25.8009 39.3125 25.9657 39.6109 26.1646 39.8861C26.5656 39.3439 26.9104 38.7623 27.1935 38.1502C27.8176 36.7981 28.1407 35.3265 28.1404 33.8373C29.9347 32.8178 31.8599 31.8284 33.9083 30.8942C31.4454 31.1136 29.0651 31.8924 26.9489 33.1713C25.9074 33.8026 23.717 35.1755 22.0395 37.9056C21.1556 39.4129 20.5384 41.0615 20.2152 42.7787C19.0475 49.4887 23.9932 55.3813 24.7396 56.2461C24.5818 56.1451 24.1557 55.8784 23.6002 55.457C27.6165 59.3723 32.8099 61.9414 38.136 62.4195C40.2958 62.6078 42.4717 62.4657 44.5887 61.9982C40.3974 61.0214 37.2412 58.9241 36.5216 56.5333Z"
            fill="white" />
        <path
            d="M57.7279 18.0532C57.7235 18.0035 57.7067 17.9557 57.6792 17.9141C57.6516 17.8725 57.6141 17.8384 57.5701 17.815C53.8528 15.7616 49.7809 14.4294 45.5687 13.8887C42.927 13.5557 38.7672 13.0744 33.7157 14.5909C30.2837 15.6288 27.1064 17.3725 24.3877 19.7102C24.7833 18.8928 25.1804 18.0748 25.5792 17.2563C23.3209 17.8244 18.249 19.4656 14.5673 24.1999C13.6011 25.4475 12.7997 26.8143 12.1828 28.2666C12.8535 28.1309 14.5878 27.8784 16.2511 28.8284C16.6439 29.0527 17.0053 29.3281 17.3258 29.6474C16.5162 32.1219 14.7693 38.6299 17.3731 45.8717C17.5972 46.5029 17.8465 47.1089 18.1243 47.7102C17.9313 46.9825 17.8092 46.2379 17.7597 45.4866C17.4931 41.4041 19.4262 38.4026 20.2847 37.0692C24.1526 31.0645 30.7284 29.5275 32.4533 29.1787L34.792 30.5043C35.9771 29.9836 37.1986 29.4801 38.4674 29.0036C39.2112 28.7237 39.9476 28.4607 40.6767 28.2145C40.487 28.7166 40.166 29.1586 39.7472 29.4944C39.4892 29.6994 39.1984 29.8595 38.8871 29.9678C39.1159 30.0546 40.7808 30.6527 42.4299 29.7058C44.3931 28.5743 44.4893 26.3035 44.4925 26.1756C44.8159 26.3976 45.2063 26.5008 45.5971 26.4676C46.1842 26.3871 46.5282 25.9231 46.8012 25.6375C47.3393 25.0741 47.7481 25.0505 50.3314 24.2456C52.5849 23.545 52.8816 23.5686 53.7448 23.1236C54.4528 22.7759 55.1066 22.3272 55.6858 21.7917C56.3666 21.1394 56.9143 20.3613 57.2986 19.5003C56.6895 19.7923 56.0235 20.0969 55.2881 20.4125C54.9325 20.5847 54.5343 20.6494 54.1425 20.5987C53.9973 20.575 53.6201 20.5135 53.557 20.2957C53.4939 20.0779 53.7148 19.8097 54.0951 19.6171C54.5992 19.3362 55.1229 19.092 55.6622 18.8865C56.3597 18.6214 56.7084 18.4888 57.0114 18.5188C57.2402 18.5409 57.4643 18.6119 57.6079 18.4825C57.6592 18.4248 57.6967 18.3561 57.7175 18.2817C57.7383 18.2073 57.7418 18.1292 57.7279 18.0532ZM20.1805 31.7273C22.2636 27.9825 24.7254 25.8048 26.4455 24.5739C31.7605 20.7675 38.0192 20.231 38.1817 20.646C38.2084 20.7411 38.2222 20.8393 38.2228 20.938C38.2202 21.1267 38.1849 21.3136 38.1186 21.4903C38.0713 21.6765 38.0997 21.9637 38.4626 22.423C38.0776 22.423 37.5394 22.423 36.8735 22.4687L36.7757 22.4766C34.2323 22.6785 31.7386 23.292 29.3918 24.293C25.7219 25.9195 22.545 28.4835 20.1805 31.7273ZM38.1123 26.8353C37.2766 27.4387 36.5957 28.2315 36.1255 29.1488C35.9201 28.7332 35.6039 28.3825 35.2118 28.1352C34.8198 27.888 34.367 27.7538 33.9035 27.7474C34.0272 27.5823 34.16 27.4243 34.3012 27.274C35.9282 25.5539 38.0728 25.4197 38.0192 25.2398C37.9308 24.951 36.3212 24.9889 35.0208 25.7306C34.2646 26.1788 33.6503 26.8314 33.2486 27.6133C33.0615 27.3733 32.8415 27.1609 32.5953 26.982C31.4733 26.1709 30.1603 26.3287 29.7421 26.3966C30.724 25.5632 31.8278 24.8852 33.0151 24.3861C34.9142 23.5969 36.9754 23.2765 39.0244 23.4519L40.8708 25.6959C39.8752 25.8598 38.9311 26.252 38.1123 26.8416V26.8353ZM43.7634 23.2467C44.2952 24.3672 45.2815 25.0094 45.9033 25.3329C45.6492 25.3219 43.1164 25.1751 41.9234 23.1583C41.3979 22.2683 40.8992 20.6334 41.7119 19.4767C42.0575 18.9843 42.8276 18.301 43.5014 18.4588C44.15 18.6166 44.281 19.4483 45.0622 19.5461C45.5261 19.6045 45.8307 19.352 45.9206 19.4767C46.0579 19.6692 45.422 20.3999 44.9391 20.8622C44.1343 21.6308 43.6766 21.7286 43.5535 22.2462C43.533 22.3409 43.4762 22.6439 43.7634 23.253V23.2467ZM47.0774 19.2131C46.4351 19.2715 45.4788 19.0143 45.149 18.2663C44.7339 17.3194 45.5435 16.1154 46.4114 15.8471C47.0695 15.6435 47.726 15.9907 48.515 16.4073C49.0373 16.7043 49.5411 17.0326 50.0237 17.3904C50.2888 17.5751 50.505 17.7345 50.6549 17.8449C49.7125 18.1247 48.7973 18.4886 47.9201 18.9322C47.6625 19.0863 47.3754 19.1841 47.0774 19.2194V19.2131ZM52.0752 19.5871C51.3777 20.4093 50.9153 20.9538 50.8474 21.7617C50.8174 22.1326 50.8806 22.4324 50.6549 22.7086C50.4834 22.8962 50.2557 23.0233 50.006 23.0708C49.7562 23.1183 49.4978 23.0837 49.2693 22.9721C48.7959 22.7181 48.6981 22.1547 48.6728 22.0079C48.515 21.1116 49.1463 20.3352 49.4982 19.9028C51.2467 17.7818 54.3255 17.3084 54.4423 17.5893C54.5165 17.766 53.3282 18.1132 52.0752 19.5871Z"
            fill="white" />
        <path
            d="M45.8512 58.1918C46.9345 57.9329 47.9912 57.5731 49.0074 57.1172C49.6307 56.8331 51.0762 56.0125 52.3498 53.4465C52.5076 53.8126 52.9652 54.971 52.4429 56.0188C52.3624 56.1766 52.1714 56.5143 51.3919 57.0935C50.6691 57.63 49.525 58.479 47.7907 58.73C46.2931 58.9462 44.8239 58.6479 44.8223 58.4727C44.816 58.3796 45.2405 58.3275 45.8512 58.1918Z"
            fill="#F2F2F2" />
        <path
            d="M50.1988 60.2844C53.8111 59.216 56.2382 57.7768 57.6679 56.7779C58.8799 55.932 60.2086 54.8195 60.3696 53.3408C60.4059 53.0015 60.4422 52.0783 60.0887 51.9379C59.8504 51.8479 59.5285 52.1509 59.317 52.3592C57.7058 53.9468 57.0556 55.4302 55.6353 56.7432C55.3923 56.9673 55.1335 57.1614 54.6175 57.5496C53.2326 58.5962 51.7533 59.5118 50.1988 60.2844Z"
            fill="#F2F2F2" />
    </g>
    <defs>
        <clipPath id="clip0_178_184">
            <rect width="75" height="75" fill="white" />
        </clipPath>
    </defs>
</svg>