<svg width="1920" height="434" viewBox="0 0 1920 434" fill="none" xmlns="http://www.w3.org/2000/svg">
<path d="M265.5 223.1C267.7 217.3 278.1 205.5 282.6 203.9C286.9 202.4 291.3 202.6 295.3 205.1C299 207.4 302.6 209.9 305.1 213.7C308.5 218.8 312.5 223.5 317 227.7C318.3 228.9 319.6 230.2 320.3 231.7C327.5 246.6 339.6 257.2 351.8 267.7C360.2 274.9 366.8 283.2 370.6 293.6C373.7 302.3 380 308.1 387.3 313.3C390.7 315.7 393.1 315.7 396.4 312.8C406.6 303.5 416.5 294 423.9 282.3C429.9 272.8 437.2 264.5 445.6 257.2C449.2 254.1 452 250.5 453.8 246C456.7 238.5 462.3 232.8 467.7 227.1C470.7 223.9 474.1 223.5 478.1 225C487.1 228.3 494.9 233.2 499.7 241.9C502.5 246.9 506.6 250.6 511.8 252.9C519.3 256.1 525.2 261.1 529.1 268.3C529.6 269.2 530.6 269.9 531.6 271.1C544.6 256.1 558.4 242.3 568.2 225C577.9 208 589.3 192 604.6 179.3C608.1 176.4 609.8 172.5 611.2 168.2C614.3 159.1 618.8 156.1 628 156.2C632.5 156.2 635.7 157.8 638.1 161.8C644.5 172.5 652.5 182.3 655.5 194.9C656.8 200.4 661.1 204.4 665.4 208C670.2 212 673.9 216.7 677.5 221.8C681.2 227 684.9 232.4 689.3 237C697.7 245.8 704.2 255.7 708.3 267.1C715.4 286.8 727.5 302.6 743.8 316C761.2 330.3 777.1 346.3 787.4 366.9C791.2 374.4 797.4 379.7 804.2 384.4C807.5 386.7 811 387.4 814.9 387.3C823.9 387.2 832.8 387.3 841.8 387.3C841.8 388 841.9 388.7 841.9 389.4C831 389.9 820 390.9 809.1 390.9C777 390.7 744.8 390 712.7 389.5C700.6 389.3 689 392.4 677.1 394C658.4 396.5 639.8 395.7 621.1 394.3C610.9 393.6 600.7 392.3 590.5 391.9C546.1 389.9 501.7 389.1 457.3 391.9C442.7 392.8 428.2 394.5 413.6 394.6C387.3 394.7 361.1 392.6 334.9 390.3C308 387.9 281.2 388.1 254.3 389.9C222.8 392 191.3 395 159.8 392.9C123.3 390.5 86.7 392.9 50.2 391.6C43.2 391.3 36.2 391.8 29.2 392C27.2 392 25.1 392.6 23 390.3C35.1 388.5 46.7 387.4 58.4 388.3C62 388.6 65.1 388 68.5 386.7C75.9 383.8 82.8 380.1 89.8 376.5C96.7 373 102.5 368.1 106.7 361.6C112.3 353 120.1 346.9 129.3 342.8C145.6 335.5 159.6 325.6 171.2 311.9C180.5 300.9 193 293.5 204.8 285.3C211.7 280.4 218.7 275.6 224.8 269.6C230.6 263.8 235.8 257.7 239.6 250.2C245.2 239 254.1 230.5 263.7 222.7C264.6 222 265.2 222.4 265.7 223.1C265.8 225.3 268.9 224.5 269.1 226.6L269.3 226.5C264.5 226.2 261.3 228.9 258 232.1C250.7 239.3 244.7 247.4 240.1 256.6C239.4 258 237.8 259.4 239.8 261.2C242.3 261.4 243.5 258.7 245.7 258.2C247.4 257.8 249.2 257.5 250.7 258.8C252.3 260.2 251.9 262.1 251.1 263.6C249.3 267 248.1 270.4 248.4 274.4C248.6 277 247 278.7 244.4 279.4C246.3 273.2 246.6 266.6 250.2 259.8C242.5 261 239.7 265.6 237.8 270.7C236.4 274.5 234.8 278.2 231 279.2C223.6 281.1 216.9 283.9 210.9 288.6C209.9 289.4 208.1 289.4 206.7 289.5C204.9 289.6 203.4 290.2 201.9 291.3C192.2 298.3 182 304.9 174.2 314.1C162.1 328.5 147.2 338.8 130.1 346.4C122.8 349.6 116.3 354.4 111.7 361C104.8 371 95.4 378 84.2 383C81.8 384.1 78.7 384.7 77.1 389C86.5 387.5 95.2 387.6 103.9 387.8C108.6 387.9 112 386.5 115.2 382.9C119.7 377.9 124.8 373.5 129.8 369C133.8 365.3 138.2 362.2 144.3 362.3C133.6 368.6 127.1 379.1 117.7 387.1C127.7 388 137.3 387.5 146.8 388.1C177.2 390.2 207.5 388.9 237.9 386.9C264.4 385.2 290.9 382.8 317.5 385.2C321.6 385.6 325.8 385.3 331.5 385.3C324.7 380.4 321.7 374.3 317.7 369C313.7 363.7 307.2 360.3 306.7 352.6C312.8 359.6 320.1 365.5 325.4 373.3C331.1 381.7 338.2 387.3 349.9 387.7C376.2 388.6 402.4 390.5 428.7 389.4C433.8 389.2 439.1 389.5 444.5 387.9C442.7 383.6 439.5 381.8 436 380.3C433.1 379 429.9 378.1 427.3 376.2C422.8 373 417.8 369.9 416.2 361.9C424.3 369.6 431.9 375 440.5 378.7C443.2 379.9 445 382.4 446.7 384.8C447.7 386.2 448.6 387.7 450.8 387.6C461.9 387 473.1 387.2 484.9 385.3C481.9 382.6 479.3 381.2 476.6 380.6C464.8 377.6 455.4 370.6 447.4 362.1C432.6 346.4 415.1 334.3 396.2 324.2C381.3 316.2 369.1 306.3 364 289.2C361.9 282.2 357.2 276.1 350.4 272.6C345 269.8 339.3 267.5 333.6 265.2C332.2 264.6 330.5 263.3 329.2 265.3C327.9 268.1 333.1 269.3 330.6 272.2C328 270.3 326 268 325.1 264.9C328.5 266 330.4 265.5 328.6 261.4C332 259.9 334.1 264 337.3 263.6C337.9 264.9 339.4 265.4 340 264.5C340.9 263.3 339 263.1 338.4 262.3C330.5 252.5 321.1 243.9 315.8 232.1C315.7 232 315.3 232 315 232L315.2 232.2C310.4 226.1 305.7 219.9 300.7 213.9C299.1 211.9 296.9 210.3 294.7 208.9C289.2 205.2 283.6 205.7 279 210.4C276.6 212.9 274.6 215.8 272.3 218.4C270.5 220.4 269 223.1 265.5 223.1ZM527.7 274.8C527.2 273.9 526.7 272.5 525.3 273.6C524 274.6 525.4 275.5 525.8 276.4C527.2 278.2 526.6 283 529.6 281.6C532.6 280.2 529.1 277.5 528.1 275.5C528.1 275.1 527.9 275 527.7 274.8ZM635.9 170.3L636.1 170.5C637.2 165.4 634.7 160.6 630.3 159.7C623.9 158.3 617.5 161.2 615.7 167.7C613.5 175.5 608.8 181 603.1 186.1C597.9 190.8 593 195.8 589 201.7C587.8 203.4 585.7 204.9 586.4 207.7C589.9 207.8 591.8 205.5 594 203.8C596.6 201.9 599.7 197.2 602.5 201C605 204.3 600.6 207.2 597.6 209.3C597.5 209.4 597.2 209 596.9 208.8C597.1 207.7 597.7 206.6 597.5 205.6C597.2 204.4 596 205 595.4 205.4C592.6 207.5 590.1 210.7 586.6 210.9C580.9 211.3 578.7 215.3 576.5 219.2C567.5 235.4 556.7 250.1 543.4 263C540.9 265.4 540.6 267.5 542.1 270.7C545.3 277.6 548.8 284.3 553.8 290.1C557.4 294.3 560.4 298.7 561.2 304.4C554.1 292.4 541.6 284.2 538.5 269.3C533.1 274.2 533.1 274.2 535.1 278.1C539.3 286.5 545 293.9 550.5 301.4C554.3 306.5 560.2 307.4 565.7 309.1C569.9 303 571.8 309.1 573.9 310.9C577.9 314.4 582 317.7 586.5 320.2C590 322.1 587.6 318.6 588 317.6C588.4 317.3 588.9 316.9 589.3 316.6C593.6 326 601.4 331.6 610.1 336.5C614.1 338.8 617.7 341.9 621.2 344.9C627.4 350.2 633.3 355.8 639.4 361C644.7 365.6 650.5 369.4 657.4 371.1C658.2 371.2 659.2 371.6 659.8 371.3C660.7 370.7 659.9 370 659.4 369.3C656.3 365.1 652.7 361.2 650.5 356.4C649.6 354.4 648.7 352.5 650.1 349.8C654.9 356.5 659.9 362.3 663.6 368.8C665.5 372.1 667.4 373.6 670.9 373.7C682.3 374.2 692.6 377.9 702.1 383.9C704.2 385.2 706.1 385.7 708.6 385.7C728.5 385.7 748.3 385.9 768.2 385.9C769.9 385.9 772.3 387.2 773.5 384.5C768.7 380.1 765.2 374.7 761.8 369.2C758.9 364.6 755.3 361.1 750 359.3C744.4 357.4 739.6 353.9 736 349.1C731.2 342.8 726.2 336.7 722.1 330C717.2 322.2 712.6 314.2 708.3 304.3C712.8 306.8 713.9 309.9 715.5 312.4C722.1 322.8 728.5 333.2 735.9 343C740.2 348.7 745 353.7 751.8 356.2C757.5 358.3 761.6 362.3 764.7 367.5C767.8 372.8 771.1 378 775.6 382.3C777.3 383.9 778.7 385.9 781.3 386C786.4 386.1 791.4 386 798.2 386C788.1 380 783.5 371.5 779 363.2C772.7 351.5 764.5 341.4 754.9 332.2C747.5 325.1 740.2 318 732.2 311.6C721.5 303.1 712.8 293.2 708 280C705.7 273.7 702.7 267.7 700 261.5C698.2 257.5 696.7 253.3 693.7 250C680.4 235.3 670.8 217.5 655.8 204.2C654.6 203.1 653.8 200.8 651.7 202.1C649.7 203.4 649.4 205.3 650.9 207.3C651.6 208.3 651.9 209.3 651.3 210.5C647.4 207.5 646.5 204.1 650 200.3C651.1 199.1 651.6 198.1 651.2 196.5C648.5 186.6 644.8 177.3 638.1 169.4C637.5 168.5 636.5 169 635.9 170.3ZM453.6 277.3C451.1 279.2 450.1 276.8 448.9 275.6C446.6 273.1 451 271.3 449.7 268.4C448.2 268.6 446.7 269.2 445.4 268.8C439.5 267.3 436.4 270.8 433.5 275C429.4 281 425.1 286.9 420.8 292.8C415.9 299.6 409.5 305.2 403.6 311.8C411.7 317.5 419.5 322.8 428.2 326.1C443.4 331.8 452 344.7 462 356.1C456.1 353.4 452.1 348.5 447.6 344.1C443 339.6 438.4 335 432.5 332.2C422.7 327.5 413.3 322.4 404.5 316.1C400.9 313.5 400.7 313.7 396.5 319.2C421.4 330.8 440.9 349.1 460.1 368C469.4 377.2 483 379.1 493.9 385.8C495.4 386.7 497.9 386 499.9 386C517.6 386 535.3 386 553 386.1C579.9 386.2 606.7 387.9 633.5 390.4C634.9 390.5 636.3 390.8 637.7 388.9C635.1 386 631.2 385.6 627.8 384.5C617.1 381.1 608.3 375.3 601.7 366.3C597.8 361 593.2 356.7 587.6 353.4C586.1 352.5 583.6 352 584.8 348.3C590.3 352 596.4 354.4 600.1 359.7C608.7 372 620.4 379.5 634.6 383.6C636.3 384.1 638.1 384.6 639.4 385.6C647.4 392.1 656.8 391.2 666.1 390.6C672.5 390.2 678.9 389.8 685.2 388.7C689.2 388 693.7 388.3 697.8 385.4C689.8 380.6 681.8 377.8 673.3 377.7C656.9 377.5 643 371.5 631.8 359.9C615.3 342.9 594.2 332.3 575.5 318.3C572.8 316.3 569.3 314.7 566 314C554.2 311.7 546.7 303.8 539.8 294.9C537.1 291.3 535.3 286.9 529.6 286.4C526.6 286.1 525.5 282.8 524.4 280C523.3 277.3 522.8 273.7 518.7 273.4C517.6 275 518.1 276.4 518.2 277.8C518.5 280.1 517.2 280.9 515.1 280.9C507.9 280.7 501.9 274 502 266.3C504.6 271.4 507.4 276.4 514.2 277.5C515.1 275.4 515 272.5 517.3 270.8C520.3 268.6 522.1 273.9 525.3 271.8C523 264.7 518.5 259.9 511.8 257C504.9 254.1 499.5 249.6 495.8 242.8C491.9 235.6 485.4 231.4 477.8 228.4C473.9 226.9 471.2 227.1 468.7 230.4C467.6 231.8 466.3 233 465.3 234.4C457.7 244.8 452.5 257 442.6 265.8C444.2 267 446 266 447.6 266C452.9 266 453.3 266.3 451.3 271.8C450.8 274.8 453 275.6 453.6 277.3ZM236.6 261.9C231.7 267.9 226.7 273.8 222.7 278.6C231.6 279.1 233.5 277.4 236.6 261.9ZM532.3 283.3C532.1 283.1 531.9 282.7 531.7 282.8C531.3 282.9 530.9 283.1 530.5 283.3C530.7 283.5 530.9 283.9 531.1 283.8C531.5 283.7 531.9 283.5 532.3 283.3Z" fill="#E6E6E6"/>
<path d="M114 403.3C120.5 403.1 127 402.7 133.5 402.8C146.6 402.9 159.8 404 172.8 401.6C183.9 399.6 194.8 401.2 205.8 402.6C224.1 404.9 242.4 405.8 260.8 404.1C278.2 402.4 295.8 402.4 313.3 403.1C319.4 403.4 325.5 403.1 331.6 403.9C328.7 405.9 325.4 405.6 322.2 405.7C307 406.3 291.8 404.3 276.6 405.9C257.9 407.8 239.3 408 220.6 406.9C213.9 406.5 207.3 405.5 200.7 404.6C190.8 403.3 181 402.7 171.1 404.8C164.2 406.3 157.1 405.9 150.1 405.8C138.1 405.6 126.1 405.3 114.1 405C114 404.4 114 403.8 114 403.3Z" fill="#E6E6E6"/>
<path d="M465 410.1C476.2 406.4 487.9 406.7 499.4 405.6C509.8 404.6 520.3 403.7 530.6 402.1C540 400.6 549.2 402.8 558.4 403.8C574.4 405.6 590.4 404.9 606.5 404.2C612 403.9 617.5 403.4 623.3 403.9C621.8 406.7 619.2 406.5 617.2 406.6C594.8 408.3 572.4 410.3 550.1 405.7C540.8 403.8 531.6 405.1 522.3 406.4C503.4 408.9 484.3 409.9 465 410.1Z" fill="#E6E6E6"/>
<path d="M726.9 403.9C763.2 403.4 799.5 404.7 835.7 401.5C817.9 405.9 787.9 409.1 726.9 403.9Z" fill="#E6E6E6"/>
<path d="M434.1 405C409 405 383.8 405 358.7 405C383.9 400.1 409.1 403.9 434.1 405Z" fill="#E6E6E6"/>
<path d="M680.7 402.8C667.9 407.7 654.8 408 641.7 406.2C648 404.3 654.5 405.2 660.9 404.8C667.4 404.3 674 403.4 680.7 402.8Z" fill="#E6E6E6"/>
<path d="M588.6 419C596.6 415.5 606.9 414.7 616.2 416.8C606.3 418.8 597.5 420.2 588.6 419Z" fill="#E6E6E6"/>
<path d="M241.5 328.5C237.5 340 229.8 348.7 222.6 357.8C219 362.4 213.9 365.4 208.5 367.9C202.8 370.4 198 374 194.7 380C199 381.8 201.6 379.1 204.5 377.6C211.7 373.8 218.8 369.7 226 365.9C229.9 363.9 233.9 362.2 238.1 361C247.2 358.4 248.6 358.7 253.6 366.8C256.9 372.1 261.7 372.9 267.2 372.4C273.9 371.9 280.2 369.3 286.7 367.8C288.6 367.3 290.4 365.9 293.5 367.6C283.2 372.6 273.3 376.2 262.3 375.7C257.4 375.5 253.6 373 250.9 368.6C247.1 362.3 245.4 361.6 238.3 364.1C233.9 365.6 229.6 367.5 225.5 369.7C218 373.6 210.8 378 203.3 381.9C199.8 383.7 195.3 386.7 192.3 382.3C189.4 378 193.7 374.9 196.5 372C199.4 369 202.8 366.7 206.5 365.1C214.7 361.4 220.9 355.6 226.3 348.4C231.3 341.6 236.4 334.9 241.5 328.5Z" fill="#E6E6E6"/>
<path d="M281.3 298.3C282.5 296.1 283.9 293.9 284.9 291.5C286.9 287.1 287.7 282.7 285.1 278.1C283.7 275.6 282.4 272.8 283.8 269.8C284.7 267.9 285.9 266.3 288.2 266.1C290.6 265.8 292.2 267.1 292.8 269.2C294.6 275.6 298.9 280.8 300 287.8C301 294.4 305.8 300.2 308.4 306.7C309.7 309.8 313.3 311.1 316.7 309.7C320.8 308 319.7 304.7 318.3 301.6C318.1 301.1 318.2 300.5 318.2 299.9C322.8 300.9 322.8 304.5 321.6 307.5C320.5 310.2 318.2 312.8 314.4 312.7C309.9 312.6 306.5 309.7 304.4 304.4C300.1 293.5 295.8 282.6 291.4 271.8C290.9 270.6 290.5 268.7 288.7 268.8C286.4 269 286.3 271.2 286.5 272.8C286.8 274.8 287.8 276.6 288.3 278.5C290.3 285.7 289 292.3 284 298C283.3 298.9 282.4 299.7 281.3 298.3Z" fill="#E6E6E6"/>
<path d="M270.9 278.8C274.6 281 273.2 284.4 272.3 287.1C271.2 290.4 269.2 293.3 269.1 296.9C269 303.5 269.1 310.1 269.1 317.1C273.4 316.8 273.5 314 274.1 311C275.1 305.9 276.4 300.9 281.5 298.1C282.9 299.1 282.1 299.9 281.4 300.8C278.8 304.4 276.9 308.2 276.4 312.7C275.9 317.3 272.9 319.7 267.7 321C265.6 310.3 265 299.9 268.5 289.9C269.8 286.2 270.6 282.6 270.9 278.8Z" fill="#E6E6E6"/>
<path d="M156.1 354.8C165.6 342.7 178.4 334.4 189.8 324.4C181.5 337.9 167.9 345.4 156.1 354.8Z" fill="#E6E6E6"/>
<path d="M235.9 284.1C235.1 288.5 235.4 292.9 236.1 299C238.6 292.3 241.2 287.2 248.3 287.7C242.8 291.3 238.9 295.7 238.7 302.8C238.6 304.7 237.6 306.7 235.9 308.1C233.6 309.9 230.8 312.4 228.2 310.4C225.3 308.2 228.5 305.7 229.8 303.9C232.1 300.6 233 297.1 232.7 293.2C232.3 289.6 232.2 286.2 235.9 284.1ZM231.7 307.4C235.4 305.5 236.5 303.6 235.5 300.2C233.4 302 232.3 303.9 231.7 307.4Z" fill="#E6E6E6"/>
<path d="M303.7 347.3C300.1 342.6 299.2 337.5 298.7 332.4C298.2 327.4 297 322.9 294.7 318.4C292.1 313.4 290.9 307.9 293.9 302.3C295.5 317.5 304 331.1 303.7 347.3Z" fill="#E6E6E6"/>
<path d="M255 279C256.2 275.8 257.4 272.6 258.4 269.3C259.2 266.6 260.9 264.7 263.2 263.5C266.4 261.8 268.8 263.3 269 267C269.2 270.4 269.2 273.9 269.2 277.3C264.7 276.4 265.7 273.3 266.5 270.4C266.9 268.7 267.5 266.7 265.4 266.1C263.4 265.5 262.1 267.2 261.4 268.8C260.3 271.5 259.7 274.3 258.5 277C257.9 278.1 257.5 280.6 255 279Z" fill="#E6E6E6"/>
<path d="M309.5 277.3C307.4 275.6 305.6 273.6 306.7 270.7C307.5 268.5 309.2 266.9 311.4 265.8C312.5 265.3 313.9 264.6 314.6 265.5C317.7 269.3 323.2 270.6 325.3 275.5C321.8 274.6 319.1 272.5 316.6 270C315.1 268.5 313.7 267.1 311.4 268.5C309 270 308.5 272.1 309.7 274.5C310.2 275.6 310.8 276.4 309.5 277.3Z" fill="#E6E6E6"/>
<path d="M334 282.3C335.9 283.2 336.9 284.9 338.1 286.5C339.2 287.9 340.8 289 342.4 287.5C343.9 286.1 342.8 284.4 342.3 282.8C341.6 280.7 337.6 280.3 339.3 277C342.6 278.1 344.1 280.9 345.6 283.7C346.9 286.2 345.9 288.2 344.1 289.8C342.1 291.6 339.6 291.5 338 289.5C336.2 287.5 332.9 286 334 282.3Z" fill="#E6E6E6"/>
<path d="M318.3 300.1C314.7 294.7 315.1 288.4 314.6 282.3C317.5 282.2 316.5 284.5 316.8 285.9C317.8 290.7 319.3 295.3 318.3 300.1Z" fill="#E6E6E6"/>
<path d="M366.8 312.8C370.2 315.2 372.4 318.5 374.9 322.2C369.5 319.8 369.5 319.8 366.8 312.8Z" fill="#E6E6E6"/>
<path d="M325.2 275.4C329.8 275.8 330.9 280.6 334.2 282.5C328.7 283.3 327.2 279 325.2 275.4Z" fill="#E6E6E6"/>
<path d="M405.1 351.5C407.1 353.8 409.1 356.1 411.1 358.4C407.5 357.9 405.4 355.8 404 352.8C404.4 352.4 404.8 352 405.1 351.5Z" fill="#E6E6E6"/>
<path d="M378.9 326.4C383.5 328 385.2 330.1 387.1 333.2C383 333 381.6 330.3 378.9 326.4Z" fill="#E6E6E6"/>
<path d="M339.5 277.2C334.8 278.3 333 274.5 330.5 271.9C335 271.1 336.7 275 339.5 277.2Z" fill="#E6E6E6"/>
<path d="M244.8 278.9C242.8 280.9 241 283.4 237.5 282.4C239.2 280 241.1 277.7 244.8 278.9Z" fill="#E6E6E6"/>
<path d="M393.6 342.3C392.5 341.4 391.1 340.7 391.7 338.9C391.7 338.9 392.8 339 393.2 339.3C394.2 340.2 395.6 341.3 393.5 342.5L393.6 342.3Z" fill="#E6E6E6"/>
<path d="M249.7 284.2C250.5 282.6 251.5 281.1 253.4 280.5C254 283.6 252.7 284.9 249.7 284.2Z" fill="#E6E6E6"/>
<path d="M248.1 287.8C246.4 285.4 248.6 285 249.9 284C251.7 286.5 250.1 287.3 248.1 287.8Z" fill="#E6E6E6"/>
<path d="M314.8 282.6C313.4 281.7 311.4 281.1 313 278.8C314.4 279.7 316.4 280.3 314.8 282.6Z" fill="#E6E6E6"/>
<path d="M313.2 279C310.9 280.7 310.3 278.5 309.4 277.2C311.7 275.5 312.3 277.6 313.2 279Z" fill="#E6E6E6"/>
<path d="M393.5 342.6C395.6 340.3 396.4 342.5 397.4 343.8L397.6 343.7C395.5 345.8 394.7 343.5 393.6 342.4C393.6 342.3 393.5 342.6 393.5 342.6Z" fill="#E6E6E6"/>
<path d="M404 352.8C403.2 352.5 402.4 351.9 402.7 351.2C403.5 349.7 404.3 350.9 405.1 351.5C404.8 352 404.4 352.4 404 352.8Z" fill="#E6E6E6"/>
<path d="M400.7 347.4C401.6 347.6 402.1 348.1 401.8 349.1C401.7 349.2 401.2 349.4 401 349.2C400.2 348.6 400.2 347.9 400.9 347.2L400.7 347.4Z" fill="#E6E6E6"/>
<path d="M400.8 347.2C400.1 347.3 399.6 348.2 398.8 347.2C397.9 346.2 399 345.9 399.1 345.3L398.9 345.5C399.9 345.7 400.5 346.3 400.6 347.4C400.7 347.4 400.8 347.2 400.8 347.2Z" fill="#E6E6E6"/>
<path d="M399.2 345.3C398.5 345.4 398.1 346.4 397.2 345.5C396.2 344.5 397.5 344.2 397.6 343.6L397.4 343.7C398.3 344 398.9 344.5 399.1 345.5C399 345.6 399.2 345.3 399.2 345.3Z" fill="#E6E6E6"/>
<path d="M191.1 321.1C191.3 321.4 191.5 321.8 191.6 322.2C191.6 322.3 191.3 322.6 191.1 322.8C190.9 322.4 190.7 322 190.6 321.6C190.6 321.5 191 321.3 191.1 321.1Z" fill="#E6E6E6"/>
<path d="M200.7 314C200.7 314.7 200.4 315.1 199.8 315.1C199.7 315.1 199.5 314.3 199.7 314C200 313.5 200.5 313.6 201 314.2C200.9 314.1 200.7 314 200.7 314Z" fill="#E6E6E6"/>
<path d="M202.7 312.5C202.5 313.6 201.8 314.1 200.7 314L200.9 314.1C199.1 312.7 200.9 312 201.5 311.1C202 311.6 202.4 312 202.7 312.5Z" fill="#E6E6E6"/>
<path d="M204.5 310.8C204.3 311.8 203.8 312.4 202.7 312.5C202.3 312 201.9 311.6 201.5 311.1C202.1 310.5 202.7 309.9 203.3 309.3C203.8 309.8 204.1 310.3 204.5 310.8Z" fill="#E6E6E6"/>
<path d="M203.4 309.3C204.2 308.8 205.1 307.7 205.8 309.2C206.1 309.9 205.3 310.5 204.5 310.7C204.1 310.3 203.8 309.8 203.4 309.3Z" fill="#E6E6E6"/>
<path d="M237.7 282.3C238.7 284.6 238 285.2 235.8 284.2C235.7 283 236.4 282.3 237.7 282.3Z" fill="#E6E6E6"/>
<path d="M253.3 280.8C253.4 279.6 253.9 278.8 255.2 278.9C255.3 279.6 256.2 280.1 255.3 281C254.4 281.8 253.9 280.9 253.3 280.8Z" fill="#E6E6E6"/>
<path d="M269.1 277.1C270.5 277 271.1 277.7 271 279C268.7 280 268.2 279.3 269.1 277.1Z" fill="#E6E6E6"/>
<path d="M633.3 251.4C635 256.4 634.6 261.5 634.5 266.6C634.4 271.3 634.5 276.2 636.6 280.3C642.8 292.8 645.4 306 645.9 319.9C646.1 326.5 647.2 333.1 648 340.2C644 338.3 643.7 334.6 643.1 331.5C641.8 325.5 640.9 319.5 641.2 313.3C641.6 305.3 640.4 297.5 637 290.3C628.4 272.4 631.4 271.6 633.3 251.4Z" fill="#E6E6E6"/>
<path d="M558 269.8C563.8 256.1 570.1 242.7 580.8 231.9C573.3 244.6 567.4 258.2 558 269.8Z" fill="#E6E6E6"/>
<path d="M618.2 217.4C625.9 220 625.6 227.4 627.6 233.9C629.6 227.7 629.6 227.7 628.2 222.4C626.6 216.5 625.4 210.7 628.9 205C628.7 212.3 629.1 219.3 631.4 226.4C633.1 231.6 631.1 236.4 626.9 239.9C626.2 239.4 625.9 239.3 625.8 239.1C624.7 231.5 622.9 223.9 618.2 217.4Z" fill="#E6E6E6"/>
<path d="M647.9 215.8C650.7 214 651.3 216.6 652.1 218.1C653.4 220.6 654.4 223.4 655.5 226.1C656.8 229.1 659 230.7 662.4 229.9C666 229 661.5 225.8 663.9 224.5C666 226 668.4 227.6 666.2 230.6C664.3 233.2 661.7 233.9 658.6 232.6C655.8 231.4 654.1 229.3 653 226.5C651.5 222.8 649.6 219.3 647.9 215.8Z" fill="#E6E6E6"/>
<path d="M595.3 217.5C598.6 219.5 599.3 220.4 598.7 223.2C598.2 225.4 597 227.5 596.4 229.8C595.8 232.1 593.5 234.3 595.3 237L595.5 236.8C594.7 236.5 594.1 236.4 593.8 237.4C593.4 238.9 593.9 239.9 595.4 240.4L595.3 240.3C595.8 244.1 593 244.1 590.2 245.2C589.4 238.2 593 233 594.7 227.4C595.9 224.1 597.5 220.9 595.3 217.5Z" fill="#E6E6E6"/>
<path d="M686.5 268.5C687 268.4 687.8 268 687.9 268.2C692.7 275.6 698.3 282.6 701.3 291.9C695.5 287.3 689.2 276.9 686.8 268.4L686.5 268.5Z" fill="#E6E6E6"/>
<path d="M637.5 194.6C640.2 196.5 641 199.7 640.3 202.2C639 207.1 641.8 209 645 211.3C646.5 212.4 649.6 212.7 648.1 216C636.9 212.6 637 203.7 637.5 194.6Z" fill="#E6E6E6"/>
<path d="M580.8 306.6C572.7 301.4 568.3 295.3 565.4 285.1C570.8 292.7 575.3 298.9 580.8 306.6Z" fill="#E6E6E6"/>
<path d="M628.6 205.4C628.5 202 630.2 198.8 628.9 195.2C627.8 192.2 627.8 188.5 632.2 187.7C636.1 187 636.7 190.3 637.5 193.1C637.7 193.6 637.6 194.2 637.6 194.8C633.9 195.2 635.8 188.5 632.3 190C628.1 191.8 631.5 195.4 631.7 198.3C632 201.1 631.8 204 628.6 205.4Z" fill="#E6E6E6"/>
<path d="M598.8 233.5C600 227 601.2 220.4 602.6 213.9C602.9 212.3 603 209.7 606.1 210.5C603.8 215.6 604 221.2 602.5 226.4C601.8 229 602 232.1 598.8 233.5Z" fill="#E6E6E6"/>
<path d="M588.3 317.6C584.6 314.7 582 311 579.9 306.8C584.5 308.8 586.9 312.7 589.6 316.5C589.2 316.9 588.8 317.3 588.3 317.6Z" fill="#E6E6E6"/>
<path d="M620.1 206.9C620.3 210.6 617.2 213.8 618.3 217.6C615 213.7 615.3 212 620.1 206.9Z" fill="#E6E6E6"/>
<path d="M618.1 198.3C618.8 195.6 620.7 196.1 621.3 197.8C622.4 200.9 623 204.4 619.9 207.1C618.6 204.4 622.4 200.5 618.1 198.3Z" fill="#E6E6E6"/>
<path d="M597.2 208.6C596.6 211.6 596 214.6 595.4 217.7C591.3 213.7 594 211.1 597.2 208.6Z" fill="#E6E6E6"/>
<path d="M595.3 237C597.8 237 596.7 233.4 599 233.2C599.3 236.3 599.2 239.3 595.4 240.3L595.5 240.4C595.5 239.2 595.6 238 595.6 236.8L595.3 237Z" fill="#E6E6E6"/>
<path d="M609.3 205.3C611 203.9 611.2 200.2 614.8 201.7C613.1 203.1 612.8 206.6 609.3 205.3Z" fill="#E6E6E6"/>
<path d="M614.7 201.9C613.5 198.3 615.9 198.1 618.4 198.2C617.7 200 616.3 201 614.7 201.9Z" fill="#E6E6E6"/>
<path d="M605.9 210.7C604.3 208.4 606.3 207.8 607.7 206.9C609.3 209.2 607.2 209.8 605.9 210.7Z" fill="#E6E6E6"/>
<path d="M655.1 215.9C653 215.4 653 213.8 653.2 212.1C655.7 212.5 655.9 214 655.1 215.9Z" fill="#E6E6E6"/>
<path d="M656.8 219.4C655.2 218.6 654.6 217.4 654.9 215.6C657.4 216 658.4 217.1 656.8 219.4Z" fill="#E6E6E6"/>
<path d="M664 224.6C661.6 226.3 660.9 224.5 660.2 222.8C662.5 221.1 663.1 223.3 664 224.6Z" fill="#E6E6E6"/>
<path d="M686.7 268.4C686.4 268.1 686 267.9 685.7 267.6C686 267.6 686.5 267.4 686.7 267.5C687.2 267.8 687.1 268.2 686.5 268.6C686.5 268.5 686.7 268.4 686.7 268.4Z" fill="#E6E6E6"/>
<path d="M660.4 222.9C659.1 222.9 658.4 222.3 658.5 221C660.7 220.1 661.3 220.7 660.4 222.9Z" fill="#E6E6E6"/>
<path d="M658.6 221.2C657.3 221.2 656.9 220.4 656.6 219.3C659.1 218.1 659.4 219.2 658.6 221.2Z" fill="#E6E6E6"/>
<path d="M653.4 212.4C652 212.5 651.6 211.6 651.4 210.5C653.8 209.4 653.3 211.2 653.4 212.4Z" fill="#E6E6E6"/>
<path d="M607.6 207.1C607.8 206 608.5 205.4 609.6 205.1C610.3 207.3 609.7 207.9 607.6 207.1Z" fill="#E6E6E6"/>
<path d="M462.2 277.3C459.7 277.2 458.5 275.5 458.4 273.3C458.2 269.7 464.3 265.6 470.4 265C475.2 264.5 477.5 266.2 477.7 271.2C477.9 275.2 478.3 278.4 482.1 280.8C486.7 283.8 484.2 288 483.1 291.8C481.3 298.3 481.6 298.9 488.5 302.9C488.1 296.8 489.5 291.4 491.5 286.1C492.9 282.2 493.6 278.8 489.6 275.3C486.2 272.3 487.1 270.2 492.1 264.7C491.3 269 489.8 273.3 494.6 276.7C496.9 278.4 495.8 281.4 495.1 284C493.7 289.6 491.4 294.9 492.3 301C492.8 304.5 490.1 306 486.6 305.3C482.4 304.4 479.4 300.5 479.6 295.5C479.7 293.2 480.7 291 481.2 288.8C481.8 286.1 481.9 283.8 479.1 282C475.9 280 474.9 277 474.9 273.1C475 266.9 473.7 266.3 467.6 268.4C461.9 270.4 461.5 271 462.2 277.3Z" fill="#E6E6E6"/>
<path d="M538.8 381.9C534.9 380.7 533.5 378 532 375.6C529.1 370.6 525.8 365.6 523.7 360.2C519.4 349.4 515.1 338.8 506.8 329.9C502.4 325.1 500.9 318.2 499.1 311.7C516.6 332.4 526.3 357.3 538.8 381.9Z" fill="#E6E6E6"/>
<path d="M453.3 277.1C456.8 280 455.3 283.2 453.9 286.4C451.5 291.7 450.6 297.4 449.2 303C448.8 304.4 448.5 306.1 450.5 306.3C452.6 306.5 455.5 305.6 454.5 303.3C451.6 296.8 456.2 293.6 459.7 290C463.5 286.1 465.7 282.2 462 277.1C466.9 278.3 468.2 280.4 466.6 284.9C465.5 288 463.4 290.4 461.1 292.7C458.4 295.4 456.3 298 456.9 302.5C457.5 306.8 455.1 308.8 450.8 309.1C447 309.4 445.3 307.8 446.1 303.9C447.2 298.8 448.2 293.6 450.2 288.8C451.9 285 452.5 281 453.3 277.1Z" fill="#E6E6E6"/>
<path d="M562.3 361.3C561.8 361.5 561.1 362.1 560.9 361.9C553 356.9 546.3 350.7 542.3 341.8C548.9 348.3 555.5 354.9 562.1 361.4L562.3 361.3Z" fill="#E6E6E6"/>
<path d="M572.7 338.5C577.1 341.1 580.8 344.3 583.8 348.3C583.4 348.8 583 349.3 582.6 349.7C578.9 346.3 575.2 342.9 571.6 339.5C572 339.2 572.4 338.9 572.7 338.5Z" fill="#E6E6E6"/>
<path d="M537.6 309.6C541.6 311.5 544.1 314.8 546.1 318.7C541.5 317.4 539.2 313.9 537.6 309.6Z" fill="#E6E6E6"/>
<path d="M491.8 265C494.8 261.2 497.8 261.9 500.8 265C497.8 266 494.8 264.8 491.8 265Z" fill="#E6E6E6"/>
<path d="M571.1 336.7C568.9 338.7 568.2 336 566.9 335.3L566.7 335.4C569 333.1 569.9 335.1 570.9 336.8L571.1 336.7Z" fill="#E6E6E6"/>
<path d="M570.8 336.9C571.9 336.9 572.5 337.4 572.7 338.5C572.3 338.9 571.9 339.2 571.5 339.5C570.8 338.7 569.4 338 571 336.7C571.1 336.7 570.8 336.9 570.8 336.9Z" fill="#E6E6E6"/>
<path d="M562.1 361.4C562.9 361.4 563.5 361.7 563.4 362.6C563.4 362.7 562.9 362.9 562.7 362.9C561.8 362.6 561.7 362 562.3 361.3L562.1 361.4Z" fill="#E6E6E6"/>
<path d="M566.9 335.4C566.5 334.8 566 334.3 566.7 333.7C566.8 333.6 567.3 333.7 567.4 333.9C567.8 334.7 567.5 335.3 566.6 335.6C566.6 335.5 566.9 335.4 566.9 335.4Z" fill="#E6E6E6"/>
<path d="M500.6 264.8C502.1 264.6 502.6 265.3 502.5 266.7C500.2 267.8 499.8 266.9 500.6 264.8Z" fill="#E6E6E6"/>
<path d="M283.6 246.2C295.3 253.6 299.2 253.3 305 244.3C305 251.6 302.6 254.6 296 253.8C291 253.1 286 251.4 283.6 246.2Z" fill="#E6E6E6"/>
<path d="M269.2 226.3C271.1 226.8 271.8 228.4 272.5 230C272.9 230.9 273.4 232.1 271.8 233.8C271.3 230.8 267.6 229.7 269.5 226.2C269.4 226.2 269.2 226.3 269.2 226.3Z" fill="#E6E6E6"/>
<path d="M328.9 261.5C325.5 261.2 323.6 259.6 323.5 256C326.1 257 328.4 258.4 328.9 261.5Z" fill="#E6E6E6"/>
<path d="M323.6 256.2C322.4 256.8 321.1 256.7 319.9 256.2C319.4 254 321 253.9 322.3 254C323.4 254 324.4 254.8 323.6 256.2Z" fill="#E6E6E6"/>
<path d="M308 234.3C307.7 234.7 307.4 235.3 307 235.3C306 235.4 305.5 234.8 306 233.9C306.2 233.6 306.9 233.3 307.4 233.3C307.5 233.3 307.8 234 308 234.3Z" fill="#E6E6E6"/>
<path d="M315.1 231.9C312.9 233 312.9 233 309.9 233C311.2 229.9 313.5 232.5 315.2 232C315.3 232 315.1 231.9 315.1 231.9Z" fill="#E6E6E6"/>
<path d="M274.3 238.7C272.8 237.8 271.4 236.3 273.2 235.1C274.4 234.3 274.8 236.7 275.4 237.7C275 238.1 274.6 238.4 274.3 238.7Z" fill="#E6E6E6"/>
<path d="M320.1 256C320.1 257.2 320.1 258.5 320.1 259.7C318.8 260.4 318.2 259.9 318.1 258.6C318 257.2 318.3 256 320.1 256Z" fill="#E6E6E6"/>
<path d="M323.4 263.1C325 262.8 325.6 263.5 325.4 265.1C323.8 265.3 323.2 264.6 323.4 263.1Z" fill="#E6E6E6"/>
<path d="M321.7 261.3C323.2 261.1 324 261.6 323.6 263.3C322.4 263.2 320.6 263.7 321.7 261.3Z" fill="#E6E6E6"/>
<path d="M320 259.5C321.3 259.5 322.1 260 321.9 261.4C319.9 262.2 318.8 262 320 259.5Z" fill="#E6E6E6"/>
<path d="M275.4 237.7C276 238.5 277.1 239.5 275.6 240.3C275 240.6 274.4 239.6 274.3 238.7C274.6 238.4 275 238.1 275.4 237.7Z" fill="#E6E6E6"/>
<path d="M468.7 245.2C472.6 248.1 476.9 250 482.9 252C475.3 253.1 471.3 250.3 468.7 245.2Z" fill="#E6E6E6"/>
<path d="M487 251.6C489.3 250 491.3 249.9 493.6 251.6C491.3 253.5 489.2 253.6 487 251.6Z" fill="#E6E6E6"/>
<path d="M621 178C621 185 618.6 187 607.5 187.6C613.9 185.2 619.3 183.8 621 178Z" fill="#E6E6E6"/>
<path d="M635.9 170.3C634.5 172.6 632.5 173.7 629.8 174C631.9 171 631.9 171 636.1 170.5C636.1 170.6 635.9 170.3 635.9 170.3Z" fill="#E6E6E6"/>
<path d="M621.1 178C621.6 178 622 178.1 622.5 178.1C621.9 179.8 621.5 177.9 621.1 178Z" fill="#E6E6E6"/>
<path d="M1736 386.3C1735.9 387.1 1735.9 387.6 1735.9 387.6C1709.7 386.7 1683.5 391.3 1657.3 389.6C1640.8 388.5 1624.4 385.8 1608 384C1585.2 381.5 1562.3 380.9 1539.5 384.1C1521.2 386.6 1502.9 387 1484.5 386.9C1462.5 386.7 1440.5 386.2 1418.5 386.8C1399.9 387.3 1381.2 389 1362.6 390.7C1342 392.6 1321.6 391.6 1301.2 389C1261.7 384 1222.1 380.3 1182.3 383.3C1157.9 385.1 1133.5 383.6 1109.1 383.5C1078.1 383.3 1047.1 383.4 1016.2 387.8C990.1 391.5 964 390.2 937.9 386.2C920 383.4 901.9 384.4 883.8 385.7C869.7 386.7 855.6 387.7 841.4 388.5C839.2 388.6 836.7 388.9 834.1 386.3C841.6 385.5 848.4 384.6 855.2 384.1C858.9 383.8 862.3 383.2 865.5 381.2C887.7 367.2 912.2 359.1 937.2 352.2C974.2 342.1 1008.3 326 1038.4 302C1053.5 290 1070.2 280.3 1087.6 271.2C1086 267.8 1082.2 268.5 1080.2 266.3C1078.5 264.4 1076.7 265 1074.6 266.2C1067.1 270.5 1059.9 268.4 1053.6 263.7C1050.4 261.3 1048.5 261.2 1045 263C1038.1 266.6 1030.7 265.7 1024.5 261.2C1021.4 259 1019.3 258.8 1015.7 259.5C1004.8 261.6 998.2 257.3 994.4 246.7C994.1 245.9 993.7 245.1 993.3 244.3C988.6 235.2 989.6 229.7 997.4 223.4C1000 221.3 1003 219.9 1006.3 219.2C1010.8 218.2 1015.1 218.3 1019.7 218.6C1024.1 218.9 1024.4 212.2 1028.8 210.8C1037.3 208.1 1045.9 207.4 1055.3 210.4C1056.7 205.7 1057.5 200.4 1062.7 198.1C1070.5 194.7 1078.7 195 1086.7 196.5C1090.3 197.2 1092.3 197.5 1095 194.2C1100.8 187.2 1109 188.4 1116.8 189.4C1119.4 189.8 1121.9 191.1 1124.5 192C1125.9 192.5 1127.2 193.2 1128.6 191.8C1134.7 185.1 1142.2 186.5 1149.5 188.8C1153 189.9 1155.2 189.7 1158.3 187.5C1164.6 182.9 1172.2 184.6 1179.3 185.5C1181.6 185.8 1183.6 187.2 1185.8 184.8C1190.7 179.6 1196.8 180.5 1202.6 182.8C1207.6 184.8 1211.2 184.1 1215.5 180.5C1225.8 171.6 1238.3 165.9 1250.5 160C1257.7 156.5 1264.1 152.4 1268.4 145.4C1270.8 141.5 1274.5 138.7 1278.5 136.5C1284.2 133.2 1290 132.1 1296.6 134.6C1311.7 140.2 1325.8 147.2 1336.3 160.1C1345.7 171.7 1359.5 177.3 1372.6 183.1C1382.6 187.5 1392.1 192.5 1400.4 199.6C1409.9 207.6 1420.4 214.1 1431.5 219.6C1446.8 227.2 1460.3 237 1471.9 249.6C1473.5 251.4 1475.5 252.9 1477 254.7C1480.1 258.3 1483.4 259.4 1488 257.3C1494 254.6 1500.6 255.3 1506.7 256.3C1512.2 257.2 1518.2 258.8 1519.7 265.7C1520.5 269.1 1523.4 268.2 1525.4 268.9C1534.4 271.9 1537.5 275.6 1537.7 285.2C1537.8 288.2 1539 289.4 1541.3 290.6C1550.6 295.5 1559.9 300.5 1569.2 305.4C1581.6 311.8 1593.1 319.6 1602.6 329.8C1611 338.7 1620.7 345.6 1631.6 351.1C1649.1 360 1665.6 370.5 1682.2 380.8C1686.5 383.5 1690.5 384.9 1695.7 384.6C1709.4 384 1722.8 384.1 1736 386.3ZM1527.7 285.3C1528.5 285 1529.3 284.4 1530.1 284.3C1534.5 283.8 1535.8 282.2 1534 278.6C1532 274.5 1528.3 272.7 1524 271.8C1520.2 271 1516.2 270.5 1516.3 264.9C1516.3 262.2 1513.5 261 1511.3 260.2C1502.9 257.3 1494.6 256.5 1485.8 261.2C1493 267.6 1501.3 269.9 1510.2 271.3C1505.4 271.5 1501.9 273.6 1499.4 277.3C1496.6 281.6 1498.7 285.5 1503.7 286C1506.7 286.3 1510 285.5 1513.3 287.9C1500.1 289.1 1500.1 289.1 1495.9 295.3C1485.7 290 1475.5 287.8 1464.6 295.3C1466.1 296.9 1467.2 297.9 1468 299.1C1468.9 300.3 1471.3 301.2 1469.4 303.4C1451.8 292.4 1449.9 292 1440.8 297C1442.8 299.8 1446.4 301.9 1445.1 306.2C1443.2 306 1442.5 304.6 1441.6 303.4C1435.7 295.8 1427.5 294.9 1418.8 295.7C1411.4 296.4 1406.8 300.5 1405.7 308.9C1398.9 304.3 1392.3 303.1 1385.4 305.2C1378 307.5 1375 313.1 1374.9 320.7C1364.6 316.5 1358.4 317.7 1353.4 324.5C1349.8 329.3 1350.4 335.4 1355.3 337.7C1361.6 340.8 1368.9 342.6 1375.4 340.6C1380.7 339 1385.2 339.1 1390.2 340.1C1394 340.9 1398.5 341.9 1401.5 339C1405.8 334.9 1410.4 335.2 1415.6 335.3C1422.2 335.5 1429.6 335.6 1434.2 330.3C1438.1 325.8 1442.6 325 1447.7 324.7C1451.6 324.4 1455.6 324.6 1459.4 324C1463.8 323.3 1468.5 322.6 1471.2 318.3C1473.9 314 1477.5 313.3 1482.1 314.4C1487.4 315.6 1492.9 315.4 1498.3 315.3C1501 315.3 1504.1 315.3 1506 313.4C1510.2 309.2 1515.5 308.8 1520.8 307.8C1526.4 306.8 1532.1 305.7 1536.9 302.3C1539.8 300.3 1541.2 297.5 1538.1 294.9C1534.7 291.7 1532.6 286.9 1527.7 285.3ZM1098.1 239.6C1101.9 235.3 1106.9 237.6 1111.4 237.4C1115.4 237.2 1118.8 241.6 1122.3 240.8C1125.8 239.9 1129.1 236.3 1132.9 236.6C1141.5 237.3 1144.5 230.8 1149.2 226.2C1147.9 224.3 1146.3 224.5 1144.9 224.3C1139.4 223.4 1134.2 222 1129.3 227C1126.3 230.1 1121.1 230.3 1116.5 230.4C1114.1 230.5 1111.7 230.1 1109.7 231.8C1106.2 234.7 1101.9 234.5 1097.7 234.7C1095.5 234.8 1092.9 233.4 1091.1 236C1087 238.6 1084.8 234.4 1082 233.2C1076.1 230.5 1070.4 229.3 1063.8 230.1C1059.7 230.6 1056.2 233.2 1052.2 233.4C1051.5 230.3 1053.7 229.6 1055.1 229.1C1063.5 225.8 1071.9 225.1 1080.6 228.5C1088.3 231.5 1096.8 233.1 1104.1 230.1C1109.9 227.7 1115.4 227.3 1121.2 226.5C1123.9 226.1 1127.4 225.8 1128.6 223.7C1131.8 217.9 1136.1 219.6 1140.9 220.6C1147.1 221.8 1153.4 222.2 1159.2 218.4C1167.8 212.7 1176.9 208.1 1186.1 203.5C1194 199.6 1200.7 194.3 1207 187.3C1200.8 184.9 1194.7 181.3 1189.8 186.4C1186.3 190.1 1183.8 189.5 1179.9 188.7C1172 187 1163.8 184.9 1157.5 192.8C1155.7 195.1 1153.9 194 1152 192.9C1147.6 190.5 1142.8 190.3 1137.9 190.5C1135.3 190.6 1132.6 191.3 1131.8 193.7C1130.1 198.8 1127.4 197.4 1124.3 195.5C1122.8 194.6 1121.1 193.6 1119.4 193.3C1111.1 192.1 1102.2 189.6 1096.2 198.1C1093.9 201.4 1092.3 201.9 1089 200.2C1087.2 199.3 1085 199 1082.9 198.6C1068.6 196.2 1061.5 200.5 1057.8 214C1055.9 214.7 1054.4 213.6 1052.7 213.2C1046.5 211.5 1040.1 211.9 1033.9 213C1030.7 213.6 1026.4 214.9 1026.5 218.5C1026.7 225.4 1023.3 222.8 1019.8 222.2C1009.5 220.2 1000.1 223.7 995.8 230.8C993.1 235.4 993.4 238 997.2 241.9C998.1 242.9 1000.4 243 999.6 245C998.2 248.5 999.9 250.7 1002.2 252.9C1004.8 255.3 1008 256 1011.2 256.9C1015.4 258.1 1018.9 253.4 1022.2 254.6C1025.5 255.8 1027.5 260 1031.6 260.9C1038.7 262.4 1045.2 261.4 1050.5 255.7C1051.8 257.1 1052.5 258.1 1053.4 258.9C1060.8 265.9 1067.1 266.7 1075.9 261.4C1078.2 260 1079.3 260.5 1081.2 262.1C1087.5 267.3 1094.5 268.9 1102 264.4C1104 263.2 1105.6 262.9 1107.7 264.3C1116.8 270.4 1126.4 270.2 1136 266C1140.2 264.1 1143.7 264.4 1147.9 266C1156.5 269.2 1165.5 269.9 1174.5 266.8C1176.5 266.1 1178.8 265.2 1180.6 265.6C1191.4 268.4 1201.8 263.9 1212.6 264.1C1220.4 264.3 1228.5 261.9 1236.6 261.4C1241.6 261.1 1243.2 255.6 1247.8 254.5C1249.2 254.2 1248.1 251.8 1248.5 250.4C1252.2 252.4 1253.2 254.4 1250.8 255.9C1245.6 259.2 1241.7 264.5 1234.8 265.1C1220.6 266.3 1206.4 267.8 1192.2 269.1C1189.2 269.4 1186.2 269.3 1183.2 268.9C1180.1 268.5 1177.4 268.8 1174.4 269.9C1165.3 273.4 1156.1 272.9 1147.1 269.2C1143.6 267.7 1140.5 267 1137 269.1C1132.2 271.9 1126.8 272.8 1121.3 272.3C1118 272 1115.6 273 1113.1 275C1106.3 280.5 1099.3 285.7 1092.4 291C1082 299 1070.2 304.4 1058.6 310.5C1076.2 296.8 1095.9 286.2 1112.6 271.4C1105.5 266.1 1099.5 270.1 1093.7 272.8C1074.9 281.7 1057 292.3 1040.6 305.3C1009.9 329.5 975.2 345.7 937.5 355.8C916.9 361.4 896.5 367.8 877.6 378.1C875.8 379.1 873.1 379.3 872.9 382.7C888.8 381.1 904.5 380.5 920.1 381C923.2 381.1 925.9 380.1 928.8 379.2C940.9 375.2 951.9 369 962.5 362.1C968.4 358.3 974.5 354.7 982 354.6C966.4 362.5 953.2 374.2 936.9 381.2C940.9 382.6 944.7 383.2 948.4 384C953.6 385.1 958.6 384.6 963.1 381.6C963.5 382.1 964 382.5 964.4 383C963.9 386.6 966.6 385.7 968.5 385.9C987.8 387.5 1006.9 385 1026 383C1055.3 379.9 1084.8 379.7 1114.3 380.3C1118.1 380.4 1120.8 379.1 1122.7 376.3C1124.8 373.4 1126.5 370.2 1128.1 367C1130.8 361.6 1133.7 356.3 1138.1 352.1C1145.5 345 1152.5 337.6 1159.2 330C1159.7 330.4 1160.1 330.8 1160.6 331.3C1156.5 339.2 1150.2 345.3 1143.7 351.2C1134.9 359.2 1130.1 369.6 1124.3 380.4C1145 381.5 1164.6 381.4 1184.1 379.7C1188.9 379.3 1191.5 378 1193.9 373.7C1202.2 359 1211.4 344.9 1218.2 329.4C1218.9 327.9 1219.2 325.4 1222.1 325.4C1216.4 344.9 1204.8 361.1 1194.6 379.2C1222.4 378.9 1248.6 377.5 1274.5 382.6C1277.4 376 1276.3 369.2 1277.2 362.7C1278.1 356.5 1277.9 349.9 1281.6 344.3C1281.8 357.7 1278.9 370.9 1279.5 383.9C1304.4 384.5 1328.3 388.8 1352.8 387.1C1349.2 371.1 1349.4 355.1 1341.2 341.1C1339.7 338.6 1338.9 335.3 1339 332.4C1339.2 321.9 1337.8 311.3 1340.6 301C1342.5 294 1341.9 287.5 1339 280.9C1337.1 276.5 1335.5 271.8 1338.4 266.8C1338.7 271.9 1339.9 276.8 1342.1 281.4C1345.1 287.7 1345.1 294.1 1343.6 300.8C1341.2 311.8 1342.3 322.9 1342.3 334C1342.3 336.5 1343 338.8 1344.2 340.9C1350 350.7 1351.8 361.7 1353.5 372.7C1355.8 387.3 1355.9 387.2 1371 386.3C1371.6 386.3 1372.2 386.2 1372.8 386.2C1399.8 383.3 1426.9 381.7 1454 382.7C1455 382.7 1455.7 382.4 1456.2 381.2C1446.8 370.2 1436 360 1429 346.9C1429.5 346.4 1429.9 346 1430.4 345.5C1440 355.9 1447.9 367.7 1457.4 378.2C1460.9 382.1 1464.3 383.1 1468.8 383.1C1481.5 383.1 1494.1 383.2 1506.8 383C1517.2 382.8 1527.6 381.9 1538.3 379.8C1533.4 370.2 1526.3 364 1517.5 359.6C1511.5 356.6 1505.8 353.3 1501.5 348C1497 342.4 1492.6 336.7 1485.6 333.7C1484 333 1482.1 331.7 1481.9 328.3C1489.1 332.9 1496.3 335.6 1500.9 342.5C1505.2 348.9 1511.4 353.1 1518.4 356.3C1526.8 360.1 1533.9 365.6 1538.5 373.8C1540.8 378 1543.7 379.5 1548.7 379.1C1557.4 378.3 1566.1 377.5 1574.9 377.8C1595.7 378.7 1616.3 380.5 1636.8 383.8C1644.2 385 1651.8 385.4 1661.3 386.4C1645.4 373.8 1627.8 368 1613.7 356.7C1631.2 364.5 1648 373.6 1664.3 383.8C1669.4 387 1673.8 386.5 1680.6 385C1663.5 375 1648.5 365.1 1632.4 357C1619.6 350.6 1607.9 342.9 1598.3 332.1C1591 323.9 1582 317.8 1572.5 312.6C1563.3 307.5 1553.8 302.9 1544.1 297.8C1543.2 300.9 1539.7 303 1541.8 306.7C1541.4 307.1 1540.9 307.6 1540.5 308C1540 307.7 1539.3 307.1 1539 307.2C1528.7 311.8 1516.6 310.1 1506.9 317.1C1504.1 319.1 1500.2 319.6 1496.5 319.5C1491.7 319.5 1486.9 319.3 1482.1 318.4C1479.3 317.9 1476.3 317.2 1474 320.5C1469.9 326.6 1463.2 327.7 1456.5 328.4C1452.3 328.9 1448.1 328.9 1443.9 329C1441.8 329.1 1439.8 329.1 1438.3 331.1C1432.4 338.6 1423.9 339.1 1415.4 339.2C1411.2 339.2 1407.5 338.7 1403.8 341.9C1400.7 344.7 1396.3 345 1391.8 344C1387.8 343.2 1383.6 341.3 1379.6 343.2C1370.7 347.4 1362.4 344.2 1354.4 341.2C1347.4 338.6 1345.6 330.9 1349.8 324.6C1353.8 318.5 1359.2 314.5 1367.2 315.4C1369.1 315.6 1371.8 317.1 1372.8 314.3C1376.3 304.5 1384.1 302 1393.4 301.3C1397.6 301 1394.7 298.6 1394 297C1394.4 296.6 1394.8 296.2 1395.2 295.7C1395.8 296.4 1396.9 297.1 1396.8 297.6C1395.9 301.4 1398.3 302.2 1401.1 303C1404.3 304 1404.4 301.1 1405.4 299.6C1407.4 296.7 1410.2 295.1 1413.3 294C1419.7 291.7 1426.3 291.3 1432.7 293.8C1436.8 295.4 1439.8 293.2 1442.8 291.5C1445.1 290.2 1440.4 288.1 1442.9 286.3C1445.6 287 1446 290.6 1449.2 290.7C1455.7 290.9 1462.4 295.6 1468.6 289.4C1469.5 288.5 1471.5 288.6 1472.8 288C1479.6 285.2 1486.2 288.7 1492.8 289.2C1493.8 285.3 1488.4 285.2 1489.1 281.8C1491.2 280.9 1492.2 283.5 1494.4 283C1494.3 279.5 1495.4 276.2 1497.3 272.8C1488.8 269.3 1481 265.3 1475.1 258.7C1459.1 240.9 1440.2 227.4 1418.6 217.4C1417 216.6 1415.3 215.7 1414 214.5C1406.4 207.9 1397.3 207.2 1387.8 206.7C1376.2 206.1 1364.4 205.1 1354.7 197.4C1354.1 197 1353.6 197.1 1352.9 198.3C1353 200.4 1355 201.9 1356.3 203.8C1358.4 206.8 1361.1 209.5 1362.3 212.7C1365.2 220.2 1368.8 227.8 1363.3 235.8C1361.1 239 1358.3 239.8 1356 236.9C1351.4 231.2 1344.9 228.9 1338.6 226C1332.9 223.4 1328.4 219.9 1327.2 213.1C1326.6 209.5 1324.2 206.6 1321.6 204C1319.5 202 1317.6 201.4 1315.9 204.4C1315.3 205.5 1314.6 206.4 1313.3 205.3C1316.8 198.1 1319 197.6 1323.9 202.9C1326.6 205.8 1329 208.9 1329.7 212.9C1330.6 217.9 1333.9 220.9 1338.1 222.8C1345.7 226.2 1353.5 229.3 1359.2 236.5C1362.4 232.1 1363.7 228.6 1362.8 223.5C1361.2 213.9 1355.7 207.1 1349.5 200.5C1348.2 199.1 1346.8 197.8 1347.7 195.8C1348.9 193.4 1351.2 194.1 1353.3 194.3C1355.5 194.5 1357.1 196 1358.9 197.1C1361.2 198.5 1363.5 200.5 1366 200.9C1376.1 202.4 1386.2 204.6 1396.5 204.3C1396.8 201.9 1395.3 201.1 1394.3 200.2C1387.9 194.7 1380.5 190.8 1372.8 187.2C1359.2 180.9 1344.9 175.1 1335.1 163.2C1324.5 150.4 1310.9 142.9 1295.6 137.7C1290 135.8 1285.1 135.9 1280.3 139.6C1277.4 141.8 1274.1 143.6 1272.2 146.7C1266.9 155.4 1258.7 160.1 1250.1 164.6C1235.9 171.9 1222 179.6 1210.1 190.5C1204.8 195.3 1199.1 199.8 1193.6 204.5C1194.9 204.7 1196.4 204.8 1197.8 205C1196.5 208.5 1193.3 207.1 1191 207.3C1188.6 207.5 1186.3 207.6 1184.1 208.7C1175.5 213.1 1166.9 217.4 1159.1 223.2C1153.9 227.1 1148.7 231 1145.5 236.8C1150.1 240.2 1153.9 240.7 1158.8 237.7C1162.6 235.4 1166.7 233.5 1170.4 230.9C1171.4 230.2 1173.5 230.4 1172.9 231.5C1170.3 236.8 1174.8 234.9 1176.7 235.5C1179.3 236.3 1182.1 236.5 1184.5 237.7C1188.5 239.7 1191.8 240 1196.2 237.9C1204.1 234.2 1212.3 235.2 1218.9 241.2C1221.7 243.8 1224.1 243.4 1227 242.6C1234.6 240.7 1241.2 243.1 1247.5 247C1248.5 247.6 1250.3 248.6 1248.5 250.4C1240.6 246.7 1232.8 242.6 1223.7 247C1221.1 248.3 1219.5 246 1217.7 244.3C1211.4 238.4 1202.5 237.2 1195.3 241.9C1192 244.1 1190.1 244.1 1186.7 242.2C1177.6 237 1167.7 235.9 1158.3 241C1154.3 243.2 1151.8 243.1 1147.7 241.6C1140.2 238.9 1132 236.4 1125.1 243.6C1123.9 244.8 1122.5 245.3 1121.1 244.3C1114.4 238.8 1106.2 239.6 1098.1 239.6Z" fill="#E6E6E6"/>
<path d="M1140 397.7C1094 397.2 1048.5 403.3 1002 407.7C1003.6 403.5 1006.9 404.4 1009.4 404.1C1030.3 402 1051.3 399.9 1072.2 398C1094.8 395.9 1117.3 397.1 1140 397.7Z" fill="#E6E6E6"/>
<path d="M1418.7 399.8C1420.5 396.4 1422.9 397.1 1424.8 397C1441.7 396.2 1458.5 396.1 1475.3 398C1482.5 398.8 1489.7 398.4 1497 398.4C1514.5 398.4 1532 398.4 1549.4 398.4C1551 398.4 1552.9 397.6 1554.9 400C1509.2 403.2 1464.1 397.4 1418.7 399.8Z" fill="#E6E6E6"/>
<path d="M972.4 407.4C933.3 407.3 894.4 405.3 855.6 401.9C894.7 402.3 933.7 402.8 972.4 407.4Z" fill="#E6E6E6"/>
<path d="M1190.8 397.5C1225.2 398.6 1259.6 399.6 1293.9 403.7C1259.3 405.1 1225.1 401.3 1190.8 397.5Z" fill="#E6E6E6"/>
<path d="M1586.2 397.6C1611.9 393.6 1637.2 397.8 1662.7 399.7C1650.1 402.3 1637.5 399.3 1624.9 399.1C1612 398.8 1599.1 398.5 1586.2 397.6Z" fill="#E6E6E6"/>
<path d="M1377.7 406.4C1357.9 411.1 1338.2 408.8 1318.4 406.4C1338.2 406.4 1358 406.4 1377.7 406.4Z" fill="#E6E6E6"/>
<path d="M1205.3 409.9C1188.4 408.9 1171.4 407.8 1154.5 406.8C1154.5 406.1 1154.6 405.3 1154.6 404.6C1171.6 403.4 1188.5 405.9 1205.3 408.1C1205.3 408.7 1205.3 409.3 1205.3 409.9Z" fill="#E6E6E6"/>
<path d="M1210.3 197.9C1212.4 195.1 1215.1 193.9 1217.9 196.4C1222.7 200.7 1227.3 199 1232.1 196.8C1237.3 194.4 1242.4 191.9 1247.7 189.7C1249.8 188.8 1252.2 187.6 1254.3 190C1256.2 192.1 1254.5 194.2 1253.8 195.9C1252.1 199.8 1251.3 203.1 1254.8 206.6C1257.2 209 1255.8 212.3 1256.1 215.2C1256.6 219.1 1254.9 223.6 1258.1 226.9C1261 227 1261.3 224.8 1261.8 223.3C1265.1 213.9 1273.4 208.1 1278.2 199.7C1279.5 197.4 1282.4 195.9 1285.3 196.6C1288.6 197.4 1289.5 200.6 1288.8 203.1C1286.1 214.3 1289.9 225.5 1288.5 236.7C1287.5 245.3 1288.6 253.3 1292.9 261.5C1298.8 256.7 1302.4 250.7 1304 244C1305.9 235.6 1308.6 227.1 1308 218.3C1307.6 212.8 1309.3 208.3 1313.8 205.1C1314 205.3 1314.5 205.6 1314.4 205.7C1308 215.1 1311 226.3 1308.5 236.5C1306.3 245.1 1303.9 253.3 1298.1 260.1C1293.8 265.2 1290.8 264.8 1288.6 258.4C1286 250.8 1284.8 243.2 1285.8 234.7C1287 224.3 1284 213.5 1286.6 202.9C1286.9 201.5 1286.2 199.8 1284.4 199.5C1282.9 199.3 1281.1 199.8 1280.4 201.1C1276.2 209.4 1268 215 1264.6 224C1263.4 227.2 1261.8 231.6 1257.3 230.6C1253.5 229.7 1253.9 225.4 1253.6 222.2C1253 215.8 1254.4 209.2 1250.3 203.1C1248.2 200 1251.9 195.9 1252.3 191.5C1246 192.1 1241.6 195.4 1236.9 197.5C1230.1 200.6 1223.4 205.1 1216.2 198.3C1214.4 196.6 1212.1 199.9 1210.3 197.9Z" fill="#E6E6E6"/>
<path d="M1230.4 308.9C1233.2 303 1235.8 297 1239 291.3C1248.7 273.8 1261.3 257.9 1267.8 238.6C1261.8 265.5 1244 286.3 1232.6 310.4C1231.8 309.9 1231.1 309.4 1230.4 308.9Z" fill="#E6E6E6"/>
<path d="M1394 296.7C1388.6 292.5 1385.3 286.8 1382.9 280.5C1380.6 274.5 1377.8 269 1373.3 264.3C1369.5 260.3 1367.8 255.2 1366.9 249.7C1371.9 258.7 1380.6 265.1 1384.2 274.8C1387 282.2 1391.1 288.7 1395.2 295.4C1394.8 295.9 1394.4 296.3 1394 296.7Z" fill="#E6E6E6"/>
<path d="M1288.6 285.5C1290.3 300.9 1289 315.9 1283.9 330.3C1283.2 330.2 1282.5 330.1 1281.8 330C1284.1 315.1 1286.4 300.3 1288.6 285.5Z" fill="#E6E6E6"/>
<path d="M1045.3 320.3C1040 328.8 1028.4 336.7 1010.5 345.1C1013 340.8 1013 340.8 1020.1 336.3C1023.9 333.9 1027.7 331.6 1031.5 329.2C1035.5 326.8 1039.5 324.1 1045.3 320.3Z" fill="#E6E6E6"/>
<path d="M1541.9 306.2C1553.3 311.1 1563.8 317.3 1572.2 326.5C1573.1 327.5 1574.9 328 1574 330.8C1567.4 328.1 1563 322.8 1558 318.3C1552.8 313.7 1545.3 312.8 1540.5 307.5C1541 307 1541.5 306.6 1541.9 306.2Z" fill="#E6E6E6"/>
<path d="M1172.8 311.5C1173.6 307.2 1188.9 287.6 1196.9 280.5C1196.1 287.7 1184.7 302.3 1172.8 311.5Z" fill="#E6E6E6"/>
<path d="M1415.9 259.7C1425 267.6 1435.9 273.7 1442 284.7C1436.6 281.8 1433 276.8 1428.1 273.2C1423.3 269.7 1418.2 266.4 1414.8 261.3C1415.2 260.8 1415.5 260.3 1415.9 259.7Z" fill="#E6E6E6"/>
<path d="M963.2 381.3C972.3 376.2 979.4 368.5 987.7 362.4C988 362.8 988.4 363.3 988.8 363.7C981.9 371.6 974.5 378.8 964.5 382.7C964.1 382.3 963.7 381.8 963.2 381.3Z" fill="#E6E6E6"/>
<path d="M1572.2 346.6C1564.3 340.2 1556.4 333.9 1548.5 327.5C1558.5 331.3 1566.4 337.7 1573.6 345.1C1573.1 345.5 1572.7 346.1 1572.2 346.6Z" fill="#E6E6E6"/>
<path d="M1585.7 339.3C1592 340.9 1596.2 346 1602.7 349C1595.7 349.3 1594.5 348.6 1585.7 339.3Z" fill="#E6E6E6"/>
<path d="M1186.5 218.7C1183 223.1 1179.3 227.5 1174.1 230.2C1176.8 224.8 1180.5 220.6 1186.5 218.7Z" fill="#E6E6E6"/>
<path d="M1425.9 234C1421.1 230.3 1414.2 229.9 1411.5 222.8C1416.6 225.9 1421.8 229 1426.9 232.1C1426.7 232.8 1426.3 233.4 1425.9 234Z" fill="#E6E6E6"/>
<path d="M1446.5 249.9C1442.2 248.9 1439 246.3 1436.2 243C1440.5 243.9 1443.4 246.9 1446.5 249.9Z" fill="#E6E6E6"/>
<path d="M1470.1 268.8C1466.9 267.4 1463.4 266.4 1461.5 261.6C1466.3 262.8 1468.1 266.1 1470.1 268.8Z" fill="#E6E6E6"/>
<path d="M1488.1 280.9C1484.3 280.8 1483.8 278.1 1482.1 276.2C1484.6 277.1 1487.2 277.3 1488.1 280.9Z" fill="#E6E6E6"/>
<path d="M1201.9 275.2C1201.5 277.9 1200.6 279.2 1198.8 279.7C1198.5 279.8 1197.7 279 1197.8 278.8C1198.3 277.2 1199.3 275.8 1201.9 275.2Z" fill="#E6E6E6"/>
<path d="M1197.6 205.1C1200.4 203 1202.8 200 1206.9 201.4C1204.3 203.8 1201.6 206.1 1197.6 205.1Z" fill="#E6E6E6"/>
<path d="M1001.4 354.1C1000.8 355.9 999.2 356.4 997.7 357.2C998.5 354.8 998.5 354.8 1001.4 354.1Z" fill="#E6E6E6"/>
<path d="M1206.8 201.6C1206 198.3 1208.7 198.4 1210.5 197.7C1211.2 200.9 1208.4 200.7 1206.8 201.6Z" fill="#E6E6E6"/>
<path d="M1575.3 347.4C1575.9 347.8 1576.8 348 1577.2 348.6C1577.7 349.3 1577.4 350.3 1576.4 350.2C1575.7 350.1 1575.1 349.3 1574.6 348.7C1574.2 348.2 1574.5 347.7 1575.3 347.4Z" fill="#E6E6E6"/>
<path d="M1413.2 259.3C1411.8 258.9 1411.4 258 1411.6 256.7C1411.6 256.6 1412.7 256.6 1413 256.9C1413.8 257.7 1414.6 258.7 1413 259.6L1413.2 259.3Z" fill="#E6E6E6"/>
<path d="M1429.2 346.5C1427.9 345.7 1426.6 344.4 1428.2 343.2C1429.1 342.5 1430 344.2 1430.6 345.1C1430.2 345.5 1429.7 346 1429.2 346.5Z" fill="#E6E6E6"/>
<path d="M987.7 362.4C988.1 361 989.3 360.4 990.1 361.3C991 362.3 989.3 362.9 988.7 363.7C988.4 363.3 988.1 362.9 987.7 362.4Z" fill="#E6E6E6"/>
<path d="M1194.1 214.1C1193.8 215.4 1193 215.9 1191.7 215.6C1191.6 215.6 1191.5 214.5 1191.7 214.4C1192.5 213.8 1193.4 212.8 1194.3 214.3L1194.1 214.1Z" fill="#E6E6E6"/>
<path d="M1195.9 212.3L1196.1 212L1195.7 212.1L1195.9 212.3Z" fill="#E6E6E6"/>
<path d="M1194.3 214.2C1193.2 212.1 1194.9 212.5 1195.9 212.3L1195.7 212.1C1196.5 213.8 1195.3 213.9 1194.1 214.1L1194.3 214.2Z" fill="#E6E6E6"/>
<path d="M1409 222.8C1408.8 222.7 1408.6 222.6 1408.4 222.5C1408.6 222.2 1408.8 221.9 1409 221.6C1409.2 221.8 1409.6 222 1409.6 222.2C1409.5 222.3 1409.2 222.6 1409 222.8Z" fill="#E6E6E6"/>
<path d="M1413.1 259.6C1414.1 257.9 1415 258.9 1415.9 259.7C1415.5 260.2 1415.2 260.8 1414.8 261.3C1413.7 261.1 1413.2 260.4 1413.2 259.3L1413.1 259.6Z" fill="#E6E6E6"/>
<path d="M1547.1 325.4C1546.7 325.6 1546.4 325.8 1546 325.8C1545.9 325.8 1545.7 325.5 1545.5 325.3C1545.9 325.1 1546.2 324.9 1546.6 324.9C1546.7 324.8 1546.9 325.2 1547.1 325.4Z" fill="#E6E6E6"/>
<path d="M1161.6 328.2C1161.7 327.7 1161.8 327.2 1162 326.7C1162.3 327 1162.6 327.2 1162.9 327.5C1162.5 327.7 1162 327.9 1161.6 328.2Z" fill="#E6E6E6"/>
<path d="M1161.6 328.1C1162.2 329.2 1161.6 330.1 1160.8 330.8C1160.3 330.4 1159.9 330 1159.4 329.5C1159.8 328.5 1160.2 327.5 1161.6 328.1Z" fill="#E6E6E6"/>
<path d="M1094.6 239.4C1095.9 239.4 1097.1 239.4 1098.4 239.3C1098.4 239.9 1098.5 240.5 1098.4 241.1C1098.3 242.5 1098.9 244.3 1097 244.8C1095.1 245.3 1094.7 243.6 1094.1 242.2C1093.5 241.1 1093.2 240.1 1094.6 239.4Z" fill="#E6E6E6"/>
<path d="M1090.9 235.8C1092.4 235.6 1093.4 235.9 1092.8 237.7C1092.1 237.8 1091.6 238.8 1090.7 237.8C1089.9 236.9 1090.8 236.4 1090.9 235.8Z" fill="#E6E6E6"/>
<path d="M1092.8 237.6C1094.5 237.2 1095.2 237.8 1094.7 239.5C1094 239.6 1093.6 240.6 1092.6 239.6C1091.7 238.7 1092.7 238.3 1092.8 237.6Z" fill="#E6E6E6"/>
<path d="M1527.8 285.3C1528.1 284.8 1528.4 284.3 1528.6 283.8C1530 285.2 1528.1 284.8 1527.8 285.3Z" fill="#E6E6E6"/>
</svg>
