<?xml version="1.0" encoding="utf-8"?>
<!-- Generator: Adobe Illustrator 26.0.3, SVG Export Plug-In . SVG Version: 6.00 Build 0)  -->
<svg version="1.1" id="Слой_1" xmlns="http://www.w3.org/2000/svg" xmlns:xlink="http://www.w3.org/1999/xlink" x="0px" y="0px"
	 viewBox="0 0 1920 434" style="enable-background:new 0 0 1920 434;" xml:space="preserve">
<style type="text/css">
	.st0{fill:#28211E;}
</style>
<g>
	<path class="st0" d="M265.5,223.1c2.2-5.8,12.6-17.6,17.1-19.2c4.3-1.5,8.7-1.3,12.7,1.2c3.7,2.3,7.3,4.8,9.8,8.6
		c3.4,5.1,7.4,9.8,11.9,14c1.3,1.2,2.6,2.5,3.3,4c7.2,14.9,19.3,25.5,31.5,36c8.4,7.2,15,15.5,18.8,25.9c3.1,8.7,9.4,14.5,16.7,19.7
		c3.4,2.4,5.8,2.4,9.1-0.5c10.2-9.3,20.1-18.8,27.5-30.5c6-9.5,13.3-17.8,21.7-25.1c3.6-3.1,6.4-6.7,8.2-11.2
		c2.9-7.5,8.5-13.2,13.9-18.9c3-3.2,6.4-3.6,10.4-2.1c9,3.3,16.8,8.2,21.6,16.9c2.8,5,6.9,8.7,12.1,11c7.5,3.2,13.4,8.2,17.3,15.4
		c0.5,0.9,1.5,1.6,2.5,2.8c13-15,26.8-28.8,36.6-46.1c9.7-17,21.1-33,36.4-45.7c3.5-2.9,5.2-6.8,6.6-11.1c3.1-9.1,7.6-12.1,16.8-12
		c4.5,0,7.7,1.6,10.1,5.6c6.4,10.7,14.4,20.5,17.4,33.1c1.3,5.5,5.6,9.5,9.9,13.1c4.8,4,8.5,8.7,12.1,13.8
		c3.7,5.2,7.4,10.6,11.8,15.2c8.4,8.8,14.9,18.7,19,30.1c7.1,19.7,19.2,35.5,35.5,48.9c17.4,14.3,33.3,30.3,43.6,50.9
		c3.8,7.5,10,12.8,16.8,17.5c3.3,2.3,6.8,3,10.7,2.9c9-0.1,17.9,0,26.9,0c0,0.7,0.1,1.4,0.1,2.1c-10.9,0.5-21.9,1.5-32.8,1.5
		c-32.1-0.2-64.3-0.9-96.4-1.4c-12.1-0.2-23.7,2.9-35.6,4.5c-18.7,2.5-37.3,1.7-56,0.3c-10.2-0.7-20.4-2-30.6-2.4
		c-44.4-2-88.8-2.8-133.2,0c-14.6,0.9-29.1,2.6-43.7,2.7c-26.3,0.1-52.5-2-78.7-4.3c-26.9-2.4-53.7-2.2-80.6-0.4
		c-31.5,2.1-63,5.1-94.5,3c-36.5-2.4-73.1,0-109.6-1.3c-7-0.3-14,0.2-21,0.4c-2,0-4.1,0.6-6.2-1.7c12.1-1.8,23.7-2.9,35.4-2
		c3.6,0.3,6.7-0.3,10.1-1.6c7.4-2.9,14.3-6.6,21.3-10.2c6.9-3.5,12.7-8.4,16.9-14.9c5.6-8.6,13.4-14.7,22.6-18.8
		c16.3-7.3,30.3-17.2,41.9-30.9c9.3-11,21.8-18.4,33.6-26.6c6.9-4.9,13.9-9.7,20-15.7c5.8-5.8,11-11.9,14.8-19.4
		c5.6-11.2,14.5-19.7,24.1-27.5c0.9-0.7,1.5-0.3,2,0.4c0.1,2.2,3.2,1.4,3.4,3.5l0.2-0.1c-4.8-0.3-8,2.4-11.3,5.6
		c-7.3,7.2-13.3,15.3-17.9,24.5c-0.7,1.4-2.3,2.8-0.3,4.6c2.5,0.2,3.7-2.5,5.9-3c1.7-0.4,3.5-0.7,5,0.6c1.6,1.4,1.2,3.3,0.4,4.8
		c-1.8,3.4-3,6.8-2.7,10.8c0.2,2.6-1.4,4.3-4,5c1.9-6.2,2.2-12.8,5.8-19.6c-7.7,1.2-10.5,5.8-12.4,10.9c-1.4,3.8-3,7.5-6.8,8.5
		c-7.4,1.9-14.1,4.7-20.1,9.4c-1,0.8-2.8,0.8-4.2,0.9c-1.8,0.1-3.3,0.7-4.8,1.8c-9.7,7-19.9,13.6-27.7,22.8
		c-12.1,14.4-27,24.7-44.1,32.3c-7.3,3.2-13.8,8-18.4,14.6C104.8,371,95.4,378,84.2,383c-2.4,1.1-5.5,1.7-7.1,6
		c9.4-1.5,18.1-1.4,26.8-1.2c4.7,0.1,8.1-1.3,11.3-4.9c4.5-5,9.6-9.4,14.6-13.9c4-3.7,8.4-6.8,14.5-6.7
		c-10.7,6.3-17.2,16.8-26.6,24.8c10,0.9,19.6,0.4,29.1,1c30.4,2.1,60.7,0.8,91.1-1.2c26.5-1.7,53-4.1,79.6-1.7
		c4.1,0.4,8.3,0.1,14,0.1c-6.8-4.9-9.8-11-13.8-16.3c-4-5.3-10.5-8.7-11-16.4c6.1,7,13.4,12.9,18.7,20.7c5.7,8.4,12.8,14,24.5,14.4
		c26.3,0.9,52.5,2.8,78.8,1.7c5.1-0.2,10.4,0.1,15.8-1.5c-1.8-4.3-5-6.1-8.5-7.6c-2.9-1.3-6.1-2.2-8.7-4.1
		c-4.5-3.2-9.5-6.3-11.1-14.3c8.1,7.7,15.7,13.1,24.3,16.8c2.7,1.2,4.5,3.7,6.2,6.1c1,1.4,1.9,2.9,4.1,2.8
		c11.1-0.6,22.3-0.4,34.1-2.3c-3-2.7-5.6-4.1-8.3-4.7c-11.8-3-21.2-10-29.2-18.5c-14.8-15.7-32.3-27.8-51.2-37.9
		c-14.9-8-27.1-17.9-32.2-35c-2.1-7-6.8-13.1-13.6-16.6c-5.4-2.8-11.1-5.1-16.8-7.4c-1.4-0.6-3.1-1.9-4.4,0.1
		c-1.3,2.8,3.9,4,1.4,6.9c-2.6-1.9-4.6-4.2-5.5-7.3c3.4,1.1,5.3,0.6,3.5-3.5c3.4-1.5,5.5,2.6,8.7,2.2c0.6,1.3,2.1,1.8,2.7,0.9
		c0.9-1.2-1-1.4-1.6-2.2c-7.9-9.8-17.3-18.4-22.6-30.2c-0.1-0.1-0.5-0.1-0.8-0.1l0.2,0.2c-4.8-6.1-9.5-12.3-14.5-18.3
		c-1.6-2-3.8-3.6-6-5c-5.5-3.7-11.1-3.2-15.7,1.5c-2.4,2.5-4.4,5.4-6.7,8C270.5,220.4,269,223.1,265.5,223.1z M527.7,274.8
		c-0.5-0.9-1-2.3-2.4-1.2c-1.3,1,0.1,1.9,0.5,2.8c1.4,1.8,0.8,6.6,3.8,5.2c3-1.4-0.5-4.1-1.5-6.1C528.1,275.1,527.9,275,527.7,274.8
		z M635.9,170.3l0.2,0.2c1.1-5.1-1.4-9.9-5.8-10.8c-6.4-1.4-12.8,1.5-14.6,8c-2.2,7.8-6.9,13.3-12.6,18.4
		c-5.2,4.7-10.1,9.7-14.1,15.6c-1.2,1.7-3.3,3.2-2.6,6c3.5,0.1,5.4-2.2,7.6-3.9c2.6-1.9,5.7-6.6,8.5-2.8c2.5,3.3-1.9,6.2-4.9,8.3
		c-0.1,0.1-0.4-0.3-0.7-0.5c0.2-1.1,0.8-2.2,0.6-3.2c-0.3-1.2-1.5-0.6-2.1-0.2c-2.8,2.1-5.3,5.3-8.8,5.5c-5.7,0.4-7.9,4.4-10.1,8.3
		c-9,16.2-19.8,30.9-33.1,43.8c-2.5,2.4-2.8,4.5-1.3,7.7c3.2,6.9,6.7,13.6,11.7,19.4c3.6,4.2,6.6,8.6,7.4,14.3
		c-7.1-12-19.6-20.2-22.7-35.1c-5.4,4.9-5.4,4.9-3.4,8.8c4.2,8.4,9.9,15.8,15.4,23.3c3.8,5.1,9.7,6,15.2,7.7c4.2-6.1,6.1,0,8.2,1.8
		c4,3.5,8.1,6.8,12.6,9.3c3.5,1.9,1.1-1.6,1.5-2.6c0.4-0.3,0.9-0.7,1.3-1c4.3,9.4,12.1,15,20.8,19.9c4,2.3,7.6,5.4,11.1,8.4
		c6.2,5.3,12.1,10.9,18.2,16.1c5.3,4.6,11.1,8.4,18,10.1c0.8,0.1,1.8,0.5,2.4,0.2c0.9-0.6,0.1-1.3-0.4-2c-3.1-4.2-6.7-8.1-8.9-12.9
		c-0.9-2-1.8-3.9-0.4-6.6c4.8,6.7,9.8,12.5,13.5,19c1.9,3.3,3.8,4.8,7.3,4.9c11.4,0.5,21.7,4.2,31.2,10.2c2.1,1.3,4,1.8,6.5,1.8
		c19.9,0,39.7,0.2,59.6,0.2c1.7,0,4.1,1.3,5.3-1.4c-4.8-4.4-8.3-9.8-11.7-15.3c-2.9-4.6-6.5-8.1-11.8-9.9c-5.6-1.9-10.4-5.4-14-10.2
		c-4.8-6.3-9.8-12.4-13.9-19.1c-4.9-7.8-9.5-15.8-13.8-25.7c4.5,2.5,5.6,5.6,7.2,8.1c6.6,10.4,13,20.8,20.4,30.6
		c4.3,5.7,9.1,10.7,15.9,13.2c5.7,2.1,9.8,6.1,12.9,11.3c3.1,5.3,6.4,10.5,10.9,14.8c1.7,1.6,3.1,3.6,5.7,3.7c5.1,0.1,10.1,0,16.9,0
		c-10.1-6-14.7-14.5-19.2-22.8c-6.3-11.7-14.5-21.8-24.1-31c-7.4-7.1-14.7-14.2-22.7-20.6c-10.7-8.5-19.4-18.4-24.2-31.6
		c-2.3-6.3-5.3-12.3-8-18.5c-1.8-4-3.3-8.2-6.3-11.5c-13.3-14.7-22.9-32.5-37.9-45.8c-1.2-1.1-2-3.4-4.1-2.1c-2,1.3-2.3,3.2-0.8,5.2
		c0.7,1,1,2,0.4,3.2c-3.9-3-4.8-6.4-1.3-10.2c1.1-1.2,1.6-2.2,1.2-3.8c-2.7-9.9-6.4-19.2-13.1-27.1
		C637.5,168.5,636.5,169,635.9,170.3z M453.6,277.3c-2.5,1.9-3.5-0.5-4.7-1.7c-2.3-2.5,2.1-4.3,0.8-7.2c-1.5,0.2-3,0.8-4.3,0.4
		c-5.9-1.5-9,2-11.9,6.2c-4.1,6-8.4,11.9-12.7,17.8c-4.9,6.8-11.3,12.4-17.2,19c8.1,5.7,15.9,11,24.6,14.3
		c15.2,5.7,23.8,18.6,33.8,30c-5.9-2.7-9.9-7.6-14.4-12c-4.6-4.5-9.2-9.1-15.1-11.9c-9.8-4.7-19.2-9.8-28-16.1
		c-3.6-2.6-3.8-2.4-8,3.1c24.9,11.6,44.4,29.9,63.6,48.8c9.3,9.2,22.9,11.1,33.8,17.8c1.5,0.9,4,0.2,6,0.2c17.7,0,35.4,0,53.1,0.1
		c26.9,0.1,53.7,1.8,80.5,4.3c1.4,0.1,2.8,0.4,4.2-1.5c-2.6-2.9-6.5-3.3-9.9-4.4c-10.7-3.4-19.5-9.2-26.1-18.2
		c-3.9-5.3-8.5-9.6-14.1-12.9c-1.5-0.9-4-1.4-2.8-5.1c5.5,3.7,11.6,6.1,15.3,11.4c8.6,12.3,20.3,19.8,34.5,23.9c1.7,0.5,3.5,1,4.8,2
		c8,6.5,17.4,5.6,26.7,5c6.4-0.4,12.8-0.8,19.1-1.9c4-0.7,8.5-0.4,12.6-3.3c-8-4.8-16-7.6-24.5-7.7c-16.4-0.2-30.3-6.2-41.5-17.8
		c-16.5-17-37.6-27.6-56.3-41.6c-2.7-2-6.2-3.6-9.5-4.3c-11.8-2.3-19.3-10.2-26.2-19.1c-2.7-3.6-4.5-8-10.2-8.5
		c-3-0.3-4.1-3.6-5.2-6.4c-1.1-2.7-1.6-6.3-5.7-6.6c-1.1,1.6-0.6,3-0.5,4.4c0.3,2.3-1,3.1-3.1,3.1c-7.2-0.2-13.2-6.9-13.1-14.6
		c2.6,5.1,5.4,10.1,12.2,11.2c0.9-2.1,0.8-5,3.1-6.7c3-2.2,4.8,3.1,8,1c-2.3-7.1-6.8-11.9-13.5-14.8c-6.9-2.9-12.3-7.4-16-14.2
		c-3.9-7.2-10.4-11.4-18-14.4c-3.9-1.5-6.6-1.3-9.1,2c-1.1,1.4-2.4,2.6-3.4,4c-7.6,10.4-12.8,22.6-22.7,31.4c1.6,1.2,3.4,0.2,5,0.2
		c5.3,0,5.7,0.3,3.7,5.8C450.8,274.8,453,275.6,453.6,277.3z M236.6,261.9c-4.9,6-9.9,11.9-13.9,16.7
		C231.6,279.1,233.5,277.4,236.6,261.9z M532.3,283.3c-0.2-0.2-0.4-0.6-0.6-0.5c-0.4,0.1-0.8,0.3-1.2,0.5c0.2,0.2,0.4,0.6,0.6,0.5
		C531.5,283.7,531.9,283.5,532.3,283.3z"/>
	<path class="st0" d="M114,403.3c6.5-0.2,13-0.6,19.5-0.5c13.1,0.1,26.3,1.2,39.3-1.2c11.1-2,22-0.4,33,1c18.3,2.3,36.6,3.2,55,1.5
		c17.4-1.7,35-1.7,52.5-1c6.1,0.3,12.2,0,18.3,0.8c-2.9,2-6.2,1.7-9.4,1.8c-15.2,0.6-30.4-1.4-45.6,0.2c-18.7,1.9-37.3,2.1-56,1
		c-6.7-0.4-13.3-1.4-19.9-2.3c-9.9-1.3-19.7-1.9-29.6,0.2c-6.9,1.5-14,1.1-21,1c-12-0.2-24-0.5-36-0.8
		C114,404.4,114,403.8,114,403.3z"/>
	<path class="st0" d="M465,410.1c11.2-3.7,22.9-3.4,34.4-4.5c10.4-1,20.9-1.9,31.2-3.5c9.4-1.5,18.6,0.7,27.8,1.7
		c16,1.8,32,1.1,48.1,0.4c5.5-0.3,11-0.8,16.8-0.3c-1.5,2.8-4.1,2.6-6.1,2.7c-22.4,1.7-44.8,3.7-67.1-0.9
		c-9.3-1.9-18.5-0.6-27.8,0.7C503.4,408.9,484.3,409.9,465,410.1z"/>
	<path class="st0" d="M726.9,403.9c36.3-0.5,72.6,0.8,108.8-2.4C817.9,405.9,787.9,409.1,726.9,403.9z"/>
	<path class="st0" d="M434.1,405c-25.1,0-50.3,0-75.4,0C383.9,400.1,409.1,403.9,434.1,405z"/>
	<path class="st0" d="M680.7,402.8c-12.8,4.9-25.9,5.2-39,3.4c6.3-1.9,12.8-1,19.2-1.4C667.4,404.3,674,403.4,680.7,402.8z"/>
	<path class="st0" d="M588.6,419c8-3.5,18.3-4.3,27.6-2.2C606.3,418.8,597.5,420.2,588.6,419z"/>
	<path class="st0" d="M241.5,328.5c-4,11.5-11.7,20.2-18.9,29.3c-3.6,4.6-8.7,7.6-14.1,10.1c-5.7,2.5-10.5,6.1-13.8,12.1
		c4.3,1.8,6.9-0.9,9.8-2.4c7.2-3.8,14.3-7.9,21.5-11.7c3.9-2,7.9-3.7,12.1-4.9c9.1-2.6,10.5-2.3,15.5,5.8c3.3,5.3,8.1,6.1,13.6,5.6
		c6.7-0.5,13-3.1,19.5-4.6c1.9-0.5,3.7-1.9,6.8-0.2c-10.3,5-20.2,8.6-31.2,8.1c-4.9-0.2-8.7-2.7-11.4-7.1c-3.8-6.3-5.5-7-12.6-4.5
		c-4.4,1.5-8.7,3.4-12.8,5.6c-7.5,3.9-14.7,8.3-22.2,12.2c-3.5,1.8-8,4.8-11,0.4c-2.9-4.3,1.4-7.4,4.2-10.3c2.9-3,6.3-5.3,10-6.9
		c8.2-3.7,14.4-9.5,19.8-16.7C231.3,341.6,236.4,334.9,241.5,328.5z"/>
	<path class="st0" d="M281.3,298.3c1.2-2.2,2.6-4.4,3.6-6.8c2-4.4,2.8-8.8,0.2-13.4c-1.4-2.5-2.7-5.3-1.3-8.3
		c0.9-1.9,2.1-3.5,4.4-3.7c2.4-0.3,4,1,4.6,3.1c1.8,6.4,6.1,11.6,7.2,18.6c1,6.6,5.8,12.4,8.4,18.9c1.3,3.1,4.9,4.4,8.3,3
		c4.1-1.7,3-5,1.6-8.1c-0.2-0.5-0.1-1.1-0.1-1.7c4.6,1,4.6,4.6,3.4,7.6c-1.1,2.7-3.4,5.3-7.2,5.2c-4.5-0.1-7.9-3-10-8.3
		c-4.3-10.9-8.6-21.8-13-32.6c-0.5-1.2-0.9-3.1-2.7-3c-2.3,0.2-2.4,2.4-2.2,4c0.3,2,1.3,3.8,1.8,5.7c2,7.2,0.7,13.8-4.3,19.5
		C283.3,298.9,282.4,299.7,281.3,298.3z"/>
	<path class="st0" d="M270.9,278.8c3.7,2.2,2.3,5.6,1.4,8.3c-1.1,3.3-3.1,6.2-3.2,9.8c-0.1,6.6,0,13.2,0,20.2c4.3-0.3,4.4-3.1,5-6.1
		c1-5.1,2.3-10.1,7.4-12.9c1.4,1,0.6,1.8-0.1,2.7c-2.6,3.6-4.5,7.4-5,11.9c-0.5,4.6-3.5,7-8.7,8.3c-2.1-10.7-2.7-21.1,0.8-31.1
		C269.8,286.2,270.6,282.6,270.9,278.8z"/>
	<path class="st0" d="M156.1,354.8c9.5-12.1,22.3-20.4,33.7-30.4C181.5,337.9,167.9,345.4,156.1,354.8z"/>
	<path class="st0" d="M235.9,284.1c-0.8,4.4-0.5,8.8,0.2,14.9c2.5-6.7,5.1-11.8,12.2-11.3c-5.5,3.6-9.4,8-9.6,15.1
		c-0.1,1.9-1.1,3.9-2.8,5.3c-2.3,1.8-5.1,4.3-7.7,2.3c-2.9-2.2,0.3-4.7,1.6-6.5c2.3-3.3,3.2-6.8,2.9-10.7
		C232.3,289.6,232.2,286.2,235.9,284.1z M231.7,307.4c3.7-1.9,4.8-3.8,3.8-7.2C233.4,302,232.3,303.9,231.7,307.4z"/>
	<path class="st0" d="M303.7,347.3c-3.6-4.7-4.5-9.8-5-14.9c-0.5-5-1.7-9.5-4-14c-2.6-5-3.8-10.5-0.8-16.1
		C295.5,317.5,304,331.1,303.7,347.3z"/>
	<path class="st0" d="M255,279c1.2-3.2,2.4-6.4,3.4-9.7c0.8-2.7,2.5-4.6,4.8-5.8c3.2-1.7,5.6-0.2,5.8,3.5c0.2,3.4,0.2,6.9,0.2,10.3
		c-4.5-0.9-3.5-4-2.7-6.9c0.4-1.7,1-3.7-1.1-4.3c-2-0.6-3.3,1.1-4,2.7c-1.1,2.7-1.7,5.5-2.9,8.2C257.9,278.1,257.5,280.6,255,279z"
		/>
	<path class="st0" d="M309.5,277.3c-2.1-1.7-3.9-3.7-2.8-6.6c0.8-2.2,2.5-3.8,4.7-4.9c1.1-0.5,2.5-1.2,3.2-0.3
		c3.1,3.8,8.6,5.1,10.7,10c-3.5-0.9-6.2-3-8.7-5.5c-1.5-1.5-2.9-2.9-5.2-1.5c-2.4,1.5-2.9,3.6-1.7,6
		C310.2,275.6,310.8,276.4,309.5,277.3z"/>
	<path class="st0" d="M334,282.3c1.9,0.9,2.9,2.6,4.1,4.2c1.1,1.4,2.7,2.5,4.3,1c1.5-1.4,0.4-3.1-0.1-4.7c-0.7-2.1-4.7-2.5-3-5.8
		c3.3,1.1,4.8,3.9,6.3,6.7c1.3,2.5,0.3,4.5-1.5,6.1c-2,1.8-4.5,1.7-6.1-0.3C336.2,287.5,332.9,286,334,282.3z"/>
	<path class="st0" d="M318.3,300.1c-3.6-5.4-3.2-11.7-3.7-17.8c2.9-0.1,1.9,2.2,2.2,3.6C317.8,290.7,319.3,295.3,318.3,300.1z"/>
	<path class="st0" d="M366.8,312.8c3.4,2.4,5.6,5.7,8.1,9.4C369.5,319.8,369.5,319.8,366.8,312.8z"/>
	<path class="st0" d="M325.2,275.4c4.6,0.4,5.7,5.2,9,7.1C328.7,283.3,327.2,279,325.2,275.4z"/>
	<path class="st0" d="M405.1,351.5c2,2.3,4,4.6,6,6.9c-3.6-0.5-5.7-2.6-7.1-5.6C404.4,352.4,404.8,352,405.1,351.5z"/>
	<path class="st0" d="M378.9,326.4c4.6,1.6,6.3,3.7,8.2,6.8C383,333,381.6,330.3,378.9,326.4z"/>
	<path class="st0" d="M339.5,277.2c-4.7,1.1-6.5-2.7-9-5.3C335,271.1,336.7,275,339.5,277.2z"/>
	<path class="st0" d="M244.8,278.9c-2,2-3.8,4.5-7.3,3.5C239.2,280,241.1,277.7,244.8,278.9z"/>
	<path class="st0" d="M393.6,342.3c-1.1-0.9-2.5-1.6-1.9-3.4c0,0,1.1,0.1,1.5,0.4c1,0.9,2.4,2,0.3,3.2L393.6,342.3z"/>
	<path class="st0" d="M249.7,284.2c0.8-1.6,1.8-3.1,3.7-3.7C254,283.6,252.7,284.9,249.7,284.2z"/>
	<path class="st0" d="M248.1,287.8c-1.7-2.4,0.5-2.8,1.8-3.8C251.7,286.5,250.1,287.3,248.1,287.8z"/>
	<path class="st0" d="M314.8,282.6c-1.4-0.9-3.4-1.5-1.8-3.8C314.4,279.7,316.4,280.3,314.8,282.6z"/>
	<path class="st0" d="M313.2,279c-2.3,1.7-2.9-0.5-3.8-1.8C311.7,275.5,312.3,277.6,313.2,279z"/>
	<path class="st0" d="M393.5,342.6c2.1-2.3,2.9-0.1,3.9,1.2c0,0,0.2-0.1,0.2-0.1c-2.1,2.1-2.9-0.2-4-1.3
		C393.6,342.3,393.5,342.6,393.5,342.6z"/>
	<path class="st0" d="M404,352.8c-0.8-0.3-1.6-0.9-1.3-1.6c0.8-1.5,1.6-0.3,2.4,0.3C404.8,352,404.4,352.4,404,352.8z"/>
	<path class="st0" d="M400.7,347.4c0.9,0.2,1.4,0.7,1.1,1.7c-0.1,0.1-0.6,0.3-0.8,0.1c-0.8-0.6-0.8-1.3-0.1-2L400.7,347.4z"/>
	<path class="st0" d="M400.8,347.2c-0.7,0.1-1.2,1-2,0c-0.9-1,0.2-1.3,0.3-1.9l-0.2,0.2c1,0.2,1.6,0.8,1.7,1.9
		C400.7,347.4,400.8,347.2,400.8,347.2z"/>
	<path class="st0" d="M399.2,345.3c-0.7,0.1-1.1,1.1-2,0.2c-1-1,0.3-1.3,0.4-1.9c0,0-0.2,0.1-0.2,0.1c0.9,0.3,1.5,0.8,1.7,1.8
		C399,345.6,399.2,345.3,399.2,345.3z"/>
	<path class="st0" d="M191.1,321.1c0.2,0.3,0.4,0.7,0.5,1.1c0,0.1-0.3,0.4-0.5,0.6c-0.2-0.4-0.4-0.8-0.5-1.2
		C190.6,321.5,191,321.3,191.1,321.1z"/>
	<path class="st0" d="M200.7,314c0,0.7-0.3,1.1-0.9,1.1c-0.1,0-0.3-0.8-0.1-1.1c0.3-0.5,0.8-0.4,1.3,0.2
		C200.9,314.1,200.7,314,200.7,314z"/>
	<path class="st0" d="M202.7,312.5c-0.2,1.1-0.9,1.6-2,1.5c0,0,0.2,0.1,0.2,0.1c-1.8-1.4,0-2.1,0.6-3
		C202,311.6,202.4,312,202.7,312.5z"/>
	<path class="st0" d="M204.5,310.8c-0.2,1-0.7,1.6-1.8,1.7c-0.4-0.5-0.8-0.9-1.2-1.4c0.6-0.6,1.2-1.2,1.8-1.8
		C203.8,309.8,204.1,310.3,204.5,310.8z"/>
	<path class="st0" d="M203.4,309.3c0.8-0.5,1.7-1.6,2.4-0.1c0.3,0.7-0.5,1.3-1.3,1.5C204.1,310.3,203.8,309.8,203.4,309.3z"/>
	<path class="st0" d="M237.7,282.3c1,2.3,0.3,2.9-1.9,1.9C235.7,283,236.4,282.3,237.7,282.3z"/>
	<path class="st0" d="M253.3,280.8c0.1-1.2,0.6-2,1.9-1.9c0.1,0.7,1,1.2,0.1,2.1C254.4,281.8,253.9,280.9,253.3,280.8z"/>
	<path class="st0" d="M269.1,277.1c1.4-0.1,2,0.6,1.9,1.9C268.7,280,268.2,279.3,269.1,277.1z"/>
	<path class="st0" d="M633.3,251.4c1.7,5,1.3,10.1,1.2,15.2c-0.1,4.7,0,9.6,2.1,13.7c6.2,12.5,8.8,25.7,9.3,39.6
		c0.2,6.6,1.3,13.2,2.1,20.3c-4-1.9-4.3-5.6-4.9-8.7c-1.3-6-2.2-12-1.9-18.2c0.4-8-0.8-15.8-4.2-23
		C628.4,272.4,631.4,271.6,633.3,251.4z"/>
	<path class="st0" d="M558,269.8c5.8-13.7,12.1-27.1,22.8-37.9C573.3,244.6,567.4,258.2,558,269.8z"/>
	<path class="st0" d="M618.2,217.4c7.7,2.6,7.4,10,9.4,16.5c2-6.2,2-6.2,0.6-11.5c-1.6-5.9-2.8-11.7,0.7-17.4
		c-0.2,7.3,0.2,14.3,2.5,21.4c1.7,5.2-0.3,10-4.5,13.5c-0.7-0.5-1-0.6-1.1-0.8C624.7,231.5,622.9,223.9,618.2,217.4z"/>
	<path class="st0" d="M647.9,215.8c2.8-1.8,3.4,0.8,4.2,2.3c1.3,2.5,2.3,5.3,3.4,8c1.3,3,3.5,4.6,6.9,3.8c3.6-0.9-0.9-4.1,1.5-5.4
		c2.1,1.5,4.5,3.1,2.3,6.1c-1.9,2.6-4.5,3.3-7.6,2c-2.8-1.2-4.5-3.3-5.6-6.1C651.5,222.8,649.6,219.3,647.9,215.8z"/>
	<path class="st0" d="M595.3,217.5c3.3,2,4,2.9,3.4,5.7c-0.5,2.2-1.7,4.3-2.3,6.6c-0.6,2.3-2.9,4.5-1.1,7.2l0.2-0.2
		c-0.8-0.3-1.4-0.4-1.7,0.6c-0.4,1.5,0.1,2.5,1.6,3l-0.1-0.1c0.5,3.8-2.3,3.8-5.1,4.9c-0.8-7,2.8-12.2,4.5-17.8
		C595.9,224.1,597.5,220.9,595.3,217.5z"/>
	<path class="st0" d="M686.5,268.5c0.5-0.1,1.3-0.5,1.4-0.3c4.8,7.4,10.4,14.4,13.4,23.7c-5.8-4.6-12.1-15-14.5-23.5L686.5,268.5z"
		/>
	<path class="st0" d="M637.5,194.6c2.7,1.9,3.5,5.1,2.8,7.6c-1.3,4.9,1.5,6.8,4.7,9.1c1.5,1.1,4.6,1.4,3.1,4.7
		C636.9,212.6,637,203.7,637.5,194.6z"/>
	<path class="st0" d="M580.8,306.6c-8.1-5.2-12.5-11.3-15.4-21.5C570.8,292.7,575.3,298.9,580.8,306.6z"/>
	<path class="st0" d="M628.6,205.4c-0.1-3.4,1.6-6.6,0.3-10.2c-1.1-3-1.1-6.7,3.3-7.5c3.9-0.7,4.5,2.6,5.3,5.4
		c0.2,0.5,0.1,1.1,0.1,1.7c-3.7,0.4-1.8-6.3-5.3-4.8c-4.2,1.8-0.8,5.4-0.6,8.3C632,201.1,631.8,204,628.6,205.4z"/>
	<path class="st0" d="M598.8,233.5c1.2-6.5,2.4-13.1,3.8-19.6c0.3-1.6,0.4-4.2,3.5-3.4c-2.3,5.1-2.1,10.7-3.6,15.9
		C601.8,229,602,232.1,598.8,233.5z"/>
	<path class="st0" d="M588.3,317.6c-3.7-2.9-6.3-6.6-8.4-10.8c4.6,2,7,5.9,9.7,9.7C589.2,316.9,588.8,317.3,588.3,317.6z"/>
	<path class="st0" d="M620.1,206.9c0.2,3.7-2.9,6.9-1.8,10.7C615,213.7,615.3,212,620.1,206.9z"/>
	<path class="st0" d="M618.1,198.3c0.7-2.7,2.6-2.2,3.2-0.5c1.1,3.1,1.7,6.6-1.4,9.3C618.6,204.4,622.4,200.5,618.1,198.3z"/>
	<path class="st0" d="M597.2,208.6c-0.6,3-1.2,6-1.8,9.1C591.3,213.7,594,211.1,597.2,208.6z"/>
	<path class="st0" d="M595.3,237c2.5,0,1.4-3.6,3.7-3.8c0.3,3.1,0.2,6.1-3.6,7.1c0,0,0.1,0.1,0.1,0.1c0-1.2,0.1-2.4,0.1-3.6
		L595.3,237z"/>
	<path class="st0" d="M609.3,205.3c1.7-1.4,1.9-5.1,5.5-3.6C613.1,203.1,612.8,206.6,609.3,205.3z"/>
	<path class="st0" d="M614.7,201.9c-1.2-3.6,1.2-3.8,3.7-3.7C617.7,200,616.3,201,614.7,201.9z"/>
	<path class="st0" d="M605.9,210.7c-1.6-2.3,0.4-2.9,1.8-3.8C609.3,209.2,607.2,209.8,605.9,210.7z"/>
	<path class="st0" d="M655.1,215.9c-2.1-0.5-2.1-2.1-1.9-3.8C655.7,212.5,655.9,214,655.1,215.9z"/>
	<path class="st0" d="M656.8,219.4c-1.6-0.8-2.2-2-1.9-3.8C657.4,216,658.4,217.1,656.8,219.4z"/>
	<path class="st0" d="M664,224.6c-2.4,1.7-3.1-0.1-3.8-1.8C662.5,221.1,663.1,223.3,664,224.6z"/>
	<path class="st0" d="M686.7,268.4c-0.3-0.3-0.7-0.5-1-0.8c0.3,0,0.8-0.2,1-0.1c0.5,0.3,0.4,0.7-0.2,1.1
		C686.5,268.5,686.7,268.4,686.7,268.4z"/>
	<path class="st0" d="M660.4,222.9c-1.3,0-2-0.6-1.9-1.9C660.7,220.1,661.3,220.7,660.4,222.9z"/>
	<path class="st0" d="M658.6,221.2c-1.3,0-1.7-0.8-2-1.9C659.1,218.1,659.4,219.2,658.6,221.2z"/>
	<path class="st0" d="M653.4,212.4c-1.4,0.1-1.8-0.8-2-1.9C653.8,209.4,653.3,211.2,653.4,212.4z"/>
	<path class="st0" d="M607.6,207.1c0.2-1.1,0.9-1.7,2-2C610.3,207.3,609.7,207.9,607.6,207.1z"/>
	<path class="st0" d="M462.2,277.3c-2.5-0.1-3.7-1.8-3.8-4c-0.2-3.6,5.9-7.7,12-8.3c4.8-0.5,7.1,1.2,7.3,6.2c0.2,4,0.6,7.2,4.4,9.6
		c4.6,3,2.1,7.2,1,11c-1.8,6.5-1.5,7.1,5.4,11.1c-0.4-6.1,1-11.5,3-16.8c1.4-3.9,2.1-7.3-1.9-10.8c-3.4-3-2.5-5.1,2.5-10.6
		c-0.8,4.3-2.3,8.6,2.5,12c2.3,1.7,1.2,4.7,0.5,7.3c-1.4,5.6-3.7,10.9-2.8,17c0.5,3.5-2.2,5-5.7,4.3c-4.2-0.9-7.2-4.8-7-9.8
		c0.1-2.3,1.1-4.5,1.6-6.7c0.6-2.7,0.7-5-2.1-6.8c-3.2-2-4.2-5-4.2-8.9c0.1-6.2-1.2-6.8-7.3-4.7C461.9,270.4,461.5,271,462.2,277.3z
		"/>
	<path class="st0" d="M538.8,381.9c-3.9-1.2-5.3-3.9-6.8-6.3c-2.9-5-6.2-10-8.3-15.4c-4.3-10.8-8.6-21.4-16.9-30.3
		c-4.4-4.8-5.9-11.7-7.7-18.2C516.6,332.4,526.3,357.3,538.8,381.9z"/>
	<path class="st0" d="M453.3,277.1c3.5,2.9,2,6.1,0.6,9.3c-2.4,5.3-3.3,11-4.7,16.6c-0.4,1.4-0.7,3.1,1.3,3.3c2.1,0.2,5-0.7,4-3
		c-2.9-6.5,1.7-9.7,5.2-13.3c3.8-3.9,6-7.8,2.3-12.9c4.9,1.2,6.2,3.3,4.6,7.8c-1.1,3.1-3.2,5.5-5.5,7.8c-2.7,2.7-4.8,5.3-4.2,9.8
		c0.6,4.3-1.8,6.3-6.1,6.6c-3.8,0.3-5.5-1.3-4.7-5.2c1.1-5.1,2.1-10.3,4.1-15.1C451.9,285,452.5,281,453.3,277.1z"/>
	<path class="st0" d="M562.3,361.3c-0.5,0.2-1.2,0.8-1.4,0.6c-7.9-5-14.6-11.2-18.6-20.1c6.6,6.5,13.2,13.1,19.8,19.6L562.3,361.3z"
		/>
	<path class="st0" d="M572.7,338.5c4.4,2.6,8.1,5.8,11.1,9.8c-0.4,0.5-0.8,1-1.2,1.4c-3.7-3.4-7.4-6.8-11-10.2
		C572,339.2,572.4,338.9,572.7,338.5z"/>
	<path class="st0" d="M537.6,309.6c4,1.9,6.5,5.2,8.5,9.1C541.5,317.4,539.2,313.9,537.6,309.6z"/>
	<path class="st0" d="M491.8,265c3-3.8,6-3.1,9,0C497.8,266,494.8,264.8,491.8,265z"/>
	<path class="st0" d="M571.1,336.7c-2.2,2-2.9-0.7-4.2-1.4l-0.2,0.1c2.3-2.3,3.2-0.3,4.2,1.4L571.1,336.7z"/>
	<path class="st0" d="M570.8,336.9c1.1,0,1.7,0.5,1.9,1.6c-0.4,0.4-0.8,0.7-1.2,1c-0.7-0.8-2.1-1.5-0.5-2.8
		C571.1,336.7,570.8,336.9,570.8,336.9z"/>
	<path class="st0" d="M562.1,361.4c0.8,0,1.4,0.3,1.3,1.2c0,0.1-0.5,0.3-0.7,0.3c-0.9-0.3-1-0.9-0.4-1.6
		C562.3,361.3,562.1,361.4,562.1,361.4z"/>
	<path class="st0" d="M566.9,335.4c-0.4-0.6-0.9-1.1-0.2-1.7c0.1-0.1,0.6,0,0.7,0.2c0.4,0.8,0.1,1.4-0.8,1.7
		C566.6,335.5,566.9,335.4,566.9,335.4z"/>
	<path class="st0" d="M500.6,264.8c1.5-0.2,2,0.5,1.9,1.9C500.2,267.8,499.8,266.9,500.6,264.8z"/>
	<path class="st0" d="M283.6,246.2c11.7,7.4,15.6,7.1,21.4-1.9c0,7.3-2.4,10.3-9,9.5C291,253.1,286,251.4,283.6,246.2z"/>
	<path class="st0" d="M269.2,226.3c1.9,0.5,2.6,2.1,3.3,3.7c0.4,0.9,0.9,2.1-0.7,3.8c-0.5-3-4.2-4.1-2.3-7.6
		C269.4,226.2,269.2,226.3,269.2,226.3z"/>
	<path class="st0" d="M328.9,261.5c-3.4-0.3-5.3-1.9-5.4-5.5C326.1,257,328.4,258.4,328.9,261.5z"/>
	<path class="st0" d="M323.6,256.2c-1.2,0.6-2.5,0.5-3.7,0c-0.5-2.2,1.1-2.3,2.4-2.2C323.4,254,324.4,254.8,323.6,256.2z"/>
	<path class="st0" d="M308,234.3c-0.3,0.4-0.6,1-1,1c-1,0.1-1.5-0.5-1-1.4c0.2-0.3,0.9-0.6,1.4-0.6C307.5,233.3,307.8,234,308,234.3
		z"/>
	<path class="st0" d="M315.1,231.9c-2.2,1.1-2.2,1.1-5.2,1.1c1.3-3.1,3.6-0.5,5.3-1C315.3,232,315.1,231.9,315.1,231.9z"/>
	<path class="st0" d="M274.3,238.7c-1.5-0.9-2.9-2.4-1.1-3.6c1.2-0.8,1.6,1.6,2.2,2.6C275,238.1,274.6,238.4,274.3,238.7z"/>
	<path class="st0" d="M320.1,256c0,1.2,0,2.5,0,3.7c-1.3,0.7-1.9,0.2-2-1.1C318,257.2,318.3,256,320.1,256z"/>
	<path class="st0" d="M323.4,263.1c1.6-0.3,2.2,0.4,2,2C323.8,265.3,323.2,264.6,323.4,263.1z"/>
	<path class="st0" d="M321.7,261.3c1.5-0.2,2.3,0.3,1.9,2C322.4,263.2,320.6,263.7,321.7,261.3z"/>
	<path class="st0" d="M320,259.5c1.3,0,2.1,0.5,1.9,1.9C319.9,262.2,318.8,262,320,259.5z"/>
	<path class="st0" d="M275.4,237.7c0.6,0.8,1.7,1.8,0.2,2.6c-0.6,0.3-1.2-0.7-1.3-1.6C274.6,238.4,275,238.1,275.4,237.7z"/>
	<path class="st0" d="M468.7,245.2c3.9,2.9,8.2,4.8,14.2,6.8C475.3,253.1,471.3,250.3,468.7,245.2z"/>
	<path class="st0" d="M487,251.6c2.3-1.6,4.3-1.7,6.6,0C491.3,253.5,489.2,253.6,487,251.6z"/>
	<path class="st0" d="M621,178c0,7-2.4,9-13.5,9.6C613.9,185.2,619.3,183.8,621,178L621,178z"/>
	<path class="st0" d="M635.9,170.3c-1.4,2.3-3.4,3.4-6.1,3.7c2.1-3,2.1-3,6.3-3.5C636.1,170.6,635.9,170.3,635.9,170.3z"/>
	<path class="st0" d="M621.1,178c0.5,0,0.9,0.1,1.4,0.1C621.9,179.8,621.5,177.9,621.1,178C621,178,621.1,178,621.1,178z"/>
</g>
<g>
	<path class="st0" d="M1736,386.3c-0.1,0.8-0.1,1.3-0.1,1.3c-26.2-0.9-52.4,3.7-78.6,2c-16.5-1.1-32.9-3.8-49.3-5.6
		c-22.8-2.5-45.7-3.1-68.5,0.1c-18.3,2.5-36.6,2.9-55,2.8c-22-0.2-44-0.7-66-0.1c-18.6,0.5-37.3,2.2-55.9,3.9
		c-20.6,1.9-41,0.9-61.4-1.7c-39.5-5-79.1-8.7-118.9-5.7c-24.4,1.8-48.8,0.3-73.2,0.2c-31-0.2-62-0.1-92.9,4.3
		c-26.1,3.7-52.2,2.4-78.3-1.6c-17.9-2.8-36-1.8-54.1-0.5c-14.1,1-28.2,2-42.4,2.8c-2.2,0.1-4.7,0.4-7.3-2.2
		c7.5-0.8,14.3-1.7,21.1-2.2c3.7-0.3,7.1-0.9,10.3-2.9c22.2-14,46.7-22.1,71.7-29c37-10.1,71.1-26.2,101.2-50.2
		c15.1-12,31.8-21.7,49.2-30.8c-1.6-3.4-5.4-2.7-7.4-4.9c-1.7-1.9-3.5-1.3-5.6-0.1c-7.5,4.3-14.7,2.2-21-2.5
		c-3.2-2.4-5.1-2.5-8.6-0.7c-6.9,3.6-14.3,2.7-20.5-1.8c-3.1-2.2-5.2-2.4-8.8-1.7c-10.9,2.1-17.5-2.2-21.3-12.8
		c-0.3-0.8-0.7-1.6-1.1-2.4c-4.7-9.1-3.7-14.6,4.1-20.9c2.6-2.1,5.6-3.5,8.9-4.2c4.5-1,8.8-0.9,13.4-0.6c4.4,0.3,4.7-6.4,9.1-7.8
		c8.5-2.7,17.1-3.4,26.5-0.4c1.4-4.7,2.2-10,7.4-12.3c7.8-3.4,16-3.1,24-1.6c3.6,0.7,5.6,1,8.3-2.3c5.8-7,14-5.8,21.8-4.8
		c2.6,0.4,5.1,1.7,7.7,2.6c1.4,0.5,2.7,1.2,4.1-0.2c6.1-6.7,13.6-5.3,20.9-3c3.5,1.1,5.7,0.9,8.8-1.3c6.3-4.6,13.9-2.9,21-2
		c2.3,0.3,4.3,1.7,6.5-0.7c4.9-5.2,11-4.3,16.8-2c5,2,8.6,1.3,12.9-2.3c10.3-8.9,22.8-14.6,35-20.5c7.2-3.5,13.6-7.6,17.9-14.6
		c2.4-3.9,6.1-6.7,10.1-8.9c5.7-3.3,11.5-4.4,18.1-1.9c15.1,5.6,29.2,12.6,39.7,25.5c9.4,11.6,23.2,17.2,36.3,23
		c10,4.4,19.5,9.4,27.8,16.5c9.5,8,20,14.5,31.1,20c15.3,7.6,28.8,17.4,40.4,30c1.6,1.8,3.6,3.3,5.1,5.1c3.1,3.6,6.4,4.7,11,2.6
		c6-2.7,12.6-2,18.7-1c5.5,0.9,11.5,2.5,13,9.4c0.8,3.4,3.7,2.5,5.7,3.2c9,3,12.1,6.7,12.3,16.3c0.1,3,1.3,4.2,3.6,5.4
		c9.3,4.9,18.6,9.9,27.9,14.8c12.4,6.4,23.9,14.2,33.4,24.4c8.4,8.9,18.1,15.8,29,21.3c17.5,8.9,34,19.4,50.6,29.7
		c4.3,2.7,8.3,4.1,13.5,3.8C1709.4,384,1722.8,384.1,1736,386.3z M1527.7,285.3c0.8-0.3,1.6-0.9,2.4-1c4.4-0.5,5.7-2.1,3.9-5.7
		c-2-4.1-5.7-5.9-10-6.8c-3.8-0.8-7.8-1.3-7.7-6.9c0-2.7-2.8-3.9-5-4.7c-8.4-2.9-16.7-3.7-25.5,1c7.2,6.4,15.5,8.7,24.4,10.1
		c-4.8,0.2-8.3,2.3-10.8,6c-2.8,4.3-0.7,8.2,4.3,8.7c3,0.3,6.3-0.5,9.6,1.9c-13.2,1.2-13.2,1.2-17.4,7.4c-10.2-5.3-20.4-7.5-31.3,0
		c1.5,1.6,2.6,2.6,3.4,3.8c0.9,1.2,3.3,2.1,1.4,4.3c-17.6-11-19.5-11.4-28.6-6.4c2,2.8,5.6,4.9,4.3,9.2c-1.9-0.2-2.6-1.6-3.5-2.8
		c-5.9-7.6-14.1-8.5-22.8-7.7c-7.4,0.7-12,4.8-13.1,13.2c-6.8-4.6-13.4-5.8-20.3-3.7c-7.4,2.3-10.4,7.9-10.5,15.5
		c-10.3-4.2-16.5-3-21.5,3.8c-3.6,4.8-3,10.9,1.9,13.2c6.3,3.1,13.6,4.9,20.1,2.9c5.3-1.6,9.8-1.5,14.8-0.5
		c3.8,0.8,8.3,1.8,11.3-1.1c4.3-4.1,8.9-3.8,14.1-3.7c6.6,0.2,14,0.3,18.6-5c3.9-4.5,8.4-5.3,13.5-5.6c3.9-0.3,7.9-0.1,11.7-0.7
		c4.4-0.7,9.1-1.4,11.8-5.7c2.7-4.3,6.3-5,10.9-3.9c5.3,1.2,10.8,1,16.2,0.9c2.7,0,5.8,0,7.7-1.9c4.2-4.2,9.5-4.6,14.8-5.6
		c5.6-1,11.3-2.1,16.1-5.5c2.9-2,4.3-4.8,1.2-7.4C1534.7,291.7,1532.6,286.9,1527.7,285.3C1527.8,285.3,1527.7,285.3,1527.7,285.3z
		 M1098.1,239.6c3.8-4.3,8.8-2,13.3-2.2c4-0.2,7.4,4.2,10.9,3.4c3.5-0.9,6.8-4.5,10.6-4.2c8.6,0.7,11.6-5.8,16.3-10.4
		c-1.3-1.9-2.9-1.7-4.3-1.9c-5.5-0.9-10.7-2.3-15.6,2.7c-3,3.1-8.2,3.3-12.8,3.4c-2.4,0.1-4.8-0.3-6.8,1.4c-3.5,2.9-7.8,2.7-12,2.9
		c-2.2,0.1-4.8-1.3-6.6,1.3c-4.1,2.6-6.3-1.6-9.1-2.8c-5.9-2.7-11.6-3.9-18.2-3.1c-4.1,0.5-7.6,3.1-11.6,3.3
		c-0.7-3.1,1.5-3.8,2.9-4.3c8.4-3.3,16.8-4,25.5-0.6c7.7,3,16.2,4.6,23.5,1.6c5.8-2.4,11.3-2.8,17.1-3.6c2.7-0.4,6.2-0.7,7.4-2.8
		c3.2-5.8,7.5-4.1,12.3-3.1c6.2,1.2,12.5,1.6,18.3-2.2c8.6-5.7,17.7-10.3,26.9-14.9c7.9-3.9,14.6-9.2,20.9-16.2
		c-6.2-2.4-12.3-6-17.2-0.9c-3.5,3.7-6,3.1-9.9,2.3c-7.9-1.7-16.1-3.8-22.4,4.1c-1.8,2.3-3.6,1.2-5.5,0.1c-4.4-2.4-9.2-2.6-14.1-2.4
		c-2.6,0.1-5.3,0.8-6.1,3.2c-1.7,5.1-4.4,3.7-7.5,1.8c-1.5-0.9-3.2-1.9-4.9-2.2c-8.3-1.2-17.2-3.7-23.2,4.8
		c-2.3,3.3-3.9,3.8-7.2,2.1c-1.8-0.9-4-1.2-6.1-1.6c-14.3-2.4-21.4,1.9-25.1,15.4c-1.9,0.7-3.4-0.4-5.1-0.8
		c-6.2-1.7-12.6-1.3-18.8-0.2c-3.2,0.6-7.5,1.9-7.4,5.5c0.2,6.9-3.2,4.3-6.7,3.7c-10.3-2-19.7,1.5-24,8.6c-2.7,4.6-2.4,7.2,1.4,11.1
		c0.9,1,3.2,1.1,2.4,3.1c-1.4,3.5,0.3,5.7,2.6,7.9c2.6,2.4,5.8,3.1,9,4c4.2,1.2,7.7-3.5,11-2.3c3.3,1.2,5.3,5.4,9.4,6.3
		c7.1,1.5,13.6,0.5,18.9-5.2c1.3,1.4,2,2.4,2.9,3.2c7.4,7,13.7,7.8,22.5,2.5c2.3-1.4,3.4-0.9,5.3,0.7c6.3,5.2,13.3,6.8,20.8,2.3
		c2-1.2,3.6-1.5,5.7-0.1c9.1,6.1,18.7,5.9,28.3,1.7c4.2-1.9,7.7-1.6,11.9,0c8.6,3.2,17.6,3.9,26.6,0.8c2-0.7,4.3-1.6,6.1-1.2
		c10.8,2.8,21.2-1.7,32-1.5c7.8,0.2,15.9-2.2,24-2.7c5-0.3,6.6-5.8,11.2-6.9c1.4-0.3,0.3-2.7,0.7-4.1c3.7,2,4.7,4,2.3,5.5
		c-5.2,3.3-9.1,8.6-16,9.2c-14.2,1.2-28.4,2.7-42.6,4c-3,0.3-6,0.2-9-0.2c-3.1-0.4-5.8-0.1-8.8,1c-9.1,3.5-18.3,3-27.3-0.7
		c-3.5-1.5-6.6-2.2-10.1-0.1c-4.8,2.8-10.2,3.7-15.7,3.2c-3.3-0.3-5.7,0.7-8.2,2.7c-6.8,5.5-13.8,10.7-20.7,16
		c-10.4,8-22.2,13.4-33.8,19.5c17.6-13.7,37.3-24.3,54-39.1c-7.1-5.3-13.1-1.3-18.9,1.4c-18.8,8.9-36.7,19.5-53.1,32.5
		c-30.7,24.2-65.4,40.4-103.1,50.5c-20.6,5.6-41,12-59.9,22.3c-1.8,1-4.5,1.2-4.7,4.6c15.9-1.6,31.6-2.2,47.2-1.7
		c3.1,0.1,5.8-0.9,8.7-1.8c12.1-4,23.1-10.2,33.7-17.1c5.9-3.8,12-7.4,19.5-7.5c-15.6,7.9-28.8,19.6-45.1,26.6c4,1.4,7.8,2,11.5,2.8
		c5.2,1.1,10.2,0.6,14.7-2.4c0.4,0.5,0.9,0.9,1.3,1.4c-0.5,3.6,2.2,2.7,4.1,2.9c19.3,1.6,38.4-0.9,57.5-2.9
		c29.3-3.1,58.8-3.3,88.3-2.7c3.8,0.1,6.5-1.2,8.4-4c2.1-2.9,3.8-6.1,5.4-9.3c2.7-5.4,5.6-10.7,10-14.9c7.4-7.1,14.4-14.5,21.1-22.1
		c0.5,0.4,0.9,0.8,1.4,1.3c-4.1,7.9-10.4,14-16.9,19.9c-8.8,8-13.6,18.4-19.4,29.2c20.7,1.1,40.3,1,59.8-0.7c4.8-0.4,7.4-1.7,9.8-6
		c8.3-14.7,17.5-28.8,24.3-44.3c0.7-1.5,1-4,3.9-4c-5.7,19.5-17.3,35.7-27.5,53.8c27.8-0.3,54-1.7,79.9,3.4
		c2.9-6.6,1.8-13.4,2.7-19.9c0.9-6.2,0.7-12.8,4.4-18.4c0.2,13.4-2.7,26.6-2.1,39.6c24.9,0.6,48.8,4.9,73.3,3.2
		c-3.6-16-3.4-32-11.6-46c-1.5-2.5-2.3-5.8-2.2-8.7c0.2-10.5-1.2-21.1,1.6-31.4c1.9-7,1.3-13.5-1.6-20.1c-1.9-4.4-3.5-9.1-0.6-14.1
		c0.3,5.1,1.5,10,3.7,14.6c3,6.3,3,12.7,1.5,19.4c-2.4,11-1.3,22.1-1.3,33.2c0,2.5,0.7,4.8,1.9,6.9c5.8,9.8,7.6,20.8,9.3,31.8
		c2.3,14.6,2.4,14.5,17.5,13.6c0.6,0,1.2-0.1,1.8-0.1c27-2.9,54.1-4.5,81.2-3.5c1,0,1.7-0.3,2.2-1.5c-9.4-11-20.2-21.2-27.2-34.3
		c0.5-0.5,0.9-0.9,1.4-1.4c9.6,10.4,17.5,22.2,27,32.7c3.5,3.9,6.9,4.9,11.4,4.9c12.7,0,25.3,0.1,38-0.1c10.4-0.2,20.8-1.1,31.5-3.2
		c-4.9-9.6-12-15.8-20.8-20.2c-6-3-11.7-6.3-16-11.6c-4.5-5.6-8.9-11.3-15.9-14.3c-1.6-0.7-3.5-2-3.7-5.4c7.2,4.6,14.4,7.3,19,14.2
		c4.3,6.4,10.5,10.6,17.5,13.8c8.4,3.8,15.5,9.3,20.1,17.5c2.3,4.2,5.2,5.7,10.2,5.3c8.7-0.8,17.4-1.6,26.2-1.3
		c20.8,0.9,41.4,2.7,61.9,6c7.4,1.2,15,1.6,24.5,2.6c-15.9-12.6-33.5-18.4-47.6-29.7c17.5,7.8,34.3,16.9,50.6,27.1
		c5.1,3.2,9.5,2.7,16.3,1.2c-17.1-10-32.1-19.9-48.2-28c-12.8-6.4-24.5-14.1-34.1-24.9c-7.3-8.2-16.3-14.3-25.8-19.5
		c-9.2-5.1-18.7-9.7-28.4-14.8c-0.9,3.1-4.4,5.2-2.3,8.9c-0.4,0.4-0.9,0.9-1.3,1.3c-0.5-0.3-1.2-0.9-1.5-0.8
		c-10.3,4.6-22.4,2.9-32.1,9.9c-2.8,2-6.7,2.5-10.4,2.4c-4.8,0-9.6-0.2-14.4-1.1c-2.8-0.5-5.8-1.2-8.1,2.1
		c-4.1,6.1-10.8,7.2-17.5,7.9c-4.2,0.5-8.4,0.5-12.6,0.6c-2.1,0.1-4.1,0.1-5.6,2.1c-5.9,7.5-14.4,8-22.9,8.1
		c-4.2,0-7.9-0.5-11.6,2.7c-3.1,2.8-7.5,3.1-12,2.1c-4-0.8-8.2-2.7-12.2-0.8c-8.9,4.2-17.2,1-25.2-2c-7-2.6-8.8-10.3-4.6-16.6
		c4-6.1,9.4-10.1,17.4-9.2c1.9,0.2,4.6,1.7,5.6-1.1c3.5-9.8,11.3-12.3,20.6-13c4.2-0.3,1.3-2.7,0.6-4.3c0.4-0.4,0.8-0.8,1.2-1.3
		c0.6,0.7,1.7,1.4,1.6,1.9c-0.9,3.8,1.5,4.6,4.3,5.4c3.2,1,3.3-1.9,4.3-3.4c2-2.9,4.8-4.5,7.9-5.6c6.4-2.3,13-2.7,19.4-0.2
		c4.1,1.6,7.1-0.6,10.1-2.3c2.3-1.3-2.4-3.4,0.1-5.2c2.7,0.7,3.1,4.3,6.3,4.4c6.5,0.2,13.2,4.9,19.4-1.3c0.9-0.9,2.9-0.8,4.2-1.4
		c6.8-2.8,13.4,0.7,20,1.2c1-3.9-4.4-4-3.7-7.4c2.1-0.9,3.1,1.7,5.3,1.2c-0.1-3.5,1-6.8,2.9-10.2c-8.5-3.5-16.3-7.5-22.2-14.1
		c-16-17.8-34.9-31.3-56.5-41.3c-1.6-0.8-3.3-1.7-4.6-2.9c-7.6-6.6-16.7-7.3-26.2-7.8c-11.6-0.6-23.4-1.6-33.1-9.3
		c-0.6-0.4-1.1-0.3-1.8,0.9c0.1,2.1,2.1,3.6,3.4,5.5c2.1,3,4.8,5.7,6,8.9c2.9,7.5,6.5,15.1,1,23.1c-2.2,3.2-5,4-7.3,1.1
		c-4.6-5.7-11.1-8-17.4-10.9c-5.7-2.6-10.2-6.1-11.4-12.9c-0.6-3.6-3-6.5-5.6-9.1c-2.1-2-4-2.6-5.7,0.4c-0.6,1.1-1.3,2-2.6,0.9
		c3.5-7.2,5.7-7.7,10.6-2.4c2.7,2.9,5.1,6,5.8,10c0.9,5,4.2,8,8.4,9.9c7.6,3.4,15.4,6.5,21.1,13.7c3.2-4.4,4.5-7.9,3.6-13
		c-1.6-9.6-7.1-16.4-13.3-23c-1.3-1.4-2.7-2.7-1.8-4.7c1.2-2.4,3.5-1.7,5.6-1.5c2.2,0.2,3.8,1.7,5.6,2.8c2.3,1.4,4.6,3.4,7.1,3.8
		c10.1,1.5,20.2,3.7,30.5,3.4c0.3-2.4-1.2-3.2-2.2-4.1c-6.4-5.5-13.8-9.4-21.5-13c-13.6-6.3-27.9-12.1-37.7-24
		c-10.6-12.8-24.2-20.3-39.5-25.5c-5.6-1.9-10.5-1.8-15.3,1.9c-2.9,2.2-6.2,4-8.1,7.1c-5.3,8.7-13.5,13.4-22.1,17.9
		c-14.2,7.3-28.1,15-40,25.9c-5.3,4.8-11,9.3-16.5,14c1.3,0.2,2.8,0.3,4.2,0.5c-1.3,3.5-4.5,2.1-6.8,2.3c-2.4,0.2-4.7,0.3-6.9,1.4
		c-8.6,4.4-17.2,8.7-25,14.5c-5.2,3.9-10.4,7.8-13.6,13.6c4.6,3.4,8.4,3.9,13.3,0.9c3.8-2.3,7.9-4.2,11.6-6.8c1-0.7,3.1-0.5,2.5,0.6
		c-2.6,5.3,1.9,3.4,3.8,4c2.6,0.8,5.4,1,7.8,2.2c4,2,7.3,2.3,11.7,0.2c7.9-3.7,16.1-2.7,22.7,3.3c2.8,2.6,5.2,2.2,8.1,1.4
		c7.6-1.9,14.2,0.5,20.5,4.4c1,0.6,2.8,1.6,1,3.4c-7.9-3.7-15.7-7.8-24.8-3.4c-2.6,1.3-4.2-1-6-2.7c-6.3-5.9-15.2-7.1-22.4-2.4
		c-3.3,2.2-5.2,2.2-8.6,0.3c-9.1-5.2-19-6.3-28.4-1.2c-4,2.2-6.5,2.1-10.6,0.6c-7.5-2.7-15.7-5.2-22.6,2c-1.2,1.2-2.6,1.7-4,0.7
		C1114.4,238.8,1106.2,239.6,1098.1,239.6z"/>
	<path class="st0" d="M1140,397.7c-46-0.5-91.5,5.6-138,10c1.6-4.2,4.9-3.3,7.4-3.6c20.9-2.1,41.9-4.2,62.8-6.1
		C1094.8,395.9,1117.3,397.1,1140,397.7z"/>
	<path class="st0" d="M1418.7,399.8c1.8-3.4,4.2-2.7,6.1-2.8c16.9-0.8,33.7-0.9,50.5,1c7.2,0.8,14.4,0.4,21.7,0.4
		c17.5,0,35,0,52.4,0c1.6,0,3.5-0.8,5.5,1.6C1509.2,403.2,1464.1,397.4,1418.7,399.8z"/>
	<path class="st0" d="M972.4,407.4c-39.1-0.1-78-2.1-116.8-5.5C894.7,402.3,933.7,402.8,972.4,407.4z"/>
	<path class="st0" d="M1190.8,397.5c34.4,1.1,68.8,2.1,103.1,6.2C1259.3,405.1,1225.1,401.3,1190.8,397.5z"/>
	<path class="st0" d="M1586.2,397.6c25.7-4,51,0.2,76.5,2.1c-12.6,2.6-25.2-0.4-37.8-0.6C1612,398.8,1599.1,398.5,1586.2,397.6z"/>
	<path class="st0" d="M1377.7,406.4c-19.8,4.7-39.5,2.4-59.3,0C1338.2,406.4,1358,406.4,1377.7,406.4z"/>
	<path class="st0" d="M1205.3,409.9c-16.9-1-33.9-2.1-50.8-3.1c0-0.7,0.1-1.5,0.1-2.2c17-1.2,33.9,1.3,50.7,3.5
		C1205.3,408.7,1205.3,409.3,1205.3,409.9z"/>
	<path class="st0" d="M1210.3,197.9c2.1-2.8,4.8-4,7.6-1.5c4.8,4.3,9.4,2.6,14.2,0.4c5.2-2.4,10.3-4.9,15.6-7.1
		c2.1-0.9,4.5-2.1,6.6,0.3c1.9,2.1,0.2,4.2-0.5,5.9c-1.7,3.9-2.5,7.2,1,10.7c2.4,2.4,1,5.7,1.3,8.6c0.5,3.9-1.2,8.4,2,11.7
		c2.9,0.1,3.2-2.1,3.7-3.6c3.3-9.4,11.6-15.2,16.4-23.6c1.3-2.3,4.2-3.8,7.1-3.1c3.3,0.8,4.2,4,3.5,6.5c-2.7,11.2,1.1,22.4-0.3,33.6
		c-1,8.6,0.1,16.6,4.4,24.8c5.9-4.8,9.5-10.8,11.1-17.5c1.9-8.4,4.6-16.9,4-25.7c-0.4-5.5,1.3-10,5.8-13.2c0.2,0.2,0.7,0.5,0.6,0.6
		c-6.4,9.4-3.4,20.6-5.9,30.8c-2.2,8.6-4.6,16.8-10.4,23.6c-4.3,5.1-7.3,4.7-9.5-1.7c-2.6-7.6-3.8-15.2-2.8-23.7
		c1.2-10.4-1.8-21.2,0.8-31.8c0.3-1.4-0.4-3.1-2.2-3.4c-1.5-0.2-3.3,0.3-4,1.6c-4.2,8.3-12.4,13.9-15.8,22.9
		c-1.2,3.2-2.8,7.6-7.3,6.6c-3.8-0.9-3.4-5.2-3.7-8.4c-0.6-6.4,0.8-13-3.3-19.1c-2.1-3.1,1.6-7.2,2-11.6c-6.3,0.6-10.7,3.9-15.4,6
		c-6.8,3.1-13.5,7.6-20.7,0.8C1214.4,196.6,1212.1,199.9,1210.3,197.9z"/>
	<path class="st0" d="M1230.4,308.9c2.8-5.9,5.4-11.9,8.6-17.6c9.7-17.5,22.3-33.4,28.8-52.7c-6,26.9-23.8,47.7-35.2,71.8
		C1231.8,309.9,1231.1,309.4,1230.4,308.9z"/>
	<path class="st0" d="M1394,296.7c-5.4-4.2-8.7-9.9-11.1-16.2c-2.3-6-5.1-11.5-9.6-16.2c-3.8-4-5.5-9.1-6.4-14.6
		c5,9,13.7,15.4,17.3,25.1c2.8,7.4,6.9,13.9,11,20.6C1394.8,295.9,1394.4,296.3,1394,296.7z"/>
	<path class="st0" d="M1288.6,285.5c1.7,15.4,0.4,30.4-4.7,44.8c-0.7-0.1-1.4-0.2-2.1-0.3C1284.1,315.1,1286.4,300.3,1288.6,285.5z"
		/>
	<path class="st0" d="M1045.3,320.3c-5.3,8.5-16.9,16.4-34.8,24.8c2.5-4.3,2.5-4.3,9.6-8.8c3.8-2.4,7.6-4.7,11.4-7.1
		C1035.5,326.8,1039.5,324.1,1045.3,320.3z"/>
	<path class="st0" d="M1541.9,306.2c11.4,4.9,21.9,11.1,30.3,20.3c0.9,1,2.7,1.5,1.8,4.3c-6.6-2.7-11-8-16-12.5
		c-5.2-4.6-12.7-5.5-17.5-10.8C1541,307,1541.5,306.6,1541.9,306.2z"/>
	<path class="st0" d="M1172.8,311.5c0.8-4.3,16.1-23.9,24.1-31C1196.1,287.7,1184.7,302.3,1172.8,311.5z"/>
	<path class="st0" d="M1415.9,259.7c9.1,7.9,20,14,26.1,25c-5.4-2.9-9-7.9-13.9-11.5c-4.8-3.5-9.9-6.8-13.3-11.9
		C1415.2,260.8,1415.5,260.3,1415.9,259.7z"/>
	<path class="st0" d="M963.2,381.3c9.1-5.1,16.2-12.8,24.5-18.9c0.3,0.4,0.7,0.9,1.1,1.3c-6.9,7.9-14.3,15.1-24.3,19
		C964.1,382.3,963.7,381.8,963.2,381.3z"/>
	<path class="st0" d="M1572.2,346.6c-7.9-6.4-15.8-12.7-23.7-19.1c10,3.8,17.9,10.2,25.1,17.6
		C1573.1,345.5,1572.7,346.1,1572.2,346.6z"/>
	<path class="st0" d="M1585.7,339.3c6.3,1.6,10.5,6.7,17,9.7C1595.7,349.3,1594.5,348.6,1585.7,339.3z"/>
	<path class="st0" d="M1186.5,218.7c-3.5,4.4-7.2,8.8-12.4,11.5C1176.8,224.8,1180.5,220.6,1186.5,218.7z"/>
	<path class="st0" d="M1425.9,234c-4.8-3.7-11.7-4.1-14.4-11.2c5.1,3.1,10.3,6.2,15.4,9.3C1426.7,232.8,1426.3,233.4,1425.9,234z"/>
	<path class="st0" d="M1446.5,249.9c-4.3-1-7.5-3.6-10.3-6.9C1440.5,243.9,1443.4,246.9,1446.5,249.9z"/>
	<path class="st0" d="M1470.1,268.8c-3.2-1.4-6.7-2.4-8.6-7.2C1466.3,262.8,1468.1,266.1,1470.1,268.8z"/>
	<path class="st0" d="M1488.1,280.9c-3.8-0.1-4.3-2.8-6-4.7C1484.6,277.1,1487.2,277.3,1488.1,280.9z"/>
	<path class="st0" d="M1201.9,275.2c-0.4,2.7-1.3,4-3.1,4.5c-0.3,0.1-1.1-0.7-1-0.9C1198.3,277.2,1199.3,275.8,1201.9,275.2z"/>
	<path class="st0" d="M1197.6,205.1c2.8-2.1,5.2-5.1,9.3-3.7C1204.3,203.8,1201.6,206.1,1197.6,205.1z"/>
	<path class="st0" d="M1001.4,354.1c-0.6,1.8-2.2,2.3-3.7,3.1C998.5,354.8,998.5,354.8,1001.4,354.1z"/>
	<path class="st0" d="M1206.8,201.6c-0.8-3.3,1.9-3.2,3.7-3.9C1211.2,200.9,1208.4,200.7,1206.8,201.6z"/>
	<path class="st0" d="M1575.3,347.4c0.6,0.4,1.5,0.6,1.9,1.2c0.5,0.7,0.2,1.7-0.8,1.6c-0.7-0.1-1.3-0.9-1.8-1.5
		C1574.2,348.2,1574.5,347.7,1575.3,347.4z"/>
	<path class="st0" d="M1413.2,259.3c-1.4-0.4-1.8-1.3-1.6-2.6c0-0.1,1.1-0.1,1.4,0.2c0.8,0.8,1.6,1.8,0,2.7L1413.2,259.3z"/>
	<path class="st0" d="M1429.2,346.5c-1.3-0.8-2.6-2.1-1-3.3c0.9-0.7,1.8,1,2.4,1.9C1430.2,345.5,1429.7,346,1429.2,346.5z"/>
	<path class="st0" d="M987.7,362.4c0.4-1.4,1.6-2,2.4-1.1c0.9,1-0.8,1.6-1.4,2.4C988.4,363.3,988.1,362.9,987.7,362.4z"/>
	<path class="st0" d="M1194.1,214.1c-0.3,1.3-1.1,1.8-2.4,1.5c-0.1,0-0.2-1.1,0-1.2c0.8-0.6,1.7-1.6,2.6-0.1L1194.1,214.1z"/>
	<path class="st0" d="M1195.9,212.3l0.2-0.3c0,0-0.4,0.1-0.4,0.1C1195.7,212.1,1195.9,212.3,1195.9,212.3z"/>
	<path class="st0" d="M1194.3,214.2c-1.1-2.1,0.6-1.7,1.6-1.9c0,0-0.2-0.2-0.2-0.2c0.8,1.7-0.4,1.8-1.6,2
		C1194.1,214.1,1194.3,214.2,1194.3,214.2z"/>
	<path class="st0" d="M1409,222.8c-0.2-0.1-0.4-0.2-0.6-0.3c0.2-0.3,0.4-0.6,0.6-0.9c0.2,0.2,0.6,0.4,0.6,0.6
		C1409.5,222.3,1409.2,222.6,1409,222.8z"/>
	<path class="st0" d="M1413.1,259.6c1-1.7,1.9-0.7,2.8,0.1c-0.4,0.5-0.7,1.1-1.1,1.6c-1.1-0.2-1.6-0.9-1.6-2L1413.1,259.6z"/>
	<path class="st0" d="M1547.1,325.4c-0.4,0.2-0.7,0.4-1.1,0.4c-0.1,0-0.3-0.3-0.5-0.5c0.4-0.2,0.7-0.4,1.1-0.4
		C1546.7,324.8,1546.9,325.2,1547.1,325.4z"/>
	<path class="st0" d="M1161.6,328.2c0.1-0.5,0.2-1,0.4-1.5c0.3,0.3,0.6,0.5,0.9,0.8C1162.5,327.7,1162,327.9,1161.6,328.2
		L1161.6,328.2z"/>
	<path class="st0" d="M1161.6,328.1c0.6,1.1,0,2-0.8,2.7c-0.5-0.4-0.9-0.8-1.4-1.3C1159.8,328.5,1160.2,327.5,1161.6,328.1
		C1161.6,328.2,1161.6,328.1,1161.6,328.1z"/>
	<path class="st0" d="M1094.6,239.4c1.3,0,2.5,0,3.8-0.1c0,0.6,0.1,1.2,0,1.8c-0.1,1.4,0.5,3.2-1.4,3.7c-1.9,0.5-2.3-1.2-2.9-2.6
		C1093.5,241.1,1093.2,240.1,1094.6,239.4z"/>
	<path class="st0" d="M1090.9,235.8c1.5-0.2,2.5,0.1,1.9,1.9c-0.7,0.1-1.2,1.1-2.1,0.1C1089.9,236.9,1090.8,236.4,1090.9,235.8z"/>
	<path class="st0" d="M1092.8,237.6c1.7-0.4,2.4,0.2,1.9,1.9c-0.7,0.1-1.1,1.1-2.1,0.1C1091.7,238.7,1092.7,238.3,1092.8,237.6z"/>
	<path class="st0" d="M1527.8,285.3c0.3-0.5,0.6-1,0.8-1.5C1530,285.2,1528.1,284.8,1527.8,285.3
		C1527.7,285.3,1527.8,285.3,1527.8,285.3z"/>
</g>
</svg>
