<?xml version="1.0" encoding="utf-8"?>
<!-- Generator: Adobe Illustrator 26.0.3, SVG Export Plug-In . SVG Version: 6.00 Build 0)  -->
<svg version="1.1" id="Слой_1" xmlns="http://www.w3.org/2000/svg" xmlns:xlink="http://www.w3.org/1999/xlink" x="0px" y="0px"
	 viewBox="0 0 766.7 908.8" style="enable-background:new 0 0 766.7 908.8;" xml:space="preserve">
<style type="text/css">
	.st0{opacity:0.51;}
	.st1{fill:#FFFFFF;stroke:#E6E4F3;stroke-miterlimit:10;}
	.st2{fill:none;stroke:#E6E4F3;stroke-miterlimit:10;}
	.st3{fill:none;stroke:#E6E4F3;stroke-width:0.75;stroke-linecap:round;stroke-linejoin:round;}
	.st4{fill:none;stroke:#E6E4F3;stroke-linecap:round;stroke-linejoin:round;}
</style>
<g class="st0">
	<g>
		<path class="st1" d="M435.8,393.2c-3,1.5-3.4,2.5-5.6,3.6c-2,1-2.1,0.4-4.9,1.5c-1.9,0.7-3.7,1.7-5.2,3c-2.3,2.2-1.4,3.5-3.8,6.8
			c-1.9,2.6-2.7,2.1-4.8,4.9c-1.3,1.8-2.4,3.8-3.2,6c-1.6,4-1,4.9-2.5,6.4c-1.2,1.2-1.6,0.7-5,2.7c-1.5,0.7-2.8,1.8-3.9,3.1
			c-0.9,1.3-1.4,2.8-1.5,4.3c-0.1,1.4-0.3,3,0.6,3.6s2.9-0.5,4.5-1.4c1.9-1.2,3.5-2.7,5-4.4c3.2-3.3,2.5-3.2,3.7-4.1
			c3.5-2.8,6-1.4,8-4.1c0.2-0.3,0.9-1.3,2.2-3.4c0.4-0.8,1-1.6,1.7-2.3c0.9-0.8,2.1-1.3,3.2-1.5c1.5-0.4,2.9-0.7,4.5-0.9
			c1.6-0.3,1.7-0.6,7.1-3.5c4.4-2.3,5.6-2.7,6.1-4.2c0.2-1.1,0.1-2.3-0.3-3.3c-0.8-3.3-2.3-3.4-2.4-5.4c-0.1-2.6,2.4-3.5,1.9-5.9
			c-0.1-0.5-0.3-1-0.6-1.4c-0.3-0.4-0.7-0.7-1.2-1C438.5,392.2,437.7,392.3,435.8,393.2z"/>
		<path class="st1" d="M88.5,863.9c0.3,0.5,0.5,1.2,0.4,1.8c-0.2,1.3-1.2,2.1-2.5,3.1c-1.1,1-2.5,1.7-4,2c-0.6,0.1-2.8,0.3-3.6-1
			s0.2-3.1,0.4-3.4c1.1-2,3.3-2.5,4.8-2.8C85.3,863.3,87.6,862.8,88.5,863.9z"/>
		<path class="st1" d="M388.9,289.9c0.7,0.4,0.6,2.1-0.1,2.4c-0.2,0.1-0.4,0.1-0.6,0.1s-0.4-0.1-0.6-0.2s-0.3-0.3-0.4-0.5
			s-0.1-0.4-0.1-0.6s0.1-0.4,0.2-0.6s0.3-0.3,0.5-0.4s0.4-0.2,0.6-0.2S388.7,289.8,388.9,289.9z"/>
		<path class="st1" d="M405.1,288.9c0.2,0.4-0.2,1.4-1.1,1.6c-0.2,0-0.4,0-0.6,0s-0.4-0.1-0.6-0.3c-0.2-0.1-0.3-0.3-0.4-0.5
			s-0.2-0.4-0.2-0.6C402.5,288.5,404.7,288.2,405.1,288.9z"/>
		<path class="st2" d="M106.1,860.8c3-2.7,5.5-5,5.9-5.4c1.9-1.8,4-3.5,6.1-5.2c2.2-1.6,4.4-3,6.8-4.3c0,0,6.4-3.7,12.9-8.1
			c6-4.1,5.1-4,10.3-7.4s6.4-3.6,8.9-6.1c1.3-1.3,1-1.2,5.6-7.8c1.6-2.2,3.4-4.7,5.8-7.8c3.1-4.1,3.5-4.3,4.9-6.5
			c2.6-4,1.8-3.7,3.9-6.5c1.3-1.8,2.4-2.9,2.2-4.4c-0.2-1.1-0.6-2.1-1.3-3.1c-1-1.8-1.5-1.9-1.7-3c-0.3-1,0.1-1.1,0.4-3.4
			c0.4-2.9,0.1-3.3,0.7-4.9c0.4-1.1,0.9-2.2,1.8-2.6c1-0.4,1.8,0.5,3-0.1c0.5-0.3,1-0.6,1.3-1.1c0.6-0.5,1.1-1.3,1.3-2.1
			c0.2-1.5-1.7-2-1.6-3.4c0.1-0.7,0.8-1.2,2.3-2.3c0.9-0.7,1.9-1.2,3-1.7c1.9-0.9,2.1-0.8,2.6-1.3c1.1-1.4,0.4-3.5,0.3-3.8
			c-0.3-1.1-1.1-2-2-2.6c-0.5-0.3-0.8-0.3-2.7-0.7c-3.2-0.7-3.4-0.7-3.7-1c-1-1.1-0.8-3.3,0.1-4.7c0.9-1.1,2.1-1.8,3.4-2.1
			c1.7-0.6,1.9-0.2,3.4-0.7c2.7-0.8,2.9-2.2,5.2-2.5c0.7-0.1,2.1-0.3,2.8,0.5c1.2,1.4-0.9,5-1.2,5.5c-1.2,2.2-2.6,2.9-2.3,3.8
			c0.3,0.9,2.1,1,2.4,1.1c2.3,0.2,4.2-1.2,6-2.6c0.7-0.5,1.5-1.2,3.1-2.8c1.6-1.5,1.8-1.8,3.1-2.9c1-1,2.1-1.9,3.3-2.6
			c1.2-0.5,2.5-0.7,3.8-0.7c1.1,0.1,1.4,0.3,2.8,0.3c0.9,0.1,1.7,0,2.6-0.2c0.7-0.1,1.4-0.4,4-2.3c2.6-1.9,2.7-2.3,4-2.8
			c1-0.6,2.2-0.8,3.3-0.6c1.1,0.4,1.2,1.2,3.1,3.9c1.2,1.7,1.2,1.3,2.4,3.1c1.2,1.7,1.5,2.5,2.8,4s1.8,2.1,2.3,2
			c0.8-0.2,1.1-2,1.5-4.8c0.3-1.6,0.4-3.3,0.3-5c-0.3-1.6-0.7-3.1-1.4-4.5c-0.4-1.4-1.2-2.8-2.1-3.9c-1.5-1.5-2.7-1.4-3.1-2.5
			c-0.4-1.1,0.4-1.9,1.3-3.4c1.9-2.8,3.5-5.8,4.7-9c0.6-1.5,0.9-3.1,1.1-4.7c0.3-3.9-0.9-4.7-0.7-8.7c0.1-2.2,0.6-4.4,1.4-6.6
			c0.6-2,1.4-4,2.4-5.9c1.2-2.7,2.7-5.3,4.5-7.7c2.5-3,5.4-5.6,8.6-7.8c1.1-0.8,0.3-0.2,7.6-5.1c2.5-1.6,5.1-3.1,7.5-4.8
			c1.5-1.3,3.3-2.3,5.2-2.8c1.4-0.3,2.9-0.3,4.4-0.2c1.8,0,4.2-0.1,8.5,0.1c2.8,0.1,3.8,0.1,4.6,1c0.3,0.4,0.5,0.8,0.6,1.3
			s0.1,1,0,1.5c-0.3,0.9-0.9,1-1,1.7c-0.1,1.2,1.8,2.2,2.1,2.4c1.8,1,3.6,0.9,6,0.9c2.3-0.1,2.3-0.4,4.4-0.4
			c1.1,0.1,2.2,0.1,3.3,0.1c1.2-0.2,2.4-0.6,3.4-1.3s1.8-1.6,2.5-2.6c1.8-2.2,1.7-2.6,2.9-3.8c0.9-0.9,1.9-1.6,3-2.2
			c1.4-0.8,1.8-0.6,3.7-1.5c1.1-0.4,2.1-1,2.9-1.8c1-1.3,1.5-2.8,1.4-4.4c-0.1-1.4-0.7-2.3-2.3-4.5c-2.7-3.7-3.4-4.2-5.1-6.6
			c-1.6-1.9-2.8-4.1-3.6-6.5c-0.2-0.9-0.2-1.1-0.7-5.7c-0.6-6.2-0.7-6.5-0.7-8c0-2.2,0.2-4.5,0.7-6.7c0.5-2.7,1.3-5.3,2.4-7.8
			c1.3-3.1,1.8-3,4.3-7.8c2.1-3.9,3.6-7.2,4.5-9.4c1.9-4.2,2.8-6.4,3.1-7c0.8-2.4,1.3-4.2,3-6c0.8-0.8,1.6-1.5,2.6-2.1
			c1.2-0.9,2.6-1.5,4.1-1.9c2-0.4,2.3,0.5,4.1,0.1c1.8-0.3,4-1.6,4.5-3.4c0.1-0.4,0-0.5-0.7-3.7c-0.2-1.2-0.5-2.3-0.8-3.5
			c-1-2.1-2.1-2.1-2.3-3.4c0-0.8,0.2-1.6,0.6-2.4c0.4-0.7,1-1.3,1.7-1.8c1.4-1,2.2-0.4,5.7-1.1c3.1-0.7,3.6-1.4,4.8-0.9
			c1.7,0.7,1.6,2.7,3.3,3.1c0.6,0.1,1.1,0,1.6-0.2s1-0.4,1.4-0.8c1-0.8,1-1.5,2.4-2.7c0.8-0.7,1.2-1,1.6-0.9
			c1.2,0.2,1.5,2.9,1.5,3.1c0.2,0.9,0.1,1.9-0.2,2.8c-0.3,0.9-0.8,1.7-1.4,2.4c-1.1,0.9-2.4,1.4-3.8,1.4c-1.6-0.1-1.8-1-3.2-1
			c-0.7,0-1.4,0.2-2.1,0.6c-0.6,0.4-1.2,0.9-1.5,1.5c-0.9,1.6,0.2,2.7-0.8,3.9s-2.4,0.7-2.9,1.8c-0.1,0.3-0.3,0.9,0.7,2.9
			c0.7,1.6,1.7,3.1,2.9,4.4c1.3,1.6,2.9,2.9,4.8,3.7c1.3,0.5,2.7,0.8,4.1,0.8c1.8-0.1,3.7-0.6,5.2-1.5c2.4-1,4.4-2.8,5.7-5.1
			c0.7-1.4,1-2.9,1.1-4.4c0.3-3.2-0.3-4.5-1.2-10.4c-0.6-3.9-0.8-5.8-0.5-7.2c0.6-2.5,1.8-3.3,2-6.1c0.1-1.9-0.5-2.2,0-3.8
			c0.4-1.5,1.4-2.3,1.3-3.9c0-0.3-0.1-0.7-0.3-1c-0.2-0.3-0.4-0.6-0.6-0.8c-0.3-0.2-0.7-0.3-1-0.4c-0.4,0-0.7,0-1.1,0.1
			c-1.8,0.3-2.5,1.3-5,3.2c-1.3,1.1-2.8,2-4.3,2.5c-0.9,0.4-1.9,0.5-2.9,0.2c-0.6-0.2-0.8-0.6-2.6-3.4c-1.3-2-1.6-2.6-1.7-3.5
			c0-0.7,0.2-1.4,0.5-2.1c0.8-1.9,1.3-3.9,2.1-5.8c0.9-2.3,1.5-4.7,1.9-7.1c0.6-2.4,0.8-4.8,0.5-7.2c-0.3-2.3-1.1-4.5-2.4-6.4
			c-1.2-1.8-2.5-2.7-2.1-3.7c0.3-1,1.4-1.2,2.4-1.6c1.3-0.5,1.7-0.2,2.8-0.6c1-0.5,1.8-1.1,2.5-2c1.5-1.3,2.2-1.2,4.2-2.2
			c2.2-1.2,4.1-2.9,5.6-4.9c1.1-1.4,2-3,2.7-4.7c1.4-2.9,2-4.3,1.6-5.9c-0.5-1.6-1.6-3-3.1-3.9c-1-0.6-1.4-0.4-3.3-1.1
			c-1.4-0.4-2.7-1-3.9-1.9c-1.7-1.6-3-3.7-3.6-6c-0.5-1.5-0.7-2.5-1.4-2.8c-0.5-0.2-0.9,0-2.6,1c-3.6,2.1-4.2,2.6-4.6,3
			c-0.7,0.6-1.3,1.4-1.7,2.3c-0.4,1.1-0.1,1.5,0.1,3.9s0.2,3.4-0.5,4.3c-0.3,0.4-0.8,0.7-1.3,0.8c-0.5,0.2-1,0.2-1.5,0.1
			c-1.4-0.4-2-2-2.3-2.8c-0.6-1.5,0-1.9-0.6-3c-0.5-1-1.4-1.3-3.6-2.5c-1.6-0.7-3-1.7-4.3-2.8c-1.4-1.6-2.2-3.6-2.5-5.7
			c-0.2-1.9-0.1-3.8,0.4-5.6c0.7-3,1.5-3.4,3.4-7.9c1.3-3.2,1-3.3,2.3-6.1c0.9-1.9,1.9-3.9,3-5.7c1.1-2.1,2.4-4.2,3.8-6.1
			c2.1-2.6,3-2.5,5.8-5.8c1-1.2,2-2.4,2.8-3.8c2.2-3.4,1.8-4.3,3.5-7.1c1.5-2.9,3.7-5.4,6.4-7.2c1.8-0.9,3.5-2.1,4.9-3.5
			c0.9-1,1.5-1.5,1.5-2.2c0.2-2.2-3.2-3.4-3.2-6.4c0-0.6,0.1-1.2,0.3-1.7c0.7-1.3,1.9-1.3,4.5-2.6c1.3-0.5,2.4-1.2,3.3-2.3
			c1.2-1.6,0.7-3.2,1.7-3.6c0.8-0.4,1.9,0.2,2.5,0.6c1.8,1,1.9,2.4,2.7,2.4c1.3,0,2.2-3.4,2.5-4.9c0.4-1.5,0.4-3,0-4.5
			c-0.3-1.2-0.7-1.3-2.2-4c-1.1-2.1-1.7-3.1-1.6-3.9c0.1-0.4,0.3-1.1,3.5-3.7c2.9-2.2,3.5-2.2,3.8-3.2c0.6-1.9-1.4-2.9-0.9-5.3
			c0.3-1.4,0.9-1.1,2.4-3.9c1.2-2.2,1-2.6,2-3.8c0.4-0.6,0.9-1,1.5-1.4s1.2-0.6,1.9-0.7c1.8,0,2.6,1.8,3.5,1.5
			c1.1-0.5,1.4-3.9,0-4.9c-0.8-0.6-1.9-0.1-2.3-0.8c-0.4-0.7-0.1-1.5,0.5-2.1c0.5-0.6,1.1-0.7,5.5-0.5c1.8,0,2.5,0,2.8,0.5
			c0.4,0.6-0.8,1.2-0.7,2.2c0.1,1.3,2.2,2.1,4.4,3c2.4,0.9,3.6,1.4,5.1,1c0.8-0.2,1.5-0.5,2.2-0.9c0.6-0.5,1.2-1,1.6-1.7
			c0.9-1.8-0.1-3,0.9-4.2c0.4-0.4,1-0.7,1.6-0.8c0.6-0.1,1.2-0.1,1.8,0.1c1,0.3,1.8,0.9,2.4,1.8c1.3,1.5,1.3,2.3,2.9,5
			c1.7,3,2.1,3,2.2,4.2c0.1,1.5-0.5,2.4,0.1,3.9c0.1,0.3,0.2,0.6,0.5,0.9c0.2,0.3,0.5,0.5,0.8,0.7c0.4,0.2,1.2,0.2,4.7-2.5
			c2.6-2.1,2.5-2.4,3.6-2.7c1.6-0.5,2.6,0.1,3.7-0.8c0.3-0.3,0.6-0.6,0.8-0.9c0.2-0.4,0.3-0.8,0.3-1.2c-0.1-1.2-1.3-1.4-1.4-2.7
			c-0.1-0.9,0.5-1.2,0.3-1.8c-0.4-0.9-2-0.5-2.4-1.3s0.5-2.3,1.8-3c1.2-0.7,2,0,3.7-0.5c2.1-0.5,2-1.8,4.6-3.3
			c2.1-1.2,2.3-0.5,4.7-1.7c1.4-0.7,1.1-0.9,4.9-3.6c1.3-0.9,2.6-1.8,3.8-2.9c0.8-0.9,1.7-1.8,2.7-2.5c1.5-1.1,1.8-0.8,2.5-1.6
			c1.2-1.4,0.4-2.5,1.8-3.8c0.8-0.8,1.1-0.7,2.9-1.8c1.8-1.2,2.3-2.1,3.3-2.1c0.7,0.1,1.4,0.5,1.8,1.1c0.8,0.8,2.3,2.8,1.7,4.1
			c-0.6,1.4-3.3,0.9-3.9,2.2c-0.4,0.9,0.5,1.7,2,4c2.2,3.4,3.2,5.1,2.9,6.7c-0.3,1.6-1.5,1.4-3.8,4.7c-0.8,1.1-1.4,2.3-2,3.5
			c-1.9,3.7-1.3,4.2-2.7,7c-1.7,3.3-3,3.6-3.3,6c0,0.3-0.4,3.2,1,4c0.5,0.3,1.2,0.4,3.7-1s4.9-3.2,6.9-5.3c1.6-1.5,3-3.2,4.2-5.1
			c0.8-1.2,0.7-1.4,1.3-2.4c1.8-3,3.6-3.3,6-5.6c3.1-3,1.5-3.8,5.2-8.1c2-2.3,3.4-3.2,3.4-5.1c0-1.8-1.6-2.8-1.1-3.9
			c0.4-0.5,0.9-0.8,1.5-0.9s1.2,0,1.8,0.3c1,0.6,0.6,1.9,1.5,2.6s2.7,0.3,4-0.2c3.9-1.4,7.6-3.3,11-5.7c3.5-2.5,3.2-2.7,5.3-3.9
			c2.6-1.5,3.3-1.2,8.2-3.1c6.1-2.3,6.6-3.3,9.1-3.1c1.9,0.1,1.8,0.7,5.9,1.4c1.9,0.3,3.8,0.5,5.7,0.5c2.8,0,4.3,0,5.4-0.8
			c1.8-1.3,1.6-3.2,3-3.4c1.1-0.2,2.2,1,2.7,1.6c0.8,0.9,1.9,2.6,1.3,3.4s-2.5-0.1-2.8,0.6s0.7,1.7,1.8,2.5c1.5,1,2.6,0.8,5.8,1.4
			c2.5,0.5,3.8,0.7,4.6,1.4c0.9,0.7,1,1.2,2.5,4.9c1.9,4.7,2.3,5.4,3.2,5.9s1.7,0.3,3,1.2c0.8,0.5,1.5,1.3,1.8,2.3
			c0.4,1.5-0.6,2.2-0.9,4c-0.1,1.2,0.5,2.5,1.8,5.1c1.1,2.2,2.4,4.3,3.8,6.4c2.5,3.6,3.2,3.9,3.8,3.9c1.6,0.2,3.1-1.2,4-2.2
			c2.4-2.4,3.4-5.3,4.4-8.7c1.3-4.3,0.9-5.2,2.4-7c1-1.2,2-1.7,2.3-3.2c0.2-1.3,0-2.7-0.6-3.9c-0.8-2-2-2.7-1.7-3.2
			c0.3-0.4,1.5,0.3,3.3,0.2c1.3,0,2.6-0.4,3.7-1c3.2-1.5,3.4-3.8,6.6-6.6c1.5-1.2,3.1-2.2,4.8-3.1c6.2-3.7,7.3-3.4,9.6-5.7
			c1.6-1.6,2.8-3.5,3.8-5.5c1.2-2.4,1.9-3.7,1.9-5.6c0.1-1.3-0.2-1.9,0.2-3.1c0.5-1.2,1.4-2.2,2.5-2.8c0.9-0.4,1.9-0.6,2.9-0.5
			c2.3,0,2.8,1,4.2,0.9c1.6-0.1,2.8-1.5,4.8-4.1c3-3.8,2.1-4.6,4.3-6.6c2.2-2.1,4-2.3,4.3-4.1c0.1-1-0.2-1.9-0.6-2.8
			c-0.8-1.9-1.9-2.3-1.9-3.6c0-0.4,0.1-0.9,0.3-1.3s0.5-0.7,0.9-0.9c0.7-0.3,1.2,0.2,3.2,0.6c0.6,0.1,1.2,0.2,1.8,0.3
			c0.8,0,1.8-0.2,5.1-2.6c3.5-2.6,3.7-3.5,3.8-4c0.1-0.8-0.1-1.6-0.5-2.2c-0.5-0.7-1.1-1.2-1.9-1.6c-3-1.7-3.7-1.7-3.8-2.3
			c-0.1-0.8,1.9-1.9,3.7-2.3c1.8-0.2,3.6,0,5.3,0.6c2.7,0.7,3.2,1.4,4.2,1c0.7-0.4,1.2-0.9,1.7-1.5c0.4-0.6,0.7-1.4,0.7-2.1
			c0.3-1.8-0.7-2.3-0.2-3.5c0.6-1.6,2.3-1.3,3.4-3.3c0.4-0.8,0.2-0.9,0.7-2.9c0.6-2.3,1.1-4.3,2.2-4.6c1.1-0.2,2.1,0.9,2.6,1.8
			c0.9,1.5,0.3,2.7,1,3.1c1.1,0.7,4-1.7,4.9-2.5c2.1-1.8,2.1-2.5,4.1-4.2c1.3-1,2.8-1.9,4.3-2.6c1.5-0.8,3.6-2.1,6.1-3.7l2.1-0.9
			c0.4-0.2,0.8-0.5,1.1-0.7c-0.6-1-1-2.1-1.3-3.2c-0.8-2.6-0.4-3.3-1.3-5.3c-1-1.8-2.2-3.4-3.8-4.6c-2.5-2.4-3-2.2-3.5-3.5
			c-1-2.3,0.7-3.4-0.2-6.1c-0.9-2.7-2.6-2.1-3.6-4.7c-1-2.6,0.6-3.9-0.6-6c-0.5-0.8-1.7-1.6-4.2-3.1c-3.3-1.9-4.9-2.9-6.3-2.9
			c-1.9,0-3.8,0.7-5.3,2c-2.1,2-1.1,3.7-3.2,6.7c-1.2,1.9-3.1,3.3-5.3,3.9c-2.1,0.5-2.5-0.4-5.4-0.2c-3.4,0.3-3.9,1.8-6.5,1.8
			c-2.9,0-3-1.8-6.4-2.7c-4.2-1.1-5,1.3-11,0.8c-4-0.3-4.7-1.4-7.8-0.8c-1.7,0.3-1.9,0.7-5.4,1.8c-3.1,0.9-4.6,1.4-5.8,1.1
			c-2.9-0.7-2.9-3.3-5.6-4c-2.8-0.7-5,1-6.4,1.9c-3.6,2.4-3.4,4.8-6.5,5.9c-1.5,0.5-3.1,0.6-4.7,0.3c-3-0.6-3.2-2.2-6-2.7
			c-0.7-0.1-0.7,0-6,0.8c-3.9,0.6-4.9,0.7-5.9,0.1c-1.1-0.7-1.9-1.8-2.2-3.1c-0.7-2-0.1-2.9,0.1-7.1c0.1-1.8,0.1-3.7-0.1-5.5
			c-0.2-3.6-0.3-5.4-1.2-5.9c-1.5-0.8-3.2,1.8-6.3,1.7c-2-0.1-3.5-1.3-5.1-2.8c-2.8-2.4-2.5-3.8-5.6-7.1c-1.4-1.6-3.1-2.9-4.9-4
			c-1.8-1.1-3.8-1.7-5.9-1.9c-3.8-0.2-4.8,1.9-7.7,1.2c-1.7-0.5-3.1-1.5-4.1-2.9c-0.6-0.8-2.2-2.9-1.8-5c0.6-2.9,4.4-2.6,5.5-5.8
			c0.8-2.4-1-3.3-0.2-6.1c0.4-1.3,0.9-1.3,3.7-4.8c1.4-1.6,2.7-3.3,3.6-5.2c1.3-3,0.2-4,1.5-5.9c1-1.5,2-1.5,5.6-3.3
			c4.5-2.2,6.7-3.3,7.9-5.4c1-2.2,1.3-4.7,0.8-7.1c-0.3-1.9-1-3.8-2-5.4c-0.9-1.8-2.3-3.4-4-4.5c-2.5-1.6-3.9-0.6-6.6-1.9
			c-1.4-0.7-2.6-1.7-4.9-4.7c-3.8-5.1-6.8-9-9.3-15.3c-1.4-3.7-1.8-5.9-3.9-6.8c-1.1-0.5-2.7-0.2-5.8,0.5c-4.5,0.9-5,1.6-6.8,1.3
			c-2.1-0.3-3.6-1.6-5.3-3.1c-2.4-2-2-2.7-4.6-5.3c-3.2-3.2-4.1-2.6-5.4-4.8c-1.6-2.8-0.7-4.7-2.5-5.8c-1.4-0.9-3.2-0.5-4.6-0.2
			c-3.1,0.7-3.4,2.2-6.2,3.1c-2.7,0.7-5.6,0.6-8.2-0.4c-3-0.9-3.1-1.9-6.8-2.9c-2.2-0.6-3.6-0.9-5.2-0.5c-2.7,0.7-3,2.9-5,2.9
			c-1.9,0-3.6-2-4.3-3.7c-0.7-1.7-0.2-2.5-0.2-6.9c0-3.5,0-5.2-0.9-5.7c-1.6-1-4.2,2.6-7.6,1.7c-1-0.3-1.9-0.8-2.7-1.5
			c-2.1-2-1.6-4.1-2.8-4.5c-1.2-0.4-4.4,2-4.6,4.6c-0.2,2.3,1.7,2.8,1.7,5.6c0,0.9-0.1,1.7-0.5,2.5s-0.9,1.5-1.5,2
			c-0.6,0.4-1.3,0.6-2,0.7c-0.7,0.1-1.5,0-2.1-0.3c-1.6-0.6-2.2-1.8-4.8-6.7c-1.7-3.3-2.6-4.9-2.8-5.2c-1.2-1.6-3.7-5.2-7.5-5.8
			c-1.9-0.3-2,0.5-6.9,1.1c-1.7,0.5-3.5,0.8-5.2,1c-6.3-0.2-8.3-3.9-11.9-3c-1.4,0.3-4.3,3-6.1,6.4c1.1,0.2,2,2.7,1.7,4.8
			c-0.2,1.4-0.9,1.8-1.6,3.8c-0.4,1.1-0.6,2.3-0.6,3.5c0,0.5,0.1,4.3,2.6,6c1.9,1.3,3.3,0.1,5.1,1.7c1,0.8,1.6,1.9,1.8,3.1
			c0.1,1.8-1.2,3.2-2.7,4.9c-1.5,1.7-2.6,1.4-3.4,2.9s-0.2,1.9-1,3.5c-0.6,1.1-1.5,2.1-2.6,2.8c-1.1,0.8-2.4,1.5-3.7,1.9
			c-4.3,1.7-5.7,1.4-6.1,2.4s1.3,1.9,2.3,4.8c0.6,1.9,0.8,3.9,0.5,5.9c0,2.3-0.4,4.7-1.4,6.8c-1.1,2.1-2,2.5-2.1,4.1
			c-0.1,1.3,0.6,1.7,1.8,4.2c0.9,1.9,1.6,4,2.2,6c0.8,2.8,1.2,4.1,1,5.2c-0.5,2.2-2,2.2-3.8,5.2c-0.9,1.8-1.5,3.8-2,5.8
			c-1.6,5.4-1.1,5.6-2,6.9c-1.8,2.5-5,3.6-6.9,4.2c-2.5,0.8-3,0.4-4.3,1.4c-1.6,1.2-1.3,2.2-3.5,4.7c-1.1,1.1-1.5,1.3-1.9,2.2
			c-0.2,0.5-0.5,1.6,0.6,4.1c0.8,1.7,1.8,3.2,3.1,4.6c3.9,4.8,3.4,4.9,4.9,6.2c2.5,2.2,3.3,1.7,4.4,3.4c1.7,2.6,1.2,5.8,0.9,7.4
			c-0.4,2.1-1.1,4.1-2.1,6c-0.9,2.2-1.1,2.1-1.5,3.5c-0.7,2.2-0.4,2.8-1.1,5.7c-0.3,1.2-0.7,2.5-1.2,3.7c-0.9,2.7-1.4,4-2.2,4.6
			c-0.3,0.2-0.8,0.4-4.5,0.6c-2.4,0.1-3.5,0.2-5.2,0.2c-3.2,0-3.8-0.2-4.4,0.4c-0.6,0.6-0.9,1.3-1.1,2.1c-0.1,0.8,0,1.6,0.3,2.3
			c0.9,1.9,4.1,0.1,7.7,2.2c0.8,0.5,1.5,1.1,2.2,1.8c0.9,1,1.7,2,1.5,2.9c-0.1,0.2-0.3,0.7-4.1,2.1c-1.7,0.7-2.2,0.7-2.6,1.3
			c-0.3,0.5-0.4,1.1-0.5,1.7c0,0.6,0,1.2,0.3,1.7c0.9,3.3,3.4,3.6,3.3,5.6c0,0.9-0.8,2-2.3,4c-1.1,1.5-1.4,1.6-1.4,2.1
			c0.8,1.7,2,3.1,3.4,4.3c0.1,0,0.3,0,0.5,0c1.2,0,2.4,0,3.5-0.2c1.8-0.3,2.1-0.8,3.4-0.8c0.9,0,2.7,0.3,3,1.2c0.3,1-0.7,1.3-1.3,3
			c-0.3,1.1-0.4,2.3-0.2,3.4c0.2,1.6,0.4,3.3,1.8,4.3c0.4,0.3,0.9,0.5,1.4,0.5c0.5,0.1,1,0,1.5-0.2c1.3-0.7,0.5-2.4,2.1-4.2
			c0.9-1,1.3-0.7,2.3-1.8c0.8-0.9,1.3-2.1,1.4-3.3s-0.2-2.4-0.8-3.5c-0.4-0.8-1-1.5-1.7-2c-0.9-0.7-1.3-0.7-4.1-1.9
			c-1.8-0.8-2.1-1-2.3-1.5c-0.3-0.8,0.2-1.6,0.7-2.5c0.9-1.7,2-3.4,3.2-5c1.6-1.9,2.9-4.1,3.9-6.4c0.9-2,1.3-4.1,1.2-6.3
			c-0.1-1.1-0.4-1.8-0.5-3.8c-0.2-2.1-0.3-3.1,0.3-3.8c0.9-1.1,3.1-0.9,4.5-0.8c1.9,0.2,2.9,0.7,3.3,0.3c0.4-0.5-0.4-2-0.5-2.2
			c-0.5-0.7-1.1-1.3-1.8-1.7c-1.7-1-2.3-0.5-3.2-1.3c-0.5-0.5-0.8-1.1-1.1-1.7c-0.2-0.6-0.3-1.3-0.3-2c0.1-1.3,0.6-2.6,1.4-3.6
			c1-1.8,2.6-3.1,4.5-3.9c1.3-0.4,1.5-0.1,4.2-0.8c1.6-0.4,1.5-0.5,3-0.9c2.7-0.7,4.6-1.2,6.6-0.7s2.1,1.3,3.3,1.1
			c1.2-0.5,2.1-1.3,2.8-2.4c1-1.4,1-1.9,1.6-2.1c0.9-0.3,1.3,0.7,3.3,1.1c0.9,0.1,1.8,0.2,2.8,0.2c1.8,0.1,1.6,0.2,2.5,0.2
			c2.4,0.1,2.6-0.3,4.1-0.1c1.1,0.1,2.2,0.6,3.1,1.4c0.9,0.9,0.7,1.3,2,3.4c0.6,1.2,1.4,2.1,2.5,2.9c0.7,0.4,0.9,0.2,2.7,0.7
			c1.6,0.3,3,0.8,4.4,1.6c0.6,0.3,1.1,0.7,1.5,1.1c0.4,0.5,0.7,1.1,0.8,1.7c0.1,0.7-0.1,1.4-0.5,2c-0.3,0.3-0.7,0.6-1.1,0.8
			s-0.9,0.3-1.3,0.3c-0.5,0-1.1-0.1-3.2-1.2c-1.7-0.9-3-1.7-3.5-2c-0.2-0.2-1.4-0.9-2.9-1.9c-1.9-1.3-1.8-1.4-2.1-1.4
			c-1.5-0.3-2.2,1.4-5.2,3.3c-2.3,1.5-2.9,1.1-4.8,2.6c-1.2,0.8-2.1,2-2.8,3.2c-0.7,1.7-0.9,3.6-0.5,5.4c0.2,1.5,0.4,1.4,0.5,2.5
			s-0.1,2.2-1.2,5c-1.7,4.2-2.3,4.3-2.2,5.9c0.2,1.3,0.6,2.5,1,3.7c0.7,2.3,0.9,2.7,0.8,3.7c-0.2,1.1-0.7,2.1-1.3,3
			c-1,2.1-1.5,2.1-1.5,2.9c0,1.8,2.4,2.8,2.1,3.6s-2.2,0.2-5.7,1c-1,0.1-1.9,0.5-2.7,1.1c-1,0.9-1.2,2.2-1.5,4s0,2.2-0.4,3.9
			c-0.3,1.1-0.4,1.1-0.8,2.6c-0.6,2.2-0.9,3.3-0.4,3.9c0.6,0.8,2,0.9,3.1,0.5c1.8-0.6,2.1-2.5,3-2.4c0.8,0.1,1.2,1.8,1.4,3
			c0.3,2.6-0.9,3.5-1.6,7.7c-0.3,1.7-0.1,1.9-0.5,2.6c-0.8,1.5-2.3,1.5-4.8,2.9c-1.5,0.9-2.9,2-4.2,3.1c-2.9,2.3-2.2,2.2-4.4,3.9
			c-1.7,1.3-2.4,1.6-2.4,2.4c-0.1,1.3,1.8,2.4,2.4,2.7c0.8,0.4,1.7,0.8,2.6,1c2.2,0.6,2.4,0.4,3,0.9c0.5,0.5,0.9,1.2,1,1.9
			c0.2,0.7,0.2,1.5,0,2.2c-0.3,1.4-1.4,3.2-2.5,3.1s-1.3-2-2.9-2.4c-0.8-0.1-1.7,0-2.4,0.4c-1.8,0.5-3.5,1.3-4.9,2.5
			c-1.5,1.4-1.4,2.2-3,3.1c-0.5,0.3-1.7,1-2.5,0.5c-0.5-0.3-0.5-0.7-1.2-1.8c-0.7-1.1-1.1-1.8-1.7-2c-1-0.4-1.8,0.6-4.9,2.4
			c-1.4,0.6-2.7,1.4-4,2.2c-0.9,0.5-1.8,1.2-2.4,2.1c-1.1,1.5-0.7,2.2-1.7,3.6c-0.9,1.1-2.4,2.5-3.4,2.1c-0.7-0.3-0.6-1.1-1.8-2.3
			c-0.5-0.5-1.1-0.9-1.8-1.1c-1.3-0.2-2.1,1.1-3.8,2.6c-1.3,1.1-2.7,2-4.1,2.9c-3.7,2.4-5.5,3.5-7.4,3.8c-1.1,0-2.2,0.3-3.1,1
			c-0.6,0.5-1.1,1.3-1.3,2.1c-0.5,1.7,0.4,2.6,0.8,4.8c0.3,1.5,0.3,3.1,0,4.6c-0.6,2.3-2,4.4-3.9,5.9c-1.3,1.1-1.5,0.8-5.6,2.9
			c-1.7,0.8-3.3,1.7-4.8,2.8c-1.9,1.4-3.6,3-5,4.9c-1.7,2.2-1.3,2.5-3.1,5.1c-1.8,2.6-2,2.2-5.5,6.3c-2.7,3.2-3.2,4.1-5.3,6.1
			c-1.1,1-2.3,1.9-3.6,2.6c-1.6,0.8-3.3,1.3-5.1,1.6c-1.2,0.1-2.4,0.3-3.6,0.6c-1,0.3-1.9,0.9-2.7,1.6c-1.4,1.3-1.3,2.6-2.2,4.6
			c-0.9,1.7-2.1,3.3-3.5,4.5c-2.8,2.7-3.8,2.2-6.5,4.6s-1.8,3-4.7,5.9c-1.9,2-4.2,3.6-6.7,4.8c-3.4,1.5-5.7,1.5-6,2.8
			c-0.2,1,0.9,1.5,1.5,3.8c0.3,1,0.3,2.1,0.2,3.2c-0.4,2.2-2.2,3.2-5.3,5.5c-4.9,3.6-3.3,3.3-7.7,6.4c-3.2,2.3-5,3.3-5.6,5.5
			c-0.1,1-0.3,2-0.6,3c-0.2,0.8-0.6,1.5-1.1,2.1s-1.1,1.1-1.8,1.4c-0.8,0.3-1,0-2.2,0.1c-1.4,0.2-2.8,0.7-4,1.5
			c-1.8,1.1-3.4,2.6-4.7,4.2c-1.7,1.9-1.8,1.4-7.3,5.6c-5.7,4.3-5.6,4.8-9.7,7.6c-2.3,1.5-4.7,2.8-7.2,4c-2.6,1.3-3.6,1.6-4.7,1.6
			c-1.7,0-3.2-0.7-5.6-1.9c-2.7-1.3-2.9-1.9-4.3-2c-1.6-0.1-3.1,0.5-4.3,1.5c-1.5,1.4-1,2.6-2.3,4.6c-1.1,1.6-2.8,2.8-4.6,3.5
			c-2.9,1.2-5.4,0.9-8.3,0.5c-2.9-0.4-3.2-0.9-6.5-1.2c-4-0.4-5.6,0.2-6.6,1c-0.5,0.3-0.9,0.6-1.2,1.1c-0.3,0.4-0.5,0.9-0.6,1.5
			c-0.1,0.9,0.6,1.3,2.3,3.8c0.7,1,1.4,2.1,2,3.1c0.6,1.2,1.1,2.4,1.3,3.7c0.1,0.6,0.2,2.2-1.7,6.3c-0.9,2-2,3.9-3.2,5.6
			c-3.1,4.6-3.8,3.9-5.4,6.9c-1.3,2.4-1.2,3.6-3.3,7c-1.7,3-2.5,3.2-2.8,3.1c-0.7-0.2-1-2.1-1-2.3c-0.1-1.1,0.2-1.4-0.1-1.9
			c-0.3-0.4-0.6-0.6-1-0.8s-0.9-0.2-1.3-0.1c-1.1,0.2-1.7,1.1-2.8,2.9s-1.2,2.6-2.3,4.3c-0.5,0.9-1.2,1.7-1.9,2.4
			c-1.7,1.5-3.1,1.2-5.8,2.2c-1.5,0.6-3,1.4-4.3,2.3c-2.6,1.8-4.9,4-6.8,6.5c-4.1,5.5-6.7,12-9.4,19c-5.7,14.7-4.8,13.6-6.7,17.4
			c-3.6,7.5-5.1,8.2-8.9,16.4c-2.2,4.4-3.9,9.1-5.3,13.8c-1.6,5.6-2.1,10.3-3,19.6c-0.9,9.2-1.2,16.6-1.2,18.2
			c-0.3,9.2,0.1,11.5-0.5,20.1c-0.3,4.7-0.5,6-1.1,11.9c-0.8,8.6-1.1,14.6-1.7,25.8c-0.8,15.7-1.2,23.5-1,28.2
			c0.5,6,0.6,12,0.5,18.1c-0.2,6.2-0.7,11.3-0.7,11.3c-0.7,6.6-1.1,7.1-1.2,10.9c0,3.9,0.4,7.8,0.9,11.7c0.6,5.3,0.9,4.9,1.1,7.9
			c0.5,5.6-0.2,6.6-0.1,13c0.1,7,1,6.8,0.9,12.7c-0.1,3.7-0.6,7.4-1.2,11.1c-0.4,3.5-1.1,7-2,10.5c-1.2,4.1-1.9,4.5-2.8,8.4
			c-0.7,2.7-1,5.4-0.9,8.1c0.1,2.8,0.6,2.5,1,6.6c0.3,4-0.1,4.9,0.8,6.8c0.5,1,0.7,1,2.3,4c0.7,1.1,1.1,2.3,1.2,3.6
			c0,0.7,0,1.3-0.2,1.9c-0.5,1.8-1.5,1.8-1.5,2.8s1,1.2,1.9,3.2c0.4,0.7,0.6,1.5,0.6,2.3c0,0.6-0.1,1.4-1.6,4.1
			c-0.6,1.3-1.4,2.4-2.3,3.5c-1.8,1.6-3.7,1.8-3.7,2.3c0.1,0.5,1,0.4,2,0.5c0.8,0.1,1.5,0.1,2.3,0c1.5-0.2,3-0.7,4.3-1.5
			C103.7,862.8,105,861.8,106.1,860.8z"/>
		<path class="st3" d="M626.9,224c0.1-0.4,0.1-0.8,0.1-1.1c-0.1-0.4-0.2-0.7-0.4-1.1c-0.5-0.6-1.4-0.5-3.6-0.5c-3.9,0-3.9-0.2-5,0.1
			c-1.5,0.4-3.1,0.7-3.6,1.8c-0.7,1.7,1.7,2.9,1.5,5.7c-0.1,2.4-1.8,2.5-2.4,5.1c-0.6,3,1.5,3.8,1.5,7.5c0,1.6-0.4,1.4-1.9,6.6
			c-1.3,4.5-1,4.5-1.9,7.1c-1.4,3.9-2.2,3.9-2.5,6.1c-0.2,1.8,0.3,2.2,2.1,7.4c1.6,4.8,1.3,4.8,2.7,8.8c0.7,1.6,1.2,3.1,1.7,4.8
			c0.5,2.4,1,4.7,0.2,6.9c-1.2,3.5-4.1,2.9-6.1,7.1c-1.1,2.3-0.5,3.1-1.9,5.1c-1.2,1.5-2.8,2.7-4.6,3.5c-3.2,1.8-4.6,1.5-6.1,3.3
			c-0.8,0.8-1.2,1.9-1.3,3c0,2,1.8,2.9,1.4,4.3c-0.3,0.8-1,0.8-2.4,2c-0.9,0.8-1.6,1.7-2.1,2.8"/>
		<path class="st3" d="M563.7,249c0.9,1.3,1.3,2.9,1.1,4.4c-0.6,2.7-3.7,4.1-8,6c-2.6,1.3-5.4,2.1-8.3,2.4c-0.5,0-0.4,0-6.8,0
			c-3.9,0-4.3,0-5,0.2c-2.5,0.9-2.4,2.3-5.6,4.4c-2.5,1.6-2.8,0.9-5,2.5c-1.8,1.3-1.7,1.8-4.7,4.9c-1.4,1.6-2.9,3-4.6,4.2
			c-3.4,2-5.3,1.3-6.1,2.9c-0.8,1.6,1.2,3.6,0.2,5.6c-0.6,1.2-1.7,1.2-3.6,2.3c-3.5,2-2.8,3.9-6.8,7.4c-1.8,1.7-3.9,3-6.2,3.8
			c-2.3,0.7-2.6,0.1-5.9,0.9c-2.4,0.5-4.6,1.4-6.5,2.9c-1.2,1-2.2,2.2-3,3.5c-1.6,2.2-2.4,3.4-2.6,5c0.1,2.1,0.4,4.3,1,6.4
			c0.5,2.6,0.6,2.7,0.5,3.2c-0.4,2.1-1.6,4-3.4,5.2c-1.3,1-1.9,0.8-3.1,2c-0.8,0.7-1.4,1.6-1.8,2.6c-0.7,1.9-0.7,4,0.1,5.8"/>
		<path class="st3" d="M456.7,305.6c-2.6,1-5,2.2-7.4,3.6c-4.2,2.5-5.7,4.3-9.4,5.2c-1.8,0.6-3.7,0.7-5.6,0.3
			c-1.5-0.3-1.9-0.7-7.2-4c-1-0.6-2.3-1.4-4.9-3.2c-2.9-1.9-3.6-2.4-4-3.4c-0.1-1.4,0-2.9,0.4-4.2c0.3-1.1,0.5-2.3,0.7-3.5
			c0-1.6-0.4-3.1-1.2-4.4"/>
		<path class="st3" d="M586.3,226.5c-1,1.1-2.2,2-3.4,2.9c-2.4,1.7-5.2,2.7-8.1,2.9c-1.2,0.1-0.8-0.1-5.2-0.5
			c-1.9-0.3-3.8-0.3-5.7-0.3c-1.2,0.1-1.9,0.4-6,2.2c-6.7,2.9-7.4,3.3-8.7,3c-2.4-0.5-2.6-2.5-5.1-2.8c-2.2-0.2-2.6,1.1-4.8,1.3
			c-2.9,0.1-5.4-2.2-8.4-5s-3.3-4.1-5.3-4.6c-1.4-0.4-2.7,0-5.4,0.7c-3.6,0.9-4.1,1.8-6.2,1.8c-1.7-0.1-3.3-0.6-4.8-1.4
			c-4.5-1.9-4.6-3.2-6.8-3.3c-2.2-0.1-1.9,1.1-6.7,2.6c-3.1,0.9-4.6,0.9-5.4,2.2s0.3,2.1-0.4,3.5c-1.1,2.3-5,2.5-5.9,2.5
			c-1.6,0-3.3-0.3-4.8-1c-1.2-0.6-2.4-1.3-3.3-2.3c-0.5-0.5-0.9-1-2.8-4.5c-1.6-2.7-1.8-3.3-2.4-3.4c-1.4-0.3-2,1.7-3.7,1.7
			s-2.4-1.7-3.7-4.1c-1.3-2.3-2.8-4.9-1.9-5.9c0.6-0.7,1.7,0.1,5.3,0c3.6-0.1,4.2-0.9,4.5-1.3c0.5-0.6,0.7-1.4,0.7-2.2
			c0-1.7-1.2-2.1-2.4-4.6c-1-2.1-0.6-3-1.6-3.5c-0.9-0.5-1.7,0.2-3.3,0.1c-1.2-0.1-2.4-0.7-3.3-1.5"/>
		<path class="st3" d="M431.7,46.4c0.8,2.1,1.8,4.1,3,6c1.7,2.7,3.7,5.3,5.9,7.6c3.6,3.9,4.4,3.7,5.8,6.1c1.5,2.3,2.2,5,1.9,7.8
			c-0.1,0.7-0.3,1-2.8,5.6s-2.7,4.9-2.7,5.7c0.2,2.3,2.5,3.8,5.9,6.1c2.4,1.6,3.6,2.4,5.4,2.4c2,0,3.5-1,6-2.6s2.6-2.3,5.3-3.9
			c2.2-1.4,3.4-2.1,4.9-1.9c1.9,0.2,3.1,1.8,4.3,3.2c2.2,2.8,1.6,3.8,3.2,5.9c2.4,3,4.5,1.6,7.5,4.5c2.9,2.9,2,5.9,4.9,7.3
			c1.7,0.8,3.4,0.6,5.7,0.3c4.8-0.7,5.7-2.8,8.4-2.2c2.3,0.5,2.1,2.1,4.9,2.7c0.6,0.1,1.3,0.2,6.1-0.5c4.2-0.6,4.7-0.7,5.5-0.3
			c0.9,0.4,1.6,1.2,3.4,4.7c1.3,2.5,1.8,3.9,2.8,5.9c3.2,7.1,4.4,8.2,5.6,8.9c1.2,0.7,1.7,0.5,2.8,1.5c1.4,1.2,2.5,2.9,2.9,4.7
			c1.1,4.6-2.9,6.3-2.4,11.5c0.2,2.4,1,1.9,2.1,6.7c0.8,3.3,1.2,5,0.8,7.1c-0.5,2.7-2.1,4.4-4.6,7c-2.1,2.5-4.7,4.5-7.6,5.9
			c-4.8,2.2-7.9,1.1-8.8,3.1c-0.9,2,1.5,3.1,1.2,6.6c-0.1,1.5-0.9,2.9-2.5,5.6c-1.1,2.1-2.5,4.2-4,6.1c-2.8,3.4-4.8,5.7-7.6,5.9
			c-2.4,0.2-3.1-1.2-5.2-0.5c-2,0.7-1.9,2.1-4,3.8c-3.6,2.9-8.6,2.3-9.6,2.2c-1.6-0.2-1.3-0.5-6.3-1.7c-1.7-0.4-3.3-0.8-5-1.1
			c-3.5-0.5-4.5,0.1-7.1-0.5c-1.5-0.3-2.9-0.7-4.3-1.4"/>
		<path class="st3" d="M280.4,476.7c0.5-0.9,0.8-1.8,0.8-2.8s-0.1-2-0.5-2.9c-0.5-1.1-1.3-1.9-2.2-2.5c-1-0.6-2.1-0.9-3.3-0.9
			c-1.5,0.2-2,1.1-3.2,1c-1.2-0.2-2.1-1.7-2.7-2.8c-4.3-7.9-5.1-7.5-5.9-10.9c-0.6-2.7-1-4.3-0.1-5.9c1.1-2,2.9-1.9,4.6-4.6
			c0.7-1.1,1.2-2.4,1.4-3.7c0.2-1.2,0.1-2.4-1.3-6.5c-0.6-1.9-1.1-3.3-2.1-5.6c-0.8-1.9-2-4.4-3.6-7.3"/>
		<path class="st3" d="M302.6,486.1c0.4,1.5,1.2,2.9,2.3,4c1.6,1.7,2.7,1.4,4.4,3c1.4,1.3,1.9,2.8,3,6c0.8,2.1,1.3,4.2,1.5,6.4
			c0.1,1.7,0,3.5-0.3,5.2c-0.2,2.7-1,5.3-2.2,7.7c-1.4,2.4-3.3,4.5-5.5,6.1c-3.5,2.5-5.5,2.2-6.8,4.6c-0.5,1.4-0.9,3-0.9,4.5
			c-0.4,3.3,0,4-0.7,6.1c-0.5,1.3-1,2.6-1.7,3.9c-0.9,1.4-1.6,2.8-2.1,4.3c-0.3,1.3-0.4,2.6-0.2,3.9"/>
		<path class="st3" d="M250.9,540c-2.4-1.2-4.5-2.8-6.3-4.7c-1.5-1.7-1.6-2.5-3.7-4.9c-1.2-1.4-1.4-1.4-4.3-4.4
			c-2-1.9-3.8-3.9-5.5-6.1c-1.9-2.6-2.8-3.9-2.7-5.5c0.2-2.3,2.1-2.6,3.9-5.5c2.4-4.1,0-6,2.2-10.1c1.6-3,2.9-1.9,7-6.7
			c2.3-2.3,4-5.1,5-8.2c0.7-2,1-4.1,0.8-6.2c-0.2-2.9-1.2-5-3.2-9c-1-2.1-2.1-4.1-3.4-5.9c-1.8-2.7-2.3-2.7-2.9-4.3
			c-1.1-2.6-0.3-3.7-1.6-6.2c-0.7-1.2-1.5-2.2-2.5-3.2c-1.2-1.3-2.9-3.3-4.9-5.9"/>
		<path class="st3" d="M219.7,548.9c-1.7-0.7-3.2-2-4.1-3.6c-0.6-1.3-0.6-2.2-0.6-7.6c0-4.8,0-5.5-0.4-6.8c-0.5-1.8-1.4-3.5-2.8-4.8
			c-0.8-0.6-1.6-1.2-2.5-1.7c-1.7-1.2-4.2-3-4.8-5.6c-0.3-1.5,0.3-1.7-0.1-3.2c-0.5-1.8-1.7-3.3-3.3-4.3c-1.4-0.7-3-1.2-4.5-1.3
			c-3.4-0.7-5.1-1-6.6-0.8c-2,0.4-3.8,1.2-5.5,2.3c-3,1.6-3.8,2.6-4.7,2.3c-1.2-0.5-0.2-2.5-1.8-5c-0.5-0.8-0.7-0.8-4.3-3.5
			c-3.5-2.8-3.9-3.3-4.4-4.1c-0.5-1.1-0.8-2.3-1.1-3.5c-0.5-1.6-0.8-3-1.1-3.9"/>
		<path class="st3" d="M193.3,598.8c-2.9,1-5.1,1.9-6.5,2.5c-5.4,2.1-6.9,2.8-9,2.3c-2.2-0.5-2-1.3-3.9-1.5c-2.9-0.2-3.8,1.8-6,1.5
			c-2.2-0.4-1.8-2.1-4.7-4.3c-2.2-1.5-4.8-2.5-7.5-3c-3.1-0.7-3.5-0.1-5.6-0.9c-2.5-1-2.6-1.9-5-2.9c-2.9-1.1-3.6-0.1-5.9-1
			c-2.6-1-2.4-2.6-6.2-6.9c-2.9-3.2-3.2-2.5-6.4-6.2c-1.3-1.7-2.8-3.3-4.3-4.8c-1.2-1.2-2.5-2.3-3.9-3.3c-1.7-1.3-3.6-2.4-5.5-3.4"
			/>
		<path class="st3" d="M154.1,676.7c-2.3-3.7-4.3-6.5-5.7-8.4c-2.8-3.7-3.4-4.1-4.1-6c-1.4-3.9,0.1-6-1.8-8.4
			c-1-1.3-2.3-1.8-4.9-2.7c-4.8-1.7-6.3-0.6-10.8-2.3c-3-1.1-2.8-1.7-5-2.2c-2.8-0.6-5.8-0.2-8.4,1.1c-1.5,0.9-1.5,1.3-3,2.1
			c-2.2,1.2-4.7,1.8-7.2,1.6"/>
		<path class="st3" d="M171.7,688.5c-1.5,1.1-2.9,2.4-4.2,3.8c-2,1.9-3.6,4.2-4.7,6.7c-1.3,3-0.4,3.5-1.5,7.9
			c-1.3,6.5-5.1,12.2-10.5,16c-1.9,1.2-4,2.3-6.1,3.3c-3.1,1.7-5.3,3.1-9.2,5.5c-5,3.2-4.2,2.9-6.1,4c-4.1,2.3-5.1,2-10.2,4.6
			c-2.5,1.3-4.2,2.3-6.3,3.6c-3.2,2-4.9,3-6.1,4.4c-1,1.2-2,2.4-3.1,3.5c-0.9,0.9-2,1.8-3.1,2.5"/>
		<path class="st3" d="M236.9,658c-0.2,0.8-0.5,1.6-0.9,2.3c-1,1.5-2.1,2-4.5,3.7c-1.7,1.2-1.4,1.2-3,2.4c-1.7,1.2-3.5,2.4-5.4,3.3
			c-4.7,2.5-5.6,2.1-6.9,3.7c-1,1.3-1.6,2.9-1.8,4.6c-0.3,1.6-0.2,3.3,0.4,4.9c1.1,2.6,2.9,2.5,3.3,4.5c0.3,1.3-0.5,1.7-2,5.3
			c-1.5,3.7-1,3.7-2.2,6.1c-1.6,3.3-2.8,3.5-2.9,5.4c-0.1,2.2,1.2,4.6,2.9,5c0.9,0.2,1.1-0.5,2.5-0.6c2.2-0.2,4,1.2,5.5,2.3
			c2.2,1.6,1.9,2.2,2.9,2.5c1.7,0.3,2.4-1.1,6.1-2.4c1.3-0.4,2.6-0.7,3.9-0.9c1.6-0.2,3.3-0.2,4.9,0c2.1,0.3,4.1,1,5.9,2"/>
		<path class="st3" d="M165.4,672.6c0.7,0.6,1.4,1.4,1.9,2.2c1.2,1.8,1.1,2.8,2,3.5c1.5,1.2,4,0.3,5.2-0.2c4.1-1.5,3.9-3.9,8.2-5.6
			c1.8-0.7,2.9-0.7,3.6-1.9c0.6-1.1,0-2.2,0.1-4.4c0-1.7,0.5-3.4,1.4-4.8c2.2-2.9,6.1-0.9,8.1-3.6c1.5-1.9-0.1-3.3,1.5-5.9
			c0.9-1.5,2.6-2.4,6-4.1c3.4-1.7,3.5-1.4,5.9-2.8c3.4-1.9,6.4-3.5,7-6.2c0.3-1.5-0.3-2,0.3-3.3c0.3-0.6,0.9-1.5,4.5-3.3
			s4.1-1.4,4.8-2.4c1.5-2-0.3-3.9,1.1-6.1c1-1.6,2.2-1,5.9-3.2c2-1,3.8-2.4,5.2-4.1c1.3-1.8,0.8-2.3,2.8-6.2c2-4,3-4.5,3.5-4.7
			c1.4-0.4,2.8-0.5,4.3-0.3c1.8,0.2,1.9,0.4,2.8,0.3c0.9-0.1,1.8-0.5,2.5-1.1s1.3-1.3,1.6-2.2c0.9-2.3-0.9-3.4-0.1-5.5
			c0.9-2.1,3.2-1.8,3.9-4c0.1-0.4,0.3-1-0.7-4.2c-1-3.5-1.6-4-2-5.7c-0.5-2.3-0.3-4.8,0.4-7c0.8-3,2-5.8,3.8-8.4
			c1.4-2.7,3.3-5.1,5.6-7.2c1.5-1.4,3.3-2.5,5.1-3.4c1.3-0.6,1.5-0.5,5-1.8c2.2-0.8,2.4-0.9,6.2-2.3c3.4-1.2,4.7-1.6,6.4-1.5
			c1.3,0,2.6,0,3.9,0.2"/>
		<path class="st4" d="M293.2,551.7c1.8,0.4,3.5,1,5.1,1.9c1.4,1,2.6,2.1,3.7,3.4c1.4,1.3,3,2.5,4.7,3.5c0.8,0.6,1.7,1,2.7,1.3
			c2.2,0.2,2.8-1.7,5-2c1.5-0.2,2.8,0.6,5.2,2.1c3.6,2.2,3.7,3.7,5.8,3.9c1.7,0.2,2.4-0.8,4.1-0.2c0.9,0.5,1.8,1.1,2.6,1.8
			c1.8,1.5,1.6,1.7,2.3,2c1.6,0.7,2.5-0.7,6-1.5c1.8-0.4,3.7-0.5,5.5-0.3c1.5,0.2,2.9,0.6,4.3,1c1.7,0.4,3.4,0.7,5.2,1"/>
	</g>
</g>
</svg>
